<svg xmlns="http://www.w3.org/2000/svg" width="800" height="800" viewBox="0 0 800 800">
    <path fill="#F6F7F9" d="M0 0h800v800H0z"/>
    <g fill="#E0BD5A">
        <path fill-rule="evenodd" clip-rule="evenodd" d="M704.805 399.32c.71-.022 1.424-.045 2.137-.07.47-.014 1.12-.066 1.422-.487a.992.992 0 0 0 .123-.216c.253-.647-.697-.92-1.223-.93l-.53-.01c-1.66-.028-3.318-.06-4.975-.09-1.07-.02-2.143-.038-3.21-.06a.958.958 0 0 0-.975.938l-.005.158c-.01.53.41.963.94.974l5.26-.173c.346-.01.69-.022 1.035-.033M708.445 400.614a.494.494 0 0 0 .064-.133c.294-1.056-1.748-.755-2.223-.738-1.622.05-3.24.098-4.858.15-.98.028-1.952.056-2.93.086a.955.955 0 0 0-.972.937l-.003.16c-.01.53.41.966.937.974 1.755-.056 6.925-.716 7.74-.802a21.42 21.42 0 0 0 1.238-.165c.274-.046.818-.192 1.005-.47z"/>
        <g fill-rule="evenodd" clip-rule="evenodd">
            <path d="M723.926 419.524c-.622-.307-.978.614-1.03 1.137-.02.178-.037.355-.058.532-.173 1.648-.35 3.297-.527 4.948-.11 1.062-.223 2.127-.337 3.19a.96.96 0 0 0 .85 1.052l.158.017a.954.954 0 0 0 1.05-.85c.097-1.75.194-3.504.286-5.254.06-1.057.12-2.113.176-3.17.026-.473.03-1.12-.363-1.462a1.22 1.22 0 0 0-.204-.14zM725.773 419.726a.665.665 0 0 0-.13-.08c-1.024-.38-.903 1.68-.93 2.152l-.277 4.853c-.057.976-.112 1.95-.167 2.926a.955.955 0 0 0 .848 1.05l.16.017a.955.955 0 0 0 1.05-.848c.097-1.75-.106-6.96-.123-7.78a18.63 18.63 0 0 0-.055-1.25c-.02-.274-.12-.83-.377-1.04z"/>
        </g>
        <path d="M722.94 428.882c-.622-1.277-.16-2.753-.03-4.087.055-.56.13-1.118.182-1.682.04-.427-.094-1.712.163-2.03-.84 1.043-1.266 2.065-1.78 3.033-.56 1.044-1.124 2.08-1.88 2.996-.498.604-1.147.94-1.927.64-.75-.286-.752-.984-.716-1.646.028-.61.082-1.21.275-1.803.523-1.614 1-3.242 1.495-4.866-.415.216-.69.518-.957.828-1.138 1.334-2.147 2.782-3.49 3.933-.617.527-1.295 1.082-2.14.516-.816-.55-.67-1.35-.394-2.157.324-.945.8-1.808 1.268-2.683.543-1.015 1.255-1.95 1.69-3.372-.524.423-.816.656-1.106.89-1.457 1.167-2.812 2.474-4.497 3.33-.593.3-1.234.468-1.81-.067-.604-.563-.526-1.22-.175-1.88.502-.948 1.16-1.785 1.86-2.597.79-.913 1.55-1.847 2.32-2.77-.656.067-1.12.323-1.596.557-1.567.772-3.024 1.783-4.765 2.178-.637.144-1.212.108-1.647-.445-.493-.634-.258-1.23.14-1.785.532-.755 1.226-1.35 1.934-1.938 1.044-.87 2.25-1.545 3.192-2.59-.362-.195-.624-.047-.914.022-1.838.443-3.59 1.25-5.512 1.36-.793.045-1.562-.02-1.863-.942-.277-.86.307-1.372.863-1.817 1.197-.96 2.604-1.572 3.97-2.245.578-.282 1.207-.51 1.708-1.104a26.15 26.15 0 0 0-2.633.115c-1.285.114-2.583.397-3.877.156-.73-.135-1.552-.27-1.754-1.212-.187-.875.372-1.33 1-1.738.182-.26.416-.436.74-.46 1.534-.118 3.05-.364 4.573-.568.325-.042 1.313-.304 1.35.298-1.745.51-4.04 1.07-5.608 2.043a39.97 39.97 0 0 0 3.92.17c1.024-.002 2.052-.3 3.074-.04.49.12 1.152.056 1.307.73.146.634-.35.997-.793 1.27-1.492.917-3.02 1.775-4.52 2.686-.518.312-1.135.533-1.48 1.177 1.8-.1 3.42-.68 5.082-1.06.814-.188 1.63-.396 2.477-.344.975.06 1.228.508.703 1.348-.236.378-.587.696-.91 1.017-1.476 1.46-3.263 2.593-4.53 4.312.668-.16 1.295-.39 1.908-.648 1.615-.677 3.132-1.574 4.808-2.114.473-.154.895-.226 1.268.164.414.437.13.866-.086 1.257-.766 1.373-1.83 2.53-2.774 3.775-.532.707-1.124 1.378-1.55 2.408 1.187-.64 2.08-1.28 2.963-1.945 1.1-.818 2.12-1.746 3.387-2.315.394-.18.78-.375 1.166-.037.377.33.3.76.17 1.17-.36 1.13-.96 2.15-1.474 3.216-.553 1.146-1.255 2.237-1.548 3.57.61-.217.938-.656 1.3-1.035 1.216-1.266 2.402-2.56 3.618-3.823.423-.44.935-.982 1.572-.564.565.373.49 1.058.315 1.68-.185.658-.35 1.32-.5 1.985-.35 1.515-.936 2.978-1.03 4.658.657-.412.914-.98 1.23-1.482.9-1.42 1.76-2.855 2.646-4.28.312-.497.726-1.02 1.354-.85.69.185.778.88.764 1.505-.03 1.403-1.3 8.422-1.49 8.027z"/>
    </g>
    <path fill="#009CDE" d="M691.444 390.92l7.84-6.938 8.603 12.326-2.22 2.81-2.084-1.973-2.34 2.914-4.944-2.205z"/>
    <path fill="#C40202" d="M696.338 570.093s-2.914-2.002-2.914-4.915c0 0-7.65 10.197-2.55 25.68 0 0 6.557 15.843 21.308 18.758 0 0 11.475 1.82 19.123-1.64 0 0 16.757-6.922 17.668-24.042 0 0 .546-4.917-3.098-11.655 0 0-4.37-13.48-2.73-18.395 0 0-6.192.91-10.018 8.923 0 0-3.097-22.946-23.494-29.686 0 0 4.37 6.376.182 15.48 0 0-4.006 4.736-6.737 8.196 0 0-6.376 10.197-6.74 13.295z"/>
    <path fill="#E0BD5A" d="M706.65 583.27s-1.72-1.183-1.72-2.9c0 0-4.515 6.017-1.504 15.153 0 0 3.87 9.35 12.574 11.07 0 0 6.77 1.074 11.285-.97 0 0 9.89-4.083 10.427-14.187 0 0 .322-2.9-1.828-6.878 0 0-2.578-7.954-1.61-10.855 0 0-3.655.537-5.912 5.266 0 0-1.828-13.542-13.865-17.52 0 0 2.58 3.763.107 9.136 0 0-2.364 2.795-3.977 4.837 0 0-3.76 6.017-3.976 7.846z"/>
    <path fill="#DFE4E7" d="M536.523 721.807H360.4v5.216h176.38l-1.28-.773 2.5-2.375zM670.657 721.807H546.523l1.852 1.693-.25 3.523h122.532z"/>
    <g fill="#BBC3C9">
        <circle cx="528.208" cy="262.736" r="30.765"/>
        <path d="M527.393 293.502c0 14.75 11.962 26.714 26.713 26.714 14.752 0 26.716-11.963 26.716-26.714 0-14.753-11.964-26.715-26.716-26.715s-26.713 11.962-26.713 26.715z"/>
        <path d="M508.02 293.502c0 11.146 9.04 20.187 20.19 20.187 11.144 0 20.187-9.042 20.187-20.188 0-11.146-9.043-20.188-20.188-20.188-11.148 0-20.19 9.04-20.19 20.188z"/>
        <path d="M506.39 323.45c0 11.593 9.41 21.004 21.003 21.004s21.005-9.41 21.005-21.005c0-11.593-9.412-21.002-21.005-21.002s-21.004 9.41-21.004 21z"/>
        <path d="M504.73 344.454c0 7.57 6.147 13.717 13.718 13.717 7.57 0 13.717-6.145 13.717-13.716s-6.147-13.72-13.717-13.72-13.718 6.15-13.718 13.72z"/>
    </g>
    <g fill="#BBC3C9">
        <circle cx="318.259" cy="106.865" r="23.987"/>
        <circle cx="298.065" cy="130.853" r="20.829"/>
        <path d="M333.998 130.853c0 8.69-7.05 15.74-15.74 15.74-8.69 0-15.74-7.05-15.74-15.74s7.05-15.74 15.74-15.74c8.69 0 15.74 7.05 15.74 15.74z"/>
        <path d="M335.27 154.203c0 9.04-7.337 16.377-16.376 16.377s-16.377-7.338-16.377-16.377c0-9.038 7.338-16.375 16.377-16.375s16.377 7.337 16.377 16.375z"/>
        <path d="M336.564 170.58c0 5.902-4.793 10.695-10.695 10.695s-10.696-4.793-10.696-10.695 4.793-10.696 10.695-10.696 10.694 4.794 10.694 10.696z"/>
    </g>
    <path fill="#139AD6" d="M668.166 102.748h2v241.43h-2z"/>
    <path fill="#DFE4E7" d="M655.605 108.03L368.69 169.42l-5.312-13.297 286.913-61.39z"/>
    <path fill="#768692" d="M405.77 135.402h24.996v56.24H405.77z"/>
    <circle fill="#009CDE" cx="418.298" cy="148.827" r="20.659"/>
    <circle fill="#DFE4E7" cx="418.298" cy="148.827" r="14.116"/>
    <path fill="#009CDE" d="M374.117 169.613a8.038 8.038 0 0 1-5.74 9.818 8.036 8.036 0 0 1-9.816-5.734l-4.274-16.3c-1.127-4.298 1.44-8.696 5.735-9.82a8.04 8.04 0 0 1 9.82 5.74l4.277 16.297z"/>
    <circle fill="#009CDE" cx="652.948" cy="102.748" r="17.103"/>
    <path fill="#DFE4E7" d="M664.633 102.748c0 6.457-5.23 11.69-11.685 11.69-6.454 0-11.692-5.233-11.692-11.69 0-6.453 5.238-11.688 11.692-11.688 6.455 0 11.685 5.235 11.685 11.688z"/>
    <path fill="#F6F7F9" d="M711.042 510.912c0 8.14-7.5 14.73-16.74 14.73H498.698c-9.234 0-16.733-6.59-16.733-14.73s7.5-14.736 16.733-14.736h195.604c9.24 0 16.74 6.595 16.74 14.736z"/>
    <path fill="#009CDE" d="M480.336 510.912c0-9.022 8.236-16.364 18.36-16.364h195.605c10.132 0 18.37 7.342 18.37 16.364 0 9.02-8.238 16.36-18.37 16.36H498.698c-10.125 0-18.36-7.34-18.36-16.36zm18.36-13.104c-8.327 0-15.1 5.88-15.1 13.104 0 7.225 6.772 13.1 15.1 13.1h195.605c8.33 0 15.11-5.875 15.11-13.1 0-7.226-6.78-13.104-15.11-13.104H498.698z"/>
    <g fill="#768692">
        <path d="M515.095 511.735c0-.25.082-.58.082-.83s0-.58-.082-.83l1.742-1.245c.165-.082.25-.332.083-.58l-1.66-2.904c-.083-.25-.332-.332-.497-.25l-1.993.913a5.275 5.275 0 0 0-1.492-.83l-.25-2.158c0-.25-.165-.415-.415-.415h-3.32c-.248 0-.414.165-.414.415l-.25 2.075c-.58.25-1.078.497-1.492.83l-1.993-.83c-.165-.083-.414 0-.497.165l-1.66 2.904c-.167.25-.167.5.083.582l1.743 1.327c0 .25-.082.58-.082.83s0 .58.083.83l-1.742 1.245c-.165.082-.25.332-.082.58l1.66 2.904c.083.25.332.332.497.25l1.993-.913c.414.334.994.664 1.492.83l.25 2.158c0 .25.165.415.414.415h3.32c.25 0 .415-.165.415-.415l.248-2.157c.58-.25 1.077-.496 1.492-.83l1.993.913c.165.083.414 0 .497-.165l1.66-2.904a.516.516 0 0 0-.083-.582l-1.742-1.327zm-6.142 2.49c-1.825 0-3.32-1.494-3.32-3.32s1.495-3.318 3.32-3.318 3.32 1.494 3.32 3.32-1.495 3.318-3.32 3.318zM548.876 511.735c0-.25.082-.58.082-.83s0-.58-.082-.83l1.742-1.245c.165-.082.25-.332.083-.58l-1.66-2.904c-.082-.25-.33-.332-.496-.25l-1.993.913a5.275 5.275 0 0 0-1.49-.83l-.25-2.158c0-.25-.166-.415-.416-.415h-3.32c-.248 0-.414.165-.414.415l-.25 2.075c-.58.25-1.077.497-1.49.83l-1.994-.83c-.165-.083-.414 0-.497.165l-1.66 2.904c-.168.25-.168.5.082.582l1.742 1.327c0 .25-.082.58-.082.83s0 .58.082.83l-1.742 1.245c-.166.082-.25.332-.083.58l1.66 2.904c.082.25.33.332.496.25l1.993-.913c.413.334.993.664 1.49.83l.25 2.158c0 .25.166.415.415.415h3.32c.25 0 .415-.165.415-.415l.25-2.157c.58-.25 1.076-.496 1.49-.83l1.994.913c.165.083.414 0 .497-.165l1.66-2.904a.516.516 0 0 0-.082-.582l-1.742-1.327zm-6.142 2.49c-1.825 0-3.32-1.494-3.32-3.32s1.495-3.318 3.32-3.318 3.32 1.494 3.32 3.32-1.494 3.318-3.32 3.318zM582.658 511.735c0-.25.082-.58.082-.83s0-.58-.082-.83l1.742-1.245c.165-.082.25-.332.083-.58l-1.66-2.904c-.083-.25-.332-.332-.497-.25l-1.993.913a5.275 5.275 0 0 0-1.492-.83l-.248-2.158c0-.25-.166-.415-.416-.415h-3.32c-.248 0-.414.165-.414.415l-.25 2.075c-.58.25-1.077.497-1.49.83l-1.994-.83c-.165-.083-.414 0-.497.165l-1.66 2.904c-.166.25-.166.5.084.582l1.742 1.327c0 .25-.082.58-.082.83s0 .58.082.83l-1.742 1.245c-.166.082-.25.332-.083.58l1.66 2.904c.084.25.333.332.498.25l1.993-.913c.415.334.995.664 1.493.83l.25 2.158c0 .25.165.415.414.415h3.32c.25 0 .415-.165.415-.415l.25-2.157c.58-.25 1.076-.496 1.49-.83l1.994.913c.165.083.414 0 .497-.165l1.66-2.904a.516.516 0 0 0-.083-.582l-1.742-1.327zm-6.14 2.49c-1.826 0-3.32-1.494-3.32-3.32s1.494-3.318 3.32-3.318 3.318 1.494 3.318 3.32-1.494 3.318-3.32 3.318zM616.44 511.735c0-.25.08-.58.08-.83s0-.58-.08-.83l1.74-1.245c.166-.082.25-.332.084-.58l-1.66-2.904c-.083-.25-.332-.332-.497-.25l-1.993.913a5.275 5.275 0 0 0-1.492-.83l-.25-2.158c0-.25-.165-.415-.415-.415h-3.32c-.248 0-.414.165-.414.415l-.25 2.075c-.58.25-1.077.497-1.49.83l-1.994-.83c-.166-.083-.415 0-.498.165l-1.66 2.904c-.167.25-.167.5.083.582l1.742 1.327c0 .25-.082.58-.082.83s0 .58.082.83l-1.742 1.245c-.166.082-.25.332-.083.58l1.66 2.904c.083.25.332.332.497.25l1.992-.913c.414.334.994.664 1.492.83l.25 2.158c0 .25.165.415.414.415h3.32c.25 0 .415-.165.415-.415l.25-2.157c.58-.25 1.076-.496 1.49-.83l1.994.913c.165.083.414 0 .497-.165l1.66-2.904a.516.516 0 0 0-.083-.582l-1.74-1.327zm-6.142 2.49c-1.825 0-3.32-1.494-3.32-3.32s1.495-3.318 3.32-3.318 3.32 1.494 3.32 3.32-1.495 3.318-3.32 3.318zM650.222 511.735c0-.25.082-.58.082-.83s0-.58-.082-.83l1.742-1.245c.165-.082.25-.332.083-.58l-1.66-2.904c-.083-.25-.332-.332-.497-.25l-1.993.913a5.275 5.275 0 0 0-1.492-.83l-.25-2.158c0-.25-.165-.415-.415-.415h-3.32c-.248 0-.414.165-.414.415l-.25 2.075c-.58.25-1.077.497-1.49.83l-1.994-.83c-.165-.083-.414 0-.497.165l-1.66 2.904c-.167.25-.167.5.083.582l1.742 1.327c0 .25-.082.58-.082.83s0 .58.082.83l-1.742 1.245c-.166.082-.25.332-.083.58l1.66 2.904c.083.25.332.332.497.25l1.993-.913c.414.334.994.664 1.492.83l.25 2.158c0 .25.165.415.414.415h3.32c.25 0 .416-.165.416-.415l.25-2.157c.58-.25 1.076-.496 1.49-.83l1.994.913c.165.083.414 0 .497-.165l1.66-2.904a.516.516 0 0 0-.083-.582l-1.742-1.327zm-6.142 2.49c-1.825 0-3.32-1.494-3.32-3.32s1.495-3.318 3.32-3.318 3.32 1.494 3.32 3.32-1.495 3.318-3.32 3.318zM684.004 511.735c0-.25.082-.58.082-.83s0-.58-.082-.83l1.742-1.245c.164-.082.25-.332.082-.58l-1.66-2.904c-.082-.25-.332-.332-.496-.25l-1.994.913a5.262 5.262 0 0 0-1.492-.83l-.248-2.158c0-.25-.166-.415-.416-.415h-3.32c-.248 0-.414.165-.414.415l-.25 2.075c-.58.25-1.078.497-1.492.83l-1.992-.83c-.166-.083-.414 0-.498.165l-1.66 2.904c-.166.25-.166.5.084.582l1.742 1.327c0 .25-.082.58-.082.83s0 .58.082.83l-1.742 1.245c-.166.082-.25.332-.084.58l1.66 2.904c.084.25.332.332.498.25l1.992-.913c.414.334.994.664 1.492.83l.25 2.158c0 .25.166.415.414.415h3.32c.25 0 .416-.165.416-.415l.248-2.157c.58-.25 1.078-.496 1.492-.83l1.994.913c.164.083.414 0 .496-.165l1.66-2.904a.518.518 0 0 0-.082-.582l-1.742-1.327zm-6.143 2.49c-1.823 0-3.317-1.494-3.317-3.32s1.494-3.318 3.318-3.318c1.827 0 3.32 1.494 3.32 3.32s-1.492 3.318-3.32 3.318z"/>
    </g>
    <path fill="#F6F7F9" d="M330.533 464.232c0 8.14-7.5 14.73-16.74 14.73H78.19c-9.235 0-16.735-6.59-16.735-14.73s7.5-14.736 16.734-14.736h235.603c9.24 0 16.74 6.596 16.74 14.736z"/>
    <g fill="#768692">
        <path d="M134.586 465.056c0-.25.082-.58.082-.83s0-.58-.082-.83l1.742-1.245c.164-.08.25-.33.082-.58l-1.66-2.903c-.082-.25-.332-.332-.496-.25l-1.994.913a5.262 5.262 0 0 0-1.492-.83l-.248-2.157c0-.25-.166-.415-.416-.415h-3.32c-.248 0-.414.165-.414.415l-.25 2.075c-.58.25-1.078.497-1.492.83l-1.992-.83c-.166-.083-.414 0-.498.165l-1.66 2.904c-.166.25-.166.5.084.582l1.742 1.326c0 .25-.082.58-.082.83s0 .58.082.83l-1.742 1.245c-.166.083-.25.333-.084.58l1.66 2.905c.084.25.332.332.498.25l1.992-.913c.414.333.994.663 1.492.83l.25 2.157c0 .25.166.414.414.414h3.32c.25 0 .416-.165.416-.415l.248-2.158c.58-.25 1.078-.497 1.492-.83l1.994.912c.164.083.414 0 .496-.165l1.66-2.905a.518.518 0 0 0-.082-.582l-1.742-1.327zm-6.143 2.49c-1.824 0-3.318-1.495-3.318-3.32s1.494-3.32 3.318-3.32c1.826 0 3.32 1.495 3.32 3.32s-1.493 3.32-3.32 3.32zM100.804 465.056c0-.25.082-.58.082-.83s0-.58-.082-.83l1.742-1.245c.165-.08.25-.33.083-.58l-1.66-2.903c-.084-.25-.333-.332-.498-.25l-1.993.913a5.275 5.275 0 0 0-1.493-.83l-.25-2.157c0-.25-.165-.415-.415-.415h-3.32c-.248 0-.414.165-.414.415l-.25 2.075c-.58.25-1.077.497-1.49.83l-1.994-.83c-.165-.083-.414 0-.497.165l-1.66 2.904c-.167.25-.167.5.083.582l1.742 1.326c0 .25-.082.58-.082.83s0 .58.082.83L86.78 466.3c-.166.083-.25.333-.083.58l1.66 2.905c.083.25.332.332.497.25l1.993-.913c.414.333.994.663 1.492.83l.248 2.157c0 .25.166.414.415.414h3.32c.25 0 .415-.165.415-.415l.25-2.158c.58-.25 1.076-.497 1.49-.83l1.994.912c.165.083.414 0 .497-.165l1.66-2.905a.516.516 0 0 0-.084-.582l-1.742-1.327zm-6.142 2.49c-1.825 0-3.32-1.495-3.32-3.32s1.495-3.32 3.32-3.32 3.32 1.495 3.32 3.32-1.495 3.32-3.32 3.32zM168.367 465.056c0-.25.082-.58.082-.83s0-.58-.083-.83l1.742-1.245c.163-.08.25-.33.08-.58l-1.66-2.903c-.08-.25-.33-.332-.495-.25l-1.994.913a5.262 5.262 0 0 0-1.49-.83l-.25-2.157c0-.25-.165-.415-.415-.415h-3.32c-.248 0-.414.165-.414.415l-.25 2.075c-.58.25-1.077.497-1.49.83l-1.993-.83c-.166-.083-.414 0-.498.165l-1.66 2.904c-.167.25-.167.5.083.582l1.742 1.326c0 .25-.082.58-.082.83s0 .58.082.83l-1.742 1.245c-.166.083-.25.333-.084.58l1.66 2.905c.083.25.33.332.497.25l1.992-.913c.413.333.993.663 1.49.83l.25 2.157c0 .25.167.414.415.414h3.32c.25 0 .416-.165.416-.415l.25-2.158c.58-.25 1.077-.497 1.49-.83l1.995.912c.164.083.414 0 .496-.165l1.66-2.905a.518.518 0 0 0-.08-.582l-1.743-1.327zm-6.142 2.49c-1.824 0-3.318-1.495-3.318-3.32s1.494-3.32 3.318-3.32c1.826 0 3.32 1.495 3.32 3.32s-1.494 3.32-3.32 3.32zM202.148 465.056c0-.25.082-.58.082-.83s0-.58-.082-.83l1.742-1.245c.166-.08.25-.33.084-.58l-1.66-2.903c-.084-.25-.332-.332-.498-.25l-1.992.913a5.29 5.29 0 0 0-1.492-.83l-.25-2.157c0-.25-.166-.415-.416-.415h-3.318c-.25 0-.416.165-.416.415l-.248 2.075c-.58.25-1.078.497-1.492.83l-1.994-.83c-.164-.083-.414 0-.496.165l-1.66 2.904c-.168.25-.168.5.082.582l1.742 1.326c0 .25-.082.58-.082.83s0 .58.082.83l-1.742 1.245c-.166.083-.25.333-.082.58l1.66 2.905c.082.25.332.332.496.25l1.994-.913c.414.333.994.663 1.492.83l.248 2.157c0 .25.166.414.416.414h3.318c.25 0 .416-.165.416-.415l.25-2.158c.58-.25 1.076-.497 1.492-.83l1.992.912c.166.083.414 0 .498-.165l1.66-2.905a.515.515 0 0 0-.084-.582l-1.742-1.327zm-6.14 2.49c-1.826 0-3.32-1.495-3.32-3.32s1.494-3.32 3.32-3.32c1.824 0 3.318 1.495 3.318 3.32s-1.494 3.32-3.318 3.32zM235.93 465.056c0-.25.082-.58.082-.83s0-.58-.082-.83l1.742-1.245c.166-.08.25-.33.084-.58l-1.66-2.903c-.084-.25-.332-.332-.498-.25l-1.992.913a5.29 5.29 0 0 0-1.492-.83l-.25-2.157c0-.25-.166-.415-.416-.415h-3.318c-.25 0-.416.165-.416.415l-.248 2.075c-.58.25-1.078.497-1.492.83l-1.994-.83c-.164-.083-.414 0-.496.165l-1.66 2.904c-.168.25-.168.5.082.582l1.742 1.326c0 .25-.082.58-.082.83s0 .58.082.83l-1.742 1.245c-.166.083-.25.333-.082.58l1.66 2.905c.082.25.332.332.496.25l1.994-.913c.414.333.994.663 1.492.83l.248 2.157c0 .25.166.414.416.414h3.318c.25 0 .416-.165.416-.415l.25-2.158c.58-.25 1.076-.497 1.492-.83l1.992.912c.166.083.414 0 .498-.165l1.66-2.905a.515.515 0 0 0-.084-.582l-1.742-1.327zm-6.14 2.49c-1.827 0-3.32-1.495-3.32-3.32s1.493-3.32 3.32-3.32c1.823 0 3.317 1.495 3.317 3.32s-1.494 3.32-3.318 3.32zM269.713 465.056c0-.25.082-.58.082-.83s0-.58-.082-.83l1.742-1.245c.164-.08.25-.33.082-.58l-1.66-2.903c-.082-.25-.332-.332-.496-.25l-1.993.913a5.262 5.262 0 0 0-1.492-.83l-.248-2.157c0-.25-.166-.415-.416-.415h-3.32c-.247 0-.413.165-.413.415l-.25 2.075c-.58.25-1.078.497-1.492.83l-1.992-.83c-.166-.083-.414 0-.498.165l-1.66 2.904c-.166.25-.166.5.084.582l1.74 1.326c0 .25-.08.58-.08.83s0 .58.08.83l-1.74 1.245c-.167.083-.25.333-.085.58l1.66 2.905c.084.25.332.332.498.25l1.992-.913c.414.333.994.663 1.492.83l.25 2.157c0 .25.166.414.414.414h3.32c.25 0 .417-.165.417-.415l.248-2.158c.58-.25 1.078-.497 1.492-.83l1.994.912c.165.083.415 0 .497-.165l1.66-2.905a.518.518 0 0 0-.082-.582l-1.742-1.327zm-6.143 2.49c-1.824 0-3.318-1.495-3.318-3.32s1.494-3.32 3.318-3.32c1.826 0 3.32 1.495 3.32 3.32s-1.494 3.32-3.32 3.32zM303.494 465.056c0-.25.082-.58.082-.83s0-.58-.082-.83l1.742-1.245c.165-.08.25-.33.083-.58l-1.66-2.903c-.084-.25-.333-.332-.498-.25l-1.993.913a5.275 5.275 0 0 0-1.493-.83l-.25-2.157c0-.25-.165-.415-.415-.415h-3.32c-.248 0-.414.165-.414.415l-.25 2.075c-.58.25-1.077.497-1.49.83l-1.994-.83c-.165-.083-.414 0-.497.165l-1.66 2.904c-.167.25-.167.5.083.582l1.742 1.326c0 .25-.082.58-.082.83s0 .58.082.83l-1.742 1.245c-.166.083-.25.333-.083.58l1.66 2.905c.083.25.332.332.497.25l1.993-.913c.414.333.994.663 1.492.83l.248 2.157c0 .25.166.414.415.414h3.32c.25 0 .415-.165.415-.415l.25-2.158c.58-.25 1.076-.497 1.49-.83l1.994.912c.165.083.414 0 .497-.165l1.66-2.905a.516.516 0 0 0-.084-.582l-1.742-1.327zm-6.14 2.49c-1.826 0-3.32-1.495-3.32-3.32s1.494-3.32 3.32-3.32 3.318 1.495 3.318 3.32-1.494 3.32-3.32 3.32z"/>
    </g>
    <path fill="#009CDE" d="M59.827 464.232c0-9.022 8.235-16.364 18.36-16.364h235.605c10.13 0 18.37 7.342 18.37 16.364 0 9.02-8.24 16.36-18.37 16.36H78.188c-10.126.002-18.36-7.34-18.36-16.36zm18.36-13.104c-8.327 0-15.1 5.88-15.1 13.104 0 7.225 6.772 13.1 15.1 13.1h235.605c8.33 0 15.11-5.875 15.11-13.1 0-7.226-6.78-13.104-15.11-13.104H78.188z"/>
    <path fill="#DFE4E7" d="M420.267 544.537l-1.517-2.235-1.503 2.235-2.197-2.235v32.872h5.217zM415.05 505.804l1.516 2.235 1.503-2.236 2.197 2.235v-32.873h-5.217zM518.018 639.156h136.64v5.217h-136.64z"/>
    <path fill="#DFE4E7" d="M536.523 643.425h5.217v24.933h-5.217zM502.533 581.608h5.217v45.64h-5.217zM474.972 565.468h-44.845c-5.436 0-9.855-4.423-9.855-9.855v-2.86h-5.222v2.86c0 8.312 6.764 15.074 15.077 15.074h44.845v-5.22z"/>
    <path fill="#DFE4E7" d="M596.445 679.45H551.6c-5.436 0-9.855-4.422-9.855-9.854v-2.86h-5.222v2.86c0 8.312 6.764 15.074 15.077 15.074h44.845v-5.22zM347.398 408.966c-8.31 0-15.07-3.76-15.07-12.072v-8.533h5.22v8.534c0 5.434 4.417 6.854 9.85 6.854h7.16v5.22h-7.16z"/>
    <path fill="#DFE4E7" d="M332.328 324.06h5.22v65.3h-5.22z"/>
    <path fill="#DFE4E7" d="M337.547 325.26c0-8.312-6.76-15.07-15.072-15.07h-2.86v5.218h2.86c5.434 0 9.854 4.418 9.854 9.852v2.16h5.218v-2.16z"/>
    <path fill="#DFE4E7" d="M302.828 310.188h18.3v5.22h-18.3z"/>
    <path fill="#D0006F" d="M296.53 304.685h10.972v15.02h-10.97zM350.428 398.45h10.97v15.02h-10.97zM409.81 485.577h15.022v10.97h-15.02zM654.583 634.254h10.97v15.02h-10.97z"/>
    <path fill="#DFE4E7" d="M595.018 679.453h65.64v5.217h-65.64z"/>
    <path fill="#D0006F" d="M654.583 674.55h10.97v15.022h-10.97zM654.583 716.905h10.97v15.02h-10.97z"/>
    <path fill="#DFE4E7" d="M174.214 255.056c0-8.31-6.76-15.07-15.072-15.07h-2.86v5.22h2.86c5.434 0 9.854 4.417 9.854 9.85v2.16h5.22v-2.16z"/>
    <path fill="#DFE4E7" d="M139.495 239.985h18.3v5.22h-18.3zM184.666 309.538h68.55v5.22h-68.55zM507.75 580.52c0-8.31-6.76-15.07-15.072-15.07h-22.86v5.22h22.86c5.434 0 9.854 4.418 9.854 9.852v2.16h5.22v-2.16zM502.533 629.303c0 8.31 6.76 15.07 15.072 15.07h2.86v-5.22h-2.86c-5.434 0-9.854-4.417-9.854-9.85v-2.16h-5.218v2.16z"/>
    <path fill="#DFE4E7" d="M168.995 299.687c0 8.31 6.76 15.07 15.072 15.07h2.86v-5.22h-2.86c-5.434 0-9.854-4.417-9.854-9.85v-2.16h-5.22v2.16z"/>
    <path fill="#139AD6" d="M668.166 158.703h2v185.474h-2z"/>
    <path fill="#DFE4E7" d="M103.844 123.102h5.22v68.3h-5.22zM134.867 60.873h5.22v98.3h-5.22z"/>
    <path fill="#DFE4E7" d="M134.867 62.072c0-8.31 6.76-15.07 15.072-15.07h2.858v5.22h-2.86c-5.433 0-9.853 4.417-9.853 9.85v2.16h-5.22v-2.16z"/>
    <path fill="#DFE4E7" d="M151.285 47.002h18.3v5.22h-18.3zM135.037 81.534h5.22v98.3h-5.22z"/>
    <path fill="#DFE4E7" d="M140.256 82.733c0-8.31-6.76-15.07-15.072-15.07h-2.86v5.22h2.86c5.434 0 9.854 4.417 9.854 9.85v2.16h5.22v-2.16z"/>
    <path fill="#DFE4E7" d="M105.537 67.663h18.3v5.22h-18.3zM162.175 112.146h28.3v5.22h-28.3z"/>
    <path fill="#DFE4E7" d="M163.374 112.146c-8.31 0-15.07 6.76-15.07 15.072v2.86h5.22v-2.86c0-5.434 4.417-9.854 9.85-9.854h2.16v-5.22h-2.16z"/>
    <path fill="#DFE4E7" d="M148.304 128.564h5.22v30.3h-5.22zM73.726 148.88h5.22v38.3h-5.22z"/>
    <path fill="#DFE4E7" d="M78.944 150.08c0-8.312-6.76-15.07-15.073-15.07h-2.857v5.218h2.858c5.435 0 9.855 4.418 9.855 9.852v2.16h5.22v-2.16z"/>
    <path fill="#DFE4E7" d="M44.225 135.01h18.3v5.218h-18.3zM74.485 90.74h5.22v88.3h-5.22z"/>
    <path fill="#DFE4E7" d="M79.704 91.94c0-8.312-6.76-15.07-15.073-15.07h-2.857v5.218h2.858c5.435 0 9.855 4.418 9.855 9.852v2.16h5.22v-2.16z"/>
    <path fill="#DFE4E7" d="M44.984 76.87h18.3v5.218h-18.3z"/>
    <path fill="#1085B7" d="M389.908 285.975h56.78V445.42h-56.78z"/>
    <path fill="#475058" d="M702.473 584.47l6.365-1.43a4.204 4.204 0 0 1 3.178-5.025 4.208 4.208 0 0 1 5.03 3.18l6.372-1.432-7.553-33.62-6.374 1.434a4.208 4.208 0 0 1-3.203 4.942c-2.232.503-4.453-.89-5-3.104l-6.365 1.436 7.55 33.618z"/>
    <path fill="#D0006F" d="M225.09 304.637h10.973v15.02H225.09z"/>
    <path fill="#BF0000" d="M260.887 284.543a5.385 5.385 0 0 0 10.77 0v-9.045a5.384 5.384 0 0 0-5.385-5.384 5.386 5.386 0 0 0-5.385 5.384v9.045z"/>
    <path fill="#1085B7" d="M248.74 371.376c0 2.768 2.24 5.01 5.01 5.01h25.046c2.77 0 5.01-2.242 5.01-5.01v-51.713c0-2.768-2.24-5.01-5.01-5.01H253.75a5.008 5.008 0 0 0-5.01 5.01v51.713z"/>
    <path fill="#DFE4E7" d="M247.488 294.086c0-10.375 8.408-18.785 18.786-18.785 10.375 0 18.786 8.41 18.786 18.786v13.778h-37.572v-13.778zM243.73 330.978a3.38 3.38 0 0 0 3.377 3.384h38.322a3.386 3.386 0 0 0 3.39-3.384 3.386 3.386 0 0 0-3.39-3.384h-38.323a3.38 3.38 0 0 0-3.378 3.384zM243.73 342.662a3.38 3.38 0 0 0 3.377 3.382h38.322a3.385 3.385 0 0 0 3.39-3.382 3.39 3.39 0 0 0-3.39-3.388h-38.323a3.383 3.383 0 0 0-3.378 3.388zM243.73 355.96a3.38 3.38 0 0 0 3.377 3.384h38.322a3.386 3.386 0 0 0 3.39-3.384 3.387 3.387 0 0 0-3.39-3.385h-38.323a3.382 3.382 0 0 0-3.378 3.385z"/>
    <path fill="#009CDE" d="M232.576 302.54h67.393v19.214h-67.394z"/>
    <path fill="#139AD6" d="M300.02 321.804h-67.493V302.49h67.492v19.314zm-67.394-.1h67.293V302.59h-67.294v19.114z"/>
    <path fill="#DFE4E7" d="M283.807 367.852l9.392 11.385h-53.854l9.393-11.385z"/>
    <path fill="#009CDE" d="M239.346 379.237H293.2v4.35h-53.854z"/>
    <path fill="#D0006F" d="M131 234.974h10.97v15.02H131z"/>
    <path fill="#DFE4E7" d="M78.174 229.237h56.506V293.6H78.174zM152.515 185.62l-26.95 18.21H86.952l-26.946-18.21z"/>
    <path fill="#768692" d="M86.978 203.83h38.58v2.9h-38.58z"/>
    <path fill="#DFE4E7" d="M125.557 206.73l9.123 6.417H78.174l8.804-6.418zM78.174 213.147h56.506v4.98H78.174z"/>
    <path fill="#1085B7" d="M73.416 229.11c0 1.69 1.37 3.064 3.064 3.064h59.253a3.064 3.064 0 0 0 3.064-3.064v-7.92c0-1.69-1.37-3.062-3.064-3.062H76.48a3.064 3.064 0 0 0-3.064 3.063v7.92z"/>
    <path fill="#768692" d="M88.48 298.58h35.248v5.873H88.48z"/>
    <path fill="#009CDE" d="M134.68 293.6l-7.375 6.13H85.702l-7.528-6.13z"/>
    <path fill="#DFE4E7" d="M123.73 304.453l9.706 10.218H78.174l10.306-10.217z"/>
    <path fill="#009CDE" d="M73.416 318.246c0 1.69 1.37 3.063 3.064 3.063h59.253a3.063 3.063 0 0 0 3.064-3.064v-.512a3.062 3.062 0 0 0-3.064-3.063H76.48a3.063 3.063 0 0 0-3.064 3.064v.512z"/>
    <path fill="#BBC3C9" d="M64.078 261.153l10.282-8.894 1.31 1.513-10.283 8.894z"/>
    <path fill="#1085B7" d="M64.46 265.674a3.772 3.772 0 0 0 4.028-3.485c.148-2.074-1.417-3.87-3.487-4.022s-3.87 1.402-4.02 3.48c-.16 2.078 1.405 3.874 3.48 4.026z"/>
    <path fill="#768692" d="M73.854 242.892v18.4c-1.242-.39-2.16-1.507-2.16-2.882v-12.638c0-1.373.917-2.492 2.16-2.88z"/>
    <path fill="#009CDE" d="M73.676 240.088h4.498v24.01h-4.498z"/>
    <g fill="#1085B7">
        <path d="M100.198 256.908l-1.544 3.336-8.838-4.09 1.543-3.335zM122.397 257.374l-8.838 4.096-1.546-3.333 8.838-4.096zM106.782 271.662l-1.222 9.088-3.647-.49 1.223-9.088z"/>
        <path d="M85.71 262.888c0 11.268 9.138 20.402 20.4 20.402 11.273 0 20.406-9.135 20.406-20.402 0-11.27-9.133-20.402-20.407-20.402-11.262 0-20.4 9.132-20.4 20.402zm4.886 0c0-8.57 6.95-15.518 15.514-15.518 8.573 0 15.523 6.948 15.523 15.518s-6.95 15.517-15.523 15.517c-8.565 0-15.514-6.947-15.514-15.517z"/>
    </g>
    <path fill="#1085B7" d="M97.492 262.888a8.62 8.62 0 0 0 8.617 8.62c4.765 0 8.62-3.86 8.62-8.62s-3.855-8.62-8.62-8.62c-4.758 0-8.618 3.86-8.618 8.62z"/>
    <path fill="#C40202" d="M101.802 262.888a4.31 4.31 0 1 0 8.62 0 4.31 4.31 0 0 0-8.62 0z"/>
    <path fill="#768692" d="M60.007 185.62h92.508l6.482-21.034H53.893z"/>
    <path fill="#009CDE" d="M46.25 161.67c0 3.848 3.12 6.965 6.967 6.965h106.09a6.962 6.962 0 0 0 6.965-6.966 6.964 6.964 0 0 0-6.965-6.968H53.217a6.967 6.967 0 0 0-6.967 6.967z"/>
    <path fill="#DFE4E7" d="M417.594 703.444h5.24v13.278h-5.24zM360.4 703.444h5.238v13.278H360.4zM395.71 687.356a2.65 2.65 0 0 0-1.585.96l3.86 2.817c0-.812-.037-1.753-.17-2.404-.215-1.065-1.154-1.567-2.105-1.374zM394.172 670.94l-.38-1.858-1.238.253zM394.503 672.57l-.33-1.63-.154 1.73z"/>
    <path fill="#DFE4E7" d="M430.72 661.57l-36.927 7.512.38 1.858.33 1.63-.484.1-1.29 14.627.05-.01c.705-1.696 2.198-2.815 3.97-3.175 1.703-.348 3.668.296 4.227 2l.05-.01c.57-2.07 2.48-3.365 4.514-3.78 2.143-.435 4.336.952 4.778 3.126.264 1.295.233 2.814.15 4.047l-.1 7.2-3.73.76-15.553 12.892 2.28 1.684 45.73-9.304c10.344-2.104 17.124-11.71 15.143-21.45l-1.196-5.876c-1.982-9.743-11.978-15.936-22.32-13.83z"/>
    <path fill="#DFE4E7" d="M406.564 686.95c-.217-1.064-1.17-1.564-2.123-1.37-2.592.526-2.646 3.675-2.714 5.742l-.023 2.528 4.934 3.604.066-7.334c.005-.9.038-2.3-.14-3.17z"/>
    <path fill="#009CDE" d="M395.71 687.356c.95-.193 1.89.31 2.106 1.373.132.65.17 1.59.168 2.403l3.72 2.717.022-2.528c.067-2.067.122-5.216 2.715-5.743.955-.194 1.907.306 2.124 1.37.177.87.144 2.27.14 3.17l-.067 7.334 3.73-.76.1-7.2c.083-1.23.113-2.75-.15-4.046-.442-2.174-2.636-3.56-4.777-3.125-2.035.414-3.944 1.71-4.513 3.78l-.05.01c-.56-1.705-2.524-2.35-4.227-2-1.772.358-3.266 1.478-3.97 3.173l-.05.01 1.395 1.02a2.65 2.65 0 0 1 1.585-.96z"/>
    <path fill="#FA3" d="M445.1 700.165l-8.125-5.38-2.12-10.422 8.125 5.38z"/>
    <path fill="#475058" d="M442.98 689.744l-8.126-5.38-2.12-10.422 8.126 5.382zM445.473 701.993a3.45 3.45 0 0 1-2.69 4.062 3.446 3.446 0 0 1-4.062-2.688l-1.745-8.583 8.126 5.38.373 1.83z"/>
    <path fill="#FA3" d="M438.74 668.906l2.12 10.418-8.126-5.382-2.12-10.416z"/>
    <path fill="#475058" d="M435.754 657.91a3.418 3.418 0 0 0-.807-.534c-.65-.307-1.376-.466-2.133-.312a3.445 3.445 0 0 0-2.688 4.062l.49 2.4 8.124 5.38-1.862-9.154c-.153-.757-.588-1.36-1.124-1.842z"/>
    <path fill="#DFE4E7" d="M388.382 694.474l-2.808-5.425-2.097 4.11-3.707-.993 3.336-6.533c.11-.2.23-.432.352-.677l-2.196-4.244c-1.44.656-2.423 2.486-3.13 3.78l-3.254 6.362-3.7-.99 5.975-11.944c.27-.514.532-1.06.72-1.475l3.438.92-.84 1.813 7.68-12.515-4.704-1.26.922-3.44-36.396-9.753c-10.2-2.733-20.554 2.838-23.127 12.44l-1.552 5.794c-2.572 9.6 3.607 19.602 13.808 22.335l32.9 8.815-1.288-2.525 19.67-4.596zm-19.047-5.104c-.664-.04-1.444-.04-2.07-.206-2.512-.673-4.012-2.14-3.28-4.866.296-1.106.8-2.12 1.362-3.18l2.324-4.52-2.668-.715 1.3-2.54 2.67.717 1.41-2.77 4.32-.218-2.03 3.98 3.295.882-1.29 2.54-3.303-.884-3.016 5.833c-.178.31-.39.79-.536 1.34-.23.857.214 1.52 1.042 1.742.648.174 1.357.227 1.877.16l-1.405 2.705z"/>
    <path fill="#DFE4E7" d="M388.148 666.664l.908-1.48-.73-2.16-3.96-1.06-.922 3.44z"/>
    <path fill="#009CDE" d="M367.822 684.765a5.83 5.83 0 0 1 .536-1.34l3.016-5.834 3.304.886 1.29-2.54-3.297-.884 2.032-3.98-4.32.22-1.41 2.77-2.67-.717-1.3 2.54 2.67.714-2.325 4.52c-.563 1.058-1.066 2.072-1.363 3.18-.73 2.727.77 4.192 3.28 4.865.627.167 1.407.166 2.07.206l1.407-2.702c-.52.065-1.228.013-1.876-.16-.828-.224-1.27-.887-1.042-1.743zM377.873 676.445c-.188.413-.45.96-.72 1.476l-5.977 11.944 3.7.99 3.255-6.36c.708-1.295 1.69-3.125 3.13-3.78l-.793-1.535.842-1.813-3.437-.922zM383.106 685.634l-3.336 6.533 3.707.992 2.097-4.11-2.116-4.093c-.123.245-.242.476-.352.677z"/>
    <path fill="#FA3" d="M337.914 691.64l-4.873-8.443 2.753-10.27 4.874 8.44z"/>
    <path fill="#475058" d="M340.667 681.368l-4.874-8.442 2.753-10.273 4.873 8.445zM337.43 693.442a3.447 3.447 0 1 1-6.657-1.784l2.268-8.46 4.874 8.442-.483 1.802z"/>
    <path fill="#FA3" d="M346.17 660.828l-2.75 10.27-4.874-8.445 2.75-10.266z"/>
    <path fill="#475058" d="M348.403 649.655a3.435 3.435 0 0 0-.484-.84c-.446-.564-1.022-1.03-1.77-1.23a3.445 3.445 0 0 0-4.22 2.435l-.634 2.367 4.874 8.44 2.418-9.023c.2-.745.082-1.48-.185-2.15z"/>
    <path fill="#D0006F" d="M413.762 715.185h12.9v16.08h-12.9zM356.568 715.185h12.9v16.08h-12.9z"/>
    <path fill="#1085B7" d="M701.154 617.814h37.088v4.703h-37.088z"/>
    <path fill="#BBC3C9" d="M743.614 622.518h33.95v35.28h-33.95z"/>
    <path fill="#DDE1E4" d="M662.068 622.518h81.546v35.28h-81.546z"/>
    <g fill="#768692">
        <path d="M670.034 630.247h20.782v3.506h-20.782zM670.034 638.945h20.782v3.507h-20.782zM670.034 646.802h20.782v3.5h-20.782z"/>
    </g>
    <path fill="#BBC3C9" d="M743.614 664.38h33.95v35.273h-33.95z"/>
    <path fill="#DDE1E4" d="M662.068 664.38h81.546v35.273h-81.546z"/>
    <path fill="#768692" d="M670.034 672.11h20.782v3.506h-20.782zM670.034 680.81h20.782v3.504h-20.782zM670.034 688.656h20.782v3.503h-20.782z"/>
    <path fill="#BBC3C9" d="M743.614 706.237h33.95v35.274h-33.95z"/>
    <path fill="#DDE1E4" d="M662.068 706.237h81.546v35.274h-81.546z"/>
    <g fill="#768692">
        <path d="M670.034 713.967h20.782v3.502h-20.782zM670.034 722.664h20.782v3.503h-20.782zM670.034 730.518h20.782v3.503h-20.782z"/>
    </g>
    <g fill="#BF0000">
        <path d="M760.648 649.116c-4.94 0-8.962-4.022-8.962-8.964 0-4.937 4.022-8.952 8.962-8.952s8.96 4.016 8.96 8.952c0 4.942-4.02 8.964-8.96 8.964zm0-15.94c-3.852 0-6.987 3.13-6.987 6.977 0 3.853 3.137 6.988 6.988 6.988 3.85 0 6.987-3.135 6.987-6.987 0-3.848-3.136-6.977-6.987-6.977z"/>
        <path d="M755.707 633.81l11.275 11.274-1.396 1.396-11.275-11.275zM760.652 690.98a8.907 8.907 0 0 1-6.335-2.625 8.915 8.915 0 0 1-2.628-6.34c0-2.393.934-4.646 2.627-6.338 3.38-3.378 9.283-3.378 12.665.008 3.493 3.49 3.493 9.174.003 12.67a8.904 8.904 0 0 1-6.333 2.624zm-.007-15.95a6.92 6.92 0 0 0-4.932 2.043 6.945 6.945 0 0 0-2.048 4.942c0 1.867.73 3.62 2.048 4.944 2.638 2.64 7.242 2.64 9.878 0 2.723-2.727 2.72-7.16-.002-9.882a6.966 6.966 0 0 0-4.943-2.05z"/>
        <path d="M755.71 675.74l11.274 11.283-1.397 1.395-11.274-11.282zM760.648 732.83c-4.94 0-8.96-4.022-8.96-8.96 0-4.94 4.02-8.964 8.96-8.964s8.96 4.022 8.96 8.963c0 4.94-4.02 8.96-8.96 8.96zm0-15.948c-3.852 0-6.983 3.134-6.983 6.987 0 3.852 3.132 6.985 6.983 6.985 3.85 0 6.987-3.134 6.987-6.986 0-3.854-3.136-6.988-6.987-6.988z"/>
        <path d="M754.303 718.93l1.397-1.398 11.276 11.276-1.397 1.397z"/>
    </g>
    <circle fill="#009CDE" cx="43.779" cy="78.954" r="20"/>
    <path fill="#FFF" d="M48.568 65.798H38.99a2.186 2.186 0 0 0-2.188 2.184V89.93c0 1.206.98 2.185 2.188 2.185h9.578c1.207 0 2.186-.98 2.186-2.186V67.98c0-1.206-.98-2.182-2.186-2.182zm-6.2 1.445h2.825a.32.32 0 0 1 0 .638H42.37a.318.318 0 0 1-.32-.318.32.32 0 0 1 .32-.32zm1.41 23.92a.907.907 0 0 1-.907-.91c0-.505.405-.91.907-.91.506 0 .91.405.91.91 0 .5-.404.91-.91.91zm6.093-2.767H37.69V69.33h12.184v19.066z"/>
    <circle fill="#009CDE" cx="171.71" cy="49.63" r="20"/>
    <path fill="#FFF" d="M183.257 39.767h-23.093c-.627 0-1.134.508-1.134 1.134v14.657c0 .625.507 1.133 1.134 1.133h23.093c.625 0 1.133-.508 1.133-1.133V40.9c0-.626-.508-1.133-1.133-1.133zm-.434 15.426h-22.227v-13.93h22.227v13.93zM168.904 57.374c.133.276.392.472.708.472h4.195c.316 0 .573-.195.707-.472h12.05a2.364 2.364 0 0 1-2.24 1.628h-25.228a2.365 2.365 0 0 1-2.242-1.628h12.05z"/>
    <path fill="#D0006F" d="M672.905 344.177h-7.248c-6.847 0-12.402 5.33-12.873 12.06h32.996c-.47-6.73-6.026-12.06-12.875-12.06z"/>
    <path fill="#DFE4E7" d="M647.968 356.236h42.525v13.873h-42.525z"/>
    <path fill="#D0006F" d="M649.56 427.337h-2.383v10.255h2.384a5.123 5.123 0 0 0 5.128-5.127 5.124 5.124 0 0 0-5.127-5.128z"/>
    <path fill="#009CDE" d="M647.968 390.92l-7.84-6.938-17.192 25.746h12.667z"/>
    <path fill="#DFE4E7" d="M622.936 409.728l17.794 16.327h6.447l-11.574-16.327z"/>
    <path fill="#009CDE" d="M640.73 426.055h6.446v12.818h-6.446z"/>
    <path fill="#1085B7" d="M699.24 379.76c0-5.33-4.322-9.65-9.653-9.65h-39.81c-5.33 0-9.65 4.32-9.65 9.65v4.223h59.113v-4.223z"/>
    <path fill="#009CDE" d="M699.24 388.205c0 5.33-4.322 9.65-9.653 9.65h-39.81c-5.33 0-9.65-4.32-9.65-9.65v-4.223h59.113v4.223z"/>
    <path fill="#DFE4E7" d="M581.662 487.93h-68.69l-57.768-46.51h-148.9a7.832 7.832 0 0 0-7.835 7.832v30.842c0 4.33 3.51 7.837 7.833 7.837h129.564l58.506 46.51h87.29a7.835 7.835 0 0 0 7.83-7.833V495.76a7.83 7.83 0 0 0-7.83-7.83z"/>
    <circle fill="#009CDE" cx="199.783" cy="114.588" r="15"/>
    <path fill="#009CDE" d="M89.324 69c0 8.286 6.717 15.002 15.002 15.002 8.28 0 14.998-6.716 14.998-15s-6.717-15-14.998-15c-8.285 0-15.002 6.714-15.002 15z"/>
    <circle fill="#009CDE" cx="49.469" cy="135.078" r="15"/>
    <path fill="#009CDE" d="M86.453 115.63c0 11.047 8.953 20.003 20.002 20.003 11.047 0 19.998-8.956 19.998-20.002 0-11.044-8.95-20-19.998-20-11.05 0-20.002 8.956-20.002 20z"/>
    <path fill="#FFF" d="M114.805 102.75H98.238c-.883 0-1.6.717-1.6 1.602v22.426a1.6 1.6 0 0 0 1.6 1.6h16.566c.883 0 1.602-.715 1.602-1.6v-22.426c0-.885-.718-1.603-1.6-1.603zm-8.284 24.88a.858.858 0 0 1-.86-.862.862.862 0 1 1 .86.86zm8.005-2.527H98.518v-19.637h16.008v19.637z"/>
    <path fill="#009CDE" d="M158.83 403.825h-6.523c0 2.32-1.88 4.204-4.203 4.204a4.204 4.204 0 0 1-4.21-4.205h-6.528v34.458h6.53a4.21 4.21 0 0 1 4.208-4.122 4.207 4.207 0 0 1 4.2 4.123h6.526v-34.458zM117.518 350.26h-6.523c0 2.32-1.88 4.205-4.2 4.205a4.203 4.203 0 0 1-4.21-4.204h-6.53v34.46h6.53a4.207 4.207 0 0 1 4.21-4.123c2.29 0 4.15 1.844 4.196 4.122h6.528v-34.46zM217.44 403.825h-6.522c0 2.32-1.88 4.204-4.2 4.204a4.205 4.205 0 0 1-4.212-4.205h-6.53v34.458h6.53a4.21 4.21 0 0 1 4.21-4.122c2.292 0 4.15 1.845 4.196 4.123h6.527v-34.458zM276.047 403.825h-6.52c0 2.32-1.882 4.204-4.202 4.204a4.205 4.205 0 0 1-4.21-4.205h-6.53v34.458h6.53a4.21 4.21 0 0 1 4.21-4.122c2.29 0 4.148 1.845 4.195 4.123h6.527v-34.458zM77.69 375.05a1 1 0 0 1-1-1V337.3a1 1 0 0 1 2 0v36.75a1 1 0 0 1-1 1z"/>
    <path fill="#BBC3C9" d="M82.162 358.304a1 1 0 0 1-1-1V327.38a1 1 0 0 1 2 0v29.924a1 1 0 0 1-1 1zM88.48 389.676a1 1 0 0 1-1-1V361.09a1 1 0 0 1 2 0v27.586a1 1 0 0 1-1 1zM132.557 355.376a1 1 0 0 1-1-1v-27.582a1 1 0 0 1 2 0v27.582a1 1 0 0 1-1 1z"/>
    <path fill="#009CDE" d="M128.115 362.168a1 1 0 0 1-1-1v-17.493a1 1 0 0 1 2 0v17.493a1 1 0 0 1-1 1z"/>
    <path fill="#BBC3C9" d="M123.69 366.66a1 1 0 0 1-1-1v-27.58a1 1 0 0 1 2 0v27.58a1 1 0 0 1-1 1z"/>
    <path fill="#DFE4E7" d="M233.936 689.018l35.798-11.473-29.96-24.767 29.44-25.382-36.03-10.73 17.2-33.425-38.696 3.674 2.867-38.765-33.06 17.89-11.474-35.8-24.765 29.96-25.383-29.437-10.727 36.028-33.428-17.2 3.672 38.698-38.765-2.867 17.89 33.06-35.798 11.474 29.96 24.768-29.44 25.383 36.03 10.727-17.2 33.425 38.697-3.67-2.868 38.766 33.062-17.892 11.474 35.8 24.765-29.96 25.385 29.438 10.727-36.03 33.424 17.2-3.672-38.696 38.764 2.868z"/>
    <path fill="#475058" d="M99.98 694.518a6.607 6.607 0 0 1-6.61-6.605v-68.32a6.612 6.612 0 0 1 6.61-6.61h92.494a6.614 6.614 0 0 1 6.608 6.61v68.32a6.608 6.608 0 0 1-6.608 6.605H99.98z"/>
    <path fill="#F6F7F9" d="M104.61 618.892h85.534v69.72H104.61z"/>
    <path fill="#DFE4E7" d="M98.995 656.496a2.75 2.75 0 0 1 0-5.5 2.755 2.755 0 0 1 2.76 2.754 2.752 2.752 0 0 1-2.76 2.746z"/>
    <path fill="#BF0000" d="M243.27 212.153c-22.793 0-41.337-15.576-41.337-34.722 0-.075.002-.15.004-.226l-19.672-25.732c-.242-.318-.272-.75-.076-1.1s.574-.545.98-.502l30.475 3.354c7.853-6.784 18.354-10.515 29.626-10.515 22.794 0 41.338 15.575 41.338 34.72s-18.544 34.723-41.337 34.723zm-57.996-60.038l18.47 24.16a1 1 0 0 1 .205.622l-.01.263a6.13 6.13 0 0 0-.007.27c0 18.044 17.646 32.723 39.338 32.723 21.69 0 39.338-14.68 39.338-32.722s-17.646-32.72-39.337-32.72c-10.943 0-21.113 3.66-28.636 10.305a.992.992 0 0 1-.77.245l-28.59-3.145zM312.816 624.18c-11.296 0-21.82-3.746-29.677-10.558l-25.48-.155a1 1 0 0 1-.83-1.55l14.654-22.192c-.003-.088-.006-.176-.006-.265 0-19.146 18.544-34.722 41.338-34.722 22.793 0 41.337 15.576 41.337 34.722s-18.544 34.72-41.337 34.72zm-53.298-12.7l24.006.145c.242.002.475.09.656.25 7.522 6.647 17.692 10.307 28.637 10.307 21.69 0 39.337-14.68 39.337-32.722s-17.646-32.722-39.337-32.722c-21.69 0-39.338 14.68-39.338 32.722 0 .09.003.182.007.27l.008.264c.003.2-.055.398-.165.566l-13.812 20.92z"/>
    <circle fill="#009CDE" cx="307.502" cy="449.496" r="3.498"/>
    <circle fill="#009CDE" cx="307.502" cy="478.955" r="3.498"/>
    <g fill="#009CDE">
        <circle cx="581.079" cy="496.182" r="3.498"/>
        <circle cx="581.079" cy="525.641" r="3.498"/>
    </g>
    <g fill="#FFF">
        <path d="M56.76 134.53v-7.755l-8.906 1.3v6.454zM47.227 128.166l-6.467.944v5.42h6.467zM40.76 135.156v5.49l6.467.953v-6.444zM47.854 141.69l8.906 1.316v-7.85h-8.906z"/>
    </g>
    <path fill-rule="evenodd" clip-rule="evenodd" fill="#FFF" d="M104.324 60.064a6.41 6.41 0 0 1 2.317.425l1.037-1.598a.185.185 0 0 1 .256-.054c.086.056.11.17.055.256l-1 1.54c1.655.766 2.783 2.22 2.815 3.894h-10.96c.033-1.674 1.16-3.128 2.816-3.893l-1-1.54a.184.184 0 0 1 .053-.257.185.185 0 0 1 .257.054l1.036 1.597a6.44 6.44 0 0 1 2.318-.426zm-1 15.165v2.734c0 .677-.553 1.23-1.23 1.23-.676 0-1.23-.554-1.23-1.23V75.23h-1.03a.998.998 0 0 1-.997-.997v-8.967h10.977v8.967a1 1 0 0 1-.996.996h-1.032v2.734c0 .677-.554 1.23-1.23 1.23-.677 0-1.23-.554-1.23-1.23V75.23h-2zm-6.478-9.92c.677 0 1.23.553 1.23 1.23v4.922c0 .677-.554 1.23-1.23 1.23-.677 0-1.23-.554-1.23-1.23V66.54c0-.678.553-1.23 1.23-1.23zm14.957 0c.677 0 1.23.553 1.23 1.23v4.922c0 .677-.554 1.23-1.23 1.23-.678 0-1.23-.554-1.23-1.23V66.54c0-.678.552-1.23 1.23-1.23zm-9.848-3.58a.63.63 0 1 1 0 1.262.63.63 0 0 1 0-1.262zm4.738 0a.63.63 0 1 1 0 1.26.63.63 0 0 1 0-1.26z"/>
    <g fill-rule="evenodd" clip-rule="evenodd" fill="#FFF">
        <path d="M205.146 114.203c-.023-2.484 2.03-3.683 2.122-3.74-1.152-1.69-2.95-1.92-3.592-1.948-1.53-.153-2.986.902-3.763.902-.774 0-1.975-.88-3.24-.854-1.67.023-3.208.968-4.067 2.463-1.732 3.007-.443 7.46 1.246 9.9.824 1.19 1.81 2.533 3.102 2.485 1.246-.05 1.715-.802 3.22-.802 1.502 0 1.925.803 3.243.777 1.338-.024 2.188-1.216 3.007-2.412.947-1.386 1.338-2.728 1.36-2.797-.03-.008-2.61-1-2.638-3.973zM202.674 106.902c.686-.832 1.146-1.987 1.02-3.14-.987.04-2.187.66-2.895 1.49-.637.736-1.194 1.912-1.042 3.04 1.102.087 2.228-.56 2.916-1.39z"/>
    </g>
    <path fill="#DFE4E7" d="M436.1 199.47a3.96 3.96 0 0 1-3.96 3.962h-27.683a3.962 3.962 0 0 1-3.963-3.962v-17.375a3.962 3.962 0 0 1 3.963-3.964h27.682a3.96 3.96 0 0 1 3.96 3.965v17.375z"/>
    <path fill="#D0006F" d="M446.688 225.966a6.32 6.32 0 0 1-6.318 6.32h-44.143a6.32 6.32 0 0 1-6.318-6.32V198.26a6.316 6.316 0 0 1 6.317-6.318h44.143a6.317 6.317 0 0 1 6.318 6.317v27.706z"/>
    <path fill="#475058" d="M371.09 375.59a6.67 6.67 0 0 0 6.67 6.666h81.078a6.668 6.668 0 0 0 6.668-6.666v-60.54a6.663 6.663 0 0 0-6.668-6.665H377.76a6.663 6.663 0 0 0-6.67 6.665v60.54z"/>
    <path fill="#F6F7F9" d="M377.822 315.74h80.945v59.143h-80.945z"/>
    <path fill="#211F1F" d="M386.54 349.87l.08.035-.062-.063-.02.028M386.54 349.828l.018.014.023-.052-.04.038M397.29 351.94c.017.034.03.08.054.125.016-.015.037-.023.055-.036a.987.987 0 0 1-.11-.09"/>
    <path fill="#DFE4E7" d="M357.913 413.402a6.996 6.996 0 0 0 7.007 6.998h106.762c3.868 0 7-3.126 7-6.998v-14.876c0-3.873-3.132-7-7-7H364.92a7 7 0 0 0-7.007 7v14.876z"/>
    <path fill="#BF0000" d="M460.4 405.96a4.383 4.383 0 0 0 4.375 4.377 4.384 4.384 0 0 0 4.377-4.376 4.375 4.375 0 0 0-4.377-4.372 4.373 4.373 0 0 0-4.376 4.373zM443.48 405.96a4.385 4.385 0 0 0 4.373 4.377 4.376 4.376 0 0 0 4.376-4.376 4.366 4.366 0 0 0-4.377-4.372 4.375 4.375 0 0 0-4.373 4.373z"/>
    <path fill="#009CDE" d="M367.45 398.96h49.882v14h-49.88z"/>
    <path fill="#FFF" d="M372.047 402.464h7.003v7h-7.003zM383.283 402.464h6.998v7h-6.997zM394.512 402.464h7.004v7h-7.004zM405.75 402.464h6.994v7h-6.994z"/>
    <path fill="#DFE4E7" d="M461.19 274.93l-14.502 11.045h-56.78l-14.503-11.046zM461.19 231.868l-14.502-20.073h-56.78l-14.503 20.073z"/>
    <path fill="#768692" d="M375.405 231.868h85.785v43.06h-85.785z"/>
    <path fill="#009CDE" d="M467.52 263.462a4.514 4.514 0 0 1-4.514 4.514h-89.418a4.514 4.514 0 0 1-4.513-4.514v-12.785a4.514 4.514 0 0 1 4.513-4.514h89.418a4.514 4.514 0 0 1 4.515 4.514v12.785z"/>
    <path fill="#BF0000" d="M426.568 405.96a4.378 4.378 0 0 0 4.373 4.377 4.38 4.38 0 0 0 4.376-4.376 4.37 4.37 0 0 0-4.375-4.372 4.37 4.37 0 0 0-4.372 4.373z"/>
    <circle fill="#009CDE" cx="266.272" cy="289.942" r="9.114"/>
    <path fill="#FFF" d="M265.257 295.07l-4.75-4.65 2.06-2.026 2.69 2.654 5.692-5.574 2.075 2.017-7.768 7.58"/>
    <path fill="#BBC3C9" d="M764.168 600.982l-25.906 17.51H701.14l-25.908-17.51z"/>
    <path fill="#009CDE" d="M667.1 599.75c0 2.227 1.8 4.03 4.03 4.03h97.14c2.23 0 4.03-1.804 4.03-4.03a4.028 4.028 0 0 0-4.03-4.028h-97.14a4.026 4.026 0 0 0-4.03 4.028z"/>
    <path fill="#DFE4E7" d="M640.112 449.81h-6.52a4.207 4.207 0 0 1-8.414 0h-6.53v34.457h6.527a4.212 4.212 0 0 1 4.212-4.122c2.29 0 4.148 1.844 4.195 4.122h6.527V449.81z"/>
    <circle fill="#475058" cx="629.38" cy="467.038" r="8.591"/>
    <path fill="#FFF" d="M629.67 461.375h-.58c-2.727 0-5.228 1.742-5.228 4.646 0 2.033.87 2.614.87 2.614.09.09.19.175.293.257v.615c0 1.162 1.74 1.45 1.74 1.45v1.454c0 .16.13.29.292.29h4.645a.29.29 0 0 0 .29-.29v-1.454s1.742-.29 1.742-1.45v-.615a3.31 3.31 0 0 0 .292-.256s.87-.87.87-2.613c0-2.903-2.5-4.645-5.227-4.645zm-2.833 8.027c-.368-.14-.783-.65-.415-1.756.23-.74.924-1.11 1.71-.833.65.23.88 1.063.693 1.616-.277.878-1.062 1.247-1.988.972zm3.142 1.94c-.322 0-.554-.555-.6-.786 0 .277-.23.786-.6.786-.232 0-.416-.14-.416-.416 0-.556.646-1.618 1.016-1.71.37.14 1.016 1.154 1.016 1.71 0 .276-.184.416-.417.416zm1.943-1.94c-.926.274-1.71-.095-1.988-.973-.185-.6.044-1.433.692-1.617.738-.23 1.48.092 1.71.833.37 1.107 0 1.617-.414 1.756z"/>
    <path fill="#DFE4E7" d="M578.504 449.81h-6.52a4.207 4.207 0 0 1-8.414 0h-6.53v34.457h6.53a4.212 4.212 0 0 1 4.21-4.122c2.29 0 4.15 1.844 4.197 4.122h6.527V449.81z"/>
    <circle fill="#475058" cx="567.772" cy="467.038" r="8.591"/>
    <path fill="#FFF" d="M568.06 461.375h-.577c-2.728 0-5.23 1.742-5.23 4.646 0 2.033.872 2.614.872 2.614.09.09.188.175.292.257v.615c0 1.162 1.74 1.45 1.74 1.45v1.454c0 .16.13.29.292.29h4.644a.29.29 0 0 0 .29-.29v-1.454s1.742-.29 1.742-1.45v-.615a3.31 3.31 0 0 0 .292-.256s.87-.87.87-2.613c0-2.903-2.5-4.645-5.227-4.645zm-2.83 8.027c-.37-.14-.784-.65-.416-1.756.23-.74.924-1.11 1.71-.833.65.23.88 1.063.693 1.616-.278.878-1.063 1.247-1.988.972zm3.14 1.94c-.32 0-.553-.555-.6-.786 0 .277-.228.786-.598.786-.233 0-.417-.14-.417-.416 0-.556.646-1.618 1.016-1.71.37.14 1.017 1.154 1.017 1.71 0 .276-.183.416-.417.416zm1.944-1.94c-.926.274-1.71-.095-1.988-.973-.185-.6.044-1.433.692-1.617.738-.23 1.48.092 1.71.833.37 1.107 0 1.617-.414 1.756z"/>
    <path fill="#DFE4E7" d="M520.36 449.81h-6.522a4.207 4.207 0 0 1-8.414 0h-6.53v34.457h6.53a4.212 4.212 0 0 1 4.212-4.122c2.29 0 4.15 1.844 4.196 4.122h6.527V449.81z"/>
    <circle fill="#475058" cx="509.627" cy="467.038" r="8.591"/>
    <path fill="#FFF" d="M509.916 461.375h-.578c-2.728 0-5.23 1.742-5.23 4.646 0 2.033.872 2.614.872 2.614.09.09.188.175.292.257v.615c0 1.162 1.74 1.45 1.74 1.45v1.454c0 .16.13.29.292.29h4.645a.29.29 0 0 0 .29-.29v-1.454s1.74-.29 1.74-1.45v-.615a3.31 3.31 0 0 0 .293-.256s.87-.87.87-2.613c.002-2.903-2.5-4.645-5.227-4.645zm-2.832 8.027c-.368-.14-.783-.65-.415-1.756.228-.74.923-1.11 1.71-.833.648.23.878 1.063.692 1.616-.277.878-1.062 1.247-1.988.972zm3.142 1.94c-.32 0-.553-.555-.6-.786 0 .277-.228.786-.598.786-.233 0-.417-.14-.417-.416 0-.556.647-1.618 1.017-1.71.37.14 1.016 1.154 1.016 1.71 0 .276-.184.416-.417.416zm1.944-1.94c-.926.274-1.71-.095-1.988-.973-.185-.6.044-1.433.692-1.617.738-.23 1.48.092 1.71.833.37 1.107 0 1.617-.414 1.756z"/>
    <path fill="#DFE4E7" d="M735.25 465.664l-5.61-3.326a4.207 4.207 0 0 1-7.237-4.29l-5.616-3.332-17.572 29.642 5.617 3.33a4.21 4.21 0 0 1 5.725-1.398c1.97 1.168 2.628 3.703 1.508 5.686l5.614 3.33 17.57-29.642z"/>
    <circle fill="#475058" cx="717.231" cy="475.011" r="8.592"/>
    <path fill="#FFF" d="M720.37 470.287l-.5-.295c-2.345-1.39-5.386-1.17-6.866 1.33-1.037 1.748-.582 2.692-.582 2.692.03.122.07.246.12.37l-.314.528c-.592 1 .757 2.135.757 2.135l-.74 1.25a.29.29 0 0 0 .103.4l3.994 2.367c.14.082.317.036.4-.1l.74-1.252s1.646.64 2.237-.36l.313-.528c.13-.017.26-.04.382-.072 0 0 1.193-.306 2.08-1.803 1.482-2.5.22-5.272-2.126-6.663zm-6.532 5.46c-.245-.308-.342-.958.54-1.72.574-.522 1.36-.487 1.895.154.44.53.214 1.363-.228 1.744-.686.614-1.55.53-2.207-.176zm1.714 3.27c-.275-.162-.19-.757-.113-.98-.143.238-.6.56-.918.37-.2-.117-.287-.332-.146-.57.283-.478 1.38-1.06 1.746-.95.248.308.285 1.51 0 1.987-.14.236-.37.263-.57.144zm2.66-.675c-.935-.236-1.422-.955-1.213-1.852.145-.608.767-1.21 1.42-1.036.75.178 1.227.833 1.046 1.59-.248 1.138-.825 1.388-1.253 1.298z"/>
    <path fill="#DFE4E7" d="M748.328 541.438l2.826-5.877a4.208 4.208 0 0 1 3.645-7.584l2.83-5.884-31.058-14.93-2.828 5.886a4.212 4.212 0 0 1 1.89 5.58c-.992 2.065-3.46 2.94-5.532 1.997l-2.83 5.884 31.056 14.928z"/>
    <circle fill="#475058" cx="737.45" cy="524.3" r="8.592"/>
    <path fill="#FFF" d="M742.43 527.015l.25-.522c1.182-2.457.696-5.467-1.922-6.725-1.83-.88-2.733-.346-2.733-.346a3.493 3.493 0 0 0-.357.15l-.554-.266c-1.047-.503-2.062.94-2.062.94l-1.31-.63a.29.29 0 0 0-.39.137l-2.01 4.185c-.07.147-.01.32.134.39l1.31.63s-.492 1.694.554 2.197l.555.267c.027.13.062.254.105.375 0 0 .407 1.16 1.977 1.916 2.62 1.258 5.27-.24 6.453-2.698zm-6.01-6.033c.288-.27.927-.423 1.763.388.57.528.604 1.313.01 1.902-.488.484-1.338.33-1.755-.075-.67-.63-.664-1.498-.017-2.215zm-3.107 1.993c.14-.288.738-.256.968-.198-.25-.12-.607-.546-.45-.88.103-.21.31-.316.557-.197.5.24 1.18 1.283 1.1 1.657-.284.274-1.48.416-1.98.174-.25-.12-.295-.344-.194-.555zm.905 2.592c.154-.953.827-1.5 1.74-1.37.618.093 1.27.66 1.154 1.324-.11.766-.724 1.296-1.492 1.182-1.156-.147-1.455-.7-1.402-1.135z"/>
    <g fill="#BF0000">
        <path d="M222.963 164.376l.026-.062h.992l.026.062c.04.094.062.298.062.61 0 .314-.018.553-.053.717-.012.06-.018.097-.018.114s.005.056.017.114c.03.153.044.367.044.643s-.014.486-.043.633a.677.677 0 0 0 0 .22c.03.152.044.366.044.642s-.014.486-.043.633a.733.733 0 0 0 0 .23c.035.17.05.424.05.76-.005.338-.026.538-.067.603-.006.006-.008.02-.004.04.002.02.007.042.013.065.046.146.066.404.06.773s-.03.578-.078.625c-.012.012-.185.018-.52.018l-.5-.01-.018-.07c-.04-.15-.06-.384-.058-.698.003-.312.025-.528.066-.646l.018-.07-.255-.01h-.246l-.027-.07c-.04-.152-.06-.387-.057-.703.002-.316.024-.533.065-.65a.313.313 0 0 0 0-.15 2.974 2.974 0 0 1-.06-.697c0-.31.02-.523.06-.646a.35.35 0 0 0 0-.158c-.075-.275-.09-.633-.043-1.072.018-.176.038-.277.062-.303.022-.026.107-.04.254-.04h.246l-.018-.078c-.04-.164-.062-.404-.062-.72s.022-.535.063-.646zm1.002-1.503l.018-.053h1.002c.662 0 1 .006 1.01.018.03.053.052.225.066.514.016.29.012.51-.012.655a.558.558 0 0 0-.018.093.815.815 0 0 0-.01.083c-.01.064-.022.103-.034.114s-.35.018-1.01.018l-1.003-.01-.018-.07c-.04-.15-.06-.39-.058-.715.004-.327.027-.54.068-.647zm0 9l.018-.053h2.004l.018.053c.047.117.067.372.062.765s-.032.612-.08.66c-.01.01-.348.017-1.01.017l-1.002-.01-.018-.07c-.04-.15-.06-.39-.058-.715 0-.327.024-.54.065-.647zm1.995-7.497l.026-.062h.5c.323 0 .493.01.51.026.036.06.06.23.07.515s.007.508-.017.672c-.03.17-.048.26-.054.272-.012.01.067.017.237.017.164 0 .252.006.264.018.03.053.05.224.066.515.014.29.01.508-.014.654a.886.886 0 0 0-.027.176.707.707 0 0 0-.01.246c.035.158.05.372.05.642-.005.27-.02.48-.05.633a.733.733 0 0 0 0 .23c.04.176.06.433.053.77-.006.337-.03.537-.07.602-.012.012-.1.018-.264.018h-.246l.026.08c.04.15.06.41.053.776-.006.367-.032.573-.08.62-.01.012-.184.018-.518.018l-.492-.01-.018-.07c-.04-.15-.062-.384-.062-.698 0-.312.02-.528.062-.646a.313.313 0 0 0 0-.15c-.04-.157-.062-.392-.062-.702s.02-.527.062-.65a.313.313 0 0 0 0-.15 2.974 2.974 0 0 1-.062-.697c0-.308.02-.522.062-.645a.35.35 0 0 0 0-.158 2.972 2.972 0 0 1-.062-.7c0-.306.02-.52.062-.645a.313.313 0 0 0 0-.15c-.04-.163-.062-.403-.062-.72s.024-.535.065-.646zM231.9 162.873l.02-.053h.746c.498 0 .753.006.765.018.007.006.016.04.027.105.076.422.076.84 0 1.257a.732.732 0 0 0 0 .23c.03.15.044.363.044.637 0 .27-.014.484-.043.637a.733.733 0 0 0 0 .23c.03.15.044.365.044.64s-.014.487-.043.634a.677.677 0 0 0 0 .22c.035.17.05.424.044.76-.005.338-.028.538-.07.603-.01.013-.005.048.02.106.04.14.058.392.052.75-.006.362-.03.577-.07.647-.012.012-.006.047.018.105.04.146.06.398.053.756s-.03.57-.07.642l.035.01c.023 0 .06 0 .105.003a4.922 4.922 0 0 0 .365.013h.232c.498 0 .753.006.765.018.035.06.06.232.07.52s.006.513-.018.677c-.03.164-.05.252-.062.264s-.768.02-2.268.02l-2.25-.01-.018-.07c-.042-.152-.062-.392-.058-.716.002-.326.024-.54.065-.646l.026-.053h1.494l-.026-.088a2.972 2.972 0 0 1-.06-.7c0-.306.02-.52.06-.645a.313.313 0 0 0 0-.15c-.04-.157-.06-.392-.06-.702s.02-.527.06-.65a.313.313 0 0 0 0-.15 2.974 2.974 0 0 1-.06-.697c0-.31.02-.523.06-.646a.35.35 0 0 0 0-.158 2.972 2.972 0 0 1-.06-.7c0-.307.02-.522.06-.646l.027-.07-.5-.01h-.51l-.02-.07c-.04-.15-.06-.39-.057-.716.003-.324.025-.54.066-.646l.018-.062h1.002l-.026-.08c-.04-.157-.06-.395-.058-.715s.028-.54.07-.652zM239.38 162.873l.02-.053h.746c.498 0 .753.006.765.018.007.006.016.04.027.105.076.422.076.84 0 1.257a.732.732 0 0 0 0 .23c.03.15.044.363.044.637 0 .27-.014.484-.043.637a.733.733 0 0 0 0 .23c.03.15.044.365.044.64s-.014.487-.043.634a.677.677 0 0 0 0 .22c.035.17.05.424.044.76-.005.338-.028.538-.07.603-.01.013-.005.048.02.106.04.14.058.392.052.75-.006.362-.03.577-.07.647-.012.012-.006.047.018.105.04.146.06.398.053.756s-.03.57-.07.642l.035.01c.023 0 .06 0 .105.003a4.922 4.922 0 0 0 .365.013h.232c.498 0 .753.006.765.018.035.06.06.232.07.52s.006.513-.018.677c-.03.164-.05.252-.062.264s-.768.02-2.268.02l-2.25-.01-.018-.07c-.042-.152-.062-.392-.058-.716.002-.326.024-.54.065-.646l.026-.053h1.494l-.026-.088a2.972 2.972 0 0 1-.06-.7c0-.306.02-.52.06-.645a.313.313 0 0 0 0-.15c-.04-.157-.06-.392-.06-.702s.02-.527.06-.65a.313.313 0 0 0 0-.15 2.974 2.974 0 0 1-.06-.697c0-.31.02-.523.06-.646a.35.35 0 0 0 0-.158 2.972 2.972 0 0 1-.06-.7c0-.307.02-.522.06-.646l.027-.07-.5-.01h-.51l-.02-.07c-.04-.15-.06-.39-.057-.716.003-.324.025-.54.066-.646l.018-.062h1.002l-.026-.08c-.04-.157-.06-.395-.058-.715s.028-.54.07-.652zM246.86 162.873l.018-.053h.747c.498 0 .753.006.765.018.006.006.015.04.026.105.076.422.076.84 0 1.257a.732.732 0 0 0 0 .23c.03.15.044.363.044.637 0 .27-.015.484-.044.637a.733.733 0 0 0 0 .23c.03.15.044.365.044.64s-.015.487-.044.634a.677.677 0 0 0 0 .22c.035.17.05.424.044.76-.006.338-.03.538-.07.603-.012.013-.006.048.018.106.04.152.06.413.053.782s-.03.577-.078.624c-.006.006-.26.01-.765.01h-.747l-.018-.07c-.04-.153-.062-.388-.062-.704s.02-.533.062-.65a.313.313 0 0 0 0-.15 2.974 2.974 0 0 1-.062-.697c0-.308.02-.522.062-.645a.35.35 0 0 0 0-.158 2.972 2.972 0 0 1-.062-.7c0-.306.02-.52.062-.645a.313.313 0 0 0 0-.15c-.04-.157-.062-.392-.062-.702s.02-.527.062-.65a.313.313 0 0 0 0-.15c-.04-.157-.06-.395-.058-.715s.025-.54.066-.652zm0 9l.018-.053h.747c.498 0 .753.006.765.018.03.053.05.225.066.514.014.29.01.51-.014.655a.558.558 0 0 0-.018.093.815.815 0 0 0-.01.083c-.01.064-.022.103-.034.114s-.267.018-.765.018l-.747-.01-.018-.07c-.04-.15-.06-.39-.058-.715.005-.327.027-.54.068-.647zM253.39 161.37l.02-.053h1.748c1.166 0 1.755.006 1.767.018.035.06.06.23.07.52s.006.512-.018.676c-.03.165-.047.253-.053.265l.21.026h.027c.165 0 .253.007.265.02.035.058.06.23.07.518s.006.513-.018.677c-.03.164-.047.252-.053.264-.012.01.067.017.237.017.16 0 .247.01.265.026.006.006.015.04.026.105.077.404.074.823-.008 1.257a.732.732 0 0 0 0 .23c.03.15.044.365.044.64s-.015.487-.044.634a.677.677 0 0 0 0 .22c.035.17.05.424.05.764-.005.34-.026.542-.067.606-.012.012-.1.018-.264.018h-.245l.018.08c.04.15.06.412.057.78s-.027.578-.074.625c-.006.006-.428.01-1.266.01h-1.248l-.018-.07c-.04-.153-.062-.388-.062-.704s.02-.534.062-.65l.026-.063-.255-.01-.255-.008-.018-.07c-.04-.147-.062-.38-.062-.695s.02-.533.062-.65a.35.35 0 0 0 0-.158 2.972 2.972 0 0 1-.062-.7c0-.306.02-.52.062-.645a.313.313 0 0 0 0-.15c-.04-.157-.06-.395-.058-.716.003-.318.025-.534.066-.646l.018-.062h1.494l-.018-.08a2.974 2.974 0 0 1-.062-.697c0-.308.02-.522.062-.645l.026-.07h-1.442c-.065 0-.126.002-.185.004-.06.003-.11.004-.154.004h-.12a.254.254 0 0 0-.078.01h-.018c.053.093.08.333.08.72 0 .398-.027.645-.08.738-.012.012-.097.018-.255.018s-.238.01-.238.026c.04.064.062.266.066.603a3.96 3.96 0 0 1-.05.76.733.733 0 0 0 0 .228c.03.152.045.366.045.642s-.015.486-.044.633a.677.677 0 0 0 0 .22c.034.17.05.424.048.76-.004.338-.025.538-.066.603-.006.006-.008.02-.004.04.002.02.007.042.013.065.042.147.06.4.06.762-.005.36-.026.575-.067.646-.012.012.067.018.237.018.123 0 .196.003.22.01s.04.022.053.052c.03.076.05.248.057.514.01.268.002.48-.02.638s-.042.246-.054.264c-.006.006.067.01.22.013a81.702 81.702 0 0 0 1.52.014c1.166 0 1.755.006 1.767.018.03.052.05.224.065.513.015.29.01.51-.013.655a.558.558 0 0 0-.018.093.815.815 0 0 0-.01.084c-.01.064-.022.103-.034.114s-.683.018-2.013.018l-2.004-.01-.018-.07c-.04-.15-.06-.386-.058-.702s.025-.533.066-.65l.018-.062-.5-.01-.502-.008-.026-.07c-.04-.152-.06-.385-.058-.7.003-.31.025-.527.066-.645l.018-.07-.246-.01h-.255l-.017-.07c-.04-.152-.062-.387-.062-.703s.022-.533.063-.65a.313.313 0 0 0 0-.15 2.974 2.974 0 0 1-.062-.697c0-.31.022-.523.063-.646a.35.35 0 0 0 0-.158 2.972 2.972 0 0 1-.062-.7c0-.306.022-.52.063-.645a.313.313 0 0 0 0-.148c-.076-.275-.09-.636-.044-1.08.017-.177.037-.277.06-.305.024-.025.11-.04.256-.04h.246l-.018-.078c-.04-.165-.062-.405-.062-.722s.02-.53.062-.642l.026-.053h.992l-.025-.088c-.04-.158-.06-.396-.058-.717.007-.33.03-.547.07-.658zm2.998 4.518l.018-.07h-.645c-.05 0-.095.002-.136.005s-.078.004-.11.004h-.065l-.027.01c.04.063.064.266.07.605s-.01.595-.044.765a.677.677 0 0 0 0 .22c.04.176.058.433.052.77s-.032.537-.08.602h.063c.04.005.1.01.176.013s.16.004.247.004h.5l-.017-.08a2.974 2.974 0 0 1-.062-.697c0-.31.02-.523.062-.646a.35.35 0 0 0 0-.158 2.972 2.972 0 0 1-.062-.7c-.002-.31.02-.525.06-.648zM259.886 162.873l.026-.053h.747c.49 0 .743.006.755.018.03.053.053.225.07.514.018.29.015.51-.01.655a.886.886 0 0 0-.027.167.572.572 0 0 1-.025.123c-.012.012.064.018.23.018.157 0 .245.01.263.026.03.054.053.225.07.516.018.29.015.508-.01.654-.005.012-.01.04-.017.088s-.01.073-.01.08a.514.514 0 0 1-.026.113c-.018.02-.108.027-.272.027-.17 0-.25.006-.237.018.047.076.07.327.07.75 0 .427-.023.662-.07.71-.012.01-.267.017-.765.017l-.747-.01-.026-.07c-.04-.15-.06-.384-.058-.698.002-.312.024-.528.065-.646l.018-.07-.246-.01h-.255l-.018-.07c-.076-.27-.09-.63-.044-1.08.018-.176.038-.276.062-.304.023-.025.108-.04.255-.04h.246l-.018-.078c-.04-.164-.062-.404-.062-.72s.022-.532.063-.643zm3.498 0l.026-.053h.5c.33 0 .5.006.51.018.036.06.06.23.07.52s.007.512-.017.676c-.03.164-.047.252-.053.264-.012.012-.1.018-.264.018-.158 0-.237.01-.237.026.046.082.07.32.07.712 0 .416-.024.665-.07.747-.013.013-.1.02-.265.02-.17 0-.25.005-.237.017.053.094.08.334.08.72 0 .4-.027.646-.08.74-.018.017-.105.025-.264.025-.17 0-.25.006-.237.018.053.094.08.334.08.72 0 .4-.027.646-.08.74-.012.01-.1.017-.264.017-.158 0-.237.01-.237.026.053.094.08.33.08.712 0 .404-.027.653-.08.747-.012.012-.1.018-.264.018-.17 0-.25.006-.237.018.053.094.08.334.08.72 0 .4-.027.646-.08.74-.018.017-.105.025-.264.025-.17 0-.248.006-.236.018.047.083.07.335.07.757s-.023.656-.07.703c-.012.012-.185.018-.52.018l-.5-.01-.018-.07c-.07-.25-.082-.61-.035-1.08.02-.176.04-.275.063-.3s.108-.034.255-.034h.246l-.026-.088c-.07-.258-.082-.615-.035-1.072.018-.176.038-.277.062-.303.023-.026.108-.04.255-.04h.246l-.026-.078c-.076-.275-.09-.636-.044-1.08.018-.177.038-.277.062-.305.023-.025.108-.04.255-.04h.255l-.026-.078c-.076-.276-.09-.637-.044-1.082.018-.176.038-.275.062-.3s.108-.034.255-.034h.255l-.026-.088c-.076-.275-.09-.633-.044-1.072.018-.176.038-.277.062-.303.023-.026.108-.04.255-.04h.246l-.018-.078c-.076-.275-.09-.636-.044-1.08.02-.177.04-.277.063-.305.023-.025.108-.04.255-.04h.246l-.018-.078c-.04-.165-.062-.405-.062-.722s.02-.534.06-.645zm-2.505 1.512l.025-.07h-.246c-.16 0-.238.01-.238.026.047.083.07.32.07.713 0 .416-.023.665-.07.747-.012.012.067.018.237.018h.245l-.026-.08c-.042-.157-.063-.392-.063-.702s.02-.528.062-.65zm2.504 4.49l.026-.06h.747c.492 0 .747.008.765.025.03.053.05.224.065.515.015.29.01.508-.013.654-.006.01-.012.04-.018.087l-.01.08a.514.514 0 0 1-.025.113l.212.026h.026c.164 0 .252.006.264.018.03.053.05.224.066.515.014.288.01.507-.014.653a1.024 1.024 0 0 0-.027.176.514.514 0 0 1-.026.115c-.017.018-.104.026-.263.026-.17 0-.25.005-.237.017.047.082.068.334.065.756s-.027.656-.074.703c-.01.012-.266.018-.764.018l-.747-.01-.02-.07c-.04-.145-.06-.377-.06-.693s.02-.532.06-.65l.027-.07-.255-.008-.255-.01-.018-.07c-.077-.27-.092-.626-.045-1.07.018-.177.038-.278.062-.304.023-.027.108-.04.255-.04h.246l-.018-.08c-.04-.163-.062-.403-.062-.72s.025-.53.066-.642zm1.002 1.513l.018-.07h-.246c-.17 0-.25.006-.237.018.048.082.07.322.07.72 0 .41-.022.657-.07.74l.212.025h.272l-.018-.087a2.972 2.972 0 0 1-.062-.7c0-.306.02-.522.062-.645zM222.462 183.87l.026-.053h.747c.492 0 .744.006.756.018.036.06.06.23.07.52s.007.512-.017.676c-.03.165-.047.253-.053.265l.21.026h.027c.164 0 .252.007.264.02.036.058.06.23.07.518s.007.513-.017.677c-.03.164-.047.252-.053.264h.062c.04.005.1.01.18.013.08.003.163.004.25.004h.493l-.018-.08c-.076-.274-.09-.635-.044-1.08.018-.176.038-.275.062-.3s.108-.034.255-.034h.246l-.018-.088c-.04-.164-.062-.404-.062-.72s.02-.53.062-.643l.026-.053h.747c.5 0 .754.005.766.017.035.06.06.23.07.52s.006.512-.018.676c-.03.164-.047.252-.053.264-.018.018-.105.026-.264.026-.17 0-.248.006-.236.018.047.083.07.323.07.722 0 .41-.023.656-.07.738-.012.012-.185.018-.52.018h-.108c-.04 0-.074.002-.105.004-.032.004-.062.005-.092.005s-.055.002-.075.005-.04.004-.057.004H226l-.008.01c.053.093.08.33.08.71 0 .405-.027.654-.08.748l.062.01c.04 0 .1 0 .176.003.076.004.158.005.246.005.334 0 .507.006.52.018.034.06.058.23.07.52s.005.512-.02.676c-.028.164-.046.252-.052.264l.21.026h.027c.165 0 .253.006.265.018.035.06.06.23.07.52s.006.512-.018.676c-.03.164-.05.252-.062.264s-.267.018-.765.018l-.747-.01-.018-.07c-.04-.145-.062-.377-.062-.693s.02-.534.062-.65l.026-.07-.254-.01-.255-.01-.017-.07c-.04-.15-.062-.383-.062-.693s.022-.527.063-.65l.026-.07h-.656c-.05 0-.095.002-.136.005s-.078.004-.11.004h-.065l-.026.01c.053.093.08.333.08.72 0 .398-.027.645-.08.738-.018.018-.105.026-.264.026-.17 0-.25.006-.237.018.047.082.07.334.07.756s-.023.656-.07.703c-.012.012-.267.018-.765.018l-.746-.01-.026-.07c-.07-.25-.082-.61-.035-1.08.018-.176.038-.275.062-.3s.108-.034.255-.034h.246l-.018-.087c-.04-.164-.062-.404-.062-.72s.02-.53.062-.643l.026-.053h.992l-.025-.08c-.04-.157-.06-.392-.06-.702s.02-.527.06-.65l.027-.07h-.5l-.51-.01-.02-.07c-.04-.15-.06-.384-.057-.697s.025-.53.066-.646l.018-.07-.255-.01-.247-.008-.026-.07c-.04-.152-.06-.39-.057-.717.008-.336.03-.55.072-.657zM230.952 179.37l.018-.053h1.75c1.165 0 1.754.006 1.766.018.035.06.06.23.07.52s.006.512-.018.676c-.03.165-.047.253-.053.265l.21.026h.027c.164 0 .252.007.264.02.035.058.06.23.07.518s.006.513-.018.677c-.03.164-.047.252-.053.264-.012.01.067.017.237.017.158 0 .246.01.264.026.006.006.015.04.026.105.076.404.073.823-.01 1.257a.732.732 0 0 0 0 .23c.03.15.045.365.045.64s-.015.487-.044.634a.677.677 0 0 0 0 .22c.035.17.05.424.05.764-.005.34-.026.542-.067.606-.012.012-.1.018-.264.018h-.246l.018.08c.04.15.06.412.057.78s-.026.578-.073.625c-.006.006-.428.01-1.266.01h-1.247l-.018-.07c-.04-.153-.062-.388-.062-.704s.02-.534.062-.65l.026-.063-.254-.01-.255-.008-.017-.07c-.04-.147-.062-.38-.062-.695s.022-.533.063-.65a.35.35 0 0 0 0-.158 2.972 2.972 0 0 1-.062-.7c0-.306.022-.52.063-.645a.313.313 0 0 0 0-.15c-.04-.157-.06-.395-.058-.716.003-.318.025-.534.066-.646l.02-.062H233.462l-.018-.08a2.974 2.974 0 0 1-.062-.697c0-.308.02-.522.062-.645l.026-.07h-1.44c-.065 0-.127.002-.186.004-.06.003-.11.004-.154.004h-.118a.258.258 0 0 0-.08.01h-.017c.053.093.08.333.08.72 0 .398-.027.645-.08.738-.012.012-.097.018-.255.018s-.237.01-.237.026c.04.064.062.266.066.603a3.96 3.96 0 0 1-.05.76.733.733 0 0 0 0 .228c.03.152.044.366.044.642s-.015.486-.044.633a.677.677 0 0 0 0 .22c.035.17.05.424.05.76-.005.338-.026.538-.067.603-.006.006-.008.02-.004.04 0 .02.006.042.012.065.04.147.06.4.058.762-.004.36-.025.575-.066.646-.012.012.067.018.237.018.124 0 .197.003.22.01s.042.022.054.052c.03.076.05.248.057.514.01.268.003.48-.02.638s-.04.246-.053.264c-.006.006.067.01.22.013a81.702 81.702 0 0 0 1.52.014c1.166 0 1.755.006 1.767.018.03.052.05.224.065.513.014.29.01.51-.014.655a.558.558 0 0 0-.018.093.815.815 0 0 0-.01.084c-.01.064-.022.103-.034.114s-.683.018-2.013.018l-2.003-.01-.018-.07c-.042-.15-.062-.386-.06-.702s.026-.533.067-.65l.018-.062-.5-.01-.502-.008-.026-.07c-.04-.152-.06-.385-.058-.7.002-.31.024-.527.065-.645l.018-.07-.246-.01h-.255l-.018-.07c-.04-.152-.062-.387-.062-.703s.02-.533.062-.65a.313.313 0 0 0 0-.15 2.974 2.974 0 0 1-.062-.697c0-.31.02-.523.062-.646a.35.35 0 0 0 0-.158 2.972 2.972 0 0 1-.062-.7c0-.306.02-.52.062-.645a.313.313 0 0 0 0-.148c-.076-.275-.09-.636-.044-1.08.018-.177.038-.277.062-.305.023-.025.108-.04.255-.04h.246l-.018-.078c-.04-.165-.062-.405-.062-.722s.02-.53.062-.642l.026-.053h.993l-.025-.088c-.04-.158-.06-.396-.058-.717.01-.33.03-.547.072-.658zm2.997 4.518l.017-.07h-.645c-.05 0-.096.002-.137.005s-.078.004-.11.004h-.065l-.026.01c.04.063.064.266.07.605s-.01.595-.044.765a.677.677 0 0 0 0 .22c.04.176.06.433.053.77s-.032.537-.08.602h.063c.04.005.1.01.176.013s.158.004.246.004h.5l-.017-.08a2.974 2.974 0 0 1-.06-.697c0-.31.02-.523.06-.646a.35.35 0 0 0 0-.158 2.972 2.972 0 0 1-.06-.7c-.002-.31.018-.525.06-.648zM238.95 180.873l.018-.053h1.248c.832 0 1.254.006 1.266.018.035.06.06.23.07.52s.006.512-.018.676c-.03.164-.047.252-.053.264-.01.012.068.018.238.018.158 0 .246.01.264.026.035.06.06.23.07.515s.006.508-.018.672c-.03.17-.047.26-.053.27-.01.013.068.02.238.02.164 0 .252.005.264.017.035.06.06.23.07.52s.006.512-.018.676c-.03.164-.05.252-.062.264s-.267.018-.765.018l-.747-.01-.018-.07c-.04-.15-.062-.384-.062-.698 0-.312.02-.528.062-.646l.026-.07-.255-.008h-.255l-.018-.07c-.04-.152-.062-.385-.062-.7 0-.31.02-.53.062-.653l.026-.07h-.255c-.157 0-.236.008-.236.025.053.094.08.33.08.712 0 .404-.027.653-.08.747-.012.012-.1.018-.264.018-.17 0-.25.006-.237.018.047.076.07.327.07.75 0 .427-.023.662-.07.71-.012.01-.27.017-.773.017l-.747-.01-.018-.07c-.07-.25-.082-.608-.035-1.07.018-.177.038-.278.062-.304.023-.027.108-.04.255-.04h.246l-.026-.08c-.07-.257-.082-.617-.035-1.08.018-.176.038-.276.062-.304.023-.026.108-.04.255-.04h.245l-.026-.08c-.042-.157-.062-.395-.058-.715.005-.325.027-.54.068-.652zM244.856 183.87l.026-.053h.747c.49 0 .743.006.755.018.03.053.053.224.07.515.018.29.015.508-.01.654a.886.886 0 0 0-.027.176c-.01.064-.022.103-.034.114s-.267.018-.765.018l-.748-.01-.026-.07c-.04-.15-.06-.39-.058-.716.005-.325.027-.54.068-.646zm0 3.006l.026-.062H246.375l.026.062c.047.117.067.372.062.765s-.032.613-.08.66c-.005.006-.26.01-.764.01h-.747l-.026-.07c-.04-.153-.06-.392-.058-.718.003-.325.025-.54.066-.646zm2.004-4.5l.018-.062h.5c.323 0 .493.01.51.026.007.006.016.04.027.105.076.416.076.835 0 1.257a.732.732 0 0 0 0 .23c.04.175.06.43.053.764s-.032.533-.08.598l.212.026h.106c.087 0 .14.002.157.004.018.004.032.02.044.05.03.075.05.254.057.535.01.28.002.482-.02.605 0 .012-.003.026-.005.044l-.015.06c-.005.024-.01.042-.01.054a.572.572 0 0 1-.025.123c-.012.012-.1.018-.264.018-.158 0-.237.01-.237.026.04.065.063.267.07.604s-.01.59-.045.76a.733.733 0 0 0 0 .23c.04.18.057.442.05.786-.01.342-.035.534-.076.575-.013.012-.186.018-.52.018l-.5-.01-.02-.07c-.04-.15-.06-.384-.06-.698 0-.312.02-.528.06-.646a.313.313 0 0 0 0-.15c-.04-.158-.06-.393-.06-.703s.02-.527.06-.65l.027-.062-.255-.01-.255-.008-.018-.07c-.077-.27-.092-.63-.045-1.08.018-.177.038-.276.062-.3s.108-.035.255-.035h.255l-.026-.088a2.972 2.972 0 0 1-.06-.7c0-.306.02-.52.06-.645a.313.313 0 0 0 0-.15c-.04-.158-.06-.396-.057-.717.004-.32.026-.536.067-.647zm1.494 1.494l.026-.053h.747c.498 0 .753.006.765.018.03.053.05.224.065.515.015.29.01.508-.013.654a.886.886 0 0 0-.027.176c-.012.064-.023.103-.035.114s-.267.018-.765.018l-.747-.01-.018-.07c-.04-.15-.062-.39-.062-.716.003-.325.023-.54.064-.646zm0 3.006l.026-.062h.747c.492 0 .747.01.765.026.03.053.05.224.065.515.015.29.01.508-.013.654a.726.726 0 0 0-.027.167c-.012.07-.023.11-.035.122-.006.005-.26.008-.765.008h-.747l-.018-.07c-.04-.152-.062-.39-.062-.717.003-.323.023-.54.064-.644zM252.837 182.376l.026-.062h.747c.486 0 .738.01.756.026.035.06.06.23.07.515s.006.508-.018.672c-.03.17-.047.26-.053.272l.062.008.18.004c.08.004.163.005.25.005h.493l-.018-.08c-.04-.163-.062-.403-.062-.72s.02-.53.062-.642l.026-.062h.747c.492 0 .747.01.765.026.035.058.06.23.07.514s.006.508-.018.672c-.03.17-.047.26-.053.272l.06.01c.042 0 .1 0 .177.003.076.005.158.006.246.006.334 0 .507.006.52.018.034.06.058.23.07.52a3.286 3.286 0 0 1-.04.755l-.01.056-.008.045a.127.127 0 0 0-.005.036v.02a.03.03 0 0 1-.01.02v.008c-.017.018-.19.026-.518.026-.088 0-.17.002-.246.004a2.132 2.132 0 0 0-.176.014h-.062c.04.064.064.266.07.602.006.338-.01.59-.044.76a.733.733 0 0 0 0 .23c.04.176.06.433.053.77-.006.337-.032.537-.08.602l.063.01c.04 0 .1 0 .176.003.076.004.158.005.246.005.334 0 .507.006.52.018.034.06.058.23.07.52a3.286 3.286 0 0 1-.04.755l-.01.057-.008.045a.127.127 0 0 0-.005.035v.02a.03.03 0 0 1-.01.02v.008c-.018.018-.188.026-.51.026h-.5l.025.08c.04.15.06.41.053.777-.006.366-.032.573-.08.62-.01.012-.266.018-.764.018l-.747-.01-.018-.07c-.042-.145-.063-.377-.063-.693s.02-.533.062-.65l.025-.07h-.993l.018.08c.04.15.06.41.058.777-.004.365-.028.572-.075.62-.012.01-.27.017-.773.017l-.747-.01-.018-.07c-.04-.152-.06-.387-.057-.703.002-.316.024-.533.065-.65l.018-.062-.5-.01-.5-.008-.02-.07c-.04-.152-.06-.39-.06-.717 0-.324.02-.54.06-.646l.027-.053h.992l-.018-.078c-.04-.158-.062-.393-.062-.703s.02-.528.062-.65a.313.313 0 0 0 0-.15c-.04-.158-.062-.393-.062-.703s.02-.527.062-.65l.018-.062-.5-.01-.502-.008-.018-.07c-.04-.152-.062-.39-.062-.717 0-.324.02-.54.062-.646l.026-.053h.992l-.017-.078c-.04-.164-.06-.404-.06-.72s.026-.535.067-.646zm2.496 3.015l.026-.07h-.655c-.05 0-.096.003-.137.005-.04.004-.078.005-.11.005a.158.158 0 0 0-.065.01h-.026c.04.063.064.265.07.6.006.34-.01.592-.044.762a.733.733 0 0 0 0 .23c.04.175.06.432.053.768-.006.338-.032.538-.08.603l.063.01c.04 0 .1 0 .18.003.08.004.162.005.25.005h.492l-.018-.078c-.04-.158-.062-.393-.062-.703s.02-.528.062-.65a.313.313 0 0 0 0-.15 2.974 2.974 0 0 1-.062-.698c0-.313.02-.528.06-.65zM260.316 182.376l.026-.062h.747c.485 0 .737.01.755.026.035.06.06.23.07.515s.006.508-.018.672c-.03.17-.047.26-.053.272l.062.008.18.004c.08.004.163.005.25.005h.493l-.02-.08c-.04-.163-.06-.403-.06-.72s.02-.53.06-.642l.027-.062h.747c.492 0 .747.01.765.026.034.058.058.23.07.514s.005.508-.02.672c-.028.17-.046.26-.052.272l.062.01c.04 0 .1 0 .176.003.076.005.158.006.246.006.334 0 .507.006.52.018.034.06.058.23.07.52a3.286 3.286 0 0 1-.04.755l-.01.056-.008.045a.127.127 0 0 0-.005.036v.02a.03.03 0 0 1-.01.02v.008c-.018.018-.19.026-.52.026-.087 0-.17.002-.245.004a2.132 2.132 0 0 0-.176.014h-.063c.04.064.064.266.07.602.006.338-.01.59-.044.76a.733.733 0 0 0 0 .23c.04.176.06.433.053.77-.006.337-.032.537-.08.602l.063.01c.04 0 .1 0 .175.003.076.004.158.005.246.005.335 0 .508.006.52.018.035.06.06.23.07.52a3.435 3.435 0 0 1-.04.755c-.003.023-.006.043-.01.057l-.007.045a.127.127 0 0 0-.005.035v.02a.03.03 0 0 1-.01.02v.008c-.017.018-.187.026-.51.026h-.5l.026.08c.04.15.06.41.053.777-.006.366-.032.573-.08.62-.01.012-.266.018-.764.018l-.747-.01-.018-.07c-.04-.145-.062-.377-.062-.693s.02-.533.062-.65l.026-.07h-.993l.02.08c.04.15.06.41.057.777-.004.365-.028.572-.075.62-.012.01-.27.017-.773.017l-.748-.01-.018-.07c-.04-.152-.06-.387-.057-.703.002-.316.024-.533.065-.65l.018-.062-.5-.01-.502-.008-.018-.07c-.04-.152-.062-.39-.062-.717 0-.324.02-.54.062-.646l.026-.053h.992l-.017-.078c-.04-.158-.06-.393-.06-.703s.02-.528.06-.65a.313.313 0 0 0 0-.15c-.04-.158-.06-.393-.06-.703s.02-.527.06-.65l.02-.062-.502-.01-.5-.008-.02-.07c-.04-.152-.06-.39-.06-.717 0-.324.02-.54.06-.646l.027-.053h.992l-.017-.078c-.04-.164-.062-.404-.062-.72s.027-.535.068-.646zm2.496 3.015l.026-.07h-.654c-.05 0-.096.003-.137.005-.04.004-.078.005-.11.005a.158.158 0 0 0-.065.01h-.026c.04.063.064.265.07.6.006.34-.01.592-.044.762a.733.733 0 0 0 0 .23c.04.175.06.432.053.768-.006.338-.032.538-.08.603l.063.01c.04 0 .102 0 .18.003.08.004.163.005.25.005h.493l-.017-.078c-.04-.158-.062-.393-.062-.703s.022-.528.063-.65a.313.313 0 0 0 0-.15 2.974 2.974 0 0 1-.062-.698c0-.313.02-.528.062-.65z"/>
    </g>
    <path fill="#DFE4E7" d="M172.5 272.422l.806 2.06.908-1.336v-17.29h-5.22v15.977l1.506 1.334zM173.2 283.637l-.7-2.215-2 .745-1.505-1.334v18.324h5.22v-17.01z"/>
    <g fill="#BF0000">
        <path d="M418.802 365.865c-11.304 0-20.5-9.173-20.5-20.447 0-4.203 1.27-8.24 3.668-11.675a20.545 20.545 0 0 1 16.832-8.773c11.304 0 20.5 9.173 20.5 20.448 0 11.274-9.197 20.447-20.5 20.447zm0-36.895a16.545 16.545 0 0 0-13.553 7.064 16.303 16.303 0 0 0-2.948 9.384c0 9.07 7.402 16.447 16.5 16.447s16.5-7.378 16.5-16.447-7.403-16.448-16.5-16.448z"/>
        <path d="M407.19 331.02l26.03 25.956-2.823 2.833-26.03-25.958z"/>
    </g>
    <g fill="#BF0000">
        <path d="M147.377 672.777c-11.304 0-20.5-9.173-20.5-20.447 0-4.203 1.27-8.24 3.668-11.675a20.545 20.545 0 0 1 16.832-8.773c11.304 0 20.5 9.173 20.5 20.448 0 11.274-9.196 20.447-20.5 20.447zm0-36.895a16.545 16.545 0 0 0-13.553 7.064 16.303 16.303 0 0 0-2.947 9.384c0 9.07 7.402 16.447 16.5 16.447s16.5-7.378 16.5-16.447-7.402-16.448-16.5-16.448z"/>
        <path d="M135.77 637.925l26.03 25.957-2.825 2.833-26.03-25.957z"/>
    </g>
    <path fill="#BF0000" d="M495.39 121.42a.997.997 0 0 1-.648-.238l-13.318-11.333a1.002 1.002 0 0 1-.282-1.13c.157-.396.555-.64.975-.632l17.718.787v-18.32a1 1 0 0 1 1.684-.73l14.706 13.79 6.04-16.846a.972.972 0 0 1 .99-.662 1 1 0 0 1 .92.755l4.186 16.656a1 1 0 0 1-1.94.487l-3.384-13.467-5.443 15.184a1 1 0 0 1-1.625.392l-14.135-13.253v17.057a1 1 0 0 1-.31.723.968.968 0 0 1-.734.276l-15.848-.705 11.098 9.443a1 1 0 0 1-.65 1.762zM543.204 750.064a1 1 0 0 1-.854-.48l-3.576-5.863-6.804 2.877a1 1 0 0 1-1.267-1.4l5.654-10.33a1 1 0 1 1 1.753.96l-4.274 7.81 4.952-2.093a1 1 0 0 1 1.243.4l3.058 5.013 2.216-4.72c.176-.372.573-.584.97-.573l5.06.324-4.097-4.967a1.003 1.003 0 0 1 .39-1.56l5.852-2.424c.507-.21 1.095.03 1.306.54a1 1 0 0 1-.54 1.308l-4.605 1.906 4.707 5.706a1 1 0 0 1 .12 1.092c-.183.355-.55.557-.955.543l-6.687-.428-2.717 5.787a.997.997 0 0 1-.85.572c-.018.002-.036.002-.054.002z"/>
    <g fill="#BBC3C9">
        <circle cx="665.894" cy="505.044" r="18.829"/>
        <circle cx="650.043" cy="523.874" r="16.35"/>
        <path d="M678.25 523.874c0 6.82-5.534 12.354-12.357 12.354-6.82 0-12.355-5.533-12.355-12.354 0-6.823 5.535-12.355 12.355-12.355 6.823 0 12.356 5.53 12.356 12.354z"/>
        <path d="M679.248 542.202c0 7.096-5.76 12.855-12.854 12.855-7.095 0-12.856-5.76-12.856-12.855 0-7.095 5.762-12.854 12.856-12.854 7.095 0 12.854 5.76 12.854 12.854z"/>
        <path d="M680.263 555.058c0 4.633-3.762 8.395-8.396 8.395-4.633 0-8.395-3.762-8.395-8.395 0-4.634 3.762-8.397 8.395-8.397 4.634 0 8.396 3.764 8.396 8.398z"/>
    </g>
    <g fill="#BBC3C9">
        <circle cx="400.616" cy="582.522" r="25.893"/>
        <circle cx="422.414" cy="608.417" r="22.484"/>
        <path d="M383.626 608.417c0 9.38 7.608 16.99 16.99 16.99 9.38 0 16.992-7.61 16.992-16.99 0-9.382-7.61-16.99-16.99-16.99-9.384 0-16.992 7.608-16.992 16.99z"/>
        <path d="M382.252 633.622c0 9.758 7.92 17.68 17.678 17.68s17.68-7.922 17.68-17.68c0-9.757-7.923-17.676-17.68-17.676s-17.678 7.92-17.678 17.676z"/>
        <path d="M380.855 651.3c0 6.373 5.175 11.546 11.546 11.546s11.546-5.173 11.546-11.545-5.174-11.546-11.545-11.546-11.545 5.175-11.545 11.547z"/>
    </g>
    <g>
        <path fill="#80CEEF" d="M424.832 509.384c4.254-1.207 7.464.538 8.55 2.273.765 1.226.6 3.57-.89 4.212-1.32.57-2.62.315-3.567-.795 0 0-.932-1.133-1.335-3.13-.33-1.64-.823-2.043-2.758-2.56zM425.228 522.387c-.718-1.723-1.796-2.938-2.9-4.415a33.613 33.613 0 0 1-1.768-2.587c-.778-1.264-1.47-2.59-1.98-3.986-.235-.643-.594-2.685-.633-2.387-.04-.298-.4 1.744-.635 2.386-.51 1.396-1.202 2.722-1.98 3.985a33.053 33.053 0 0 1-1.766 2.587c-1.106 1.477-2.183 2.692-2.9 4.415-.835 2.002-1.206 4.17-.65 6.297 0 0 1.478 5.664 7.864 5.742v.005l.067-.002.066.003v-.004c6.386-.078 7.864-5.74 7.864-5.742.556-2.126.185-4.295-.65-6.297z"/>
        <path fill="#FFF" d="M412.287 522.856s-2.938 6.795 4.31 8.08c0 0-3.695-2.115-4.31-8.08z"/>
    </g>
    <path fill="#F6F7F9" d="M510.22 124.225l-1.607 7.222 5.97-3.21 3.384 5.47 1.995-7.47 7.496 5.01 2.84-4.21 4.573 3.05 2.493-2.614-3.04 1.09-4.482-3.293-3.188 2.865-6.373-6.516z"/>
    <path fill="#475058" d="M726.803 391.713h4.834l-3.5 8h2l-7 12.167 2.833-9.167h-2.833zM736.342 409.724l2.01 2.01-4.793 1.87.83.834-7.987 2.147 5.003-2.634-1.178-1.178z"/>
    <g fill="#BF0000">
        <path d="M311.275 573.89h4.45v22.242h-4.45zM311.275 600.58h4.45v4.45h-4.45z"/>
    </g>
    <g fill="#009CDE">
        <path d="M694.746 405.272l2.78-.614-2.8-1.01-.59-1.727-1.204 1.284-2.314-.125 1.395 1.647-1.613 1.575 1.717-.09.394 1.995 1.107-1.86 1.987 1.59zM692.77 402.34l.453-1.253-2.363-1.02.285 1.55zM695.74 401.018l-1.04.265.548-1.52.836.3zM698.295 409.447l-1.373-.023-.76-1.822 1.756.834zM701.13 408.21l-2.253-1.786 2.95-.992z"/>
    </g>
    <path fill="#FFF" d="M699.77 383.992l3.334 3.905-5.465-.616.17 2.49-3.947-2.882-3.975 4.445-2.514-2.23-2.425 2.71-2.03-1.264 2.127.196 2.328-2.85 2.516 1.31 3.006-5.224z"/>
    <path fill="#DFE4E7" d="M694.92 390.8l-8.068-12.16-.366-.078-.187.145-.597-.303.27 1.13-.514-.244-.03.227-.482-.11.01 1.007-.493-.062-.1.446-1.326-.054-.06.654-.547.232.18.547.086.58-.27-.032 7.63 11.326.077-.628.523-.003.026-.958.656.013.253-.402.293.38.704-.6.433.146.202-.475 1.12.046.22-.657z"/>
    <g fill="#F6F7F9">
        <path d="M677.546 349.738a.376.376 0 0 1-.297-.146l-3-3.875a.375.375 0 0 1 .592-.46l2.625 3.392 1.74-3.697a.374.374 0 0 1 .678.32l-2 4.25a.377.377 0 0 1-.3.213l-.04.002z"/>
        <path d="M678.546 350.176c-.014 0-.026 0-.04-.002a.376.376 0 0 1-.298-.21l-.61-1.27a.374.374 0 0 1 .677-.324l.348.724 2.753-3.523a.375.375 0 0 1 .59.462l-3.124 4a.38.38 0 0 1-.296.144z"/>
        <path d="M679.546 350.863a.37.37 0 0 1-.323-.186l-.658-1.125a.374.374 0 1 1 .647-.38l.495.848 3.45-1.38a.38.38 0 0 1 .488.208.377.377 0 0 1-.21.488l-3.75 1.5a.383.383 0 0 1-.14.027z"/>
        <path d="M682.296 354.426a.377.377 0 0 1-.262-.106l-3.408-3.312a.374.374 0 0 1 .13-.62l.658-.25a.374.374 0 1 1 .265.7l-.107.043 2.987 2.903a.375.375 0 0 1-.26.643z"/>
        <path d="M679.804 355.27a.373.373 0 0 1-.325-.188l-1.868-3.266a.375.375 0 0 1 .325-.562h1.867a.375.375 0 0 1 0 .75h-1.22l1.545 2.705a.374.374 0 0 1-.326.562z"/>
        <path d="M675.796 355.27a.375.375 0 0 1-.313-.582l2.14-3.266a.375.375 0 1 1 .627.413l-2.14 3.266a.378.378 0 0 1-.314.17z"/>
        <path d="M677.046 353.363a.375.375 0 0 1-.375-.375v-.984h-.813a.375.375 0 0 1 0-.75h1.19c.206 0 .374.168.374.375v1.358a.375.375 0 0 1-.374.375z"/>
        <path d="M674.796 353.637a.377.377 0 0 1-.317-.576l1.46-2.313-2.844-.58a.374.374 0 0 1-.292-.44c.04-.204.23-.342.442-.293l3.375.688a.377.377 0 0 1 .243.568l-1.75 2.773a.378.378 0 0 1-.317.174z"/>
        <path d="M676.1 350.682a.378.378 0 0 1-.36-.48l.1-.346-2.547-2.342a.376.376 0 0 1 .508-.552l2.72 2.5a.378.378 0 0 1 .106.382l-.166.568a.38.38 0 0 1-.36.27z"/>
        <path d="M676.546 349.738h-.69a.375.375 0 0 1 0-.75h.315v-.917a.375.375 0 0 1 .75 0v1.293a.375.375 0 0 1-.374.375zM674.905 350.538a.375.375 0 0 1-.37-.44l.25-1.445a.367.367 0 0 1 .433-.306c.204.035.34.23.306.433l-.25 1.446a.376.376 0 0 1-.37.312zM681.42 350.113a.373.373 0 0 1-.26-.104l-1.616-1.55a.375.375 0 0 1 .52-.54l1.616 1.548a.375.375 0 0 1-.26.645zM678.714 353.363h-1.668a.375.375 0 0 1 0-.75h1.668a.375.375 0 0 1 0 .75z"/>
    </g>
    <path fill="#BF0000" d="M268.94 674.615a1 1 0 0 1-.965-.736l-7.563-27.638-3.625 11.492c-.132.416-.518.7-.954.7h-48.018a1 1 0 0 1 0-2H255.1l4.427-14.032c.134-.422.51-.692.974-.7.444.01.83.31.946.737l7.3 26.67L271 656.72c.086-.476.5-.82.983-.82h46.832a1 1 0 0 1 0 2h-45.998l-2.894 15.895a.998.998 0 0 1-.94.82h-.043z"/>
</svg>
