<svg width="16" height="16" viewBox="0 0 16 16" xmlns="http://www.w3.org/2000/svg">
    <title>
        resale
    </title>
    <path d="M14.215 3.692C12.895 1.488 10.625 0 8.017 0 4.64 0 1.82 2.462.903 5.77h2.093c.823-2.104 2.75-3.604 5.02-3.604 1.692 0 3.2.86 4.212 2.18l-1.57.5 1.903 1.63 1.92 1.642.772-2.514.748-2.5-1.785.588zM7.993 13.835c-1.7 0-3.21-.845-4.21-2.167l1.57-.5-1.904-1.63-1.927-1.64-.76 2.512L0 12.9l1.797-.592c1.32 2.22 3.594 3.68 6.198 3.692v-.013c3.377 0 6.21-2.436 7.1-5.758h-2.08c-.822 2.12-2.762 3.605-5.022 3.605z" fill="" fill-rule="evenodd"/>
</svg>
