<svg width="175" height="22" viewBox="0 0 175 22" xmlns="http://www.w3.org/2000/svg">
    <title>
        Live Nation
    </title>
    <desc>
        Live Nation logo.
    </desc>
    <g fill="" fill-rule="evenodd">
        <path d="M2.8 17.77V7.202H.554v12.816h11.89V17.77H2.802zM84.21 8.262c-.71-.708-1.607-1.06-2.694-1.06h-11.07V20.02h2.248V9.47h8.827c.465 0 .833.135 1.102.405.27.267.403.633.403 1.096v9.05h2.247V10.97c0-1.097-.354-2.002-1.062-2.71M131.54 20.02h-2.25V7.18h2.25v12.84zM39.096 7.202l-5.604 11.81c-.318.672-.856 1.007-1.612 1.007-.76 0-1.295-.336-1.612-1.01L24.662 7.203h2.487l4.274 8.897c.085.183.235.274.456.274.218 0 .37-.09.455-.275L36.608 7.2h2.488zM57.063 20.02h-10.9c-1.087 0-1.984-.356-2.692-1.072-.708-.712-1.062-1.613-1.062-2.7v-5.276c0-1.11.35-2.018 1.053-2.72.703-.702 1.604-1.05 2.703-1.05h10.9v2.27H46.16c-1.004 0-1.504.5-1.504 1.5v1.502h12.407v2.272H44.656v1.502c0 .464.134.83.402 1.098.27.27.636.405 1.1.405h10.905v2.27zM103.45 14.31V10.97c0-1-.502-1.5-1.504-1.5h-7.15c-1.004 0-1.505.5-1.505 1.5v3.337h10.16zm2.248 5.708h-2.248v-3.44H93.29v3.44h-2.247v-9.046c0-1.11.352-2.018 1.053-2.72.703-.702 1.604-1.05 2.702-1.05h7.144c1.086 0 1.984.352 2.693 1.06.708.708 1.063 1.613 1.063 2.71v9.046zM124.292 9.47h-6.215V20.02h-2.25V9.47h-6.19V7.203h14.655v2.27zM149.027 16.248V10.97c0-.45-.138-.813-.414-1.088-.275-.275-.638-.41-1.09-.41h-7.153c-.428 0-.785.142-1.073.428-.286.29-.43.645-.43 1.07v5.278c0 1 .502 1.503 1.503 1.503h7.152c1.003 0 1.505-.5 1.505-1.502zm2.247 0c0 1.134-.346 2.05-1.035 2.737-.692.69-1.6 1.033-2.722 1.033h-7.144c-1.098 0-2-.35-2.7-1.052-.703-.7-1.054-1.608-1.054-2.718v-5.276c0-1.05.362-1.94 1.09-2.672.726-.733 1.613-1.098 2.664-1.098h7.144c1.076 0 1.97.356 2.683 1.07.717.713 1.074 1.615 1.074 2.7v5.276zM169.902 8.262c-.708-.708-1.605-1.06-2.694-1.06H156.14V20.02h2.245V9.47h8.83c.464 0 .832.135 1.1.405.268.267.404.633.404 1.096v9.05h2.245V10.97c0-1.097-.353-2.002-1.063-2.71M24.005 1.4S23.69.848 23.63.737c-.06-.11-.166-.023-.166-.023s-.32.24-.492.354c-.172.117-.16.247-.16.32 0 .074-.055.504-.055.504-.006.1-.06.18-.1.228l-2.804 2.176-.35.08-.864.42.048-.593c.06.035.157.127.226.137.084.012.21-.023.21-.023s-.047-.114-.047-.18c0-.067.017-.17.017-.17s.132.082.23.084c.077.006.16-.027.207-.062.048-.04.096-.09.096-.09s-.165-.1-.217-.157c-.04-.04-.096-.103-.058-.1.082 0 .202-.114.202-.114s-.087-.054-.152-.108c-.073-.063-.105-.11-.138-.195-.027-.076-.044-.146-.044-.146s.05.068.164.066c.1-.003.183-.066.183-.066s-.076-.04-.123-.093c-.054-.06-.094-.12-.12-.202-.034-.114-.052-.17-.08-.257-.015-.04-.024-.11-.057-.22-.037-.254-.146-.36-.146-.36-.327-.44-1.084-.56-1.084-.56-.386-.08-.77.422-.923.925-.257.835-.182 1.654-.182 1.654s.015.156.15.244c.083.05.406.125.406.125l-.035.678-.802.073-1.097-.66-2.23-1.65s-.093-.058-.104-.234c0 0-.055-.433-.055-.505 0-.074.013-.204-.16-.32-.17-.116-.492-.355-.492-.355s-.103-.088-.165.024c-.06.11-.374.664-.374.664l.163.633s.07.122.168.24l.144.145.825.738.016.007 1.354 1.208.388.375s.028.05.028.124c0 .073-.008.305-.008.305s-.007.07.038.112c.047.045.773.634.773.634s.05.042.05.15l.128 4.357s0 .07.07.07l.232.085.534 4.763 1.016 3.148-1.62.784s-.06.03-.087.1c0 0-.096.184-.096.222 0 .06.05.077.05.077h2.42l-.232.63-.06.17s-.086.32.053.368c.138.047.568.063.753.054.24-.013.672-.046.738-.114.064-.064.094-.354-.25-2.287l-.21-7.438.62-4.66c.06-.517.128-.576.128-.576s.656-.49.72-.548c.063-.06.053-.154.053-.154v-.52c0-.103.037-.17.037-.17l.534-.515.162-.164 1.708-1.64.3-.343.142-.143c.1-.117.167-.24.167-.24s.12-.308.165-.413c.043-.102 0-.22 0-.22M173.104 8.5h.15c.177 0 .32-.058.32-.2 0-.126-.093-.21-.294-.21-.084 0-.143.008-.176.017V8.5zm-.008.772h-.32V7.906c.127-.026.303-.05.53-.05.26 0 .376.04.478.108.075.06.133.168.133.294 0 .16-.117.276-.285.327v.017c.134.042.21.15.252.335.042.21.067.294.1.335h-.343c-.04-.05-.066-.167-.11-.326-.023-.152-.107-.22-.283-.22h-.15v.546zm.21-1.81c-.604 0-1.058.494-1.058 1.098 0 .612.454 1.098 1.074 1.098.604.01 1.048-.486 1.048-1.098 0-.604-.444-1.1-1.056-1.1h-.01zm.016-.277c.788 0 1.4.61 1.4 1.375 0 .78-.612 1.384-1.408 1.384-.788 0-1.417-.605-1.417-1.384 0-.764.63-1.375 1.417-1.375h.008z"/>
    </g>
</svg>
