<svg width="150" height="14" viewBox="0 0 150 14" xmlns="http://www.w3.org/2000/svg">
    <title>
        Group + Page 1
    </title>
    <g fill="none" fill-rule="evenodd">
        <path d="M2.045 13.803C.915 13.803 0 12.865 0 11.706V2.098C0 .938.915 0 2.045 0h60.17c1.13 0 2.046.94 2.046 2.098v9.608c0 1.16-.914 2.097-2.044 2.097H2.046z" fill="#FFF"/>
        <path d="M63.174 1.115c-.257-.264-.6-.41-.958-.41h-7.294l3.375 5.764.315.043.186.264v.25l.214.043.2.28v.234l.215.044s.215.234.215.25v.542s.472.455.9.616c.3.117.33.6.5.865.23.368.545.53.473.735-.157.572-.715 1.51-1.244 1.57h-2.087v.91h4.033c.758 0 1.36-.632 1.36-1.395V2.098c0-.367-.144-.72-.402-.983" fill="#C00"/>
        <path d="M52.92.704H2.044c-.357 0-.7.147-.958.41-.257.265-.4.617-.4.984v9.608c0 .366.143.718.4.982.257.265.6.41.958.41h46.283c-.214-.365-.457-.776-.53-.908h-1.014c0-2.582.858-4.02 1.873-4.298.143-.03.072-.734-.1-.954 0 0-.486.015-.586-.014-.128-.044-.042-.176-.042-.176L48.4 5.69l-.057-.292h-1.76c-.028 0 1.445-1.04 1.445-1.04.07-2.744 2.818-2.95 4.462-1.82.973.674 1.06 1.995.973 2.904-.014.06-.257.015-.257.015s-.172.997.27.997h1.932c.787-.03 1.545.514 1.545.514l.186-.69L52.92.704z" fill="#008"/>
        <path d="M24.73 9.095c.257 0 .485.088.67.278.187.19.287.41.287.69 0 .264-.1.5-.286.69a.905.905 0 0 1-.67.278.905.905 0 0 1-.673-.278.953.953 0 0 1-.272-.69c0-.263.086-.498.272-.69a.905.905 0 0 1 .672-.277M31.08 6.748l-1.33.278c-.044-.308-.144-.528-.3-.69a.892.892 0 0 0-.616-.234c-.343 0-.6.132-.815.396-.202.264-.302.72-.302 1.335 0 .704.1 1.188.3 1.482.2.293.473.425.83.425a.81.81 0 0 0 .63-.264c.157-.176.286-.47.343-.88l1.33.264c-.142.704-.4 1.232-.786 1.6-.386.366-.915.542-1.573.542-.743 0-1.343-.264-1.787-.807-.443-.543-.672-1.29-.672-2.245 0-.968.23-1.73.673-2.26.444-.54 1.044-.805 1.802-.805.615 0 1.116.146 1.488.454.357.307.615.777.786 1.408M33.425 6.616c.243-.308.544-.47.887-.47.357 0 .643.162.887.47.242.308.356.748.356 1.334 0 .587-.114 1.042-.357 1.35-.245.308-.53.47-.888.47s-.644-.162-.887-.47c-.243-.308-.357-.763-.357-1.335-.015-.587.114-1.04.357-1.35M32.01 9.594c.214.47.543.822.972 1.07.43.25.872.368 1.344.368.758 0 1.387-.292 1.888-.88.5-.586.744-1.32.744-2.214 0-.88-.243-1.614-.744-2.186-.5-.572-1.13-.865-1.902-.865-.5 0-.958.132-1.36.38-.4.25-.714.632-.943 1.1-.23.47-.33.984-.33 1.497 0 .69.115 1.262.33 1.73M37.487 5.134h1.244v.807c.445-.615.974-.923 1.59-.923.328 0 .614.073.857.234.243.163.443.397.586.706.23-.31.472-.558.73-.705.257-.16.53-.233.83-.233.37 0 .686.088.958.264.258.177.458.426.587.778.1.25.143.66.143 1.218v3.755h-1.36V7.673c0-.587-.042-.954-.142-1.13a.625.625 0 0 0-.572-.337.83.83 0 0 0-.53.205c-.17.132-.285.323-.356.587-.072.25-.115.66-.115 1.218v2.816h-1.36V7.805c0-.572-.027-.94-.07-1.1a.67.67 0 0 0-.23-.367c-.1-.088-.242-.117-.414-.117-.213 0-.4.058-.557.19-.17.132-.286.323-.357.558-.072.25-.115.645-.115 1.217v2.86h-1.357l.014-5.91zM19.795 4.357c.357 0 .83.073 1 .22a.756.756 0 0 1 .258.6c0 .28-.085.485-.27.647-.187.16-.674.234-1.045.234h-.76v-1.7h.817zm.543 6.674c.644 0 1.144-.087 1.516-.278.358-.19.658-.47.9-.85.23-.382.345-.793.345-1.247 0-.47-.116-.895-.33-1.233-.23-.352-.572-.645-1.06-.88.287-.22.502-.454.616-.704.13-.25.186-.528.186-.85 0-.47-.143-.895-.43-1.233-.285-.352-.657-.587-1.143-.72-.33-.1-1.503-.145-2.232-.145h-1.26v8.14h2.89zm-.615-3.578c.6 0 1.245.102 1.502.308.257.205.386.484.386.836 0 .308-.113.543-.328.704-.214.16-.858.25-1.502.25h-.8V7.45h.743zM3.16 11.03V2.905h2.39L6.993 8.45l1.402-5.546h2.402v8.127H9.325L9.31 4.636 7.753 11.03H6.207l-1.56-6.395-.013 6.396H3.16zM11.642 2.875h1.516V9.55h3.476v1.48h-4.992V2.876z" fill="#FFF"/>
        <g fill="#FEFEFE">
            <path d="M74.64 8.255L73.066 11.5h-.015l-.26-3.245h-.847L70.32 11.5h-.014l-.26-3.245h-.698l.417 4.036h.824l1.635-3.243h.015l.298 3.244h.803l2.075-4.035h-.774zM76.44 6.514l-.162.84h.787l.163-.84h-.788zm-.304 1.742l-.803 4.035h.698l.805-4.034h-.7zM77.644 8.255h.848l.186-.934.75-.276-.237 1.21h1.04l-.11.603h-1.048l-.35 1.733c-.037.182-.11.616-.11.76 0 .284.147.435.504.435.15 0 .357-.04.49-.103l-.103.618c-.156.063-.483.087-.684.087-.663 0-.908-.467-.908-.895 0-.262.09-.728.134-.95l.327-1.685h-.833l.104-.602zM81.413 6.356h.7l-.47 2.406h.016c.26-.404.72-.602 1.196-.602.736 0 1.263.412 1.263 1.267 0 .236-.045.506-.09.735l-.416 2.13h-.7l.47-2.415a2.71 2.71 0 0 0 .037-.38c0-.418-.26-.735-.69-.735-.863 0-1.287.997-1.383 1.494l-.402 2.035h-.7l1.168-5.934zM125.086 11.437h-.022c-.522.7-1.043 1.1-1.882 1.1-1.056 0-1.803-.63-1.803-1.775 0-2.052 2.154-2.21 3.58-2.21h.535c.045-.17.045-.35.045-.53 0-.63-.635-.81-1.168-.81-.67 0-1.315.18-1.917.484l.216-1.292a5.623 5.623 0 0 1 1.985-.374c1.168 0 2.267.458 2.267 1.92 0 .832-.577 3.27-.714 4.442h-1.28l.158-.955zm-1.485-.084c1.135 0 1.486-.833 1.725-1.834h-.533c-.737 0-1.96.13-1.96 1.182 0 .433.384.65.77.65zM85.694 6.168h1.1l.26-1.28 1.634-.566-.375 1.846h1.36l-.237 1.184h-1.36l-.556 2.716a2.733 2.733 0 0 0-.07.603c0 .375.24.604.58.604.272 0 .544-.06.738-.144l-.262 1.255c-.26.06-.556.145-.816.145-1.032 0-1.758-.434-1.758-1.63 0-.48.09-.953.193-1.448l.43-2.1h-1.1l.24-1.184zM90.854 3.488l-.318 1.546h1.52l.317-1.546h-1.52zm-.556 2.68l-1.247 6.217h1.52l1.248-6.217h-1.52zM96.407 7.593c-.295-.204-.692-.314-1.11-.314-1.215 0-1.895 1.206-1.895 2.377 0 .81.25 1.617 1.292 1.617.374 0 .84-.108 1.236-.313l-.17 1.28c-.464.243-.964.29-1.463.29-1.508 0-2.483-1.074-2.483-2.68 0-2.173 1.35-3.826 3.448-3.826.566 0 1.11.108 1.52.24l-.375 1.33zM98.073 3.33l-1.803 9.055h1.486l.657-3.294h.023l1.508 3.295h1.712L99.9 9.005l2.8-2.837h-1.972l-2.122 2.258h-.024l1.01-5.095h-1.52zM108.177 6.168h1.1l.26-1.28 1.635-.566-.374 1.846h1.36l-.238 1.184h-1.36l-.556 2.716a2.7 2.7 0 0 0-.07.603c0 .375.24.604.58.604.272 0 .544-.06.736-.144l-.26 1.255c-.26.06-.557.145-.817.145-1.032 0-1.757-.434-1.757-1.63 0-.48.09-.953.192-1.448l.43-2.1h-1.1l.24-1.184z"/>
            <path d="M107.67 8.39c0-1.58-.953-2.366-2.393-2.366-1.917 0-3.323 1.86-3.323 3.79 0 1.847 1.133 2.716 2.813 2.716.624 0 1.27-.156 1.86-.35l.192-1.28c-.57.28-1.17.447-1.794.447-.97 0-1.54-.366-1.612-1.345-.004-.057-.01-.11-.01-.17V9.778h.002c.007-.425.095-.846.247-1.233.293-.79.705-1.338 1.6-1.338.636 0 .965.374.965 1.04 0 .143-.012.275-.033.42h-2.08a4.053 4.053 0 0 0-.163 1.11h3.58a7.07 7.07 0 0 0 .147-1.387M112.813 6.857c.045-.243.092-.496.125-.69h1.418l-.136.835h.023a2.088 2.088 0 0 1 1.792-.978c.69 0 1.405.434 1.485 1.183h.022c.386-.808 1.237-1.183 2.053-1.183.873 0 1.62.76 1.62 1.7 0 .557-.135 1.185-.26 1.692l-.612 2.968h-1.52l.614-3.03c.08-.373.192-.953.192-1.326 0-.46-.33-.75-.716-.75-1.054 0-1.315 1.304-1.508 2.15l-.6 2.956h-1.52l.612-3.03c.08-.373.193-.953.193-1.326 0-.46-.328-.75-.714-.75-1.032 0-1.316 1.317-1.51 2.15l-.6 2.956h-1.518l1.065-5.527zM131.438 7.434c-.163-.094-.583-.227-1.014-.227-.454 0-1.02.133-1.02.628 0 .784 1.972 1.074 1.972 2.595 0 1.618-1.327 2.1-2.63 2.1-.614 0-1.225-.096-1.78-.373l.328-1.293c.43.255.862.483 1.45.483.512 0 1.045-.18 1.045-.687 0-1.003-1.974-1.1-1.974-2.656 0-1.46 1.325-1.98 2.528-1.98.556 0 1.123.108 1.422.19l-.328 1.22zM132.408 6.168h1.1l.26-1.28 1.634-.566-.374 1.846h1.36l-.238 1.184h-1.36l-.556 2.716a2.733 2.733 0 0 0-.07.603c0 .375.24.604.58.604.27 0 .544-.06.737-.144l-.26 1.255c-.26.06-.556.145-.816.145-1.033 0-1.757-.434-1.757-1.63 0-.48.09-.953.192-1.448l.43-2.1h-1.1l.238-1.184zM142.71 7.002c.046-.266.09-.544.137-.835h1.45l-.203 1.172h.022c.273-.677 1.02-1.316 1.724-1.316.193 0 .397.01.58.06l-.32 1.582a1.805 1.805 0 0 0-.577-.098c-1.078 0-1.6 1.027-1.792 2.03l-.543 2.787h-1.52l1.043-5.383zM141.655 8.39c0-1.58-.95-2.366-2.393-2.366-1.915 0-3.32 1.86-3.32 3.79 0 1.847 1.133 2.716 2.81 2.716.624 0 1.27-.156 1.86-.35l.193-1.28c-.566.28-1.168.447-1.79.447-.974 0-1.54-.366-1.615-1.345-.003-.057-.01-.11-.01-.17 0-.013 0-.024.003-.036l-.002-.018h.003a3.53 3.53 0 0 1 .248-1.233c.29-.79.705-1.338 1.6-1.338.635 0 .964.374.964 1.04 0 .143-.01.275-.034.42h-2.08a4.07 4.07 0 0 0-.16 1.11h3.578a7.03 7.03 0 0 0 .147-1.387M148.568 5.797c.724 0 1.314.627 1.314 1.4 0 .77-.59 1.396-1.314 1.396-.723 0-1.313-.627-1.313-1.397 0-.772.59-1.4 1.313-1.4zm.004 2.588c.603 0 1.06-.52 1.06-1.19 0-.67-.457-1.19-1.06-1.19-.61 0-1.068.52-1.068 1.19 0 .67.457 1.19 1.068 1.19zm-.507-2.01h.59c.354 0 .53.15.53.462 0 .26-.16.452-.398.452l.437.724h-.267l-.43-.725h-.21v.724h-.252v-1.64zm.253.704h.298c.192 0 .316-.043.316-.256 0-.186-.156-.24-.316-.24h-.298v.495z"/>
        </g>
    </g>
</svg>
