<svg width="155" height="20" viewBox="0 0 155 20" xmlns="http://www.w3.org/2000/svg">
    <title>
        mlb logo
    </title>
    <g fill="none" fill-rule="evenodd">
        <path d="M5.032 14.712C3.91 14.712 3 13.78 3 12.628V3.084C3 1.934 3.91 1 5.032 1h59.772c1.123 0 2.032.933 2.032 2.084v9.544c0 1.15-.91 2.084-2.032 2.084H5.032z" fill="#FFF"/>
        <path d="M65.756 2.107c-.256-.262-.597-.408-.952-.408h-7.246l3.353 5.726.314.044.184.262v.248l.214.044.198.276v.234l.214.043s.213.233.213.248v.54s.47.45.895.61c.298.118.327.6.497.86.226.365.54.525.468.73-.156.568-.71 1.5-1.236 1.56h-2.075v.902h4.007c.753 0 1.35-.627 1.35-1.384v-9.56c0-.364-.142-.713-.398-.976" fill="#C00"/>
        <path d="M55.57 1.7H5.03c-.355 0-.696.145-.952.407-.256.263-.398.612-.398.977v9.544c0 .364.142.714.398.976.256.263.597.408.952.408h45.976c-.213-.364-.454-.772-.525-.903h-1.01c0-2.566.853-3.994 1.862-4.27.142-.03.07-.73-.1-.948 0 0-.482.015-.582-.014-.128-.044-.043-.175-.043-.175l.47-1.05-.058-.29h-1.747c-.028 0 1.435-1.035 1.435-1.035.07-2.725 2.8-2.93 4.433-1.807.966.67 1.05 1.983.966 2.886-.015.058-.257.015-.257.015s-.17.992.27.992h1.918c.783-.03 1.536.51 1.536.51l.184-.685L55.57 1.7z" fill="#008"/>
        <path d="M27.565 10.034c.256 0 .483.088.668.277.185.19.284.41.284.686 0 .262-.1.496-.284.685-.185.19-.412.278-.668.278-.255 0-.483-.088-.667-.277-.185-.188-.27-.422-.27-.684 0-.262.085-.495.27-.685.184-.188.412-.276.667-.276M33.874 7.703l-1.322.277c-.042-.306-.142-.525-.298-.685-.156-.146-.37-.233-.61-.233-.342 0-.598.13-.81.393-.2.263-.3.714-.3 1.326 0 .7.1 1.182.3 1.473.198.29.468.423.823.423.256 0 .47-.088.625-.263.157-.175.285-.466.34-.874l1.323.26c-.142.7-.398 1.225-.782 1.59-.383.364-.91.54-1.563.54-.738 0-1.335-.264-1.776-.803-.44-.54-.667-1.282-.667-2.23 0-.96.227-1.72.667-2.243.44-.54 1.038-.802 1.79-.802.612 0 1.11.146 1.478.452.355.306.61.772.782 1.4M36.204 7.572c.24-.306.54-.466.88-.466.356 0 .64.16.88.466.243.306.357.743.357 1.326 0 .583-.113 1.034-.355 1.34-.24.306-.525.467-.88.467-.356 0-.64-.16-.88-.467-.243-.306-.356-.757-.356-1.326-.016-.582.112-1.034.354-1.34m-1.407 2.958c.213.466.54.816.966 1.064.427.247.867.364 1.336.364.752 0 1.377-.292 1.874-.874.498-.583.74-1.312.74-2.2 0-.875-.242-1.604-.74-2.172-.497-.568-1.122-.86-1.89-.86-.497 0-.95.13-1.35.38-.397.247-.71.626-.937 1.092-.227.466-.327.976-.327 1.486 0 .685.114 1.254.327 1.72M40.24 6.1h1.235v.802c.44-.612.966-.92 1.577-.92.327 0 .61.074.852.235.242.16.44.393.583.7.227-.307.47-.555.724-.7.257-.16.527-.234.826-.234.37 0 .682.088.95.263.257.175.456.422.584.772.1.248.142.656.142 1.21v3.73h-1.35V8.62c0-.582-.042-.946-.142-1.12-.128-.22-.312-.336-.568-.336-.185 0-.37.073-.526.204-.17.13-.284.32-.355.583-.07.248-.113.656-.113 1.21v2.798h-1.35V8.752c0-.568-.028-.932-.07-1.093-.043-.16-.128-.292-.228-.365-.1-.087-.242-.117-.413-.117-.213 0-.398.06-.554.19-.17.13-.284.32-.355.554-.07.247-.114.64-.114 1.21v2.84h-1.35L40.24 6.1zM22.664 5.328c.355 0 .824.073.994.218.17.146.256.35.256.598 0 .277-.085.48-.27.64-.185.16-.668.234-1.037.234h-.753v-1.69h.81zm.54 6.63c.64 0 1.136-.088 1.506-.277.355-.188.653-.465.895-.844.227-.38.34-.787.34-1.24 0-.465-.113-.888-.326-1.223-.228-.35-.57-.64-1.053-.874.285-.22.498-.453.61-.7.13-.248.186-.525.186-.846 0-.466-.142-.89-.426-1.224-.284-.35-.654-.583-1.137-.714-.327-.102-1.492-.145-2.216-.145h-1.25v8.088h2.87zm-.61-3.556c.595 0 1.235.102 1.49.306.256.204.384.48.384.83 0 .307-.114.54-.327.7-.212.16-.85.248-1.49.248h-.796V8.402h.74zM6.14 11.958V3.885h2.373l1.435 5.508 1.392-5.508h2.387v8.073h-1.463l-.015-6.353-1.55 6.353H9.167L7.618 5.605l-.015 6.353H6.14zM14.565 3.856h1.506v6.63h3.454v1.472h-4.96V3.856z" fill="#FFF"/>
        <g fill="#475058">
            <path d="M77.147 9.2l-1.566 3.224h-.014L75.308 9.2h-.842l-1.61 3.224h-.015L72.584 9.2h-.695l.415 4.01h.82l1.623-3.223h.015l.297 3.223h.798l2.06-4.01h-.768zM78.934 7.47l-.162.835h.782l.162-.834h-.782zm-.302 1.73l-.798 4.01h.694l.798-4.01h-.694zM80.13 9.2h.842l.185-.928.746-.275-.237 1.204H82.7l-.11.598h-1.042L81.2 11.52c-.036.18-.11.612-.11.755 0 .282.148.432.502.432.148 0 .355-.04.488-.102l-.104.613c-.155.063-.48.087-.68.087-.656 0-.9-.464-.9-.89 0-.26.088-.723.133-.942l.324-1.675h-.827l.103-.597zM83.874 7.314h.695l-.467 2.39h.015c.258-.402.716-.598 1.19-.598.73 0 1.254.41 1.254 1.258 0 .235-.044.503-.088.73l-.414 2.116h-.694l.465-2.398c.024-.133.038-.29.038-.377 0-.417-.258-.73-.687-.73-.855 0-1.276.99-1.372 1.483l-.4 2.022h-.693l1.16-5.896zM127.258 12.36h-.022c-.52.698-1.037 1.093-1.87 1.093-1.048 0-1.79-.624-1.79-1.762 0-2.038 2.14-2.194 3.558-2.194h.53c.045-.17.045-.348.045-.528 0-.624-.633-.803-1.162-.803-.664 0-1.306.18-1.904.48l.215-1.284c.64-.24 1.294-.37 1.97-.37 1.16 0 2.252.455 2.252 1.906 0 .828-.573 3.25-.71 4.414H127.1l.158-.95zm-1.476-.082c1.127 0 1.476-.828 1.713-1.822h-.53c-.732 0-1.947.13-1.947 1.175 0 .43.382.648.764.648zM88.126 7.127h1.094l.258-1.27 1.623-.564-.372 1.834h1.352l-.237 1.176H90.49L89.94 11c-.034.145-.068.36-.068.6 0 .372.237.6.575.6.27 0 .54-.06.733-.143l-.26 1.246c-.26.06-.552.144-.81.144-1.026 0-1.747-.432-1.747-1.62 0-.477.09-.945.19-1.437l.43-2.087H87.89l.236-1.176zM93.252 4.465L92.937 6h1.51l.314-1.535h-1.508zM92.7 7.127l-1.24 6.176h1.51l1.24-6.176H92.7zM98.77 8.542c-.295-.202-.69-.31-1.105-.31-1.206 0-1.882 1.198-1.882 2.36 0 .804.247 1.607 1.284 1.607.372 0 .833-.108 1.227-.31l-.168 1.27c-.46.24-.957.287-1.453.287-1.5 0-2.467-1.067-2.467-2.66 0-2.16 1.34-3.803 3.425-3.803.564 0 1.104.107 1.51.24l-.37 1.318zM100.424 4.31l-1.792 8.993h1.476l.654-3.273h.022l1.498 3.273h1.7l-1.744-3.358 2.782-2.818h-1.96l-2.107 2.243h-.024l1.004-5.06h-1.51zM110.46 7.127h1.094l.258-1.27 1.624-.564-.372 1.834h1.35l-.235 1.176h-1.353L112.275 11c-.034.145-.068.36-.068.6 0 .372.237.6.575.6.27 0 .54-.06.73-.143l-.257 1.246c-.26.06-.553.144-.81.144-1.026 0-1.747-.432-1.747-1.62 0-.477.09-.945.19-1.437l.43-2.087h-1.094l.237-1.176z"/>
            <path d="M109.956 9.334c0-1.57-.946-2.35-2.377-2.35-1.905 0-3.3 1.847-3.3 3.765 0 1.834 1.124 2.697 2.793 2.697.62 0 1.26-.155 1.847-.347l.192-1.272c-.564.277-1.16.444-1.78.444-.967 0-1.53-.364-1.603-1.337h-.002c-.003-.056-.008-.11-.008-.168v-.053h.002c.007-.422.094-.84.245-1.225.29-.786.7-1.33 1.59-1.33.63 0 .958.372.958 1.033 0 .144-.013.276-.034.42h-2.065c-.134.485-.157.81-.16 1.103h3.555c.09-.455.146-.91.146-1.38M115.066 7.812c.045-.24.09-.493.124-.685h1.41l-.137.828h.023c.405-.636 1.07-.97 1.78-.97.687 0 1.396.43 1.475 1.174h.023c.384-.803 1.23-1.176 2.04-1.176.868 0 1.61.755 1.61 1.69 0 .552-.135 1.176-.258 1.68l-.61 2.948h-1.508l.61-3.01c.077-.37.19-.947.19-1.317 0-.457-.327-.745-.71-.745-1.048 0-1.307 1.295-1.5 2.135l-.596 2.937h-1.508l.61-3.01c.078-.37.19-.947.19-1.317 0-.457-.326-.745-.71-.745-1.025 0-1.307 1.308-1.5 2.135l-.595 2.937h-1.51l1.06-5.49zM133.567 8.385c-.16-.094-.58-.225-1.007-.225-.45 0-1.014.13-1.014.623 0 .78 1.96 1.067 1.96 2.578 0 1.61-1.318 2.087-2.613 2.087-.61 0-1.217-.095-1.768-.37l.326-1.285c.43.253.858.48 1.443.48.507 0 1.036-.18 1.036-.683 0-.997-1.96-1.092-1.96-2.64 0-1.45 1.316-1.966 2.51-1.966.553 0 1.117.107 1.413.19l-.326 1.21zM134.53 7.127h1.094l.26-1.27 1.622-.564-.372 1.834h1.35l-.236 1.176h-1.35L136.344 11c-.034.145-.068.36-.068.6 0 .372.237.6.575.6.27 0 .54-.06.732-.143l-.26 1.246c-.258.06-.552.144-.81.144-1.026 0-1.746-.432-1.746-1.62 0-.477.09-.945.192-1.437l.427-2.087h-1.093l.237-1.176zM144.765 7.955c.046-.264.09-.54.136-.83h1.442l-.202 1.166h.022c.27-.67 1.013-1.306 1.712-1.306.192 0 .394.01.575.06l-.317 1.57c-.17-.06-.382-.096-.573-.096-1.072 0-1.59 1.02-1.78 2.016l-.54 2.768h-1.512l1.037-5.347zM143.717 9.334c0-1.57-.944-2.35-2.377-2.35-1.903 0-3.3 1.847-3.3 3.765 0 1.834 1.127 2.697 2.794 2.697.62 0 1.26-.155 1.847-.347l.193-1.272c-.563.277-1.16.444-1.78.444-.966 0-1.53-.364-1.603-1.337-.003-.056-.01-.11-.01-.168 0-.013 0-.024.003-.036l-.002-.017h.003c.006-.422.094-.84.246-1.225.287-.786.7-1.33 1.588-1.33.63 0 .958.372.958 1.033 0 .144-.01.276-.035.42h-2.064c-.133.485-.157.81-.16 1.103h3.555c.092-.455.147-.91.147-1.38M150.584 6.76c.72 0 1.306.622 1.306 1.388 0 .766-.587 1.388-1.306 1.388-.718 0-1.304-.622-1.304-1.388 0-.766.586-1.39 1.304-1.39zm.004 2.57c.6 0 1.052-.517 1.052-1.182 0-.665-.453-1.18-1.052-1.18-.606 0-1.06.515-1.06 1.18 0 .665.454 1.18 1.06 1.18zm-.503-1.998h.585c.353 0 .526.15.526.46 0 .26-.157.448-.395.448l.435.72h-.264l-.427-.72h-.207v.72h-.25V7.332zm.25.7h.297c.19 0 .314-.042.314-.254 0-.184-.155-.237-.314-.237h-.296v.492z"/>
        </g>
    </g>
</svg>
