<svg xmlns="http://www.w3.org/2000/svg" width="300" height="300" viewBox="0 0 300 300">
    <title>
        Nucleus logo
    </title>
    <desc>
        A visual representation of the Nucleus project.
    </desc>
    <path d="M113.587 137.276h6.28l1.498-6.85 9.3-3.04-2.135 9.89h7.752l-1.346 6.352h-7.76l-3.163 14.553c-.197.767-.39 1.923-.39 3.222 0 2.01 1.35 3.236 3.29 3.236 1.565 0 3.112-.32 4.217-.767l-1.5 6.708c-1.49.34-3.162.8-4.658.8-5.87 0-10.014-2.348-10.014-8.732 0-2.598.514-5.126 1.102-7.774l2.437-11.243h-6.26l1.35-6.354zM140.04 140.978c.248-1.298.518-2.67.715-3.7h8.073l-.78 4.465h.138c2.332-3.435 6.14-5.246 10.215-5.246 3.948 0 8.022 2.33 8.486 6.35h.124c2.203-4.342 7.04-6.35 11.703-6.35 4.98 0 9.252 4.09 9.252 9.123 0 2.972-.784 6.35-1.492 9.055l-3.49 15.903h-8.662l3.485-16.225c.463-1.992 1.105-5.105 1.105-7.115 0-2.455-1.887-4.002-4.075-4.002-6.012 0-7.508 6.975-8.61 11.51l-3.414 15.832h-8.682l3.506-16.225c.445-1.992 1.102-5.105 1.102-7.115 0-2.455-1.886-4.002-4.07-4.002-5.893 0-7.51 7.044-8.614 11.51l-3.433 15.832h-8.666l6.086-29.6z" fill="#fff"/>
    <g fill="#fff">
        <circle cx="195.207" cy="70.811" r="13.775"/>
        <circle cx="103.682" cy="70.811" r="13.775"/>
        <circle cx="195.207" cy="227.711" r="13.775"/>
        <circle cx="240.036" cy="149.261" r="13.775"/>
        <circle cx="58.854" cy="149.261" r="13.775"/>
        <circle cx="103.682" cy="227.711" r="13.775"/>
        <path d="M150.102 292.68c-14.17 0-27.206-17.076-36.59-44.08a22.953 22.953 0 0 1-5.53 1.81c10.325 29.577 25.255 47.873 42.12 47.873 16.83 0 31.73-18.22 42.052-47.684-1.97-.262-3.858-.76-5.64-1.485-9.37 26.707-22.334 43.564-36.412 43.564zM150.102 6.335c14.002 0 26.905 16.668 36.263 43.126a22.933 22.933 0 0 1 5.618-1.513C181.666 18.762 166.84.73 150.103.73c-16.777 0-31.634 18.11-41.95 47.408 1.934.38 3.773 1.02 5.504 1.853 9.37-26.76 22.35-43.655 36.445-43.655zM258.31 163.362a23.405 23.405 0 0 1-3.947 4.004c.696.812 1.412 1.625 2.085 2.438 17.71 21.345 24.142 40.038 17.645 51.29-5.885 10.192-20.69 12.33-32.075 12.33-7.296 0-15.354-.857-23.952-2.46-.268 1.89-.75 3.71-1.45 5.424 9.12 1.728 17.663 2.64 25.402 2.64 18.44 0 31.212-5.23 36.927-15.133 7.85-13.593 1.392-34.074-18.185-57.67-.79-.953-1.626-1.91-2.45-2.863zM45.15 130.688C27.04 109.432 19.13 90.008 26.11 77.92c5.886-10.193 20.69-12.333 32.076-12.333 6.91 0 14.514.786 22.597 2.225.248-1.89.72-3.71 1.397-5.43-8.584-1.557-16.658-2.398-23.994-2.398-18.443 0-31.213 5.233-36.928 15.134-8.33 14.43-.235 36.155 19.682 59.56a23.342 23.342 0 0 1 4.21-3.99zM242.017 65.587c11.384 0 26.19 2.14 32.075 12.333 7.044 12.2-1.088 31.875-19.56 53.362a23.364 23.364 0 0 1 4.036 4.222c20.434-23.72 28.806-45.786 20.375-60.386-5.717-9.9-18.485-15.134-36.927-15.134-7.69 0-16.18.905-25.23 2.61a22.874 22.874 0 0 1 1.352 5.442c8.567-1.593 16.604-2.45 23.88-2.45zM58.186 233.424c-11.384 0-26.19-2.138-32.075-12.33-6.494-11.252-.062-29.945 17.646-51.29.507-.613 1.05-1.227 1.572-1.837a23.3 23.3 0 0 1-4.117-3.806c-.588.69-1.196 1.38-1.767 2.064-19.574 23.596-26.035 44.077-18.185 57.67 5.715 9.9 18.485 15.133 36.927 15.133 7.384 0 15.516-.85 24.164-2.426-.716-1.707-1.207-3.527-1.495-5.413-8.11 1.45-15.737 2.237-22.67 2.237zM221.357 162.82a341.393 341.393 0 0 1-15.166 11.478c.498-8.05.768-16.322.768-24.79 0-8.498-.273-16.794-.773-24.866 5.208 3.7 10.22 7.47 15 11.287a23.204 23.204 0 0 1 3.777-4.154c-6.087-4.87-12.543-9.653-19.288-14.323a345.78 345.78 0 0 0-2.886-24.83 22.95 22.95 0 0 1-5.63 1.204c.986 6.3 1.807 12.823 2.46 19.52a397.39 397.39 0 0 0-21.09-13.08 393.94 393.94 0 0 0-21.955-11.75c6.03-2.762 12-5.272 17.89-7.57a22.874 22.874 0 0 1-1.85-5.278c-7.397 2.878-14.924 6.13-22.512 9.716a348.67 348.67 0 0 0-23.734-10.184 22.883 22.883 0 0 1-1.737 5.318 337.31 337.31 0 0 1 19 7.997 394.765 394.765 0 0 0-21.96 11.752 396.365 396.365 0 0 0-21.085 13.08 338.798 338.798 0 0 1 2.448-19.457 23.022 23.022 0 0 1-5.676-.87 347.274 347.274 0 0 0-2.83 24.433c-7.002 4.848-13.692 9.82-19.982 14.882a23.2 23.2 0 0 1 3.626 4.268 338.135 338.135 0 0 1 15.845-11.962 403.785 403.785 0 0 0-.77 24.864c0 8.47.27 16.743.766 24.79a337.913 337.913 0 0 1-15.982-12.144 23.227 23.227 0 0 1-3.805 4.323c6.333 5.096 13.12 10.148 20.306 15.114.67 8.272 1.597 16.26 2.755 23.926a23.086 23.086 0 0 1 5.667-.884 339.79 339.79 0 0 1-2.366-18.944 401.765 401.765 0 0 0 21.084 13.057 396.12 396.12 0 0 0 21.958 11.753 336.253 336.253 0 0 1-18.8 7.918 22.868 22.868 0 0 1 1.606 5.37c7.77-2.99 15.682-6.385 23.666-10.156 7.556 3.57 15.052 6.81 22.422 9.682.36-1.865.96-3.643 1.74-5.318a338.844 338.844 0 0 1-17.69-7.495 395.69 395.69 0 0 0 21.955-11.754 403.176 403.176 0 0 0 21.086-13.057 340.89 340.89 0 0 1-2.375 19.01c1.954.17 3.83.598 5.618 1.226a348.032 348.032 0 0 0 2.814-24.333 348.74 348.74 0 0 0 19.604-14.56 23.445 23.445 0 0 1-3.917-4.213zm-21.112 15.64a377.087 377.087 0 0 1-24.52 15.433 388.62 388.62 0 0 1-25.624 13.545 389.437 389.437 0 0 1-25.627-13.545 378.252 378.252 0 0 1-24.518-15.433 377.903 377.903 0 0 1-1.107-28.953c0-9.902.387-19.604 1.11-29.003a390.323 390.323 0 0 1 50.143-28.928 388.58 388.58 0 0 1 25.626 13.543 389.688 389.688 0 0 1 24.516 15.383c.726 9.4 1.112 19.1 1.112 29.004 0 9.885-.386 19.568-1.11 28.952z"/>
    </g>
</svg>
