<?xml version="1.0" encoding="UTF-8"?><!DOCTYPE svg PUBLIC "-//W3C//DTD SVG 1.1//EN" "http://www.w3.org/Graphics/SVG/1.1/DTD/svg11.dtd"><svg xmlns="http://www.w3.org/2000/svg"><symbol id="icon-ada" viewBox="0 0 16 16">
<circle fill="" cx="8" cy="8" r="8"/>
<path fill="#FFFFFF" d="M9.812,8.771c0.358,0.849,0.721,1.696,1.082,2.543c0.014,0.031,0.027,0.062,0.045,0.102
	c0.029-0.01,0.059-0.019,0.086-0.03c0.457-0.18,0.915-0.359,1.372-0.539c0.021-0.009,0.044-0.014,0.066-0.02V10.81
	c-0.079-0.183-0.159-0.363-0.239-0.55c-0.282,0.103-0.562,0.203-0.848,0.306c-0.015-0.028-0.027-0.054-0.038-0.079
	c-0.353-0.814-0.706-1.628-1.056-2.443c-0.025-0.06-0.055-0.08-0.121-0.078C9.339,7.973,8.515,7.976,7.69,7.982
	c-0.023,0-0.046-0.001-0.075-0.004C7.603,7.816,7.59,7.658,7.577,7.491h1.901V6.77H7.507C7.476,6.246,7.448,5.731,7.418,5.212
	c0.046-0.01,0.087-0.017,0.126-0.028c0.346-0.092,0.58-0.414,0.569-0.782C8.103,4.058,7.841,3.751,7.498,3.681
	c-0.02-0.004-0.039-0.011-0.06-0.016H7.25C7.223,3.672,7.194,3.68,7.168,3.687c-0.454,0.11-0.704,0.585-0.547,1.025
	C6.654,4.8,6.675,4.897,6.682,4.992C6.746,5.868,6.808,6.744,6.87,7.62c0.022,0.328,0.047,0.654,0.065,0.98
	C6.94,8.673,6.961,8.693,7.032,8.692c0.885-0.002,1.77-0.001,2.653-0.003C9.753,8.688,9.786,8.706,9.812,8.771L9.812,8.771z"/>
<path fill="#FFFFFF" d="M4.878,9.252v0.471C4.882,9.743,4.89,9.764,4.891,9.784c0.137,1.232,1.015,2.218,2.226,2.49
	c0.105,0.024,0.215,0.041,0.321,0.061h0.55c0.159-0.032,0.32-0.053,0.476-0.098c0.777-0.224,1.37-0.688,1.769-1.397
	c0.027-0.048,0.029-0.085,0.005-0.137c-0.146-0.287-0.285-0.577-0.426-0.866C9.799,9.813,9.787,9.79,9.771,9.759
	c-0.024,0.103-0.042,0.196-0.067,0.287c-0.268,0.938-1.128,1.56-2.099,1.518C6.603,11.52,5.74,10.697,5.661,9.695
	C5.598,8.894,5.9,8.254,6.551,7.78c0.021-0.016,0.046-0.048,0.045-0.07C6.579,7.448,6.558,7.187,6.537,6.914
	C6.507,6.926,6.48,6.934,6.456,6.947C5.55,7.429,5.027,8.179,4.893,9.199C4.89,9.217,4.882,9.233,4.878,9.252L4.878,9.252z"/>
</symbol><symbol id="icon-chevron" viewBox="0 0 13 8">
    <!-- Generator: Sketch 3.3.3 (12072) - http://www.bohemiancoding.com/sketch -->
    <title>chevron</title>
    <desc>Created with Sketch.</desc>
    
    <g id="mobile" stroke="none" stroke-width="1" fill="" fill-rule="evenodd" sketch:type="MSPage">
        <g id="m-edp-top-picks" sketch:type="MSArtboardGroup" transform="translate(-181.000000, -98.000000)" fill="#000000">
            <g id="event-details/date-time" sketch:type="MSLayerGroup" transform="translate(0.000000, 40.000000)">
                <path d="M186.303301,61.8890873 L191.261398,56.9309904 L189.847184,55.5167768 L183.483223,61.8807379 L183.491573,61.8890873 L183.483223,61.8974367 L189.847184,68.2613977 L191.261398,66.8471842 L186.303301,61.8890873 L186.303301,61.8890873 Z" id="chevron" sketch:type="MSShapeGroup" transform="translate(187.372310, 61.889087) rotate(-90.000000) translate(-187.372310, -61.889087) "/>
            </g>
        </g>
    </g>
</symbol><symbol id="icon-minus" viewBox="-10 -10 40 40">
<g>
	<circle fill="#000000" cx="10" cy="10" r="20"/>
	<rect y="9" fill="#fff" width="20" height="2"/>
</g>
</symbol><symbol id="icon-plus" viewBox="-10 -10 40 40">
<g>
	<circle fill="#000" cx="10" cy="10" r="20"/>
	<polygon fill="#fff" points="11,11 20,11 20,9 11,9 11,0 9,0 9,9 0,9 0,11 9,11 9,20 11,20 	"/>
</g>
</symbol><symbol id="icon-resale" viewBox="0 0 16 16">
    <!-- Generator: Sketch 3.3.3 (12072) - http://www.bohemiancoding.com/sketch -->
    <title>resale</title>
    <desc>Created with Sketch.</desc>
    
    <g id="desktop" stroke="none" stroke-width="1" fill="none" fill-rule="evenodd" sketch:type="MSPage">
        <g id="top-picks-land" sketch:type="MSArtboardGroup" transform="translate(-208.000000, -427.000000)" fill="">
            <g id="top-picks" sketch:type="MSLayerGroup" transform="translate(0.000000, 84.000000)">
                <g id="listings" transform="translate(15.000000, 60.000000)" sketch:type="MSShapeGroup">
                    <g id="listing-copy" transform="translate(0.000000, 268.000000)">
                        <g id="ticket-info" transform="translate(155.000000, 15.000000)">
                            <path d="M52.2146667,3.69230769 C50.8946667,1.4875381 48.624,0 46.0173333,0 C42.64,0 39.82,2.46153846 38.9026667,5.76941008 L40.996,5.76941008 C41.8186667,3.66648736 43.7453333,2.16603909 46.0173333,2.16603909 C47.708,2.16603909 49.2173333,3.02528241 50.228,4.34642281 L48.6573333,4.84705039 L50.5613333,6.47660032 L52.4786667,8.11762596 L53.252,5.60444684 L54,3.10417787 L52.2146667,3.69230769 L52.2146667,3.69230769 Z M45.9933333,13.8353954 C44.2933333,13.8353954 42.7826667,12.9904967 41.7826667,11.6679218 L43.3533333,11.1672942 L41.4493333,9.53774431 L39.5226667,7.89671867 L38.7626667,10.4098978 L38,12.8986911 L39.7973333,12.3076923 C41.1173333,14.5268065 43.3906667,15.9870898 45.9946667,16 L45.9946667,15.9870898 C49.372,15.9870898 52.2053333,13.5513717 53.096,10.2291555 L51.0146667,10.2291555 C50.1933333,12.3492917 48.2533333,13.8353954 45.9933333,13.8353954 L45.9933333,13.8353954 Z" id="resale"/>
                        </g>
                    </g>
                </g>
            </g>
        </g>
    </g>
</symbol><symbol id="icon-warning" viewBox="0 0 20 17">
<title>fyi</title>
<desc>Created with Sketch.</desc>
<path id="sign_1_" sketch:type="MSShapeGroup" fill="" d="M18.899,17H1.128c-0.827,0-1.439-0.825-0.958-1.641
	C0.558,14.708,8.369,1.657,9.038,0.544c0.438-0.731,1.484-0.719,1.924,0c0.489,0.801,8.345,13.901,8.891,14.851
	C20.251,16.088,19.81,17,18.899,17L18.899,17z"/>
<path id="_x21__1_" sketch:type="MSShapeGroup" fill="#414141" d="M9,5v6h2V5H9L9,5z M11,15v-2H9v2H11z"/>
</symbol></svg>