<?xml version="1.0" encoding="UTF-8"?><!DOCTYPE svg PUBLIC "-//W3C//DTD SVG 1.1//EN" "http://www.w3.org/Graphics/SVG/1.1/DTD/svg11.dtd"><svg xmlns="http://www.w3.org/2000/svg"><symbol id="icon-ada" viewBox="0 0 16 16">
    <circle fill="" cx="8" cy="8" r="8"/>
    <path fill="#FFF" d="M9.812 8.77c.358.85.72 1.697 1.082 2.544l.045.102.085-.03 1.372-.54c.02-.008.044-.013.066-.02v-.016c-.08-.183-.16-.363-.24-.55-.28.103-.56.203-.847.306-.015-.028-.027-.054-.038-.08-.353-.813-.706-1.627-1.056-2.442-.025-.06-.055-.08-.12-.078-.823.007-1.647.01-2.472.016-.023 0-.046 0-.075-.004l-.038-.487h1.9v-.72h-1.97l-.09-1.558c.047-.01.088-.017.127-.028.346-.092.58-.414.57-.782-.01-.344-.273-.65-.616-.72l-.06-.017H7.25l-.082.022c-.454.11-.704.585-.547 1.025.034.088.055.185.062.28.064.876.126 1.752.188 2.628.022.328.047.654.065.98.005.073.026.093.097.092.885-.002 1.77 0 2.653-.003.068-.002.1.016.127.08z"/>
    <path fill="#FFF" d="M4.878 9.252v.47c.004.02.012.042.013.062.138 1.232 1.016 2.218 2.227 2.49.105.024.215.04.32.06h.55c.16-.03.32-.052.477-.097.777-.224 1.37-.688 1.77-1.397.026-.048.028-.085.004-.137-.146-.287-.285-.577-.426-.866l-.04-.078c-.025.102-.043.195-.068.286-.268.938-1.128 1.56-2.1 1.518-1-.044-1.864-.867-1.943-1.87-.062-.8.24-1.44.89-1.914.022-.016.047-.048.046-.07-.017-.262-.038-.523-.06-.796-.03.012-.056.02-.08.033C5.55 7.43 5.026 8.18 4.893 9.2c-.003.017-.01.033-.015.052z"/>
</symbol><symbol id="icon-chevron" viewBox="0 0 13 8">
    <title>
        chevron
    </title>
    <path d="M6.372 4.958L1.414 0 0 1.414l6.364 6.364.008-.008.01.008 6.363-6.364L11.33 0 6.372 4.958z" fill="" fill-rule="evenodd"/>
</symbol><symbol id="icon-minus" viewBox="-10 -10 40 40">
    <circle cx="10" cy="10" r="20"/>
    <path fill="#fff" d="M0 9h20v2H0z"/>
</symbol><symbol id="icon-plus" viewBox="-10 -10 40 40">
    <circle cx="10" cy="10" r="20"/>
    <path fill="#fff" d="M11 11h9V9h-9V0H9v9H0v2h9v9h2"/>
</symbol><symbol id="icon-resale" viewBox="0 0 16 16">
    <title>
        resale
    </title>
    <path d="M14.215 3.692C12.895 1.488 10.625 0 8.017 0 4.64 0 1.82 2.462.903 5.77h2.093c.823-2.104 2.75-3.604 5.02-3.604 1.692 0 3.2.86 4.212 2.18l-1.57.5 1.903 1.63 1.92 1.642.772-2.514.748-2.5-1.785.588zM7.993 13.835c-1.7 0-3.21-.845-4.21-2.167l1.57-.5-1.904-1.63-1.927-1.64-.76 2.512L0 12.9l1.797-.592c1.32 2.22 3.594 3.68 6.198 3.692v-.013c3.377 0 6.21-2.436 7.1-5.758h-2.08c-.822 2.12-2.762 3.605-5.022 3.605z" fill="" fill-rule="evenodd"/>
</symbol><symbol id="icon-warning" viewBox="0 0 20 17">
    <title>
        fyi
    </title>
    <path fill="" d="M18.9 17H1.127C.3 17-.312 16.175.17 15.36.558 14.707 8.37 1.656 9.038.543c.438-.73 1.484-.72 1.924 0 .49.8 8.345 13.9 8.89 14.85.4.694-.042 1.606-.953 1.606z"/>
    <path fill="#414141" d="M9 5v6h2V5H9zm2 10v-2H9v2h2z"/>
</symbol><symbol id="nucleus" viewBox="0 0 300 300">
    <path style="" d="M113.587 137.276h6.28l1.498-6.85 9.3-3.04-2.135 9.89h7.752l-1.346 6.352h-7.76l-3.163 14.553c-.197.767-.39 1.923-.39 3.222 0 2.01 1.35 3.236 3.29 3.236 1.565 0 3.112-.32 4.217-.767l-1.5 6.708c-1.49.34-3.162.8-4.658.8-5.87 0-10.014-2.348-10.014-8.732 0-2.598.514-5.126 1.102-7.774l2.437-11.243h-6.26l1.35-6.354zM140.04 140.978c.248-1.298.518-2.67.715-3.7h8.073l-.78 4.465h.138c2.332-3.435 6.14-5.246 10.215-5.246 3.948 0 8.022 2.33 8.486 6.35h.124c2.203-4.342 7.04-6.35 11.703-6.35 4.98 0 9.252 4.09 9.252 9.123 0 2.972-.784 6.35-1.492 9.055l-3.49 15.903h-8.662l3.485-16.225c.463-1.992 1.105-5.105 1.105-7.115 0-2.455-1.887-4.002-4.075-4.002-6.012 0-7.508 6.975-8.61 11.51l-3.414 15.832h-8.682l3.506-16.225c.445-1.992 1.102-5.105 1.102-7.115 0-2.455-1.886-4.002-4.07-4.002-5.893 0-7.51 7.044-8.614 11.51l-3.433 15.832h-8.666l6.086-29.6z"/>
    <g>
        <circle style="" cx="195.207" cy="70.811" r="13.775"/>
        <circle style="" cx="103.682" cy="70.811" r="13.775"/>
        <circle style="" cx="195.207" cy="227.711" r="13.775"/>
        <circle style="" cx="240.036" cy="149.261" r="13.775"/>
        <circle style="" cx="58.854" cy="149.261" r="13.775"/>
        <circle style="" cx="103.682" cy="227.711" r="13.775"/>
        <path style="" d="M150.102 292.68c-14.17 0-27.206-17.076-36.59-44.08-1.74.82-3.587 1.44-5.53 1.81 10.325 29.577 25.255 47.873 42.12 47.873 16.83 0 31.73-18.22 42.052-47.684-1.97-.262-3.858-.76-5.64-1.485-9.37 26.707-22.334 43.564-36.412 43.564zM150.102 6.335c14.002 0 26.905 16.668 36.263 43.126 1.77-.736 3.66-1.237 5.618-1.513C181.666 18.762 166.84.73 150.103.73c-16.777 0-31.634 18.11-41.95 47.408 1.934.38 3.773 1.02 5.504 1.853 9.37-26.76 22.35-43.655 36.445-43.655zM258.31 163.362c-1.153 1.488-2.474 2.835-3.947 4.004.696.812 1.412 1.625 2.085 2.438 17.71 21.345 24.142 40.038 17.645 51.29-5.885 10.192-20.69 12.33-32.075 12.33-7.296 0-15.354-.857-23.952-2.46-.268 1.89-.75 3.71-1.45 5.424 9.12 1.728 17.663 2.64 25.402 2.64 18.44 0 31.212-5.23 36.927-15.133 7.85-13.593 1.392-34.074-18.185-57.67-.79-.953-1.626-1.91-2.45-2.863zM45.15 130.688C27.04 109.432 19.13 90.008 26.11 77.92c5.886-10.193 20.69-12.333 32.076-12.333 6.91 0 14.514.786 22.597 2.225.248-1.89.72-3.71 1.397-5.43-8.584-1.557-16.658-2.398-23.994-2.398-18.443 0-31.213 5.233-36.928 15.134-8.33 14.43-.235 36.155 19.682 59.56 1.227-1.504 2.65-2.835 4.21-3.99zM242.017 65.587c11.384 0 26.19 2.14 32.075 12.333 7.044 12.2-1.088 31.875-19.56 53.362 1.52 1.228 2.867 2.653 4.036 4.222 20.434-23.72 28.806-45.786 20.375-60.386-5.717-9.9-18.485-15.134-36.927-15.134-7.69 0-16.18.905-25.23 2.61.66 1.728 1.124 3.547 1.352 5.442 8.567-1.593 16.604-2.45 23.88-2.45zM58.186 233.424c-11.384 0-26.19-2.138-32.075-12.33-6.494-11.252-.062-29.945 17.646-51.29.507-.613 1.05-1.227 1.572-1.837-1.52-1.104-2.906-2.373-4.117-3.806-.588.69-1.196 1.38-1.767 2.064-19.574 23.596-26.035 44.077-18.185 57.67 5.715 9.9 18.485 15.133 36.927 15.133 7.384 0 15.516-.85 24.164-2.426-.716-1.707-1.207-3.527-1.495-5.413-8.11 1.45-15.737 2.237-22.67 2.237zM221.357 162.82c-4.812 3.865-9.88 7.698-15.166 11.478.498-8.05.768-16.322.768-24.79 0-8.498-.273-16.794-.773-24.866 5.208 3.7 10.22 7.47 15 11.287 1.09-1.535 2.356-2.93 3.777-4.154-6.087-4.87-12.543-9.653-19.288-14.323-.693-8.596-1.663-16.893-2.886-24.83-1.79.623-3.674 1.04-5.63 1.204.986 6.3 1.807 12.823 2.46 19.52-6.78-4.5-13.815-8.88-21.09-13.08-7.304-4.218-14.645-8.124-21.955-11.75 6.03-2.762 12-5.272 17.89-7.57-.814-1.662-1.45-3.424-1.85-5.278-7.397 2.878-14.924 6.13-22.512 9.716-8.007-3.784-15.945-7.188-23.734-10.184-.36 1.864-.956 3.642-1.737 5.318 6.25 2.413 12.59 5.06 19 7.997-7.312 3.627-14.652 7.533-21.96 11.752-7.27 4.198-14.307 8.577-21.085 13.08.65-6.675 1.467-13.175 2.448-19.457-1.962-.055-3.863-.352-5.676-.87-1.195 7.82-2.145 15.98-2.83 24.433-7.002 4.848-13.692 9.82-19.982 14.882 1.372 1.273 2.596 2.7 3.626 4.268 5.04-4.048 10.333-8.043 15.845-11.962-.498 8.072-.77 16.368-.77 24.864 0 8.47.27 16.743.766 24.79-5.588-3.994-10.925-8.054-15.982-12.144-1.08 1.602-2.37 3.042-3.805 4.323 6.333 5.096 13.12 10.148 20.306 15.114.67 8.272 1.597 16.26 2.755 23.926 1.808-.522 3.708-.82 5.667-.884-.945-6.12-1.735-12.452-2.366-18.944 6.722 4.454 13.748 8.823 21.084 13.057 7.307 4.22 14.647 8.124 21.958 11.753-6.343 2.905-12.616 5.528-18.8 7.918.747 1.692 1.285 3.495 1.606 5.37 7.77-2.99 15.682-6.385 23.666-10.156 7.556 3.57 15.052 6.81 22.422 9.682.36-1.865.96-3.643 1.74-5.318-5.825-2.278-11.73-4.765-17.69-7.495 7.31-3.63 14.65-7.535 21.955-11.754 7.336-4.235 14.364-8.604 21.086-13.057-.633 6.515-1.427 12.868-2.375 19.01 1.954.17 3.83.598 5.618 1.226 1.186-7.79 2.134-15.917 2.814-24.333 6.926-4.785 13.47-9.653 19.604-14.56-1.476-1.23-2.782-2.654-3.917-4.213zm-21.112 15.64c-7.763 5.315-15.957 10.49-24.52 15.433-8.536 4.93-17.113 9.444-25.624 13.545-8.51-4.1-17.087-8.615-25.627-13.545-8.56-4.94-16.752-10.117-24.518-15.433-.722-9.383-1.107-19.068-1.107-28.953 0-9.902.387-19.604 1.11-29.003 7.806-5.316 16.003-10.468 24.515-15.383 8.54-4.93 17.117-9.444 25.628-13.544 8.512 4.1 17.09 8.614 25.626 13.543 8.515 4.915 16.712 10.067 24.516 15.383.726 9.4 1.112 19.1 1.112 29.004 0 9.885-.386 19.568-1.11 28.952z"/>
    </g>
</symbol></svg>