<?xml version="1.0" encoding="UTF-8"?><!DOCTYPE svg PUBLIC "-//W3C//DTD SVG 1.1//EN" "http://www.w3.org/Graphics/SVG/1.1/DTD/svg11.dtd"><svg xmlns="http://www.w3.org/2000/svg"><symbol id="icon-ada" viewBox="0 0 16 16">
    <circle fill="" cx="8" cy="8" r="8"/>
    <path fill="#FFF" d="M9.812 8.77c.358.85.72 1.697 1.082 2.544l.045.102.085-.03 1.372-.54c.02-.008.044-.013.066-.02v-.016c-.08-.183-.16-.363-.24-.55-.28.103-.56.203-.847.306-.015-.028-.027-.054-.038-.08-.353-.813-.706-1.627-1.056-2.442-.025-.06-.055-.08-.12-.078-.823.007-1.647.01-2.472.016-.023 0-.046 0-.075-.004l-.038-.487h1.9v-.72h-1.97l-.09-1.558c.047-.01.088-.017.127-.028.346-.092.58-.414.57-.782-.01-.344-.273-.65-.616-.72l-.06-.017H7.25l-.082.022c-.454.11-.704.585-.547 1.025.034.088.055.185.062.28.064.876.126 1.752.188 2.628.022.328.047.654.065.98.005.073.026.093.097.092.885-.002 1.77 0 2.653-.003.068-.002.1.016.127.08z"/>
    <path fill="#FFF" d="M4.878 9.252v.47c.004.02.012.042.013.062.138 1.232 1.016 2.218 2.227 2.49.105.024.215.04.32.06h.55c.16-.03.32-.052.477-.097.777-.224 1.37-.688 1.77-1.397.026-.048.028-.085.004-.137-.146-.287-.285-.577-.426-.866l-.04-.078c-.025.102-.043.195-.068.286-.268.938-1.128 1.56-2.1 1.518-1-.044-1.864-.867-1.943-1.87-.062-.8.24-1.44.89-1.914.022-.016.047-.048.046-.07-.017-.262-.038-.523-.06-.796-.03.012-.056.02-.08.033C5.55 7.43 5.026 8.18 4.893 9.2c-.003.017-.01.033-.015.052z"/>
</symbol><symbol id="icon-chevron" viewBox="0 0 13 8">
    <title>
        chevron
    </title>
    <path d="M6.372 4.958L1.414 0 0 1.414l6.364 6.364.008-.008.01.008 6.363-6.364L11.33 0 6.372 4.958z" fill="" fill-rule="evenodd"/>
</symbol><symbol id="icon-minus" viewBox="0 0 20 2">
    <title>
        -
    </title>
    <path d="M20 2H0V0h20v2z" fill="#000" fill-rule="evenodd"/>
</symbol><symbol id="icon-plus" viewBox="0 0 20 20">
    <title>
        -
    </title>
    <path d="M11 11h9V9h-9V0H9v9H0v2h9v9h2v-9z" fill="#000" fill-rule="evenodd"/>
</symbol><symbol id="icon-resale" viewBox="0 0 16 16">
    <title>
        resale
    </title>
    <path d="M14.215 3.692C12.895 1.488 10.625 0 8.017 0 4.64 0 1.82 2.462.903 5.77h2.093c.823-2.104 2.75-3.604 5.02-3.604 1.692 0 3.2.86 4.212 2.18l-1.57.5 1.903 1.63 1.92 1.642.772-2.514.748-2.5-1.785.588zM7.993 13.835c-1.7 0-3.21-.845-4.21-2.167l1.57-.5-1.904-1.63-1.927-1.64-.76 2.512L0 12.9l1.797-.592c1.32 2.22 3.594 3.68 6.198 3.692v-.013c3.377 0 6.21-2.436 7.1-5.758h-2.08c-.822 2.12-2.762 3.605-5.022 3.605z" fill="" fill-rule="evenodd"/>
</symbol><symbol id="icon-warning" viewBox="0 0 20 17">
    <title>
        fyi
    </title>
    <path fill="" d="M18.9 17H1.127C.3 17-.312 16.175.17 15.36.558 14.707 8.37 1.656 9.038.543c.438-.73 1.484-.72 1.924 0 .49.8 8.345 13.9 8.89 14.85.4.694-.042 1.606-.953 1.606z"/>
    <path fill="#414141" d="M9 5v6h2V5H9zm2 10v-2H9v2h2z"/>
</symbol></svg>