<?xml version="1.0" encoding="UTF-8"?><!DOCTYPE svg PUBLIC "-//W3C//DTD SVG 1.1//EN" "http://www.w3.org/Graphics/SVG/1.1/DTD/svg11.dtd"><svg xmlns="http://www.w3.org/2000/svg"><symbol id="icon-ada" viewBox="0 0 16 16">
    <circle fill="" cx="8" cy="8" r="8"/>
    <path fill="#FFF" d="M9.812 8.77c.358.85.72 1.697 1.082 2.544l.045.102.085-.03 1.372-.54c.02-.008.044-.013.066-.02v-.016c-.08-.183-.16-.363-.24-.55-.28.103-.56.203-.847.306-.015-.028-.027-.054-.038-.08-.353-.813-.706-1.627-1.056-2.442-.025-.06-.055-.08-.12-.078-.823.007-1.647.01-2.472.016-.023 0-.046 0-.075-.004l-.038-.487h1.9v-.72h-1.97l-.09-1.558c.047-.01.088-.017.127-.028.346-.092.58-.414.57-.782-.01-.344-.273-.65-.616-.72l-.06-.017H7.25l-.082.022c-.454.11-.704.585-.547 1.025.034.088.055.185.062.28.064.876.126 1.752.188 2.628.022.328.047.654.065.98.005.073.026.093.097.092.885-.002 1.77 0 2.653-.003.068-.002.1.016.127.08z"/>
    <path fill="#FFF" d="M4.878 9.252v.47c.004.02.012.042.013.062.138 1.232 1.016 2.218 2.227 2.49.105.024.215.04.32.06h.55c.16-.03.32-.052.477-.097.777-.224 1.37-.688 1.77-1.397.026-.048.028-.085.004-.137-.146-.287-.285-.577-.426-.866l-.04-.078c-.025.102-.043.195-.068.286-.268.938-1.128 1.56-2.1 1.518-1-.044-1.864-.867-1.943-1.87-.062-.8.24-1.44.89-1.914.022-.016.047-.048.046-.07-.017-.262-.038-.523-.06-.796-.03.012-.056.02-.08.033C5.55 7.43 5.026 8.18 4.893 9.2c-.003.017-.01.033-.015.052z"/>
</symbol><symbol id="icon-caution" viewBox="0 0 20 17">
    <title>
        fyi
    </title>
    <path fill="" d="M18.9 17H1.127C.3 17-.312 16.175.17 15.36.558 14.707 8.37 1.656 9.038.543c.438-.73 1.484-.72 1.924 0 .49.8 8.345 13.9 8.89 14.85.4.694-.042 1.606-.953 1.606z"/>
    <path fill="#414141" d="M9 5v6h2V5H9zm2 10v-2H9v2h2z"/>
</symbol><symbol id="icon-chevron" viewBox="0 0 13 8">
    <title>
        chevron
    </title>
    <path d="M6.372 4.958L1.414 0 0 1.414l6.364 6.364.008-.008.01.008 6.363-6.364L11.33 0 6.372 4.958z" fill="" fill-rule="evenodd"/>
</symbol><symbol id="icon-minus" viewBox="0 0 18 2">
    <title>
        Fill 42
    </title>
    <path d="M0 0h18v2H0V0z" fill="" fill-rule="evenodd"/>
</symbol><symbol id="icon-plus" viewBox="0 0 18 18">
    <title>
        plus
    </title>
    <g fill="" fill-rule="evenodd">
        <path d="M0 8h18v2H0V8z"/>
        <path d="M8 0h2v18H8V0z"/>
    </g>
</symbol><symbol id="icon-polling-fill" viewBox="0 0 80 80">
    <path d="M70.53 21.326c-1.652 1.65-3.815 2.476-5.98 2.476s-4.326-.826-5.977-2.476c-.534-.534-.973-1.126-1.333-1.75l.002-.002c-.134-.215-.24-.444-.35-.668-1.454-3.127-.9-6.956 1.68-9.534l-9.33-9.33-.078.076-.112-.112-.12.057L.055 49.23 0 49.35l.16.158.04.043-.076.078 9.403 9.26c3.274-3.325 8.626-3.368 11.954-.094 1.664 1.638 2.506 3.795 2.522 5.958.017 2.163-.79 4.332-2.43 5.995l9.403 9.26 48.884-49.35-9.33-9.33z" fill=""/>
</symbol><symbol id="icon-polling-outline" viewBox="0 0 80 80">
    <path d="M79.86 30.657l-9.33-9.33c-1.652 1.65-3.815 2.475-5.98 2.475s-4.326-.826-5.976-2.476c-.534-.534-.973-1.126-1.333-1.75l.003-.002c-.134-.216-.24-.443-.35-.667-1.453-3.127-.9-6.956 1.68-9.535l-9.33-9.33-.078.076-.112-.112-.12.057L.055 49.23 0 49.35l.16.158.04.043-.076.078 9.403 9.26c3.275-3.326 8.626-3.37 11.954-.094 1.664 1.637 2.506 3.795 2.523 5.958s-.792 4.332-2.43 5.995l9.402 9.26 48.884-49.35zM30.92 73.01l-3.02-2.974c.702-1.66 1.065-3.463 1.05-5.323-.027-3.578-1.447-6.932-3.998-9.444-.637-.628-1.33-1.173-2.06-1.65-2.224-1.546-4.852-2.396-7.618-2.396-.968 0-1.92.106-2.845.305-.85.183-1.677.44-2.47.784L8.395 50.75 7.17 49.523l4.84-4.916 2.534-2.572L33.782 22.5l7.98-7.98 2.552-2.55 4.877-4.88 1.324 1.303 1.577 1.553c-.335.796-.588 1.625-.765 2.475-.19.927-.29 1.88-.284 2.848.02 2.348.65 4.593 1.796 6.572.598 1.082 1.34 2.088 2.238 2.986 2.53 2.532 5.896 3.926 9.476 3.926 1.857 0 3.657-.376 5.314-1.09l2.997 2.997-41.94 42.35z" fill=""/>
</symbol><symbol id="icon-resale" viewBox="0 0 16 16">
    <title>
        resale
    </title>
    <path d="M14.215 3.692C12.895 1.488 10.625 0 8.017 0 4.64 0 1.82 2.462.903 5.77h2.093c.823-2.104 2.75-3.604 5.02-3.604 1.692 0 3.2.86 4.212 2.18l-1.57.5 1.903 1.63 1.92 1.642.772-2.514.748-2.5-1.785.588zM7.993 13.835c-1.7 0-3.21-.845-4.21-2.167l1.57-.5-1.904-1.63-1.927-1.64-.76 2.512L0 12.9l1.797-.592c1.32 2.22 3.594 3.68 6.198 3.692v-.013c3.377 0 6.21-2.436 7.1-5.758h-2.08c-.822 2.12-2.762 3.605-5.022 3.605z" fill="" fill-rule="evenodd"/>
</symbol></svg>