<?xml version="1.0" encoding="UTF-8"?><!DOCTYPE svg PUBLIC "-//W3C//DTD SVG 1.1//EN" "http://www.w3.org/Graphics/SVG/1.1/DTD/svg11.dtd"><svg xmlns="http://www.w3.org/2000/svg"><symbol id="icon-ada" viewBox="0 0 16 16">
    <title>
        ADA Icon
    </title>
    <desc>
        Icon to indicate accessible seating
    </desc>
    <circle fill="" cx="8" cy="8" r="8"/>
    <path fill="#FFF" d="M9.812 8.77c.358.85.72 1.697 1.082 2.544l.045.102.085-.03 1.372-.54c.02-.008.044-.013.066-.02v-.016c-.08-.183-.16-.363-.24-.55-.28.103-.56.203-.847.306-.015-.028-.027-.054-.038-.08-.353-.813-.706-1.627-1.056-2.442-.025-.06-.055-.08-.12-.078-.823.007-1.647.01-2.472.016-.023 0-.046 0-.075-.004l-.038-.487h1.9v-.72h-1.97l-.09-1.558c.047-.01.088-.017.127-.028.346-.092.58-.414.57-.782-.01-.344-.273-.65-.616-.72l-.06-.017H7.25l-.082.022c-.454.11-.704.585-.547 1.025.034.088.055.185.062.28.064.876.126 1.752.188 2.628.022.328.047.654.065.98.005.073.026.093.097.092.885-.002 1.77 0 2.653-.003.068-.002.1.016.127.08z"/>
    <path fill="#FFF" d="M4.878 9.252v.47c.004.02.012.042.013.062.138 1.232 1.016 2.218 2.227 2.49.105.024.215.04.32.06h.55c.16-.03.32-.052.477-.097.777-.224 1.37-.688 1.77-1.397.026-.048.028-.085.004-.137-.146-.287-.285-.577-.426-.866l-.04-.078c-.025.102-.043.195-.068.286-.268.938-1.128 1.56-2.1 1.518-1-.044-1.864-.867-1.943-1.87-.062-.8.24-1.44.89-1.914.022-.016.047-.048.046-.07-.017-.262-.038-.523-.06-.796-.03.012-.056.02-.08.033C5.55 7.43 5.026 8.18 4.893 9.2c-.003.017-.01.033-.015.052z"/>
</symbol><symbol id="icon-alert" viewBox="0 0 2 12">
    <title>
        Exclamation point
    </title>
    <desc>
        Exclamation point
    </desc>
    <g fill="">
        <path d="M0 0h2v8H0zM0 10h2v2H0z"/>
    </g>
</symbol><symbol id="icon-caution" viewBox="0 0 20 17">
    <title>
        Caution icon
    </title>
    <desc>
        Icon of a triangle with exclamation point to signify a user should take note of something.
    </desc>
    <path fill="" d="M18.9 17H1.127C.3 17-.312 16.175.17 15.36.558 14.707 8.37 1.656 9.038.543c.438-.73 1.484-.72 1.924 0 .49.8 8.345 13.9 8.89 14.85.4.694-.042 1.606-.953 1.606z"/>
    <path fill="#414141" d="M9 5v6h2V5H9zm2 10v-2H9v2h2z"/>
</symbol><symbol id="icon-check" viewBox="0 0 13 10">
    <title>
        Checkmark
    </title>
    <desc>
        Checkmark icon
    </desc>
    <path fill="" d="M11.586 0L4.392 7.18 1.414 4.204 0 5.617 4.393 10 13 1.41"/>
</symbol><symbol id="icon-chevron" viewBox="0 0 13 8">
    <title>
        Chevron icon
    </title>
    <desc>
        Chevron-shaped icon used for navigational cues.
    </desc>
    <path d="M6.372 4.958L1.414 0 0 1.414l6.364 6.364.008-.008.01.008 6.363-6.364L11.33 0 6.372 4.958z" fill="" fill-rule="evenodd"/>
</symbol><symbol id="icon-lock" viewBox="0 0 14 18">
    <path fill="#FECB34" d="M12.5 6H11V3.5C11 1.57 9.43 0 7.5 0h-1C4.57 0 3 1.57 3 3.5V6H1.5C.673 6 0 6.673 0 7.5v9c0 .827.673 1.5 1.5 1.5h11c.827 0 1.5-.673 1.5-1.5v-9c0-.827-.673-1.5-1.5-1.5zM4 3.5C4 2.122 5.122 1 6.5 1h1C8.88 1 10 2.122 10 3.5V6H4V3.5zm9 13c0 .275-.225.5-.5.5h-11c-.276 0-.5-.225-.5-.5v-9c0-.276.224-.5.5-.5h11c.275 0 .5.224.5.5v9z"/>
    <path fill="#FECB34" d="M7 9c-1.657 0-3 1.343-3 3s1.343 3 3 3 3-1.343 3-3-1.343-3-3-3zm0 5c-1.104 0-2-.896-2-2s.896-2 2-2 2 .896 2 2-.896 2-2 2z"/>
</symbol><symbol id="icon-menu" viewBox="0 0 20 20">
    <path fill="" d="M0 15h20v2H0v-2zm0-6h20v2H0V9zm0-6h20v2H0V3z"/>
</symbol><symbol id="icon-minus" viewBox="0 0 18 2">
    <title>
        Minus icon
    </title>
    <desc>
        A dash.
    </desc>
    <path d="M0 0h18v2H0V0z" fill="" fill-rule="evenodd"/>
</symbol><symbol id="icon-more" viewBox="0 0 21 5">
    <title>
        More icon
    </title>
    <desc>
        Three dots
    </desc>
    <path d="M10.492 0c.692 0 1.283.242 1.773.727.49.484.735 1.073.735 1.765s-.245 1.283-.735 1.773S11.185 5 10.492 5c-.692 0-1.28-.245-1.765-.735C8.242 3.775 8 3.185 8 2.492c0-.692.242-1.28.727-1.765C9.21.242 9.8 0 10.492 0zM2.5 0c.69 0 1.28.242 1.768.727C4.756 1.21 5 1.8 5 2.492s-.244 1.283-.732 1.773C3.778 4.755 3.19 5 2.5 5S1.22 4.755.732 4.265 0 3.185 0 2.492C0 1.8.244 1.212.732.727 1.222.242 1.81 0 2.5 0zm16 0c.69 0 1.28.242 1.768.727.488.484.732 1.073.732 1.765s-.244 1.283-.732 1.773c-.49.49-1.078.735-1.768.735s-1.28-.245-1.768-.735S16 3.185 16 2.492c0-.692.244-1.28.732-1.765C17.222.242 17.81 0 18.5 0z" fill="" fill-rule="evenodd"/>
</symbol><symbol id="icon-plus" viewBox="0 0 18 18">
    <title>
        Plus icon
    </title>
    <desc>
        A cross shape.
    </desc>
    <g fill="" fill-rule="evenodd">
        <path d="M0 8h18v2H0V8z"/>
        <path d="M8 0h2v18H8V0z"/>
    </g>
</symbol><symbol id="icon-polling-fill" viewBox="0 0 80 80">
    <title>
        Filled ticket stub
    </title>
    <desc>
        A ticket stub icon with solid fill.
    </desc>
    <path d="M70.53 21.326c-1.652 1.65-3.815 2.476-5.98 2.476s-4.326-.826-5.977-2.476c-.534-.534-.973-1.126-1.333-1.75l.002-.002c-.134-.215-.24-.444-.35-.668-1.454-3.127-.9-6.956 1.68-9.534l-9.33-9.33-.078.076-.112-.112-.12.057L.055 49.23 0 49.35l.16.158.04.043-.076.078 9.403 9.26c3.274-3.325 8.626-3.368 11.954-.094 1.664 1.638 2.506 3.795 2.522 5.958.017 2.163-.79 4.332-2.43 5.995l9.403 9.26 48.884-49.35-9.33-9.33z" fill=""/>
</symbol><symbol id="icon-polling-outline" viewBox="0 0 80 80">
    <title>
        Outlined ticket stub
    </title>
    <desc>
        An outlined ticket stub icon with no fill.
    </desc>
    <path d="M79.86 30.657l-9.33-9.33c-1.652 1.65-3.815 2.475-5.98 2.475s-4.326-.826-5.976-2.476c-.534-.534-.973-1.126-1.333-1.75l.003-.002c-.134-.216-.24-.443-.35-.667-1.453-3.127-.9-6.956 1.68-9.535l-9.33-9.33-.078.076-.112-.112-.12.057L.055 49.23 0 49.35l.16.158.04.043-.076.078 9.403 9.26c3.275-3.326 8.626-3.37 11.954-.094 1.664 1.637 2.506 3.795 2.523 5.958s-.792 4.332-2.43 5.995l9.402 9.26 48.884-49.35zM30.92 73.01l-3.02-2.974c.702-1.66 1.065-3.463 1.05-5.323-.027-3.578-1.447-6.932-3.998-9.444-.637-.628-1.33-1.173-2.06-1.65-2.224-1.546-4.852-2.396-7.618-2.396-.968 0-1.92.106-2.845.305-.85.183-1.677.44-2.47.784L8.395 50.75 7.17 49.523l4.84-4.916 2.534-2.572L33.782 22.5l7.98-7.98 2.552-2.55 4.877-4.88 1.324 1.303 1.577 1.553c-.335.796-.588 1.625-.765 2.475-.19.927-.29 1.88-.284 2.848.02 2.348.65 4.593 1.796 6.572.598 1.082 1.34 2.088 2.238 2.986 2.53 2.532 5.896 3.926 9.476 3.926 1.857 0 3.657-.376 5.314-1.09l2.997 2.997-41.94 42.35z" fill=""/>
</symbol><symbol id="icon-resale" viewBox="0 0 16 16">
    <title>
        Resale icon
    </title>
    <desc>
        Two arrows pointing at each other&apos;s end in a circle shape.
    </desc>
    <path d="M14.215 3.692C12.895 1.488 10.625 0 8.017 0 4.64 0 1.82 2.462.903 5.77h2.093c.823-2.104 2.75-3.604 5.02-3.604 1.692 0 3.2.86 4.212 2.18l-1.57.5 1.903 1.63 1.92 1.642.772-2.514.748-2.5-1.785.588zM7.993 13.835c-1.7 0-3.21-.845-4.21-2.167l1.57-.5-1.904-1.63-1.927-1.64-.76 2.512L0 12.9l1.797-.592c1.32 2.22 3.594 3.68 6.198 3.692v-.013c3.377 0 6.21-2.436 7.1-5.758h-2.08c-.822 2.12-2.762 3.605-5.022 3.605z" fill="" fill-rule="evenodd"/>
</symbol><symbol id="icon-ticket" viewBox="0 0 20 20">
    <title>
        Ticket icon
    </title>
    <desc>
        A ticket stub shape.
    </desc>
    <g fill="" fill-rule="evenodd">
        <path d="M19.25 7.55l-2.277-2.277-.752-.752-.75.753c-.134.133-.29.153-.37.153-.08 0-.236-.02-.37-.153-.134-.136-.154-.29-.154-.372 0-.08.02-.234.153-.368l.75-.75-.75-.754L12.452.75 11.7 0l-.752.75L8.4 3.3l-.752.752-.098.098-6.8 6.798-.75.75.75.752 2.28 2.278.75.752.752-.752c.133-.134.29-.154.37-.154.08 0 .236.02.37.152.135.137.155.29.154.373 0 .08-.02.233-.153.367l-.752.753.752.75L7.55 19.25 8.3 20l.752-.75 6.8-6.8.097-.097.75-.752 2.55-2.55.75-.75-.75-.75zm-3.302 3.302l-.423-.426-.85.852.425.422-6.8 6.8-2.277-2.277c.62-.617.62-1.623 0-2.242H6.02c-.617-.62-1.623-.618-2.24 0L1.502 11.7l6.798-6.8.427.425.85-.85-.427-.424 2.55-2.55 2.276 2.278c-.62.62-.62 1.623 0 2.243l.002.003c.62.617 1.625.617 2.242-.002L18.496 8.3l-2.548 2.552z"/>
        <path d="M10.426 5.323l1.7 1.7-.852.85-1.7-1.7zM12.977 7.876l1.7 1.7-.85.85-1.7-1.7z"/>
    </g>
</symbol><symbol id="icon-unlock-white" viewBox="0 0 14 18">
    <path fill="#FFF" d="M7 9c-1.657 0-3 1.343-3 3s1.343 3 3 3 3-1.343 3-3-1.343-3-3-3zm0 5c-1.104 0-2-.896-2-2s.896-2 2-2 2 .896 2 2-.896 2-2 2zm5.5-8H4V3.5C4 2.122 5.122 1 6.5 1h1C8.88 1 10 2.122 10 3.5V4h1v-.5C11 1.57 9.43 0 7.5 0h-1C4.57 0 3 1.57 3 3.5V6H1.5C.673 6 0 6.673 0 7.5v9c0 .827.673 1.5 1.5 1.5h11c.827 0 1.5-.673 1.5-1.5v-9c0-.827-.673-1.5-1.5-1.5zm.5 10.5c0 .275-.225.5-.5.5h-11c-.276 0-.5-.225-.5-.5v-9c0-.276.224-.5.5-.5h11c.275 0 .5.224.5.5v9z"/>
</symbol><symbol id="icon-unlock" viewBox="0 0 14 18">
    <path fill="#768692" d="M7 9c-1.657 0-3 1.343-3 3s1.343 3 3 3 3-1.343 3-3-1.343-3-3-3zm0 5c-1.104 0-2-.896-2-2s.896-2 2-2 2 .896 2 2-.896 2-2 2zm5.5-8H4V3.5C4 2.122 5.122 1 6.5 1h1C8.88 1 10 2.122 10 3.5V4h1v-.5C11 1.57 9.43 0 7.5 0h-1C4.57 0 3 1.57 3 3.5V6H1.5C.673 6 0 6.673 0 7.5v9c0 .827.673 1.5 1.5 1.5h11c.827 0 1.5-.673 1.5-1.5v-9c0-.827-.673-1.5-1.5-1.5zm.5 10.5c0 .275-.225.5-.5.5h-11c-.276 0-.5-.225-.5-.5v-9c0-.276.224-.5.5-.5h11c.275 0 .5.224.5.5v9z"/>
</symbol><symbol id="icon-verified" viewBox="0 140 20 20">
    <title>
        Verified icon
    </title>
    <desc>
        Two ticket stubs with a checkmark in front of them.
    </desc>
    <path fill="" d="M1.24 151.97l-.01.02.036.035 2.007 2.007c.362-.362.838-.543 1.312-.543.332 0 .663.09.957.267.133-.135.274-.258.425-.372.144-.11.295-.21.453-.298l-.022-.06c-.516-.403-1.146-.626-1.812-.626-.212 0-.422.024-.625.07-.186.04-.367.097-.54.17l-.345-.343-.313-.314.268-.27 7.374-7.373.56-.56 1.084-1.083.562.562.096.095c-.157.364-.24.76-.24 1.167 0 .143.014.284.034.423.04.273.115.536.227.784.145.32.346.617.602.874.555.556 1.294.862 2.08.862.408 0 .803-.083 1.167-.24l.658.66-5.927 5.926c.125.13.242.27.35.42.108.15.207.307.295.472l6.818-6.818-2.05-2.05c-.36.363-.836.544-1.31.544s-.95-.18-1.313-.543c-.725-.726-.725-1.9 0-2.625l-2.05-2.05-2.076 2.077c-.05-.02-.1-.038-.15-.062-.805-.37-1.156-1.323-.785-2.127L6.76 140 1.24 151.963l-.003.008zm6.02-10.616l.606.28c-.03.955.466 1.883 1.334 2.372l-5.872 5.872 3.93-8.524z"/>
    <path fill="currentColor" d="M11.5 155.172c-.08-.174-.172-.342-.28-.498-.103-.153-.22-.296-.347-.43-.622-.656-1.5-1.068-2.477-1.068-.537 0-1.042.127-1.494.348-.128.062-.252.13-.37.21-.036.022-.07.046-.105.07-.15.107-.292.224-.42.35-.63.62-1.022 1.48-1.022 2.435 0 .54.13 1.05.354 1.505C5.895 159.22 7.053 160 8.396 160c1.463 0 2.708-.923 3.192-2.217.138-.372.22-.773.22-1.195 0-.507-.114-.984-.31-1.416m-3.48 3.468l-1.78-1.785.77-.774 1.008 1.016 2.134-2.138.772.773-2.905 2.91z"/>
</symbol></svg>