<?xml version="1.0" encoding="UTF-8"?><!DOCTYPE svg PUBLIC "-//W3C//DTD SVG 1.1//EN" "http://www.w3.org/Graphics/SVG/1.1/DTD/svg11.dtd"><svg xmlns="http://www.w3.org/2000/svg"><symbol id="icon-ada" viewBox="0 0 16 16">
    <title>
        ADA Icon
    </title>
    <desc>
        Icon to indicate accessible seating
    </desc>
    <circle fill="" cx="8" cy="8" r="8"/>
    <path fill="#FFF" d="M9.812 8.77c.358.85.72 1.697 1.082 2.544l.045.102.085-.03 1.372-.54c.02-.008.044-.013.066-.02v-.016c-.08-.183-.16-.363-.24-.55-.28.103-.56.203-.847.306a1.11 1.11 0 0 1-.038-.08c-.353-.813-.706-1.627-1.056-2.442-.025-.06-.055-.08-.12-.078-.823.007-1.647.01-2.472.016a.7.7 0 0 1-.075-.004l-.038-.487h1.9v-.72h-1.97l-.09-1.558c.047-.01.088-.017.127-.028a.776.776 0 0 0 .57-.782.775.775 0 0 0-.616-.72l-.06-.017H7.25l-.082.022a.778.778 0 0 0-.547 1.025c.034.088.055.185.062.28.064.876.126 1.752.188 2.628.022.328.047.654.065.98.005.073.026.093.097.092.885-.002 1.77 0 2.653-.003.068-.002.1.016.127.08z"/>
    <path fill="#FFF" d="M4.878 9.252v.47c.004.02.012.042.013.062a2.85 2.85 0 0 0 2.227 2.49c.105.024.215.04.32.06h.55c.16-.03.32-.052.477-.097a2.87 2.87 0 0 0 1.77-1.397.132.132 0 0 0 .004-.137c-.146-.287-.285-.577-.426-.866a4.286 4.286 0 0 1-.04-.078c-.025.102-.043.195-.068.286a2.08 2.08 0 0 1-2.1 1.518c-1-.044-1.864-.867-1.943-1.87-.062-.8.24-1.44.89-1.914.022-.016.047-.048.046-.07-.017-.262-.038-.523-.06-.796-.03.012-.056.02-.08.033C5.55 7.43 5.026 8.18 4.893 9.2c-.003.017-.01.033-.015.052z"/>
</symbol><symbol id="icon-alert" viewBox="0 0 2 12">
    <title>
        Exclamation point
    </title>
    <desc>
        Exclamation point
    </desc>
    <g fill="">
        <path d="M0 0h2v8H0zM0 10h2v2H0z"/>
    </g>
</symbol><symbol id="icon-caution" viewBox="0 0 20 17">
    <title>
        Caution icon
    </title>
    <desc>
        Icon of a triangle with exclamation point to signify a user should take note of something.
    </desc>
    <path fill="" d="M18.9 17H1.127C.3 17-.312 16.175.17 15.36.558 14.707 8.37 1.656 9.038.543c.438-.73 1.484-.72 1.924 0 .49.8 8.345 13.9 8.89 14.85A1.063 1.063 0 0 1 18.9 17z"/>
    <path fill="#414141" d="M9 5v6h2V5H9zm2 10v-2H9v2h2z"/>
</symbol><symbol id="icon-check" viewBox="0 0 13 10">
    <title>
        Checkmark
    </title>
    <desc>
        Checkmark icon
    </desc>
    <path fill="" d="M11.586 0L4.392 7.18 1.414 4.204 0 5.617 4.393 10 13 1.41z"/>
</symbol><symbol id="icon-chevron" viewBox="0 0 13 8">
    <title>
        Chevron icon
    </title>
    <desc>
        Chevron-shaped icon used for navigational cues.
    </desc>
    <path d="M6.372 4.958L1.414 0 0 1.414l6.364 6.364.008-.008.01.008 6.363-6.364L11.33 0 6.372 4.958z" fill="" fill-rule="evenodd"/>
</symbol><symbol id="icon-lock" viewBox="0 0 14 18">
    <path fill="" d="M12.5 6H11V3.5C11 1.57 9.43 0 7.5 0h-1C4.57 0 3 1.57 3 3.5V6H1.5C.673 6 0 6.673 0 7.5v9c0 .827.673 1.5 1.5 1.5h11c.827 0 1.5-.673 1.5-1.5v-9c0-.827-.673-1.5-1.5-1.5zM4 3.5C4 2.122 5.122 1 6.5 1h1C8.88 1 10 2.122 10 3.5V6H4V3.5zm9 13a.5.5 0 0 1-.5.5h-11a.5.5 0 0 1-.5-.5v-9a.5.5 0 0 1 .5-.5h11a.5.5 0 0 1 .5.5v9z"/>
    <path fill="#FECB34" d="M7 9a3 3 0 1 0 0 6 3 3 0 0 0 0-6zm0 5a2 2 0 1 1 0-4 2 2 0 0 1 0 4z"/>
</symbol><symbol id="icon-menu" viewBox="0 0 20 20">
    <path fill="" d="M0 15h20v2H0v-2zm0-6h20v2H0V9zm0-6h20v2H0V3z"/>
</symbol><symbol id="icon-minus" viewBox="0 0 18 2">
    <title>
        Minus icon
    </title>
    <desc>
        A dash.
    </desc>
    <path d="M0 0h18v2H0V0z" fill="" fill-rule="evenodd"/>
</symbol><symbol id="icon-more" viewBox="0 0 21 5">
    <title>
        More icon
    </title>
    <desc>
        Three dots
    </desc>
    <path d="M10.492 0a2.43 2.43 0 0 1 1.773.727A2.39 2.39 0 0 1 13 2.492c0 .692-.245 1.283-.735 1.773S11.185 5 10.492 5a2.39 2.39 0 0 1-1.765-.735A2.43 2.43 0 0 1 8 2.492c0-.692.242-1.28.727-1.765A2.403 2.403 0 0 1 10.492 0zM2.5 0c.69 0 1.28.242 1.768.727C4.756 1.21 5 1.8 5 2.492a2.42 2.42 0 0 1-.732 1.773A2.405 2.405 0 0 1 2.5 5c-.69 0-1.28-.245-1.768-.735A2.42 2.42 0 0 1 0 2.492C0 1.8.244 1.212.732.727A2.418 2.418 0 0 1 2.5 0zm16 0c.69 0 1.28.242 1.768.727.488.484.732 1.073.732 1.765a2.42 2.42 0 0 1-.732 1.773A2.405 2.405 0 0 1 18.5 5c-.69 0-1.28-.245-1.768-.735A2.42 2.42 0 0 1 16 2.492c0-.692.244-1.28.732-1.765A2.418 2.418 0 0 1 18.5 0z" fill="" fill-rule="evenodd"/>
</symbol><symbol id="icon-plus" viewBox="0 0 18 18">
    <title>
        Plus icon
    </title>
    <desc>
        A cross shape.
    </desc>
    <g fill="" fill-rule="evenodd">
        <path d="M0 8h18v2H0V8z"/>
        <path d="M8 0h2v18H8V0z"/>
    </g>
</symbol><symbol id="icon-polling-checkmark" viewBox="0 0 60 60">
    <title>
        Polling Checkmark
    </title>
    <desc>
        A polling checkmark.
    </desc>
    <path d="M26.712 46.29L12.435 31.98l6.18-6.215 8.086 8.14 17.113-17.138 6.19 6.2-23.29 23.323z"/>
</symbol><symbol id="icon-polling-fill" viewBox="0 0 80 80">
    <title>
        Filled ticket stub
    </title>
    <desc>
        A ticket stub icon with solid fill.
    </desc>
    <path d="M70.53 21.326c-1.652 1.65-3.815 2.476-5.98 2.476s-4.326-.826-5.977-2.476a8.395 8.395 0 0 1-1.333-1.75l.002-.002c-.134-.215-.24-.444-.35-.668-1.454-3.127-.9-6.956 1.68-9.534l-9.33-9.33-.078.076-.112-.112-.12.057L.055 49.23 0 49.35l.16.158.04.043-.076.078 9.403 9.26a8.457 8.457 0 0 1 11.954-.094 8.425 8.425 0 0 1 2.522 5.958 8.42 8.42 0 0 1-2.43 5.995l9.403 9.26 48.884-49.35-9.33-9.33z" fill=""/>
</symbol><symbol id="icon-polling-outline" viewBox="0 0 80 80">
    <title>
        Outlined ticket stub
    </title>
    <desc>
        An outlined ticket stub icon with no fill.
    </desc>
    <path d="M79.86 30.657l-9.33-9.33c-1.652 1.65-3.815 2.475-5.98 2.475s-4.326-.826-5.976-2.476a8.395 8.395 0 0 1-1.333-1.75l.003-.002c-.134-.216-.24-.443-.35-.667-1.453-3.127-.9-6.956 1.68-9.535l-9.33-9.33-.078.076-.112-.112-.12.057L.055 49.23 0 49.35l.16.158.04.043-.076.078 9.403 9.26a8.455 8.455 0 0 1 14.476 5.864 8.422 8.422 0 0 1-2.43 5.995l9.402 9.26 48.884-49.35zM30.92 73.01l-3.02-2.974a13.38 13.38 0 0 0 1.05-5.323 13.314 13.314 0 0 0-6.06-11.094 13.29 13.29 0 0 0-7.616-2.396c-.968 0-1.92.106-2.845.305a13.31 13.31 0 0 0-2.47.784L8.395 50.75 7.17 49.523l4.84-4.916 2.534-2.572L33.782 22.5l7.98-7.98 2.552-2.55 4.877-4.88 1.324 1.303 1.577 1.553a13.66 13.66 0 0 0-1.05 5.322c.02 2.35.65 4.594 1.796 6.573a13.31 13.31 0 0 0 2.238 2.986 13.308 13.308 0 0 0 9.476 3.926 13.4 13.4 0 0 0 5.314-1.09l2.997 2.997-41.94 42.35z" fill=""/>
</symbol><symbol id="icon-resale" viewBox="0 0 16 16">
    <title>
        Resale icon
    </title>
    <desc>
        Two arrows pointing at each other&apos;s end in a circle shape.
    </desc>
    <path d="M14.215 3.692C12.895 1.488 10.625 0 8.017 0 4.64 0 1.82 2.462.903 5.77h2.093c.823-2.104 2.75-3.604 5.02-3.604 1.692 0 3.2.86 4.212 2.18l-1.57.5 1.903 1.63 1.92 1.642.772-2.514.748-2.5-1.785.588zM7.993 13.835c-1.7 0-3.21-.845-4.21-2.167l1.57-.5-1.904-1.63-1.927-1.64-.76 2.512L0 12.9l1.797-.592c1.32 2.22 3.594 3.68 6.198 3.692v-.013c3.377 0 6.21-2.436 7.1-5.758h-2.08c-.822 2.12-2.762 3.605-5.022 3.605z" fill="" fill-rule="evenodd"/>
</symbol><symbol id="icon-search" viewBox="0 0 20 20">
    <title>
        Search Icon
    </title>
    <desc>
        Magnifying Glass
    </desc>
    <path fill="" d="M18.734 16.334l-4.15-4.15a7.897 7.897 0 0 0 1.254-4.266A7.918 7.918 0 0 0 7.918 0 7.917 7.917 0 0 0 0 7.917a7.917 7.917 0 0 0 7.92 7.92 7.88 7.88 0 0 0 4.263-1.255l4.15 4.15a1.694 1.694 0 0 0 2.4 0 1.694 1.694 0 0 0 0-2.398zM2.262 7.917A5.664 5.664 0 0 1 7.92 2.26a5.662 5.662 0 0 1 5.655 5.657 5.662 5.662 0 0 1-5.655 5.657 5.663 5.663 0 0 1-5.658-5.657z"/>
</symbol><symbol id="icon-ticket" viewBox="0 0 20 20">
    <title>
        Ticket icon
    </title>
    <desc>
        A ticket stub shape.
    </desc>
    <g fill="" fill-rule="evenodd">
        <path d="M19.25 7.55l-2.277-2.277-.752-.752-.75.753a.52.52 0 0 1-.74 0 .525.525 0 0 1 0-.74l.75-.752-.75-.752L12.452.75 11.7 0l-.752.75L8.4 3.3l-.752.752-.098.098-6.8 6.798-.75.75.75.752 2.28 2.278.75.752.752-.752a.52.52 0 0 1 .74-.002c.135.137.155.29.154.373 0 .08-.02.233-.153.367l-.752.753.752.75L7.55 19.25 8.3 20l.752-.75 6.8-6.8.097-.097.75-.752 2.55-2.55.75-.75-.75-.75zm-3.302 3.302l-.423-.426-.85.852.425.422-6.8 6.8-2.277-2.277c.62-.617.62-1.623 0-2.242H6.02a1.586 1.586 0 0 0-2.24 0L1.502 11.7l6.798-6.8.427.425.85-.85-.427-.424 2.55-2.55 2.276 2.278a1.584 1.584 0 0 0 0 2.243l.002.003c.62.617 1.625.617 2.242-.002L18.496 8.3l-2.548 2.552z"/>
        <path d="M10.426 5.323l1.7 1.7-.852.85-1.7-1.7zM12.977 7.876l1.7 1.7-.85.85-1.7-1.7z"/>
    </g>
</symbol><symbol id="icon-unlock" viewBox="0 0 14 18">
    <path fill="" d="M7 9a3 3 0 1 0 0 6 3 3 0 0 0 0-6zm0 5a2 2 0 1 1 0-4 2 2 0 0 1 0 4zm5.5-8H4V3.5C4 2.122 5.122 1 6.5 1h1C8.88 1 10 2.122 10 3.5V4h1v-.5C11 1.57 9.43 0 7.5 0h-1C4.57 0 3 1.57 3 3.5V6H1.5C.673 6 0 6.673 0 7.5v9c0 .827.673 1.5 1.5 1.5h11c.827 0 1.5-.673 1.5-1.5v-9c0-.827-.673-1.5-1.5-1.5zm.5 10.5a.5.5 0 0 1-.5.5h-11a.5.5 0 0 1-.5-.5v-9a.5.5 0 0 1 .5-.5h11a.5.5 0 0 1 .5.5v9z"/>
</symbol><symbol id="icon-verified" viewBox="0 140 20 20">
    <title>
        Verified icon
    </title>
    <desc>
        Two ticket stubs with a checkmark in front of them.
    </desc>
    <path fill="" d="M1.24 151.97l-.01.02.036.035 2.007 2.007a1.85 1.85 0 0 1 2.27-.275 4.02 4.02 0 0 1 .878-.67c-.01-.02-.015-.04-.023-.06a2.925 2.925 0 0 0-2.437-.558c-.186.04-.367.097-.54.17l-.345-.343-.313-.314.268-.27 7.374-7.373.56-.56 1.084-1.083.562.562.096.095a2.94 2.94 0 0 0-.24 1.167c0 .143.014.284.034.423a2.968 2.968 0 0 0 .83 1.66 2.924 2.924 0 0 0 2.08.86 2.94 2.94 0 0 0 1.167-.24l.658.66-5.927 5.926a4.057 4.057 0 0 1 .645.892l6.818-6.818-2.05-2.05a1.85 1.85 0 0 1-2.624 0 1.856 1.856 0 0 1 0-2.624l-2.048-2.05-2.077 2.077a1.603 1.603 0 0 1-.936-2.188L6.76 140 1.24 151.963l-.003.008zm6.02-10.616l.606.28a2.63 2.63 0 0 0 1.334 2.372l-5.872 5.872 3.93-8.524z"/>
    <path fill="currentColor" d="M11.5 155.172a3.358 3.358 0 0 0-.28-.498 3.432 3.432 0 0 0-.347-.43 3.4 3.4 0 0 0-4.446-.44 3.405 3.405 0 0 0-1.088 4.29A3.412 3.412 0 0 0 8.397 160a3.41 3.41 0 0 0 3.192-2.217c.138-.372.22-.773.22-1.195 0-.507-.114-.984-.31-1.416m-3.48 3.468l-1.78-1.785.77-.774 1.008 1.016 2.134-2.138.772.773-2.905 2.91z"/>
</symbol></svg>