<?xml version="1.0" encoding="UTF-8"?><!DOCTYPE svg PUBLIC "-//W3C//DTD SVG 1.1//EN" "http://www.w3.org/Graphics/SVG/1.1/DTD/svg11.dtd"><svg xmlns="http://www.w3.org/2000/svg" xmlns:xlink="http://www.w3.org/1999/xlink"><defs>
        <path id="a" d="M0 .843h29.157V30H0"/>
    
        <path id="a" d="M0 .843h29.157V30H0"/>
    
        <path id="a" d="M0 .843h29.157V30H0"/>
    </defs><symbol id="icon-ada" viewBox="0 0 16 16">
    <title>
        ADA Icon
    </title>
    <desc>
        Icon to indicate accessible seating
    </desc>
    <circle fill="" cx="8" cy="8" r="8"/>
    <path fill="#FFF" d="M9.812 8.771c.358.849.721 1.696 1.082 2.543l.045.102c.029-.01.059-.019.086-.03l1.372-.539c.021-.009.044-.014.066-.02v-.017c-.079-.183-.159-.363-.239-.55-.282.103-.562.203-.848.306a1.11 1.11 0 0 1-.038-.079c-.353-.814-.706-1.628-1.056-2.443-.025-.06-.055-.08-.121-.078-.822.007-1.646.01-2.471.016a.7.7 0 0 1-.075-.004l-.038-.487h1.901V6.77H7.507c-.031-.524-.059-1.039-.089-1.558.046-.01.087-.017.126-.028a.776.776 0 0 0 .569-.782.775.775 0 0 0-.615-.721c-.02-.004-.039-.011-.06-.016H7.25l-.082.022a.778.778 0 0 0-.547 1.025c.033.088.054.185.061.28.064.876.126 1.752.188 2.628.022.328.047.654.065.98.005.073.026.093.097.092.885-.002 1.77-.001 2.653-.003.068-.001.101.017.127.082z"/>
    <path fill="#FFF" d="M4.878 9.252v.471c.004.02.012.041.013.061a2.851 2.851 0 0 0 2.226 2.49c.105.024.215.041.321.061h.55c.159-.032.32-.053.476-.098a2.87 2.87 0 0 0 1.769-1.397.132.132 0 0 0 .005-.137c-.146-.287-.285-.577-.426-.866a4.286 4.286 0 0 1-.041-.078c-.024.103-.042.196-.067.287a2.08 2.08 0 0 1-2.099 1.518c-1.002-.044-1.865-.867-1.944-1.869-.063-.801.239-1.441.89-1.915.021-.016.046-.048.045-.07-.017-.262-.038-.523-.059-.796-.03.012-.057.02-.081.033-.906.482-1.429 1.232-1.563 2.252-.003.018-.011.034-.015.053z"/>
</symbol><symbol id="icon-alert" viewBox="0 0 2 12">
    <title>
        Exclamation point
    </title>
    <desc>
        Exclamation point
    </desc>
    <g fill="">
        <path d="M0 0h2v8H0zM0 10h2v2H0z"/>
    </g>
</symbol><symbol id="icon-arrows" viewBox="0 0 30 27">
    <title>
        Arrows Icon
    </title>
    <desc>
        Two arrows crossing in opposite directions
    </desc>
    <path fill="" d="M0 18.884C2.535 16.317 5.363 13.67 8 11v4h12v8H8v4c-2.628-2.66-5.438-5.52-8-8.116zM10 4h12l-.02-4c2.63 2.66 5.47 5.288 8.02 7.864-2.543 2.574-5.372 5.476-8 8.136v-4H10V4z"/>
</symbol><symbol id="icon-caution" viewBox="0 0 20 17">
    <title>
        Caution icon
    </title>
    <desc>
        Icon of a triangle with exclamation point to signify a user should take note of something.
    </desc>
    <path fill="" d="M18.899 17H1.128c-.827 0-1.439-.825-.958-1.641C.558 14.708 8.369 1.657 9.038.544c.438-.731 1.484-.719 1.924 0 .489.801 8.345 13.901 8.891 14.851A1.063 1.063 0 0 1 18.899 17z"/>
    <path fill="#414141" d="M9 5v6h2V5H9zm2 10v-2H9v2h2z"/>
</symbol><symbol id="icon-check" viewBox="0 0 13 10">
    <title>
        Checkmark
    </title>
    <desc>
        Checkmark icon
    </desc>
    <path fill="" d="M11.586 0L4.392 7.18 1.414 4.204 0 5.617 4.393 10 13 1.411z"/>
</symbol><symbol id="icon-chevron-alt" viewBox="0 0 12 20">
    <title>
        Chevron icon (Alt version)
    </title>
    <desc>
        Chevron-shaped icon used for navigational cues.
    </desc>
    <path fill="" d="M10.293 20l-10-10 10-10 1.414 1.414L3.12 10l8.587 8.586"/>
</symbol><symbol id="icon-chevron" viewBox="0 0 13 8">
    <title>
        Chevron icon
    </title>
    <desc>
        Chevron-shaped icon used for navigational cues.
    </desc>
    <path d="M6.372 4.958L1.414 0 0 1.414l6.364 6.364.008-.008.009.008 6.364-6.364L11.33 0 6.372 4.958z" fill="" fill-rule="evenodd"/>
</symbol><symbol id="icon-facebook" viewBox="0 0 30 30">
    <title>
        Facebook Icon
    </title>
    <desc>
        Facebook icon in a solid circle
    </desc>
    
    <g fill="" fill-rule="evenodd">
        <mask id="b" fill="none">
            <use xlink:href="#a"/>
        </mask>
        <path d="M14.578 30c8.05 0 14.578-6.526 14.578-14.578 0-8.05-6.527-14.58-14.578-14.58C6.528.843 0 7.373 0 15.423 0 23.474 6.527 30 14.578 30" fill="" mask="url(#b)"/>
        <path d="M11.06 12.953h1.508V11.49c0-.647.016-1.644.486-2.26.494-.653 1.173-1.098 2.34-1.098 1.9 0 2.7.272 2.7.272l-.375 2.233s-.63-.182-1.216-.182c-.585 0-1.11.21-1.11.796v1.703h2.403l-.167 2.18h-2.237v7.578h-2.825v-7.576H11.06v-2.18z" fill="#FFF"/>
    </g>
</symbol><symbol id="icon-googleplus" viewBox="0 0 30 30">
    <title>
        Google Plus
    </title>
    <desc>
        Google Plus icon in a solid circle
    </desc>
    
    <g fill="" fill-rule="evenodd">
        <g transform="translate(.857)" fill="">
            <mask id="b">
                <use xlink:href="#a"/>
            </mask>
            <path d="M14.58 30c8.05 0 14.577-6.527 14.577-14.578 0-8.05-6.527-14.58-14.578-14.58C6.527.843 0 7.373 0 15.423S6.528 30 14.58 30" mask="url(#b)"/>
        </g>
        <path d="M22.46 14.357h-1.758V12.6h-1.414v1.757H17.53v1.414h1.758v1.76h1.414v-1.76h1.758v-1.413zm-6.57 2.13c-.407-.29-1.187-.992-1.187-1.405 0-.485.138-.723.867-1.292.746-.584 1.275-1.404 1.275-2.358 0-1.136-.507-2.242-1.455-2.607h1.43l1.012-.73h-4.516c-2.024 0-3.928 1.533-3.928 3.31 0 1.813 1.38 3.28 3.44 3.28a5.2 5.2 0 0 0 .417-.014c-.134.257-.23.546-.23.844 0 .505.272.914.615 1.248-.26 0-.51.008-.782.008-2.508 0-4.437 1.596-4.437 3.252 0 1.63 2.116 2.65 4.622 2.65 2.86 0 4.438-1.62 4.438-3.252 0-1.308-.386-2.09-1.58-2.934zm-2.41-2.263c-1.163-.035-2.27-1.3-2.47-2.83-.2-1.526.58-2.695 1.742-2.66 1.163.034 2.27 1.26 2.47 2.786.2 1.53-.58 2.74-1.742 2.704zm-.456 7.727c-1.733 0-2.985-1.095-2.985-2.413 0-1.29 1.552-2.367 3.285-2.348.404.004.78.068 1.123.18.94.654 1.615 1.022 1.806 1.77.036.15.055.305.055.464 0 1.318-.85 2.347-3.286 2.347z" fill="#FFF"/>
    </g>
</symbol><symbol id="icon-lock" viewBox="0 0 14 18">
    <path fill="" d="M12.5 6H11V3.5C11 1.57 9.43 0 7.5 0h-1C4.57 0 3 1.57 3 3.5V6H1.5C.673 6 0 6.673 0 7.5v9c0 .827.673 1.5 1.5 1.5h11c.827 0 1.5-.673 1.5-1.5v-9c0-.827-.673-1.5-1.5-1.5zM4 3.5C4 2.122 5.122 1 6.5 1h1C8.879 1 10 2.122 10 3.5V6H4V3.5zm9 13c0 .275-.225.5-.5.5h-11a.5.5 0 0 1-.5-.5v-9a.5.5 0 0 1 .5-.5h11a.5.5 0 0 1 .5.5v9z"/>
    <path fill="" d="M7 9a3 3 0 1 0 0 6 3 3 0 0 0 0-6zm0 5a2 2 0 1 1 .001-4.001A2 2 0 0 1 7 14z"/>
</symbol><symbol id="icon-menu" viewBox="0 0 20 20">
    <path fill="" d="M0 15h20v2H0v-2zm0-6h20v2H0V9zm0-6h20v2H0V3z"/>
</symbol><symbol id="icon-minus" viewBox="0 0 18 2">
    <title>
        Minus icon
    </title>
    <desc>
        A dash.
    </desc>
    <path d="M0 0h18v2H0V0z" fill="" fill-rule="evenodd"/>
</symbol><symbol id="icon-more" viewBox="0 0 21 5">
    <title>
        More icon
    </title>
    <desc>
        Three dots
    </desc>
    <path d="M10.492 0a2.43 2.43 0 0 1 1.773.727A2.39 2.39 0 0 1 13 2.492c0 .692-.245 1.283-.735 1.773S11.185 5 10.492 5a2.39 2.39 0 0 1-1.765-.735A2.43 2.43 0 0 1 8 2.492c0-.692.242-1.28.727-1.765A2.403 2.403 0 0 1 10.492 0zM2.5 0c.69 0 1.28.242 1.768.727C4.756 1.21 5 1.8 5 2.492a2.42 2.42 0 0 1-.732 1.773A2.405 2.405 0 0 1 2.5 5c-.69 0-1.28-.245-1.768-.735A2.42 2.42 0 0 1 0 2.492C0 1.8.244 1.212.732.727A2.418 2.418 0 0 1 2.5 0zm16 0c.69 0 1.28.242 1.768.727.488.484.732 1.073.732 1.765a2.42 2.42 0 0 1-.732 1.773A2.405 2.405 0 0 1 18.5 5c-.69 0-1.28-.245-1.768-.735A2.42 2.42 0 0 1 16 2.492c0-.692.244-1.28.732-1.765A2.418 2.418 0 0 1 18.5 0z" fill="" fill-rule="evenodd"/>
</symbol><symbol id="icon-plus" viewBox="0 0 18 18">
    <title>
        Plus icon
    </title>
    <desc>
        A cross shape.
    </desc>
    <g fill="" fill-rule="evenodd">
        <path d="M0 8h18v2H0V8z"/>
        <path d="M8 0h2v18H8V0z"/>
    </g>
</symbol><symbol id="icon-polling-checkmark" viewBox="0 0 60 60">
    <title>
        Polling Checkmark
    </title>
    <desc>
        A polling checkmark.
    </desc>
    <path d="M26.712 46.29L12.435 31.98l6.181-6.215 8.085 8.14 17.112-17.138 6.191 6.199L26.712 46.29z"/>
</symbol><symbol id="icon-polling-fill" viewBox="0 0 80 80">
    <title>
        Filled ticket stub
    </title>
    <desc>
        A ticket stub icon with solid fill.
    </desc>
    <path d="M70.529 21.326c-1.651 1.65-3.814 2.476-5.979 2.476s-4.326-.826-5.977-2.476a8.395 8.395 0 0 1-1.333-1.75l.002-.002c-.134-.215-.239-.444-.351-.668-1.453-3.127-.898-6.956 1.682-9.534L49.241.041l-.077.077-.112-.112-.121.057L.056 49.229 0 49.35l.159.158.042.043-.077.077 9.403 9.259a8.457 8.457 0 0 1 11.954-.093 8.425 8.425 0 0 1 2.521 5.958 8.421 8.421 0 0 1-2.429 5.995l9.402 9.259 48.884-49.349-9.33-9.331z" fill=""/>
</symbol><symbol id="icon-polling-outline" viewBox="0 0 80 80">
    <title>
        Outlined ticket stub
    </title>
    <desc>
        An outlined ticket stub icon with no fill.
    </desc>
    <path d="M79.859 30.657l-9.33-9.331c-1.651 1.65-3.814 2.476-5.978 2.476s-4.327-.826-5.977-2.476a8.395 8.395 0 0 1-1.333-1.75l.002-.002c-.134-.216-.239-.443-.351-.667-1.452-3.127-.898-6.956 1.682-9.535L49.242.041l-.077.077-.112-.112-.121.057L.056 49.229 0 49.35l.159.158.042.043-.077.077 9.403 9.259a8.455 8.455 0 0 1 14.476 5.865 8.422 8.422 0 0 1-2.43 5.995l9.402 9.259 48.884-49.349zM30.921 73.009L27.9 70.036a13.381 13.381 0 0 0 1.051-5.323 13.314 13.314 0 0 0-6.06-11.094 13.29 13.29 0 0 0-7.617-2.395c-.968 0-1.919.106-2.845.305a13.31 13.31 0 0 0-2.469.785l-1.565-1.565-1.226-1.225 4.842-4.916 2.533-2.572L33.782 22.5l7.98-7.979 2.552-2.552 4.877-4.878 1.323 1.302 1.577 1.553a13.66 13.66 0 0 0-1.05 5.322 13.284 13.284 0 0 0 1.795 6.572 13.311 13.311 0 0 0 2.238 2.986 13.308 13.308 0 0 0 9.476 3.926 13.4 13.4 0 0 0 5.314-1.09l2.997 2.997-41.94 42.35z" fill=""/>
</symbol><symbol id="icon-printer" viewBox="0 0 27 27">
    <title>
        Printer Icon
    </title>
    <desc>
        Printer
    </desc>
    <path fill="" d="M23.142 12.536c-.533 0-.964-.43-.964-.964a.964.964 0 1 1 1.929 0 .965.965 0 0 1-.965.964zM25 8H2C.797 8 0 8.58 0 9.643V20.25C0 21.316.934 22 2 22h2v-6c.02-.958.14-1.027 2-1h15c1.72.016 2-.167 2 1v6h2c1.065 0 2-.684 2-1.75V9.643C27 8.58 26.265 8 25 8zm-6.197 11.286H8.195a.482.482 0 1 1 0-.962h10.607a.481.481 0 0 1 .002.962zm-11.09 1.93c0-.267.217-.483.482-.483h8.68c.266 0 .48.216.48.482s-.213.482-.48.482h-8.68a.483.483 0 0 1-.482-.482zm11.09 2.89H8.195a.48.48 0 1 1 0-.963h10.607a.482.482 0 0 1 .002.964zM21 16H6c-.532 0-1 .375-1 1l.008 9.1c-.008.494.244.9.776.9h15.43c.63.03.755-.375.786-1v-9c.03-.75-.466-1-1-1zm1-15c0-.533-.253-1-.787-1H5.783C5.254 0 5 .467 5 1v6h17V1z"/>
</symbol><symbol id="icon-question-mark" viewBox="0 0 28 28">
    <title>
        Question Mark
    </title>
    <desc>
        Question mark within a solid circle
    </desc>
    <circle fill="" cx="14" cy="14" r="14"/>
    <path fill="#FFF" d="M15.312 17.22c0-1.14.32-1.82 1.16-2.66 1.56-1.56 2.12-2.54 2.12-4.04 0-1.86-1.32-3.6-3.98-3.6-2.26 0-4.02 1.56-4.08 3.88h1.74c0-1.52 1.04-2.4 2.28-2.4 1.5 0 2.32 1.02 2.32 2.12 0 1.14-.32 1.78-1.7 3.24-1 1.08-1.32 2.02-1.32 3.46h1.46zM13.692 21h1.76v-1.76h-1.76V21z"/>
</symbol><symbol id="icon-resale" viewBox="0 0 16 16">
    <title>
        Resale icon
    </title>
    <desc>
        Two arrows pointing at each other&apos;s end in a circle shape.
    </desc>
    <path d="M14.215 3.692C12.895 1.488 10.624 0 8.017 0 4.64 0 1.82 2.462.903 5.77h2.093c.823-2.104 2.75-3.604 5.021-3.604 1.691 0 3.2.86 4.211 2.18l-1.57.501 1.903 1.63 1.918 1.64.773-2.513.748-2.5-1.785.588zM7.993 13.835c-1.7 0-3.21-.845-4.21-2.167l1.57-.5-1.904-1.63-1.926-1.641-.76 2.513L0 12.899l1.797-.591c1.32 2.219 3.594 3.68 6.198 3.692v-.013c3.377 0 6.21-2.436 7.101-5.758h-2.081c-.822 2.12-2.762 3.606-5.022 3.606z" fill="" fill-rule="evenodd"/>
</symbol><symbol id="icon-return" viewBox="0 0 27 22">
    <title>
        Return Icon
    </title>
    <desc>
        Arrow going right and then curving left
    </desc>
    <path fill="" d="M16.105 3.637H7.768V.097L.083 6l7.684 5.878V8.223H16.2c2.267 0 4.397 1.371 5.058 3.311.961 2.822-1.464 5.86-4.573 5.86H1.389v4.586h15.295c6.326 0 11.342-5.094 10.148-10.893-.932-4.528-5.58-7.45-10.727-7.45z"/>
</symbol><symbol id="icon-search" viewBox="0 0 20 20">
    <title>
        Search Icon
    </title>
    <desc>
        Magnifying Glass
    </desc>
    <path fill="" d="M18.734 16.334l-4.15-4.149a7.897 7.897 0 0 0 1.254-4.267A7.918 7.918 0 0 0 7.919 0 7.917 7.917 0 0 0 0 7.917a7.917 7.917 0 0 0 7.919 7.919 7.88 7.88 0 0 0 4.264-1.254l4.15 4.149a1.694 1.694 0 0 0 2.4 0 1.694 1.694 0 0 0 .001-2.397zM2.262 7.917A5.664 5.664 0 0 1 7.92 2.261a5.662 5.662 0 0 1 5.655 5.656 5.662 5.662 0 0 1-5.655 5.657 5.663 5.663 0 0 1-5.658-5.657z"/>
</symbol><symbol id="icon-speech-bubble" viewBox="0 0 28 26">
    <title>
        Speech Bubble Icon
    </title>
    <desc>
        Speech bubble with lines
    </desc>
    <path fill="" d="M6.042 6h16V5h-16v1zm0 4h16V9h-16v1zm0 4h16v-1h-16v1zm1-14h14c3.85 0 7 3.15 7 7v4.667c0 3.85-3.15 7.333-7 7.333h-1l-.062 7-7.937-7h-5c-3.85 0-7-3.483-7-7.333V7c0-3.85 3.148-7 7-7z"/>
</symbol><symbol id="icon-ticket" viewBox="0 0 20 20">
    <title>
        Ticket icon
    </title>
    <desc>
        A ticket stub shape.
    </desc>
    <g fill="" fill-rule="evenodd">
        <path d="M19.249 7.55l-2.276-2.277-.752-.752-.752.752a.521.521 0 0 1-.738 0 .525.525 0 0 1-.002-.741l.752-.751-.752-.753L12.453.751 11.699 0l-.751.751L8.4 3.301l-.752.751-.098.098-6.799 6.798-.751.751.751.751 2.278 2.278.752.752.751-.752a.519.519 0 0 1 .739-.002.518.518 0 0 1 .155.373c0 .082-.02.234-.153.368l-.752.753.751.751 2.278 2.277.751.752.751-.751 6.8-6.799.097-.097.752-.752 2.55-2.551.749-.749-.751-.751zm-3.301 3.302l-.423-.426-.851.852.426.422-6.8 6.799-2.277-2.276c.619-.617.62-1.623.001-2.242l-.001-.002h-.002a1.586 1.586 0 0 0-2.241 0l-2.278-2.277L8.3 4.903l.427.424.85-.85-.427-.424 2.549-2.55 2.277 2.278a1.584 1.584 0 0 0 0 2.242v.001l.002.002a1.587 1.587 0 0 0 2.242-.002l2.276 2.277-2.548 2.551z"/>
        <path d="M10.426 5.323l1.7 1.7-.852.85-1.699-1.7zM12.977 7.876l1.699 1.7-.85.85-1.7-1.7z"/>
    </g>
</symbol><symbol id="icon-twitter" viewBox="0 0 30 30">
    <title>
        Twitter icon
    </title>
    <desc>
        Twitter icon in a solid circle
    </desc>
    
    <g fill="" fill-rule="evenodd">
        <g transform="translate(.43)" fill="">
            <mask id="b">
                <use xlink:href="#a"/>
            </mask>
            <path d="M14.58 30c8.05 0 14.577-6.526 14.577-14.578 0-8.05-6.527-14.58-14.578-14.58C6.526.843 0 7.373 0 15.423 0 23.474 6.527 30 14.58 30" mask="url(#b)"/>
        </g>
        <path d="M22.322 11.603c-.536.238-1.115.4-1.72.47a2.988 2.988 0 0 0 1.317-1.656c-.58.344-1.22.593-1.904.726a2.99 2.99 0 0 0-2.187-.945 2.996 2.996 0 0 0-2.919 3.678 8.502 8.502 0 0 1-6.174-3.13 2.997 2.997 0 0 0 .927 4 2.993 2.993 0 0 1-1.358-.374v.037a2.998 2.998 0 0 0 2.405 2.937 2.988 2.988 0 0 1-1.354.052 2.993 2.993 0 0 0 2.8 2.078 6.02 6.02 0 0 1-3.722 1.283c-.242 0-.48-.012-.715-.04a8.475 8.475 0 0 0 4.592 1.345c5.51 0 8.524-4.564 8.524-8.523 0-.13-.003-.26-.01-.388a6.056 6.056 0 0 0 1.496-1.55" fill="#FFF"/>
    </g>
</symbol><symbol id="icon-unlock" viewBox="0 0 14 18">
    <path fill="" d="M7 9a3 3 0 1 0 0 6 3 3 0 0 0 0-6zm0 5a2 2 0 1 1 .001-4.001A2 2 0 0 1 7 14zm5.5-8H4V3.5C4 2.122 5.122 1 6.5 1h1C8.879 1 10 2.122 10 3.5V4h1v-.5C11 1.57 9.43 0 7.5 0h-1C4.57 0 3 1.57 3 3.5V6H1.5C.673 6 0 6.673 0 7.5v9c0 .827.673 1.5 1.5 1.5h11c.827 0 1.5-.673 1.5-1.5v-9c0-.827-.673-1.5-1.5-1.5zm.5 10.5c0 .275-.225.5-.5.5h-11a.5.5 0 0 1-.5-.5v-9a.5.5 0 0 1 .5-.5h11a.5.5 0 0 1 .5.5v9z"/>
</symbol><symbol id="icon-verified" viewBox="0 140 20 20">
    <title>
        Verified icon
    </title>
    <desc>
        Two ticket stubs with a checkmark in front of them.
    </desc>
    <path fill="" d="M1.239 151.971l-.008.019.035.035 2.007 2.007a1.851 1.851 0 0 1 2.269-.275 4.02 4.02 0 0 1 .878-.67l-.022-.059a2.925 2.925 0 0 0-2.437-.559c-.187.04-.368.098-.542.172l-.344-.344-.313-.314.268-.27 7.374-7.373.561-.561 1.083-1.082.562.562.096.096a2.94 2.94 0 0 0-.24 1.167c0 .143.014.284.034.423a2.968 2.968 0 0 0 .829 1.659 2.924 2.924 0 0 0 2.081.862 2.94 2.94 0 0 0 1.167-.24l.658.659-5.927 5.927a4.057 4.057 0 0 1 .645.892l6.818-6.818-2.05-2.049c-.362.362-.837.543-1.312.543s-.95-.181-1.312-.543a1.856 1.856 0 0 1 0-2.625l-2.049-2.049-2.077 2.076a1.603 1.603 0 0 1-.936-2.188L6.759 140l-5.517 11.963-.003.008zm6.02-10.617l.607.28a2.63 2.63 0 0 0 1.334 2.372l-5.872 5.872 3.931-8.524z"/>
    <path fill="currentColor" d="M11.499 155.172a3.358 3.358 0 0 0-.278-.498 3.432 3.432 0 0 0-.348-.429 3.4 3.4 0 0 0-4.446-.44 3.405 3.405 0 0 0-1.088 4.29A3.412 3.412 0 0 0 8.397 160a3.409 3.409 0 0 0 3.192-2.217c.139-.372.22-.773.22-1.195 0-.507-.113-.984-.31-1.416m-3.48 3.468l-1.78-1.785.771-.774 1.008 1.015 2.134-2.138.772.773-2.905 2.909z"/>
</symbol></svg>