<svg xmlns="http://www.w3.org/2000/svg" viewBox="0 0 144 20">
    <title>
        Ticketmaster logo
    </title>
    <desc>
        Ticketmaster logo
    </desc>
    <defs>
        <path id="a" d="M-271.92-343.336c-4.313 0-7.478 3.908-7.478 7.968 0 3.885 2.552 5.714 6.33 5.714 1.406 0 2.86-.333 4.186-.736l.434-2.695c-1.276.586-2.628.94-4.03.94-2.19 0-3.47-.77-3.63-2.825h-.006c-.005-.122-.018-.238-.018-.365 0-.023 0-.048.004-.07 0-.013-.004-.027-.004-.04h.004c.014-.894.216-1.778.556-2.592.656-1.665 1.588-2.813 3.602-2.813 1.43 0 2.17.783 2.17 2.182 0 .305-.023.583-.077.89h-4.68c-.303 1.026-.36 1.714-.364 2.334h8.056c.203-.963.333-1.928.333-2.92-.003-3.323-2.15-4.972-5.39-4.972zm-11.475 9.77c0-.507.076-.965.15-1.27l1.253-5.71h3.062l.537-2.487h-3.06l.84-3.883-3.676 1.194-.585 2.69h-2.478l-.533 2.487h2.472l-.968 4.417c-.23 1.04-.433 2.03-.433 3.043 0 2.516 1.632 3.43 3.955 3.43.588 0 1.252-.18 1.84-.306l.587-2.642c-.435.18-1.05.305-1.66.305-.767 0-1.302-.482-1.302-1.27zm-14.294-5.61c0 3.274 4.44 3.477 4.44 5.585 0 1.064-1.2 1.445-2.348 1.445-1.326 0-2.297-.484-3.267-1.016l-.742 2.717c1.252.583 2.63.788 4.01.788 2.935 0 5.92-1.018 5.92-4.42 0-3.195-4.44-3.806-4.44-5.456 0-1.04 1.275-1.32 2.297-1.32.97 0 1.915.28 2.282.48l.74-2.566c-.676-.17-1.95-.4-3.202-.4-2.706 0-5.69 1.09-5.69 4.16zm46.424 1.27c-1.367 0-2.39-1.088-2.39-2.49 0-1.4 1.023-2.486 2.39-2.486 1.352 0 2.37 1.087 2.37 2.487 0 1.4-1.018 2.488-2.37 2.488zm-.008-5.414c-1.62 0-2.942 1.312-2.942 2.925 0 1.61 1.322 2.922 2.942 2.922s2.942-1.31 2.942-2.922c0-1.613-1.323-2.925-2.942-2.925zm-55.902 11.185c-.87 0-1.74-.454-1.74-1.368 0-2.21 2.757-2.486 4.418-2.486h1.2c-.538 2.106-1.327 3.855-3.878 3.855zm2.372-11.192c-1.53 0-3.01.28-4.468.787l-.484 2.717c1.352-.634 2.81-1.017 4.314-1.017 1.2 0 2.628.383 2.628 1.7 0 .383 0 .764-.102 1.118h-1.2c-3.213 0-8.065.332-8.065 4.645 0 2.41 1.685 3.73 4.057 3.73 1.89 0 3.065-.836 4.237-2.307h.05l-.354 2.004h2.885c.305-2.46 1.608-7.592 1.608-9.343 0-3.07-2.48-4.034-5.107-4.034zm52.967 2.69v-1.037h.67c.357 0 .708.114.708.502 0 .445-.28.535-.708.535h-.67zm1.94-.51c0-.647-.39-.965-1.18-.965h-1.32v3.428h.56v-1.514h.473l.964 1.514h.594l-.98-1.514c.538 0 .888-.4.888-.948zm-11.098.576h-.05l.46-2.463h-3.27c-.1.61-.205 1.193-.305 1.752l-2.347 11.318h3.42l1.224-5.86c.436-2.11 1.61-4.267 4.034-4.267.434 0 .92.076 1.303.204l.716-3.326c-.41-.1-.87-.125-1.305-.125-1.583 0-3.267 1.345-3.88 2.766zm-55.2-2.766c-1.837 0-3.75.786-4.62 2.486h-.053c-.18-1.574-1.787-2.486-3.344-2.486-1.61 0-3.115.71-4.033 2.055h-.05l.306-1.753h-3.19c-.077.406-.18.94-.282 1.448l-2.4 11.624h3.423l1.355-6.22c.432-1.75 1.073-4.517 3.392-4.517.87 0 1.61.61 1.61 1.574 0 .787-.255 2.006-.434 2.79l-1.38 6.373h3.423l1.35-6.22c.436-1.774 1.02-4.516 3.398-4.516.868 0 1.61.61 1.61 1.574 0 .787-.257 2.006-.436 2.79l-1.38 6.373h3.423l1.375-6.244c.283-1.063.59-2.388.59-3.552 0-1.983-1.687-3.58-3.65-3.58zm-65.952.303l-2.807 13.072h3.42l2.806-13.073h-3.42zm6.987 7.334c0-2.46 1.53-4.998 4.263-4.998.945 0 1.836.228 2.5.66l.843-2.79c-.918-.278-2.143-.508-3.42-.508-4.724 0-7.76 3.475-7.76 8.044 0 3.377 2.197 5.637 5.59 5.637 1.124 0 2.247-.105 3.293-.613l.383-2.69c-.894.43-1.94.66-2.78.66-2.353 0-2.913-1.7-2.913-3.4zm-2.314-12.97h-3.42l-.717 3.25h3.42l.716-3.25zm29.046 5.334c-4.312 0-7.48 3.908-7.48 7.968 0 3.885 2.552 5.714 6.33 5.714 1.405 0 2.86-.333 4.186-.736l.433-2.695c-1.275.586-2.624.94-4.03.94-2.19 0-3.468-.77-3.632-2.825h-.002c-.006-.122-.018-.238-.018-.365l.003-.07v-.04c.017-.894.213-1.778.556-2.592.657-1.665 1.588-2.813 3.605-2.813 1.43 0 2.17.783 2.17 2.182 0 .305-.025.583-.08.89h-4.677c-.302 1.026-.355 1.714-.36 2.334h8.053c.202-.963.335-1.928.335-2.92 0-3.323-2.146-4.972-5.388-4.972zm-5.802.303h-4.442l-4.77 4.747h-.056l2.275-10.714h-3.422l-4.057 19.04h3.34l1.484-6.93h.05l3.395 6.93h3.855l-3.956-7.11 6.304-5.963zm16.287 9.467c0-.507.08-.965.154-1.27l1.25-5.71h3.066l.538-2.487H-336l.844-3.883-3.677 1.194-.59 2.69h-2.473l-.54 2.487h2.48l-.97 4.417c-.23 1.04-.436 2.03-.436 3.043 0 2.516 1.635 3.43 3.958 3.43.587 0 1.25-.18 1.838-.306l.587-2.642c-.434.18-1.044.305-1.66.305-.765 0-1.303-.482-1.303-1.27zm-50.614 0c0-.507.08-.965.155-1.27l1.248-5.71h3.067l.535-2.487h-3.064l.842-3.883-3.674 1.194-.59 2.69h-2.476l-.535 2.487h2.478l-.97 4.417c-.23 1.04-.436 2.03-.436 3.043 0 2.516 1.636 3.43 3.96 3.43.585 0 1.25-.18 1.837-.306l.586-2.642c-.433.18-1.047.305-1.66.305-.764 0-1.303-.482-1.303-1.27z"/>
    </defs>
    <g class="st0">
        <defs>
            <path id="b" d="M-443.05-378h1024v768h-1024z"/>
        </defs>
        <path class="st1" d="M-398.05-354h154.718v29.355H-398.05z"/>
    </g>
    <g>
        <path class="st2" d="M88.55 17.004h-.05c-1.165 1.47-2.33 2.305-4.204 2.305-2.354 0-4.025-1.318-4.025-3.724 0-4.305 4.81-4.634 8.002-4.634h1.19c.1-.355.1-.735.1-1.115 0-1.316-1.417-1.696-2.607-1.696-1.495 0-2.938.38-4.28 1.014l.48-2.71c1.445-.506 2.914-.785 4.433-.785 2.608 0 5.064.96 5.064 4.025 0 1.747-1.29 6.863-1.595 9.32h-2.862l.356-2m-3.317-.178c2.533 0 3.318-1.747 3.85-3.85h-1.19c-1.647 0-4.382.28-4.382 2.483 0 .91.862 1.367 1.723 1.367zM.58 5.95h2.457l.582-2.683 3.646-1.19L6.43 5.95h3.04l-.533 2.483h-3.04l-1.24 5.698c-.076.305-.152.76-.152 1.267 0 .785.532 1.266 1.292 1.266.608 0 1.215-.126 1.646-.304l-.583 2.633c-.583.126-1.24.304-1.823.304-2.304 0-3.925-.91-3.925-3.42 0-1.01.203-2 .43-3.037l.963-4.407H.05L.58 5.95zM10.863 5.95h3.393L11.47 18.994H8.077L10.863 5.95m1.24-5.62h3.394l-.71 3.24h-3.392l.71-3.24zM24.504 8.94c-.66-.43-1.545-.66-2.482-.66-2.71 0-4.23 2.533-4.23 4.99 0 1.696.558 3.393 2.888 3.393.836 0 1.874-.228 2.76-.658l-.38 2.685c-1.038.506-2.152.608-3.267.608-3.368 0-5.546-2.253-5.546-5.62 0-4.56 3.014-8.03 7.7-8.03 1.265 0 2.48.23 3.393.507l-.836 2.785zM28.226 0h3.393l-2.255 10.687h.05l4.736-4.736h4.408l-6.255 5.953 3.925 7.09h-3.824l-3.368-6.913h-.05l-1.47 6.913H24.2M50.79 5.95h2.456l.582-2.683 3.647-1.19-.835 3.874h3.04l-.533 2.483h-3.04l-1.24 5.698c-.077.305-.153.76-.153 1.267 0 .785.532 1.266 1.292 1.266.608 0 1.216-.126 1.646-.304l-.583 2.633c-.583.126-1.242.304-1.824.304-2.304 0-3.925-.91-3.925-3.42 0-1.01.204-2 .432-3.037l.962-4.407h-2.456l.532-2.482z"/>
        <path class="st2" d="M49.655 10.61c0-3.317-2.127-4.962-5.343-4.962-4.28 0-7.42 3.9-7.42 7.952 0 3.875 2.532 5.697 6.28 5.697 1.394 0 2.837-.33 4.154-.734l.43-2.685c-1.266.583-2.608.937-4 .937-2.17 0-3.44-.77-3.603-2.822h-.003c-.006-.12-.017-.235-.017-.36l.002-.072v-.037c.016-.893.212-1.774.553-2.587.652-1.66 1.574-2.806 3.573-2.806 1.42 0 2.154.785 2.154 2.178 0 .304-.026.582-.076.886h-4.643c-.3 1.025-.354 1.712-.36 2.33h7.992c.2-.963.328-1.925.328-2.913zM61.143 7.395c.1-.506.202-1.038.28-1.444h3.164l-.304 1.75h.05c.912-1.343 2.406-2.052 4-2.052 1.546 0 3.14.91 3.318 2.482h.052c.86-1.697 2.76-2.482 4.584-2.482 1.95 0 3.62 1.595 3.62 3.57 0 1.166-.303 2.483-.58 3.546l-1.37 6.23h-3.392l1.368-6.358c.177-.785.43-2 .43-2.785 0-.96-.734-1.57-1.595-1.57-2.356 0-2.938 2.736-3.368 4.51l-1.343 6.203h-3.393l1.367-6.357c.178-.785.432-2 .432-2.785 0-.96-.735-1.57-1.596-1.57-2.304 0-2.938 2.76-3.368 4.51l-1.342 6.203h-3.393l2.38-11.598zM102.733 8.607c-.365-.198-1.302-.477-2.264-.477-1.014 0-2.28.28-2.28 1.316 0 1.646 4.406 2.255 4.406 5.445 0 3.394-2.963 4.407-5.875 4.407-1.366 0-2.734-.202-3.975-.785l.735-2.71c.962.532 1.924 1.013 3.24 1.013 1.14 0 2.33-.38 2.33-1.443 0-2.102-4.405-2.306-4.405-5.572 0-3.064 2.962-4.153 5.647-4.153 1.24 0 2.507.228 3.175.4l-.734 2.56zM104.9 5.95h2.458l.582-2.683 3.647-1.19-.836 3.874h3.04l-.532 2.483h-3.04l-1.24 5.698c-.076.305-.152.76-.152 1.267 0 .785.532 1.266 1.29 1.266.61 0 1.216-.126 1.647-.304l-.582 2.633c-.582.126-1.24.304-1.822.304-2.305 0-3.925-.91-3.925-3.42 0-1.01.203-2 .43-3.037l.963-4.407h-2.456l.53-2.482zM127.908 7.7c.1-.558.203-1.14.304-1.75h3.242l-.456 2.458h.05c.61-1.42 2.28-2.76 3.85-2.76.43 0 .887.024 1.29.126l-.708 3.317c-.38-.126-.86-.202-1.29-.202-2.407 0-3.572 2.152-4.002 4.254l-1.216 5.85h-3.393l2.328-11.293zM125.553 10.61c0-3.317-2.127-4.962-5.344-4.962-4.28 0-7.42 3.9-7.42 7.952 0 3.875 2.53 5.697 6.28 5.697 1.393 0 2.836-.33 4.153-.734l.43-2.685c-1.266.583-2.607.937-4 .937-2.17 0-3.44-.77-3.603-2.822h-.002c-.006-.12-.017-.235-.017-.36l.003-.072v-.037c.016-.893.212-1.774.553-2.587.65-1.66 1.574-2.806 3.573-2.806 1.417 0 2.15.785 2.15 2.178 0 .304-.024.582-.075.886h-4.644c-.3 1.025-.353 1.712-.36 2.33h7.993c.203-.963.33-1.925.33-2.913zM140.99 5.173c1.615 0 2.933 1.315 2.933 2.934 0 1.615-1.32 2.93-2.933 2.93-1.616 0-2.934-1.315-2.934-2.93 0-1.62 1.318-2.934 2.934-2.934zM141 10.6c1.346 0 2.362-1.09 2.362-2.493 0-1.405-1.017-2.495-2.363-2.495-1.366 0-2.384 1.09-2.384 2.495 0 1.404 1.018 2.493 2.383 2.493zm-1.13-4.217h1.314c.79 0 1.178.318 1.178.97 0 .55-.35.948-.887.948l.978 1.52h-.595l-.96-1.52h-.47v1.52h-.56V6.384zm.56 1.48h.664c.43 0 .71-.09.71-.537 0-.39-.35-.504-.71-.504h-.665v1.04z"/>
    </g>
</svg>
