<svg id="ticketmaster" xmlns="http://www.w3.org/2000/svg" viewBox="0 0 163 23">
    <title>
        Ticketmaster logo
    </title>
    <desc>
        Responsive Ticketmaster logo
    </desc>
    <style>
        svg * { transition: fill .1s ease-out, opacity .1s ease-out; } @media screen and (max-width: 1019px) { .letter { opacity: 0; } #t1 { opacity: 1; } #m-short { opacity: 1; } } @media screen and (min-width: 1020px) { #m-short { opacity: 0; } }
    </style>
    <path id="t1" class="letter" d="M.637 6.87H3.58l.7-3.215 4.37-1.428L7.648 6.87h3.643l-.637 2.976H7.01l-1.486 6.83c-.09.364-.183.91-.183 1.518 0 .94.638 1.518 1.55 1.518.728 0 1.456-.152 1.972-.365l-.7 3.157c-.697.152-1.485.364-2.185.364-2.76 0-4.704-1.093-4.704-4.1 0-1.212.243-2.395.516-3.64l1.153-5.282H0L.637 6.87z"/>
    <path id="m-short" class="letter" d="M13.044 8.6c.12-.605.24-1.243.333-1.73h3.794l-.364 2.095h.06c1.095-1.608 2.884-2.458 4.797-2.458 1.852 0 3.764 1.092 3.976 2.975h.06c1.032-2.034 3.308-2.975 5.493-2.975 2.337 0 4.34 1.913 4.34 4.28 0 1.395-.363 2.974-.698 4.25l-1.64 7.466H29.13l1.64-7.62c.21-.94.514-2.396.514-3.337 0-1.152-.88-1.88-1.912-1.88-2.823 0-3.52 3.277-4.037 5.402l-1.61 7.436H19.66l1.64-7.62c.212-.94.516-2.396.516-3.337 0-1.152-.88-1.88-1.914-1.88-2.76 0-3.52 3.307-4.036 5.402l-1.61 7.435h-4.064L13.044 8.6z"/>
    <path id="i" class="letter" d="M12.96 6.87h4.068l-3.34 15.632H9.623l3.34-15.63zM14.45.134h4.067l-.85 3.885h-4.067l.85-3.885z"/>
    <path id="c" class="letter" d="M29.31 10.453c-.79-.517-1.852-.79-2.975-.79-3.247 0-5.068 3.034-5.068 5.98 0 2.032.668 4.066 3.46 4.066 1 0 2.246-.274 3.307-.79l-.455 3.217c-1.245.607-2.58.73-3.916.73-4.037 0-6.647-2.702-6.647-6.738 0-5.465 3.612-9.623 9.228-9.623 1.518 0 2.972.274 4.067.606l-1.003 3.34z"/>
    <path id="k" class="letter" d="M33.77-.26h4.068l-2.702 12.806h.06l5.676-5.675h5.28l-7.495 7.133 4.704 8.5H38.78l-4.038-8.287h-.06l-1.76 8.286h-3.976L33.77-.26z"/>
    <path id="e1" class="letter" d="M59.454 12.456c0-3.977-2.55-5.95-6.405-5.95-5.13 0-8.895 4.676-8.895 9.53 0 4.645 3.036 6.83 7.528 6.83 1.67 0 3.4-.395 4.978-.88l.517-3.22c-1.518.7-3.125 1.127-4.795 1.127-2.6 0-4.12-.925-4.316-3.383h-.003c-.008-.145-.02-.282-.02-.433l.002-.087-.002-.046h.003c.02-1.07.253-2.125.66-3.1.784-1.99 1.89-3.364 4.285-3.364 1.7 0 2.58.94 2.58 2.61 0 .364-.03.697-.09 1.063h-5.565c-.36 1.227-.423 2.05-.43 2.79h9.576c.242-1.15.394-2.304.394-3.487z"/>
    <path id="t2" class="letter" d="M60.813 6.87h2.944l.698-3.215 4.37-1.427-1.002 4.644h3.643l-.638 2.975h-3.642l-1.488 6.83c-.09.364-.182.91-.182 1.518 0 .94.638 1.518 1.548 1.518.73 0 1.457-.152 1.973-.365l-.698 3.157c-.7.152-1.488.364-2.187.364-2.762 0-4.704-1.094-4.704-4.1 0-1.213.242-2.396.516-3.64l1.152-5.283h-2.943l.638-2.976z"/>
    <path id="m" class="letter" d="M73.22 8.6c.122-.605.242-1.243.334-1.73h3.794l-.365 2.095h.06c1.095-1.608 2.884-2.458 4.797-2.458 1.852 0 3.764 1.092 3.976 2.975h.062c1.03-2.034 3.307-2.975 5.492-2.975 2.337 0 4.34 1.913 4.34 4.28 0 1.395-.363 2.974-.698 4.25l-1.64 7.466h-4.065l1.64-7.62c.21-.94.514-2.396.514-3.337 0-1.152-.878-1.88-1.91-1.88-2.824 0-3.522 3.277-4.038 5.402l-1.61 7.436h-4.066l1.64-7.62c.212-.94.516-2.396.516-3.337 0-1.152-.88-1.88-1.914-1.88-2.76 0-3.52 3.307-4.036 5.402l-1.61 7.435H70.37L73.22 8.6z"/>
    <path id="a" class="letter" d="M106.07 20.118h-.062c-1.396 1.76-2.792 2.76-5.04 2.76-2.82 0-4.822-1.576-4.822-4.46 0-5.158 5.765-5.554 9.59-5.554h1.424c.123-.426.123-.88.123-1.336 0-1.578-1.7-2.034-3.126-2.034-1.79 0-3.52.456-5.13 1.214l.576-3.248c1.73-.605 3.49-.94 5.313-.94 3.126 0 6.07 1.153 6.07 4.825 0 2.095-1.547 8.227-1.913 11.17h-3.428l.424-2.397zm-3.976-.212c3.035 0 3.976-2.096 4.612-4.614h-1.425c-1.973 0-5.25.334-5.25 2.975 0 1.09 1.032 1.64 2.064 1.64z"/>
    <path id="s" class="letter" d="M123.066 10.053c-.437-.238-1.56-.57-2.713-.57-1.214 0-2.73.332-2.73 1.576 0 1.973 5.28 2.7 5.28 6.525 0 4.066-3.55 5.28-7.04 5.28-1.64 0-3.28-.242-4.765-.94l.88-3.246c1.153.636 2.306 1.214 3.884 1.214 1.365 0 2.792-.457 2.792-1.73 0-2.52-5.28-2.763-5.28-6.678 0-3.672 3.55-4.978 6.768-4.978 1.486 0 3.004.274 3.806.48l-.882 3.065z"/>
    <path id="t3" class="letter" d="M125.665 6.87h2.945l.696-3.215 4.37-1.427-1.002 4.644h3.644l-.64 2.975h-3.64l-1.49 6.83c-.088.364-.18.91-.18 1.518 0 .94.637 1.518 1.547 1.518.73 0 1.457-.152 1.973-.365l-.697 3.157c-.695.152-1.486.364-2.185.364-2.762 0-4.703-1.094-4.703-4.1 0-1.213.24-2.396.516-3.64l1.155-5.283h-2.946l.638-2.976z"/>
    <path id="e2" class="letter" d="M150.416 12.456c0-3.977-2.55-5.95-6.404-5.95-5.13 0-8.894 4.676-8.894 9.53 0 4.645 3.034 6.83 7.528 6.83 1.67 0 3.398-.395 4.977-.88l.517-3.22c-1.52.7-3.125 1.127-4.796 1.127-2.603 0-4.12-.925-4.317-3.383h-.003c-.006-.145-.02-.282-.02-.433 0-.028 0-.06.002-.087l-.002-.046h.003c.02-1.07.253-2.125.66-3.1.782-1.99 1.887-3.364 4.284-3.364 1.7 0 2.58.94 2.58 2.61 0 .364-.03.697-.09 1.063h-5.565c-.36 1.227-.425 2.05-.432 2.79h9.58c.24-1.15.393-2.304.393-3.487z"/>
    <path id="r" class="letter" d="M153.238 8.965c.122-.667.242-1.366.364-2.094h3.885l-.545 2.946h.06c.73-1.7 2.732-3.31 4.613-3.31.518 0 1.062.03 1.55.152l-.852 3.978c-.454-.153-1.032-.243-1.548-.243-2.883 0-4.28 2.58-4.796 5.098l-1.458 7.013h-4.067l2.793-13.538z"/>
</svg>
