<svg width="176" height="28" viewBox="0 0 176 28" xmlns="http://www.w3.org/2000/svg">
    <title>
        verfied dark bkg copy
    </title>
    <g fill="none" fill-rule="evenodd">
        <path d="M87.002 18.693h-.03c-.76.954-1.515 1.496-2.733 1.496-1.535 0-2.617-.856-2.617-2.418 0-2.802 3.123-3.016 5.2-3.016h.77c.068-.232.068-.478.068-.726 0-.854-.92-1.1-1.692-1.1-.976 0-1.91.246-2.784.655l.312-1.757c.938-.33 1.894-.51 2.88-.51 1.697 0 3.29.625 3.29 2.615 0 1.138-.838 4.462-1.034 6.062h-1.86l.23-1.302m-2.158-.115c1.65 0 2.158-1.135 2.502-2.5h-.77c-1.073 0-2.846.18-2.846 1.612 0 .59.56.888 1.114.888M29.836 11.504h1.592l.38-1.743 2.37-.774-.54 2.518h1.97l-.344 1.615h-1.978l-.804 3.703c-.05.2-.1.492-.1.825 0 .51.347.825.843.825.393 0 .788-.086 1.067-.197l-.376 1.708c-.382.085-.808.196-1.187.196-1.496 0-2.55-.584-2.55-2.22 0-.655.13-1.298.278-1.975l.625-2.866h-1.6l.353-1.616M36.515 11.504h2.2l-1.804 8.48h-2.205l1.81-8.48zm.81-3.654h2.2l-.458 2.108H36.86l.464-2.108zM45.383 13.448c-.43-.28-1.008-.428-1.616-.428-1.76 0-2.75 1.648-2.75 3.243 0 1.103.367 2.208 1.88 2.208.54 0 1.216-.148 1.792-.428l-.247 1.748c-.676.328-1.4.39-2.122.39-2.19 0-3.606-1.462-3.606-3.65 0-2.968 1.958-5.222 5-5.222.823 0 1.616.145 2.21.33l-.54 1.81M47.796 7.64h2.207l-1.465 6.945h.036l3.074-3.08h2.864l-4.064 3.87 2.55 4.61h-2.48L48.32 15.49h-.03l-.954 4.494h-2.154L47.796 7.64M62.465 11.504h1.593l.38-1.743 2.37-.774-.544 2.518h1.976l-.34 1.615h-1.98l-.81 3.703c-.046.2-.097.492-.097.825 0 .51.345.825.84.825.392 0 .787-.086 1.067-.197l-.377 1.708c-.377.085-.806.196-1.185.196-1.496 0-2.55-.584-2.55-2.22 0-.655.132-1.298.278-1.975l.627-2.866h-1.598l.35-1.616" fill="#475058"/>
        <path d="M61.724 14.535c0-2.16-1.38-3.227-3.472-3.227-2.78 0-4.824 2.538-4.824 5.17 0 2.522 1.645 3.702 4.084 3.702.906 0 1.843-.21 2.695-.472l.282-1.747c-.823.38-1.695.608-2.602.608-1.41 0-2.23-.498-2.34-1.832h-.002c0-.077-.012-.155-.012-.235v-.076h.007c.006-.574.133-1.147.358-1.676.424-1.08 1.022-1.824 2.322-1.824.92 0 1.397.51 1.397 1.414 0 .197-.016.378-.048.577h-3.017c-.2.665-.23 1.11-.235 1.51h5.194c.13-.623.212-1.248.212-1.89M69.194 12.443c.06-.33.128-.67.18-.94h2.055l-.2 1.137h.034c.594-.867 1.56-1.332 2.6-1.332 1.004 0 2.042.592 2.155 1.616h.032c.558-1.104 1.794-1.616 2.98-1.616 1.267 0 2.355 1.04 2.355 2.325 0 .754-.196 1.61-.38 2.3l-.887 4.05h-2.206l.886-4.13c.114-.514.28-1.3.28-1.81 0-.63-.474-1.023-1.036-1.023-1.528 0-1.908 1.777-2.188 2.934l-.872 4.03H72.78l.883-4.132c.12-.513.284-1.3.284-1.81 0-.628-.478-1.022-1.038-1.022-1.493 0-1.913 1.794-2.188 2.934l-.873 4.03H67.64l1.552-7.54M96.22 13.233c-.24-.128-.848-.31-1.474-.31-.656 0-1.475.182-1.475.855 0 1.072 2.863 1.466 2.863 3.538 0 2.207-1.93 2.864-3.826 2.864-.88 0-1.774-.127-2.578-.508l.476-1.76c.623.347 1.247.656 2.1.656.746 0 1.52-.244 1.52-.936 0-1.37-2.865-1.5-2.865-3.622 0-1.995 1.927-2.702 3.678-2.702.802 0 1.626.145 2.06.263l-.48 1.663M97.627 11.504h1.6l.375-1.743 2.37-.774-.544 2.518h1.978l-.348 1.615h-1.98l-.8 3.703c-.052.2-.1.492-.1.825 0 .51.348.825.84.825.393 0 .79-.086 1.07-.197l-.377 1.708c-.383.085-.808.196-1.184.196-1.498 0-2.55-.584-2.55-2.22 0-.655.13-1.298.273-1.975l.627-2.866h-1.595l.345-1.616M112.58 12.64c.07-.362.133-.738.196-1.134h2.107l-.3 1.6h.04c.39-.926 1.478-1.798 2.5-1.798.282 0 .574.016.835.08l-.46 2.16c-.245-.084-.555-.134-.837-.134-1.562 0-2.32 1.398-2.603 2.767l-.784 3.804h-2.21l1.517-7.344M111.05 14.535c0-2.16-1.382-3.227-3.473-3.227-2.783 0-4.823 2.538-4.823 5.17 0 2.522 1.65 3.702 4.08 3.702.905 0 1.846-.21 2.7-.472l.277-1.747c-.818.38-1.69.608-2.594.608-1.416 0-2.236-.498-2.34-1.832h-.005c-.004-.077-.01-.155-.01-.235l.002-.047v-.03c.01-.573.138-1.146.362-1.675.42-1.08 1.018-1.824 2.32-1.824.924 0 1.4.51 1.4 1.414 0 .197-.02.378-.053.577h-3.01c-.202.665-.236 1.11-.238 1.51h5.194c.134-.623.213-1.248.213-1.89" fill="#475058"/>
        <path d="M119.81 11.414h2.283l.864 6.297h.033l3.38-6.296h2.364l-5.01 8.58h-2.465l-1.45-8.58M129.82 16.395c0 1.582.846 2.165 2.38 2.165.914 0 1.797-.233 2.63-.615l-.284 1.766c-.864.266-1.814.483-2.73.483-2.463 0-4.13-1.2-4.13-3.75 0-2.664 2.066-5.23 4.88-5.23 2.113 0 3.512 1.083 3.512 3.266 0 .648-.083 1.28-.217 1.915h-6.04zm4.077-1.532c.033-.2.05-.384.05-.585 0-.915-.483-1.43-1.416-1.43-1.38 0-1.98.83-2.412 2.015h3.78zM137.802 12.563c.067-.366.133-.748.2-1.148h2.13l-.3 1.615h.036c.397-.933 1.497-1.816 2.53-1.816.284 0 .582.016.85.083l-.467 2.182c-.25-.083-.565-.134-.85-.134-1.58 0-2.346 1.416-2.63 2.798l-.8 3.85h-2.23l1.532-7.43M143.952 11.415h2.232l-1.832 8.578h-2.232l1.832-8.578zm.817-3.7H147l-.467 2.133H144.3l.47-2.132zM148.335 13.048h-1.73l.347-1.633h1.733c.448-2.183 1.18-4.117 3.777-4.117.517 0 1.016.1 1.383.218l-.517 1.666c-.2-.1-.45-.15-.68-.15-1.235 0-1.517 1.483-1.734 2.383h2l-.35 1.633h-1.998l-1.464 6.945h-2.233l1.465-6.945M153.733 11.415h2.23l-1.83 8.578h-2.23l1.83-8.578zm.816-3.7h2.23l-.466 2.133h-2.23l.465-2.132zM158.21 16.395c0 1.582.85 2.165 2.38 2.165.918 0 1.8-.233 2.63-.615l-.282 1.766c-.865.266-1.814.483-2.73.483-2.465 0-4.13-1.2-4.13-3.75 0-2.664 2.065-5.23 4.88-5.23 2.113 0 3.512 1.083 3.512 3.266 0 .648-.084 1.28-.216 1.915h-6.044zm4.078-1.532c.035-.2.05-.384.05-.585 0-.915-.48-1.43-1.414-1.43-1.383 0-1.98.83-2.414 2.015h3.778zM175.282 7.5l-2.313 10.595c-.135.732-.267 1.465-.318 1.898h-2.08l.215-1.266h-.033c-.665.934-1.5 1.464-2.797 1.464-2.03 0-2.947-1.696-2.947-3.56 0-2.57 1.398-5.417 4.312-5.417 1.1 0 1.95.418 2.65 1.216l1.08-4.93h2.23zm-7.94 8.928c0 .867.266 2.033 1.366 2.033 1.63 0 2.596-1.9 2.596-3.48 0-1-.483-2.033-1.614-2.033-1.6 0-2.35 2.2-2.35 3.48z" fill="#009CDE"/>
        <path d="M.57 16.78l.055.027-.046-.047-.01.02M.57 16.75l.01.01.013-.035-.024.024M7.464 18.144c.012.024.02.05.03.08.013-.01.026-.017.038-.024l-.068-.056" fill="#414141"/>
        <path d="M21.223 8.55c-.482.486-1.116.727-1.748.727-.634 0-1.27-.24-1.75-.726-.967-.965-.967-2.532 0-3.5l-2.732-2.732-2.767 2.77c-.07-.024-.137-.05-.204-.082-1.07-.495-1.54-1.765-1.044-2.836L7.948.77.592 16.726l-.014.035.045.047L3.3 19.483c.482-.483 1.116-.725 1.75-.725.44 0 .884.12 1.275.356.177-.177.365-.343.564-.494.192-.145.394-.28.605-.398-.012-.027-.02-.054-.03-.078-.69-.54-1.527-.833-2.414-.833-.283 0-.562.03-.833.09-.25.052-.49.13-.723.228l-.46-.46-.417-.42L12.805 6.56l.744-.747 1.443-1.443.877.877c-.21.487-.32 1.014-.32 1.557 0 .192.02.38.047.565.05.364.152.714.302 1.045.192.43.458.824.8 1.168.742.74 1.727 1.147 2.775 1.147.542 0 1.07-.108 1.555-.317l.876.877-7.9 7.903c.168.175.324.36.466.56.147.2.278.41.395.63l9.087-9.093-2.73-2.734zm-11.8-5.6c-.04 1.273.62 2.51 1.777 3.164l-7.825 7.828 5.24-11.366.808.374z" fill="#475058"/>
        <path d="M14.222 21.023c-.105-.23-.225-.45-.368-.656-.135-.204-.292-.39-.46-.566-.818-.867-1.977-1.41-3.264-1.41-.707 0-1.374.166-1.97.46-.17.08-.33.17-.49.273-.047.03-.093.065-.138.096-.197.14-.384.293-.555.46-.83.818-1.348 1.955-1.348 3.213 0 2.485 2.015 4.503 4.5 4.503s4.503-2.018 4.503-4.503c0-.667-.15-1.298-.41-1.87" fill="#009CDE"/>
        <path d="M9.626 25.627L7.253 23.25l1.027-1.034 1.345 1.353 2.843-2.852 1.03 1.03-3.872 3.88" fill="#FFF"/>
        <path d="M117.505 16.493c1.018 0 1.855.828 1.855 1.848 0 1.026-.837 1.853-1.855 1.853-1.02 0-1.85-.827-1.85-1.852 0-1.02.83-1.847 1.85-1.847zm.01 3.422c.846 0 1.49-.683 1.49-1.574 0-.886-.644-1.574-1.49-1.574-.864 0-1.505.688-1.505 1.575 0 .892.64 1.575 1.504 1.575zm-.72-2.663h.835c.5 0 .742.202.742.612 0 .35-.218.602-.558.602l.618.955h-.373l-.612-.954h-.295v.955h-.358v-2.168zm.358.938h.42c.27 0 .447-.06.447-.34 0-.245-.216-.318-.448-.318h-.42v.658z" fill="#475058"/>
    </g>
</svg>
