<svg width="105" height="30" viewBox="0 0 105 30" xmlns="http://www.w3.org/2000/svg"><title>apple app</title><g fill="none" fill-rule="evenodd"><path d="M105 26.993c0 1.662-1.352 3.007-3.024 3.007H3.028C1.358 30 0 28.655 0 26.993V3.013C0 1.35 1.357 0 3.028 0h98.95C103.647 0 105 1.35 105 3.012v23.98z" id="Shape" fill="#000"/><path d="M41.823 23.603H40.04l-.978-3.07h-3.395l-.93 3.07H33l3.364-10.45h2.077l3.383 10.45zm-3.055-4.356l-.883-2.73c-.093-.278-.27-.935-.527-1.968h-.03c-.105.443-.27 1.1-.498 1.968l-.867 2.73h2.805zm11.705.497c0 1.28-.346 2.294-1.04 3.037-.62.662-1.39.994-2.31.994-.992 0-1.704-.356-2.14-1.07h-.03v3.97h-1.675V18.55c0-.806-.02-1.633-.062-2.48h1.473l.093 1.194h.03c.56-.9 1.406-1.35 2.543-1.35.89 0 1.63.352 2.225 1.053.596.705.893 1.63.893 2.777zm-1.705.06c0-.733-.165-1.338-.497-1.814-.36-.496-.847-.743-1.456-.743-.413 0-.79.137-1.124.41-.335.274-.556.634-.66 1.078-.05.207-.077.377-.077.51v1.257c0 .55.168 1.01.504 1.39.336.375.773.564 1.31.564.63 0 1.122-.244 1.472-.73.352-.485.528-1.126.528-1.922zm10.37-.06c0 1.28-.346 2.294-1.04 3.037-.618.662-1.39.994-2.31.994-.99 0-1.704-.356-2.138-1.07h-.03v3.97h-1.674V18.55c0-.806-.02-1.633-.062-2.48h1.47l.096 1.194h.03c.56-.9 1.406-1.35 2.543-1.35.89 0 1.63.352 2.226 1.053.592.705.89 1.63.89 2.777zm-1.704.06c0-.733-.166-1.338-.497-1.814-.362-.496-.847-.743-1.457-.743-.414 0-.788.137-1.125.41-.335.274-.554.634-.657 1.078-.05.207-.078.377-.078.51v1.257c0 .55.168 1.01.503 1.39.336.375.772.564 1.312.564.63 0 1.12-.244 1.472-.73.35-.485.527-1.126.527-1.922zm11.394.868c0 .89-.31 1.613-.928 2.172-.68.61-1.628.914-2.847.914-1.124 0-2.025-.217-2.707-.65l.388-1.396c.734.444 1.54.668 2.42.668.63 0 1.12-.144 1.474-.428.35-.284.526-.667.526-1.14 0-.426-.145-.783-.434-1.073-.29-.29-.77-.56-1.442-.81-1.83-.682-2.743-1.682-2.743-2.995 0-.86.32-1.563.96-2.112.64-.548 1.493-.823 2.56-.823.95 0 1.74.166 2.37.496l-.417 1.365c-.59-.32-1.256-.48-2-.48-.59 0-1.05.146-1.38.435-.278.258-.418.573-.418.947 0 .412.16.755.48 1.022.277.247.784.518 1.52.807.898.362 1.56.786 1.983 1.27.424.484.635 1.09.635 1.812zm5.535-3.347h-1.845v3.657c0 .93.325 1.395.976 1.395.3 0 .55-.024.745-.076l.045 1.272c-.33.124-.764.187-1.302.187-.66 0-1.178-.204-1.55-.606-.373-.402-.56-1.08-.56-2.03v-3.8h-1.1V16.07h1.1v-1.38l1.645-.497v1.876h1.845v1.255zm8.325 2.45c0 1.156-.33 2.107-.992 2.852-.693.765-1.613 1.147-2.76 1.147-1.107 0-1.987-.367-2.644-1.1-.656-.735-.984-1.66-.984-2.775 0-1.17.338-2.126 1.015-2.87.676-.744 1.588-1.115 2.735-1.115 1.105 0 1.995.367 2.667 1.1.644.712.963 1.63.963 2.76zm-1.736.052c0-.694-.148-1.29-.45-1.787-.35-.602-.853-.9-1.502-.9-.674 0-1.185.3-1.535.9-.302.497-.45 1.104-.45 1.82 0 .694.148 1.29.45 1.786.36.6.867.9 1.52.9.64 0 1.142-.306 1.503-.916.308-.505.464-1.108.464-1.803zm7.178-2.285c-.166-.03-.343-.048-.527-.048-.59 0-1.044.223-1.365.668-.28.393-.42.89-.42 1.487v3.953h-1.672l.016-5.162c0-.867-.02-1.658-.062-2.37h1.458l.062 1.44h.046c.177-.495.455-.895.837-1.194.372-.27.776-.402 1.21-.402.155 0 .295.01.42.03v1.598h-.003zm7.486 1.937c0 .3-.02.552-.06.758h-5.023c.02.744.262 1.315.73 1.708.422.35.97.525 1.642.525.743 0 1.422-.118 2.032-.355l.262 1.162c-.713.31-1.555.466-2.526.466-1.168 0-2.085-.344-2.753-1.03-.665-.688-1-1.61-1-2.768 0-1.136.312-2.083.934-2.837.65-.806 1.527-1.21 2.634-1.21 1.086 0 1.907.404 2.466 1.21.44.64.662 1.43.662 2.37zm-1.597-.434c.01-.497-.1-.926-.326-1.288-.29-.466-.733-.698-1.333-.698-.547 0-.99.228-1.332.684-.278.36-.443.796-.495 1.302h3.486zM38.22 6.712c0 .924-.278 1.62-.83 2.086-.514.432-1.242.647-2.186.647-.468 0-.87-.02-1.204-.06v-5.05c.438-.07.91-.107 1.417-.107.9 0 1.577.195 2.034.585.513.444.77 1.076.77 1.9zm-.868.022c0-.6-.158-1.058-.476-1.378-.317-.32-.78-.48-1.39-.48-.26 0-.48.018-.663.054v3.838c.1.016.286.023.556.023.628 0 1.114-.174 1.457-.525.343-.35.515-.86.515-1.53zm5.468.785c0 .568-.163 1.035-.488 1.4-.34.376-.792.564-1.356.564-.543 0-.976-.18-1.298-.542-.322-.36-.483-.814-.483-1.363 0-.574.166-1.044.5-1.41.332-.365.78-.548 1.343-.548.543 0 .98.18 1.31.54.315.35.472.804.472 1.357zm-.854.025c0-.342-.074-.634-.22-.88-.173-.294-.418-.44-.738-.44-.33 0-.582.146-.754.44-.148.246-.22.543-.22.895 0 .342.073.635.22.88.178.294.426.442.747.442.314 0 .562-.15.74-.45.15-.25.226-.545.226-.887zM48.99 5.7l-1.16 3.7h-.753l-.48-1.607c-.122-.4-.22-.8-.297-1.196h-.015c-.07.407-.17.805-.297 1.196l-.51 1.607h-.763l-1.09-3.7h.847l.418 1.758c.102.417.185.813.252 1.188h.015c.062-.31.163-.704.305-1.18l.525-1.767h.67l.503 1.728c.122.422.22.828.297 1.22h.022c.055-.38.14-.788.25-1.22l.45-1.73h.81zm4.265 3.7h-.823V7.28c0-.653-.248-.98-.746-.98-.244 0-.44.09-.595.27-.15.18-.228.39-.228.634V9.4h-.823V6.756c0-.325-.01-.678-.03-1.06h.723l.04.58h.02c.097-.18.24-.33.427-.447.223-.14.473-.21.746-.21.346 0 .633.113.86.336.286.274.428.683.428 1.227V9.4zm2.27 0H54.7V4h.822v5.4zm4.843-1.88c0 .568-.163 1.035-.487 1.4-.34.376-.792.564-1.355.564-.545 0-.976-.18-1.3-.542-.32-.36-.48-.814-.48-1.363 0-.574.164-1.044.497-1.41.334-.365.78-.548 1.344-.548.544 0 .98.18 1.312.54.313.35.47.804.47 1.357zm-.854.025c0-.342-.074-.634-.22-.88-.173-.294-.42-.44-.737-.44-.332 0-.583.146-.756.44-.146.246-.22.543-.22.895 0 .342.074.635.22.88.18.294.43.442.748.442.314 0 .56-.15.737-.45.153-.25.23-.545.23-.887zM64.35 9.4h-.74l-.06-.426h-.022c-.254.34-.613.51-1.083.51-.35 0-.632-.11-.843-.335-.193-.203-.29-.456-.29-.754 0-.452.188-.797.567-1.036.378-.24.91-.356 1.596-.35v-.07c0-.487-.256-.73-.77-.73-.366 0-.687.092-.965.274l-.167-.54c.344-.213.77-.32 1.27-.32.97 0 1.453.51 1.453 1.532V8.52c0 .367.02.66.055.88zm-.854-1.272v-.57c-.907-.017-1.36.232-1.36.746 0 .193.05.337.156.433.106.097.24.145.403.145.18 0 .35-.057.503-.17.154-.116.25-.26.284-.44.01-.04.014-.088.014-.144zm5.53 1.272h-.73l-.037-.594h-.025c-.233.452-.63.68-1.19.68-.444 0-.815-.176-1.11-.526-.294-.35-.44-.805-.44-1.363 0-.6.158-1.084.478-1.455.31-.346.69-.518 1.144-.518.496 0 .844.167 1.042.502h.015V4h.823v4.402c0 .362.01.693.028.998zm-.852-1.56V7.22c0-.106-.007-.193-.023-.258-.044-.2-.145-.365-.296-.5-.153-.133-.337-.2-.55-.2-.308 0-.548.12-.725.365-.176.243-.265.555-.265.936 0 .365.085.663.252.89.18.244.42.366.72.366.27 0 .487-.1.65-.305.158-.188.237-.414.237-.678zm7.89-.32c0 .568-.162 1.035-.487 1.4-.342.376-.792.564-1.355.564-.544 0-.976-.18-1.3-.542-.322-.36-.483-.814-.483-1.363 0-.574.164-1.044.498-1.41.333-.365.78-.548 1.345-.548.542 0 .98.18 1.31.54.313.35.47.804.47 1.357zm-.853.025c0-.342-.072-.634-.22-.88-.173-.294-.418-.44-.738-.44-.33 0-.58.146-.755.44-.146.246-.22.543-.22.895 0 .342.073.635.22.88.18.294.426.442.747.442.314 0 .56-.15.74-.45.152-.25.227-.545.227-.887zM80.49 9.4h-.822V7.28c0-.653-.248-.98-.746-.98-.244 0-.44.09-.594.27-.152.18-.23.39-.23.634V9.4h-.822V6.756c0-.325-.01-.678-.03-1.06h.723l.04.58h.02c.098-.18.24-.33.428-.447.224-.14.473-.21.747-.21.345 0 .632.113.86.336.285.274.426.683.426 1.227V9.4zm5.537-3.085h-.904v1.798c0 .457.16.685.48.685.146 0 .27-.012.365-.038l.02.624c-.16.06-.374.092-.638.092-.325 0-.577-.1-.76-.297-.185-.2-.275-.532-.275-1V6.316h-.54V5.7h.54v-.68l.807-.243v.92h.904v.618zM90.383 9.4h-.824V7.296c0-.663-.248-.995-.745-.995-.382 0-.643.193-.785.578-.024.08-.04.18-.04.296V9.4h-.82V4h.82v2.23h.017c.26-.406.63-.608 1.11-.608.343 0 .625.11.848.334.28.28.42.694.42 1.242V9.4h-.002zm4.493-2.026c0 .148-.01.272-.03.374H92.38c.01.366.128.645.355.837.21.173.478.26.808.26.365 0 .698-.06.997-.176l.13.57c-.35.153-.764.23-1.242.23-.573 0-1.024-.17-1.352-.506-.328-.338-.49-.79-.49-1.36 0-.557.15-1.022.456-1.393.32-.395.75-.592 1.295-.592.532 0 .938.197 1.21.593.22.314.33.702.33 1.164zm-.785-.213c.008-.244-.047-.454-.158-.63-.143-.23-.36-.344-.655-.344-.268 0-.486.112-.654.335-.137.18-.218.392-.243.64h1.71z" id="Shape" fill="#FFF"/><path d="M23.612 14.653c-.022-2.53 2.072-3.76 2.168-3.82-1.187-1.728-3.025-1.965-3.672-1.984-1.544-.164-3.042.923-3.83.923-.802 0-2.013-.908-3.32-.882-1.68.027-3.25 1-4.113 2.51-1.78 3.08-.453 7.607 1.252 10.097.853 1.22 1.85 2.58 3.154 2.533 1.277-.053 1.753-.813 3.293-.813 1.526 0 1.973.813 3.303.782 1.37-.022 2.232-1.226 3.054-2.456.986-1.396 1.38-2.774 1.397-2.845-.032-.01-2.658-1.015-2.685-4.047zM21.1 7.21c.686-.857 1.155-2.025 1.025-3.21-.994.044-2.235.687-2.95 1.527-.634.74-1.2 1.952-1.053 3.092 1.117.082 2.262-.565 2.978-1.41z" fill="#FFF"/></g></svg>
