<?xml version="1.0"?>
<svg xmlns="http://www.w3.org/2000/svg" xmlns:xlink="http://www.w3.org/1999/xlink" width="119" height="20" viewBox="0 0 119 20">
<title>beats</title>
<defs>
    <linearGradient x1="26.61%" y1="73.503%" x2="71.177%" y2="28.935%" id="b">
        <stop stop-color="#89278E" offset="0%"/>
        <stop stop-color="#A12377" offset="14.57%"/>
        <stop stop-color="#BE1E5B" offset="36.39%"/>
        <stop stop-color="#D21B47" offset="58.11%"/>
        <stop stop-color="#DF193B" offset="79.46%"/>
        <stop stop-color="#E31837" offset="100%"/>
    </linearGradient>
    <linearGradient x1="32.287%" y1="67.71%" x2="67.641%" y2="32.356%" id="e">
        <stop stop-color="#89278E" offset="0%"/>
        <stop stop-color="#A12377" offset="14.57%"/>
        <stop stop-color="#BE1E5B" offset="36.39%"/>
        <stop stop-color="#D21B47" offset="58.11%"/>
        <stop stop-color="#DF193B" offset="79.46%"/>
        <stop stop-color="#E31837" offset="100%"/>
    </linearGradient>
</defs>
<g fill="none" fill-rule="evenodd">
    <g id="Clipped" transform="translate(30 1.667)">
        <mask id="c" fill="#fff">
          <path d="M85.866 12.05v.138h.386v1.015h.154v-1.015h.387v-.137h-.927zm1.942 0l-.325.974h-.003l-.326-.973h-.222v1.152h.15v-.68c0-.033-.003-.18-.003-.286h.002l.322.966h.152l.322-.967h.003l-.002.288v.68h.15V12.05h-.22zM52.322 3.463c-.192 0-.376.107-.467.29L49.93 7.656c-.054.107-.214.108-.267 0l-1.925-3.903c-.09-.184-.276-.29-.467-.29h-2.425c-.165 0-.298.132-.298.297v9.148c0 .164.133.297.298.297h2.216c.165 0 .298-.133.298-.297v-3.82c0-.033.027-.06.06-.06.023 0 .044.014.053.034l2.193 4.444c.014.028.037.052.067.067.074.037.163.007.2-.067l2.19-4.444c.01-.02.03-.033.054-.033.033-.002.06.025.06.058v3.82c0 .164.133.297.298.297h2.216c.164 0 .297-.133.297-.297V3.76c0-.165-.133-.298-.297-.298h-2.426zm9.077 0c-.166 0-.3.133-.3.298v5.79c0 .608-.492 1.1-1.1 1.1-.607 0-1.1-.492-1.1-1.1V3.76c0-.165-.133-.298-.297-.298h-2.216c-.165 0-.298.133-.298.298v5.66c0 2.162 1.75 3.913 3.91 3.913s3.913-1.75 3.913-3.912V3.76c0-.165-.134-.298-.298-.298H61.4zm11.574 0c-.164 0-.298.133-.298.298v9.148c0 .164.134.297.298.297h2.216c.164 0 .297-.133.297-.297V3.76c0-.165-.133-.298-.297-.298h-2.216zM40.037 3.36c-.65.076-1.252.332-1.692.72-.512.45-.783 1.04-.783 1.708 0 .764.32 1.382.95 1.836.516.37 1.183.6 1.828.82 1.515.522 2.435.93 2.435 2.208 0 1.158-1.09 1.9-2.068 1.9-.99 0-2.077-.308-2.494-1.633-.06-.178-.227-.306-.424-.306-.247 0-.447.2-.447.447 0 .05.007.095.022.138.217.693.625 1.23 1.218 1.6.707.442 1.52.535 2.077.535 1.627 0 3-1.228 3-2.68 0-.905-.34-1.6-1.04-2.127-.57-.43-1.293-.68-1.992-.92-1.352-.464-2.18-.8-2.18-1.818 0-.67.447-1.507 1.688-1.66.9-.11 1.8.288 2.173 1.174.066.16.223.27.407.27.243 0 .44-.197.44-.44 0-.063-.01-.122-.034-.175-.23-.527-.61-.95-1.123-1.235-.455-.254-.993-.387-1.55-.387-.137 0-.275.008-.413.024zM64.8 6.574c0 .644.213 1.556 1.23 2.24.537.363 1.155.564 1.75.768.577.198 1.19.36 1.19.79 0 .352-.326.537-.666.534-.617-.007-.87-.375-.936-.8v-.002c-.023-.142-.146-.25-.294-.25h-2.1c-.164 0-.297.133-.297.297v.02c.087 1.232.68 2.19 1.695 2.72.572.297 1.233.442 2.022.442.75 0 1.53-.253 2.146-.695.806-.582 1.25-1.413 1.25-2.344 0-.694-.223-1.677-1.28-2.416-.582-.408-1.272-.638-1.88-.842-.325-.108-1.02-.294-1.02-.79 0-.293.248-.497.636-.49.412.006.757.324.844.812v.002c.026.138.147.242.292.242h2.103c.165 0 .298-.134.298-.298v-.022c-.09-1.26-.697-2-1.213-2.408-.787-.62-1.698-.75-2.324-.75-1.67 0-3.447 1.134-3.447 3.24zM15.945 4.108c2.11 0 3.85 1.633 4.085 3.737h-8.17c.236-2.104 1.975-3.737 4.086-3.737zm-5 4.226c0 2.76 2.24 5 5 5 1.834 0 3.437-.99 4.307-2.46v-.002c.035-.062.055-.134.055-.21 0-.237-.192-.43-.43-.43-.158 0-.296.088-.37.217-.712 1.26-2.04 2.11-3.562 2.11-2.18 0-3.96-1.74-4.104-3.94H20.5c.244 0 .442-.2.442-.444v-.003c-.084-2.687-2.29-4.84-4.996-4.84-2.76.002-5 2.24-5 5zm11.77 0c0-2.334 1.84-4.226 4.112-4.226 2.27 0 4.113 1.892 4.113 4.226S29.1 12.56 26.83 12.56c-2.272 0-4.113-1.892-4.113-4.226zm-.887 0c0 2.76 2.237 5 4.998 5 1.705 0 3.21-.855 4.113-2.158v1.586c0 .245.2.443.444.443.245 0 .443-.198.443-.443V8.334c0-2.76-2.238-5-5-5-2.76 0-4.998 2.24-4.998 5zm54.544 0c0 2.76 2.238 5 5 5 1.37 0 2.613-.553 3.516-1.447.055-.054.09-.13.09-.213 0-.085-.036-.16-.093-.215v-.002L83.37 9.94c-.054-.053-.128-.086-.21-.086-.085 0-.162.036-.216.092l-.002.003c-.397.432-.954.7-1.57.7-1.208 0-2.187-1.037-2.187-2.316 0-1.28.98-2.317 2.188-2.317.614 0 1.168.268 1.566.7.055.06.133.097.22.097.082 0 .157-.034.21-.09l1.522-1.52c.054-.053.087-.128.087-.21 0-.083-.035-.157-.09-.21-.902-.896-2.145-1.45-3.517-1.45-2.76 0-5 2.24-5 5zm-75.426 0C.948 6 2.788 4.108 5.06 4.108c2.272 0 4.114 1.892 4.114 4.226S7.332 12.56 5.06 12.56C2.79 12.56.95 10.668.95 8.334zM.06.542v7.792c0 2.76 2.24 5 5 5 2.762 0 5-2.24 5-5s-2.238-5-5-5c-1.704 0-3.21.855-4.112 2.158V.542C.948.297.748.1.505.1.26.1.06.296.06.54zm33.316 0v10.04c0 1.52 1.222 2.75 2.775 2.75.232 0 .418-.186.418-.416 0-.23-.186-.418-.417-.418-1.043 0-1.887-.857-1.887-1.914V4.236h1.918c.215 0 .388-.173.388-.387 0-.214-.173-.388-.387-.388h-1.917V.542c0-.245-.2-.443-.444-.443-.245 0-.444.197-.444.442z" id="a"/>
        </mask>
        <path d="M-6.694 6.855l50.74-50.74 50.737 50.74-50.738 50.738-50.74-50.738z" id="Shape" fill="url(#b)" mask="url(#c)"/>
    </g>
    <g>
        <mask id="f" fill="#fff">
          <path d="M8.565 8.25v3.5c0 .414.336.75.75.75.167 0 .322-.055.447-.148l2.395-1.74c.19-.136.315-.36.315-.612s-.124-.475-.315-.61L9.762 7.65c-.125-.094-.28-.15-.447-.15-.414 0-.75.337-.75.75M7.065.46V6c.836-.627 1.875-1 3-1 2.76 0 4.998 2.24 4.998 5s-2.237 5-4.998 5c-2.76 0-5-2.24-5-5V1.34C2.08 3.07.07 6.3.07 10c0 5.52 4.476 9.997 9.997 9.997 5.52 0 9.997-4.476 9.997-9.997 0-5.52-4.476-9.997-9.997-9.997-1.046 0-2.053.16-3 .458" id="d"/>
        </mask>
        <path d="M-9.93 10L10.066-9.994 30.06 10 10.064 29.994-9.93 10z" fill="url(#e)" mask="url(#f)"/>
    </g>
</g>
</svg>
