<svg width="16" height="16" viewBox="0 0 16 16" xmlns="http://www.w3.org/2000/svg"><title>GOOGLE</title><g fill="none" fill-rule="evenodd"><rect fill="#DD463B" width="16" height="16" rx="3"/><path d="M12.8 5.677h-1.422V7.1h-.71V5.676H9.244v-.71h1.422V3.542h.71v1.423H12.8v.71zM7.415 3.662c.574.23.88.933.88 1.652 0 .604-.32 1.123-.77 1.492-.44.362-.524.512-.524.82 0 .26.473.705.72.888.72.534.953 1.03.953 1.858 0 1.033-.954 2.06-2.68 2.06-1.515 0-2.793-.646-2.793-1.68 0-1.047 1.166-2.06 2.68-2.06.165 0 .316-.003.473-.003-.207-.213-.37-.472-.37-.79 0-.19.056-.373.138-.535-.082.006-.166.008-.253.008-1.243 0-2.077-.927-2.077-2.078C3.79 4.17 4.94 3.2 6.163 3.2H8.89l-.61.462h-.865zM6.168 8.96c-1.046-.013-1.983.668-1.983 1.486 0 .835.755 1.53 1.802 1.53 1.47 0 1.984-.653 1.984-1.487 0-.102-.01-.2-.032-.296-.115-.472-.523-.706-1.09-1.12-.208-.07-.436-.112-.68-.115zm1.146-3.59c-.12-.966-.79-1.743-1.492-1.765-.7-.022-1.173.718-1.052 1.686.12.968.79 1.77 1.492 1.792.702.02 1.173-.744 1.052-1.71z" fill="#FFF"/></g></svg>
