<svg width="88" height="30" viewBox="0 0 88 30" xmlns="http://www.w3.org/2000/svg"><title>google app</title><defs><linearGradient x1="60.1%" y1="91.98%" x2="33.5%" y2="-59.246%" id="a"><stop stop-color="#D7E69D" offset="0%"/><stop stop-color="#94C4AA" offset="44.56%"/><stop stop-color="#01A4B6" offset="100%"/></linearGradient><linearGradient x1="-31.986%" y1="-128.818%" x2="80.472%" y2="114.258%" id="b"><stop stop-color="#ED277B" offset="0%"/><stop stop-color="#EE2F7C" offset="1.92%"/><stop stop-color="#F7BD81" offset="70.39%"/><stop stop-color="#FEEB74" offset="100%"/></linearGradient><linearGradient x1="50.907%" y1="74.718%" x2="-.008%" y2="-29.439%" id="c"><stop stop-color="#89CFBD" offset="0%"/><stop stop-color="#7DBEBB" offset="9.07%"/><stop stop-color="#457CAC" offset="53.96%"/><stop stop-color="#1C5AA2" offset="85.23%"/><stop stop-color="#084D9F" offset="100%"/></linearGradient><linearGradient x1="119.297%" y1="35.68%" x2="-22.991%" y2="61.185%" id="d"><stop stop-color="#F04A2B" offset="0%"/><stop stop-color="#B54F6B" offset="47.04%"/><stop stop-color="#8B5191" offset="83.53%"/><stop stop-color="#7851A1" offset="100%"/></linearGradient></defs><g fill="none" fill-rule="evenodd"><path d="M88 25.55c0 2.648-1.964 4.294-4.635 4.294H4.84c-2.673 0-4.84-2.147-4.84-4.796V4.794C0 2.147 2.167 0 4.84 0h78.525C86.035 0 88 2.147 88 4.794V25.55z" id="Shape" fill="#010101"/><path d="M63.278 21.797v3.485h-.692v-8.868h.692v1.01c.45-.653 1.275-1.17 2.23-1.17 1.717 0 2.874 1.3 2.874 3.36 0 2.05-1.156 3.377-2.873 3.377-.903.002-1.712-.463-2.232-1.193zm4.36-2.18c0-1.554-.81-2.738-2.245-2.738-.892 0-1.744.7-2.115 1.31v2.838c.37.612 1.223 1.34 2.115 1.34 1.436 0 2.246-1.196 2.246-2.752zm1.69 3.216v-8.867h.692v8.867h-.693zm8.457 1.875c.147.066.4.107.56.107.423 0 .718-.174.982-.785l.506-1.144-2.726-6.472h.77l2.34 5.61 2.317-5.61h.783l-3.326 7.83c-.344.808-.887 1.195-1.633 1.195-.224 0-.518-.04-.69-.094l.118-.638zm-2.022-1.895c-.047-.223-.08-.42-.106-.582-.02-.162-.033-.33-.033-.5-.237.348-.573.638-1.002.867-.43.23-.838.342-1.4.342-.673 0-1.195-.166-1.57-.503-.372-.336-.56-.792-.56-1.368 0-.577.272-1.044.813-1.4.54-.36 1.24-.537 2.105-.537h1.614v-.8c0-.46-.157-.82-.47-1.082-.313-.26-.753-.393-1.325-.393-.523 0-.946.12-1.268.356-.32.24-.48.54-.48.9h-.71l-.012-.035c-.026-.486.195-.91.667-1.277.47-.367 1.085-.55 1.842-.55.752 0 1.364.18 1.824.543.46.358.69.878.69 1.556v3.165c0 .227.01.447.04.66.03.216.075.43.138.637h-.8zm-2.456-.503c.588 0 1.01-.132 1.443-.392.428-.258.72-.594.873-1.002v-1.233H74c-.618 0-1.13.137-1.535.413-.404.276-.61.61-.61 1 0 .365.13.657.388.878.26.224.614.336 1.064.336zM59.444 21.67l-.655.617c-.15.083-.302.18-.452.248-.455.207-.916.258-1.327.258-.437 0-1.12-.028-1.82-.534-.972-.684-1.395-1.86-1.395-2.885 0-2.12 1.727-3.16 3.135-3.16.493 0 .998.123 1.41.382.683.452.86 1.04.958 1.354l-3.217 1.3-1.053.083c.342 1.738 1.52 2.75 2.82 2.75.648 0 1.13-.21 1.573-.43 0 0 .088-.046.024.017zm-1.94-3.46c.26-.094.397-.176.397-.367 0-.546-.617-1.176-1.355-1.176-.546 0-1.573.425-1.573 1.904 0 .23.028.476.042.723l2.49-1.082zm-4.785 3.354c0 .532.094.614.544.657.234.028.468.04.7.068l-.506.3h-2.41c.316-.41.37-.45.37-.722v-.307l-.006-8.135h-1.065l1.024-.494h1.958c-.424.247-.55.396-.606.874l-.003 7.76zm-3.74-4.68c.314.26.97.808.97 1.847 0 1.014-.57 1.492-1.147 1.944-.177.178-.384.372-.384.67 0 .303.206.466.355.59l.495.38c.6.507 1.15.973 1.15 1.917 0 1.288-1.246 2.585-3.6 2.585-1.983 0-2.942-.943-2.942-1.955 0-.493.245-1.19 1.054-1.67.85-.518 1.998-.588 2.614-.627-.193-.25-.412-.51-.412-.932 0-.232.07-.37.137-.533-.148.014-.3.03-.436.03-1.452 0-2.273-1.084-2.273-2.15 0-.63.29-1.327.878-1.833.78-.642 1.71-.754 2.448-.754h2.82l-.876.495h-.85zm-.97 6.076c-.11-.014-.18-.014-.314-.014-.123 0-.862.027-1.435.22-.3.11-1.177.437-1.177 1.41 0 .968.945 1.67 2.407 1.67 1.314 0 2.012-.63 2.012-1.478 0-.7-.453-1.07-1.49-1.808zm.394-2.6c.317-.316.344-.752.344-1 0-.983-.587-2.517-1.724-2.517-.355 0-.74.178-.958.454-.23.285-.3.655-.3 1.01 0 .916.534 2.436 1.71 2.436.343 0 .712-.167.928-.383zm-7.906 2.406c-2.175 0-3.338-1.693-3.338-3.226 0-1.792 1.462-3.326 3.543-3.326 2.01 0 3.27 1.575 3.27 3.23 0 1.613-1.244 3.322-3.475 3.322zm1.71-1.107c.332-.44.412-.985.412-1.518 0-1.205-.574-3.503-2.272-3.503-.45 0-.905.176-1.232.464-.535.478-.63 1.08-.63 1.67 0 1.35.668 3.58 2.327 3.58.535 0 1.08-.257 1.396-.695zm-8.992 1.106c-2.175 0-3.337-1.693-3.337-3.226 0-1.792 1.463-3.326 3.543-3.326 2.01 0 3.268 1.575 3.268 3.23 0 1.613-1.242 3.322-3.474 3.322zm1.712-1.107c.328-.44.41-.985.41-1.518 0-1.205-.576-3.503-2.27-3.503-.454 0-.904.176-1.232.464-.536.478-.63 1.08-.63 1.67 0 1.35.67 3.58 2.326 3.58.535 0 1.08-.257 1.396-.695zm-5.918.632l-1.835.42c-.742.117-1.41.22-2.116.22-3.54 0-4.888-2.604-4.888-4.642 0-2.49 1.91-4.797 5.182-4.797.69 0 1.357.1 1.964.266.96.27 1.41.603 1.692.798l-1.066 1.013-.45.1.32-.51c-.433-.424-1.23-1.206-2.744-1.206-2.024 0-3.55 1.537-3.55 3.784 0 2.412 1.743 4.68 4.538 4.68.822 0 1.245-.164 1.628-.318v-2.068l-1.937.104 1.026-.55h2.718l-.333.32c-.09.075-.1.1-.126.204-.013.117-.026.488-.026.618v1.564h.002zM20.172 6.377c0-1.362 1.013-2.24 2.272-2.24.844 0 1.396.403 1.74.896l-.617.357c-.234-.324-.643-.577-1.123-.577-.856 0-1.493.65-1.493 1.564 0 .902.638 1.564 1.494 1.564.44 0 .83-.2 1.025-.388v-.67H22.17v-.667h2.05V7.83c-.422.475-1.032.793-1.778.793-1.26 0-2.272-.89-2.272-2.246zm4.99 2.162V4.21h2.966v.668H25.92v1.116h2.162v.668h-2.16V7.87h2.206v.668h-2.966zm5.067 0V4.877h-1.312V4.21h3.38v.668h-1.31v3.66h-.76zm4.708 0V4.21h.76v4.33h-.76zm2.873 0V4.877H36.5V4.21h3.38v.668h-1.31v3.66h-.76zm4.522-2.163c0-1.29.915-2.24 2.213-2.24 1.29 0 2.213.95 2.213 2.24 0 1.292-.922 2.24-2.213 2.24-1.298 0-2.213-.948-2.213-2.24zm3.648 0c0-.895-.565-1.564-1.434-1.564-.876 0-1.434.67-1.434 1.564 0 .89.558 1.564 1.434 1.564.87 0 1.434-.673 1.434-1.563zm4.682 2.162l-2.258-3.097V8.54h-.76V4.21h.78l2.212 2.997V4.21h.76v4.33h-.734z" id="Shape" fill="#FFF"/><path d="M11.168 19.083l2.22-2.22-2.22 2.22-7.086-7.087 7.086 7.088L4.07 26.18l7.098-7.096 2.23 2.23-2.23-2.23z" id="Shape"/><path d="M9.767 4.966L1.115.208C.87.074.643.043.46.1l7.087 7.086 2.22-2.22z" id="Shape" fill="url(#a)" transform="translate(3.621 11.897)"/><path d="M9.778 9.416l2.953-1.624c.6-.33.6-.87 0-1.197l-2.963-1.63-2.22 2.22 2.23 2.23z" id="Shape" fill="url(#b)" transform="translate(3.621 11.897)"/><path d="M.46.1C.198.18.027.447.027.85v12.685c0 .398.167.66.422.748l7.097-7.098L.46.1z" id="Shape" fill="url(#c)" transform="translate(3.621 11.897)"/><path d="M.45 14.284c.184.062.415.032.665-.104l8.662-4.764-2.23-2.23L.45 14.284z" fill="url(#d)" transform="translate(3.621 11.897)"/></g></svg>
