<?xml version="1.0" encoding="UTF-8" standalone="no"?>
<svg width="146px" height="108px" viewBox="0 0 146 108" version="1.1" xmlns="http://www.w3.org/2000/svg" xmlns:xlink="http://www.w3.org/1999/xlink">
    <!-- Generator: Sketch 3.8.3 (29802) - http://www.bohemiancoding.com/sketch -->
    <title>Group 2</title>
    <desc>Created with Sketch.</desc>
    <defs></defs>
    <g id="Page-1" stroke="none" stroke-width="1" fill="none" fill-rule="evenodd">
        <g id="d_CRE-238-No-map-treatment" transform="translate(-220.000000, -318.000000)" fill="#768892">
            <g id="no_seat_map_available_image" transform="translate(199.000000, 272.000000)">
                <g id="Group-2" transform="translate(20.000000, 44.000000)">
                    <g id="happy-ticket" transform="translate(111.941325, 55.626544) rotate(13.000000) translate(-111.941325, -55.626544) translate(86.441325, 5.126544)">
                        <path d="M38.1411809,63.3506852 L43.1411809,63.3506852 L43.1411809,65.8506852 L38.1411809,65.8506852 L38.1411809,63.3506852 L38.1411809,63.3506852 Z M28.1411809,63.3506852 L33.1411809,63.3506852 L33.1411809,65.8506852 L28.1411809,65.8506852 L28.1411809,63.3506852 L28.1411809,63.3506852 Z M25.6411809,30.8506853 C22.516181,30.8506852 21.8911803,27.1006851 21.8911806,27.1006852 C25.6411808,33.3506853 29.3911809,27.1006854 29.3911809,27.1006854 C29.3911809,27.1006854 28.7661808,30.8506853 25.6411809,30.8506853 Z M18.1411809,63.3506852 L23.1411809,63.3506852 L23.1411809,65.8506852 L18.1411809,65.8506852 L18.1411809,63.3506852 L18.1411809,63.3506852 Z M8.14118091,63.3506852 L13.1411809,63.3506852 L13.1411809,65.8506852 L8.14118091,65.8506852 L8.14118091,63.3506852 L8.14118091,63.3506852 Z M16.3736809,19.0831852 C17.3511809,18.1056852 18.9311809,18.1056852 19.9086809,19.0831852 C20.8861809,20.0606852 20.8861809,21.6406852 19.9086809,22.6181852 C18.9311809,23.5956852 17.3511809,23.5956852 16.3736809,22.6181852 C15.3961809,21.6406852 15.3961809,20.0606852 16.3736809,19.0831852 L16.3736809,19.0831852 Z M31.3736809,19.0831852 C32.3511809,18.1056852 33.9311809,18.1056852 34.9086809,19.0831852 C35.8861809,20.0606852 35.8861809,21.6406852 34.9086809,22.6181852 C33.9311809,23.5956852 32.3511809,23.5956852 31.3736809,22.6181852 C30.3961809,21.6406852 30.3961809,20.0606852 31.3736809,19.0831852 L31.3736809,19.0831852 Z M50.6411809,63.3506852 L50.6411809,6.56318524 C50.6411809,3.40818524 48.4036809,0.850685239 45.6411809,0.850685239 L31.8911809,0.850685239 C31.8911809,4.30318524 29.0936809,7.10068524 25.6411809,7.10068524 C22.1886809,7.10068524 19.3911809,4.30318524 19.3911809,0.850685239 L5.64118091,0.850685239 C2.88118091,0.850685239 0.641180907,3.40818524 0.641180907,6.56318524 L0.641180907,63.3506852 L3.14118091,63.3506852 L3.14118091,65.8506852 L0.641180907,65.8506852 L0.641180907,95.1381852 C0.641180907,98.2931852 2.88118091,100.850685 5.64118091,100.850685 L19.3911809,100.850685 C19.3911809,97.3981852 22.1886809,94.6006852 25.6411809,94.6006852 C29.0936809,94.6006852 31.8911809,97.3981852 31.8911809,100.850685 L45.6411809,100.850685 C48.4036809,100.850685 50.6411809,98.2931852 50.6411809,95.1381852 L50.6411809,65.8506852 L48.1411809,65.8506852 L48.1411809,63.3506852 L50.6411809,63.3506852 L50.6411809,63.3506852 Z" id="Shape"></path>
                    </g>
                    <g id="happy-ticket-copy" transform="translate(36.000000, 56.000000) scale(-1, 1) rotate(13.000000) translate(-36.000000, -56.000000) translate(11.000000, 6.000000)">
                        <path d="M37.5,62.5 L42.5,62.5 L42.5,65 L37.5,65 L37.5,62.5 L37.5,62.5 Z M27.5,62.5 L32.5,62.5 L32.5,65 L27.5,65 L27.5,62.5 L27.5,62.5 Z M25,30 C21.8750001,30 21.2499994,26.2499998 21.2499997,26.25 C24.9999999,32.5000001 28.75,26.2500001 28.75,26.2500001 C28.75,26.2500001 28.1249998,30.0000001 25,30 Z M17.5,62.5 L22.5,62.5 L22.5,65 L17.5,65 L17.5,62.5 L17.5,62.5 Z M7.5,62.5 L12.5,62.5 L12.5,65 L7.5,65 L7.5,62.5 L7.5,62.5 Z M15.7325,18.2325 C16.71,17.255 18.29,17.255 19.2675,18.2325 C20.245,19.21 20.245,20.79 19.2675,21.7675 C18.29,22.745 16.71,22.745 15.7325,21.7675 C14.755,20.79 14.755,19.21 15.7325,18.2325 L15.7325,18.2325 Z M30.7325,18.2325 C31.71,17.255 33.29,17.255 34.2675,18.2325 C35.245,19.21 35.245,20.79 34.2675,21.7675 C33.29,22.745 31.71,22.745 30.7325,21.7675 C29.755,20.79 29.755,19.21 30.7325,18.2325 L30.7325,18.2325 Z M50,62.5 L50,5.7125 C50,2.5575 47.7625,3.55271368e-14 45,3.55271368e-14 L31.25,3.55271368e-14 C31.25,3.4525 28.4525,6.25 25,6.25 C21.5475,6.25 18.75,3.4525 18.75,3.55271368e-14 L5,3.55271368e-14 C2.24,3.55271368e-14 0,2.5575 0,5.7125 L0,62.5 L2.5,62.5 L2.5,65 L0,65 L0,94.2875 C0,97.4425 2.24,100 5,100 L18.75,100 C18.75,96.5475 21.5475,93.75 25,93.75 C28.4525,93.75 31.25,96.5475 31.25,100 L45,100 C47.7625,100 50,97.4425 50,94.2875 L50,65 L47.5,65 L47.5,62.5 L50,62.5 L50,62.5 Z" id="Shape"></path>
                    </g>
                </g>
            </g>
        </g>
    </g>
</svg>
