<svg width="30" height="30" viewBox="0 0 30 30" xmlns="http://www.w3.org/2000/svg" xmlns:xlink="http://www.w3.org/1999/xlink">
  <title>
    Facebook Icon
  </title>
  <desc>
    Facebook icon in a solid circle
  </desc>
<defs><path id="a" d="M0 .843h29.157V30H0"/></defs><g fill="" fill-rule="evenodd"><g><mask id="b" fill="none"><use xlink:href="#a"/></mask><path d="M14.578 30c8.05 0 14.578-6.526 14.578-14.578 0-8.05-6.527-14.58-14.578-14.58C6.528.843 0 7.373 0 15.423 0 23.474 6.527 30 14.578 30" fill="" mask="url(#b)"/></g><path d="M11.06 12.953h1.508V11.49c0-.647.016-1.644.486-2.26.494-.653 1.173-1.098 2.34-1.098 1.9 0 2.7.272 2.7.272l-.375 2.233s-.63-.182-1.216-.182c-.585 0-1.11.21-1.11.796v1.703h2.403l-.167 2.18h-2.237v7.578h-2.825v-7.576H11.06v-2.18z" fill="#FFFFFF"/></g></svg>