<svg xmlns="http://www.w3.org/2000/svg" width="27" height="27" viewBox="0 0 27 27">
  <title>
    Printer Icon
  </title>
  <desc>
    Printer
  </desc>
<path fill="" d="M23.142 12.536c-.533 0-.964-.43-.964-.964s.43-.966.964-.966c.533 0 .965.433.965.966s-.433.964-.965.964zM25 8H2C.797 8 0 8.58 0 9.643V20.25C0 21.316.934 22 2 22h2v-6c.02-.958.14-1.027 2-1h15c1.72.016 2-.167 2 1v6h2c1.065 0 2-.684 2-1.75V9.643C27 8.58 26.265 8 25 8zm-6.197 11.286H8.195c-.266 0-.482-.215-.482-.482 0-.265.217-.48.482-.48h10.607c.266 0 .482.215.482.48 0 .267-.216.482-.48.482zm-11.09 1.93c0-.267.217-.483.482-.483h8.68c.266 0 .48.216.48.482s-.213.482-.48.482h-8.68c-.265 0-.482-.216-.482-.482zm11.09 2.89H8.195c-.266 0-.482-.214-.482-.48 0-.267.217-.483.482-.483h10.607c.266 0 .482.215.482.482s-.216.482-.48.482zM21 16H6c-.532 0-1 .375-1 1l.008 9.1c-.008.494.244.9.776.9h15.43c.63.03.755-.375.786-1v-9c.03-.75-.466-1-1-1zm1-15c0-.533-.253-1-.787-1H5.783C5.254 0 5 .467 5 1v6h17V1z"/></svg>