<svg xmlns="http://www.w3.org/2000/svg" width="11" height="19" viewBox="0 0 11 19">
  <title>
    Pin Drop
  </title>
  <desc>
    Filled pin drop icon with circle in the middle
  </desc>
  <path d="M0 5.963c0 1.087.273 2.103.724 2.98l4.778 9.44 4.752-9.44c.48-.876.752-1.893.752-2.98C11.006 2.67 8.543 0 5.503 0S0 2.67 0 5.963zM5.497 7.96c-1.374 0-2.487-1.114-2.487-2.487s1.113-2.487 2.487-2.487S7.984 4.1 7.984 5.473 6.87 7.96 5.497 7.96z"/>
  <path fill-opacity=".75" d="M0 5.963c0 1.087.273 2.103.724 2.98l4.778 9.44 4.752-9.44c.48-.876.752-1.893.752-2.98C11.006 2.67 8.543 0 5.503 0S0 2.67 0 5.963zM5.497 7.96c-1.374 0-2.487-1.114-2.487-2.487s1.113-2.487 2.487-2.487S7.984 4.1 7.984 5.473 6.87 7.96 5.497 7.96z"/>
</svg>
