<?xml version="1.0" encoding="UTF-8" standalone="no"?>
<svg width="22px" height="22px" viewBox="0 0 22 22" version="1.1" xmlns="http://www.w3.org/2000/svg" xmlns:xlink="http://www.w3.org/1999/xlink" xmlns:sketch="http://www.bohemiancoding.com/sketch/ns">
    <!-- Generator: Sketch 3.3.3 (12072) - http://www.bohemiancoding.com/sketch -->
    <title>minus</title>
    <desc>Created with Sketch.</desc>
    <defs></defs>
    <g id="mobile" stroke="none" stroke-width="1" fill="" fill-rule="evenodd" sketch:type="MSPage">
        <g id="1_m_savedcard_v2" sketch:type="MSArtboardGroup" transform="translate(-15.000000, -1224.000000)" fill="#000000">
            <g id="order-summary-sticky-copy-2" sketch:type="MSLayerGroup" transform="translate(0.000000, 1203.000000)">
                <g id="minus" transform="translate(15.000000, 21.000000)" sketch:type="MSShapeGroup">
                    <path d="M11,1.1 C16.4593,1.1 20.9,5.5407 20.9,11 C20.9,16.4593 16.4593,20.9 11,20.9 C5.5407,20.9 1.1,16.4593 1.1,11 C1.1,5.5407 5.5407,1.1 11,1.1 L11,1.1 Z M11,0 C4.9247,0 0,4.9247 0,11 C0,17.0753 4.9247,22 11,22 C17.0753,22 22,17.0753 22,11 C22,4.9247 17.0753,0 11,0 L11,0 L11,0 Z" id="circle_6_"></path>
                    <path d="M11.8137207,5.04166667 L11.8137207,16.9583333 L9.98038737,16.9583333 L9.98038737,5.04166667 L11.8137207,5.04166667 L11.8137207,5.04166667 Z" id="--2"></path>
                    <path d="M4.9387207,11.9166667 L4.9387207,10.0833333 L16.8553874,10.0833333 L16.8553874,11.9166667 L4.9387207,11.9166667 L4.9387207,11.9166667 Z" id="--2-copy"></path>
                </g>
            </g>
        </g>
    </g>
</svg>