<?xml version="1.0" encoding="utf-8"?>
<!-- Generator: Adobe Illustrator 16.0.4, SVG Export Plug-In . SVG Version: 6.00 Build 0)  -->
<!DOCTYPE svg PUBLIC "-//W3C//DTD SVG 1.1//EN" "http://www.w3.org/Graphics/SVG/1.1/DTD/svg11.dtd">
<svg version="1.1" id="Layer_1" xmlns="http://www.w3.org/2000/svg" xmlns:xlink="http://www.w3.org/1999/xlink" x="0px" y="0px"
	 width="14px" height="18px" viewBox="0 0 14 18" enable-background="new 0 0 14 18" xml:space="preserve">
<path fill="" d="M12.5,6H11V3.5C11,1.57,9.43,0,7.5,0h-1C4.57,0,3,1.57,3,3.5V6H1.5C0.673,6,0,6.673,0,7.5v9
	C0,17.327,0.673,18,1.5,18h11c0.827,0,1.5-0.673,1.5-1.5v-9C14,6.673,13.327,6,12.5,6z M4,3.5C4,2.122,5.122,1,6.5,1h1
	C8.879,1,10,2.122,10,3.5V6H4V3.5z M13,16.5c0,0.275-0.225,0.5-0.5,0.5h-11C1.224,17,1,16.775,1,16.5v-9C1,7.224,1.224,7,1.5,7h11
	C12.775,7,13,7.224,13,7.5V16.5z"/>
<path fill="" d="M7,9c-1.657,0-3,1.343-3,3s1.343,3,3,3c1.657,0,3-1.343,3-3S8.657,9,7,9z M7,14c-1.104,0-2-0.896-2-2
	s0.896-2,2-2s2,0.896,2,2S8.104,14,7,14z"/>
</svg>
