<?xml version="1.0" encoding="UTF-8" standalone="no"?>
<svg class="polling-type1-outline"  xmlns="http://www.w3.org/2000/svg" xml:space="preserve" viewBox="0 0 80 80" height="80px" width="80px" version="1.1" y="0px" x="0px" xmlns:xlink="http://www.w3.org/1999/xlink" enable-background="new 0 0 80 80">
  <title>Outlined ticket stub</title>
  <desc>An outlined ticket stub icon with no fill.</desc>
  <path d="m79.859 30.657l-9.33-9.331c-1.651 1.65-3.814 2.476-5.978 2.476s-4.327-0.826-5.977-2.476c-0.534-0.534-0.973-1.126-1.333-1.75l0.002-0.002c-0.134-0.216-0.239-0.443-0.351-0.667-1.452-3.127-0.898-6.956 1.682-9.535l-9.332-9.331-0.077 0.077-0.112-0.112-0.121 0.057-48.876 49.166-0.056 0.121 0.159 0.158 0.042 0.043-0.077 0.077 9.403 9.259c3.275-3.325 8.626-3.368 11.954-0.093 1.663 1.637 2.505 3.795 2.522 5.958s-0.792 4.332-2.43 5.995l9.402 9.259 48.884-49.349zm-48.938 42.352l-3.021-2.973c0.702-1.661 1.065-3.463 1.051-5.323-0.028-3.578-1.448-6.932-3.999-9.444-0.637-0.627-1.33-1.172-2.061-1.65-2.223-1.545-4.851-2.395-7.617-2.395-0.968 0-1.919 0.106-2.845 0.305-0.849 0.184-1.676 0.442-2.469 0.785l-1.565-1.565-1.226-1.225 4.842-4.916 2.533-2.572 19.238-19.536 7.98-7.979 2.552-2.552 4.877-4.878 1.323 1.302 1.577 1.553c-0.336 0.796-0.589 1.625-0.766 2.475-0.19 0.926-0.291 1.878-0.284 2.847 0.019 2.348 0.649 4.593 1.795 6.572 0.598 1.082 1.34 2.088 2.238 2.986 2.53 2.532 5.896 3.926 9.476 3.926 1.857 0 3.657-0.376 5.314-1.09l2.997 2.997-41.94 42.35z" fill=""/>
</svg>
