<?xml version="1.0" encoding="utf-8"?>
<!-- Generator: Adobe Illustrator 16.0.4, SVG Export Plug-In . SVG Version: 6.00 Build 0)  -->
<!DOCTYPE svg PUBLIC "-//W3C//DTD SVG 1.1//EN" "http://www.w3.org/Graphics/SVG/1.1/DTD/svg11.dtd">
<svg version="1.1" id="Layer_1" xmlns="http://www.w3.org/2000/svg" xmlns:xlink="http://www.w3.org/1999/xlink" x="0px" y="0px"
	 width="16px" height="16px" viewBox="0 0 16 16" enable-background="new 0 0 16 16" xml:space="preserve">
	 <title>ADA Icon</title>
	 <desc>Icon to indicate accessible seating</desc>
	 <circle fill="" cx="8" cy="8" r="8"/>
	 <path fill="#FFFFFF" d="M9.812,8.771c0.358,0.849,0.721,1.696,1.082,2.543c0.014,0.031,0.027,0.062,0.045,0.102
		 c0.029-0.01,0.059-0.019,0.086-0.03c0.457-0.18,0.915-0.359,1.372-0.539c0.021-0.009,0.044-0.014,0.066-0.02V10.81
		 c-0.079-0.183-0.159-0.363-0.239-0.55c-0.282,0.103-0.562,0.203-0.848,0.306c-0.015-0.028-0.027-0.054-0.038-0.079
		 c-0.353-0.814-0.706-1.628-1.056-2.443c-0.025-0.06-0.055-0.08-0.121-0.078C9.339,7.973,8.515,7.976,7.69,7.982
		 c-0.023,0-0.046-0.001-0.075-0.004C7.603,7.816,7.59,7.658,7.577,7.491h1.901V6.77H7.507C7.476,6.246,7.448,5.731,7.418,5.212
		 c0.046-0.01,0.087-0.017,0.126-0.028c0.346-0.092,0.58-0.414,0.569-0.782C8.103,4.058,7.841,3.751,7.498,3.681
		 c-0.02-0.004-0.039-0.011-0.06-0.016H7.25C7.223,3.672,7.194,3.68,7.168,3.687c-0.454,0.11-0.704,0.585-0.547,1.025
		 C6.654,4.8,6.675,4.897,6.682,4.992C6.746,5.868,6.808,6.744,6.87,7.62c0.022,0.328,0.047,0.654,0.065,0.98
		 C6.94,8.673,6.961,8.693,7.032,8.692c0.885-0.002,1.77-0.001,2.653-0.003C9.753,8.688,9.786,8.706,9.812,8.771L9.812,8.771z"/>
	<path fill="#FFFFFF" d="M4.878,9.252v0.471C4.882,9.743,4.89,9.764,4.891,9.784c0.137,1.232,1.015,2.218,2.226,2.49
		c0.105,0.024,0.215,0.041,0.321,0.061h0.55c0.159-0.032,0.32-0.053,0.476-0.098c0.777-0.224,1.37-0.688,1.769-1.397
		c0.027-0.048,0.029-0.085,0.005-0.137c-0.146-0.287-0.285-0.577-0.426-0.866C9.799,9.813,9.787,9.79,9.771,9.759
		c-0.024,0.103-0.042,0.196-0.067,0.287c-0.268,0.938-1.128,1.56-2.099,1.518C6.603,11.52,5.74,10.697,5.661,9.695
		C5.598,8.894,5.9,8.254,6.551,7.78c0.021-0.016,0.046-0.048,0.045-0.07C6.579,7.448,6.558,7.187,6.537,6.914
		C6.507,6.926,6.48,6.934,6.456,6.947C5.55,7.429,5.027,8.179,4.893,9.199C4.89,9.217,4.882,9.233,4.878,9.252L4.878,9.252z"/>
</svg>
