<svg width="30" height="30" viewBox="0 0 30 30" xmlns="http://www.w3.org/2000/svg" xmlns:xlink="http://www.w3.org/1999/xlink">
  <title>
    Google Plus 
  </title>
  <desc>
    Google Plus icon in a solid circle
  </desc>
<defs><path id="a" d="M0 .843h29.157V30H0"/></defs><g fill="" fill-rule="evenodd"><g transform="translate(.857)"><mask id="b" fill=""><use xlink:href="#a"/></mask><path d="M14.58 30c8.05 0 14.577-6.527 14.577-14.578 0-8.05-6.527-14.58-14.578-14.58C6.527.843 0 7.373 0 15.423S6.528 30 14.58 30" fill="" mask="url(#b)"/></g><path d="M22.46 14.357h-1.758V12.6h-1.414v1.757H17.53v1.414h1.758v1.76h1.414v-1.76h1.758v-1.413zm-6.57 2.13c-.407-.29-1.187-.992-1.187-1.405 0-.485.138-.723.867-1.292.746-.584 1.275-1.404 1.275-2.358 0-1.136-.507-2.242-1.455-2.607h1.43l1.012-.73h-4.516c-2.024 0-3.928 1.533-3.928 3.31 0 1.813 1.38 3.28 3.44 3.28.142 0 .28-.003.417-.014-.134.257-.23.546-.23.844 0 .505.272.914.615 1.248-.26 0-.51.008-.782.008-2.508 0-4.437 1.596-4.437 3.252 0 1.63 2.116 2.65 4.622 2.65 2.86 0 4.438-1.62 4.438-3.252 0-1.308-.386-2.09-1.58-2.934zm-2.41-2.263c-1.163-.035-2.27-1.3-2.47-2.83-.2-1.526.58-2.695 1.742-2.66 1.163.034 2.27 1.26 2.47 2.786.2 1.53-.58 2.74-1.742 2.704zm-.456 7.727c-1.733 0-2.985-1.095-2.985-2.413 0-1.29 1.552-2.367 3.285-2.348.404.004.78.068 1.123.18.94.654 1.615 1.022 1.806 1.77.036.15.055.305.055.464 0 1.318-.85 2.347-3.286 2.347z" fill="#FFF"/></g></svg>