<?xml version="1.0" encoding="utf-8"?>
<!-- Generator: Adobe Illustrator 19.2.1, SVG Export Plug-In . SVG Version: 6.00 Build 0)  -->
<svg version="1.1" id="Layer_1" xmlns="http://www.w3.org/2000/svg" xmlns:xlink="http://www.w3.org/1999/xlink" x="0px" y="0px"
	 width="28px" height="28px" viewBox="0 0 28 28" enable-background="new 0 0 28 28" xml:space="preserve">
  <title>
    Question Mark
  </title>
  <desc>
    Question mark within a solid circle
  </desc>
<g id="Group">
	<circle id="Oval" fill="" cx="14" cy="14" r="14"/>
	<path id="_x3F_" fill="#FFFFFF" d="M15.312,17.22c0-1.14,0.32-1.82,1.16-2.66c1.56-1.56,2.12-2.54,2.12-4.04
		c0-1.86-1.32-3.6-3.98-3.6c-2.26,0-4.02,1.56-4.08,3.88h1.74c0-1.52,1.04-2.4,2.28-2.4c1.5,0,2.32,1.02,2.32,2.12
		c0,1.14-0.32,1.78-1.7,3.24c-1,1.08-1.32,2.02-1.32,3.46H15.312z M13.692,21h1.76v-1.76h-1.76V21z"/>
</g>
</svg>
