<?xml version="1.0" encoding="UTF-8" standalone="no"?>
<svg width="16px" height="16px" viewBox="0 0 16 16" version="1.1" xmlns="http://www.w3.org/2000/svg" xmlns:xlink="http://www.w3.org/1999/xlink" xmlns:sketch="http://www.bohemiancoding.com/sketch/ns">
    <!-- Generator: Sketch 3.3.3 (12072) - http://www.bohemiancoding.com/sketch -->
    <title>Resale icon</title>
    <desc>Two arrows pointing at each other's end in a circle shape.</desc>
    <defs></defs>
    <g id="desktop" stroke="none" stroke-width="1" fill="none" fill-rule="evenodd" sketch:type="MSPage">
        <g id="top-picks-land" sketch:type="MSArtboardGroup" transform="translate(-208.000000, -427.000000)" fill="">
            <g id="top-picks" sketch:type="MSLayerGroup" transform="translate(0.000000, 84.000000)">
                <g id="listings" transform="translate(15.000000, 60.000000)" sketch:type="MSShapeGroup">
                    <g id="listing-copy" transform="translate(0.000000, 268.000000)">
                        <g id="ticket-info" transform="translate(155.000000, 15.000000)">
                            <path d="M52.2146667,3.69230769 C50.8946667,1.4875381 48.624,0 46.0173333,0 C42.64,0 39.82,2.46153846 38.9026667,5.76941008 L40.996,5.76941008 C41.8186667,3.66648736 43.7453333,2.16603909 46.0173333,2.16603909 C47.708,2.16603909 49.2173333,3.02528241 50.228,4.34642281 L48.6573333,4.84705039 L50.5613333,6.47660032 L52.4786667,8.11762596 L53.252,5.60444684 L54,3.10417787 L52.2146667,3.69230769 L52.2146667,3.69230769 Z M45.9933333,13.8353954 C44.2933333,13.8353954 42.7826667,12.9904967 41.7826667,11.6679218 L43.3533333,11.1672942 L41.4493333,9.53774431 L39.5226667,7.89671867 L38.7626667,10.4098978 L38,12.8986911 L39.7973333,12.3076923 C41.1173333,14.5268065 43.3906667,15.9870898 45.9946667,16 L45.9946667,15.9870898 C49.372,15.9870898 52.2053333,13.5513717 53.096,10.2291555 L51.0146667,10.2291555 C50.1933333,12.3492917 48.2533333,13.8353954 45.9933333,13.8353954 L45.9933333,13.8353954 Z" id="resale"></path>
                        </g>
                    </g>
                </g>
            </g>
        </g>
    </g>
</svg>
