<?xml version="1.0" encoding="UTF-8" standalone="no"?>
<svg class="polling-type1-filled" xmlns="http://www.w3.org/2000/svg" xml:space="preserve" height="80px" viewBox="0 0 80 80" width="80px" version="1.1" y="0px" x="0px" xmlns:xlink="http://www.w3.org/1999/xlink"  enable-background="new 0 0 80 80">
  <title>Filled ticket stub</title>
  <desc>A ticket stub icon with solid fill.</desc>
  <path d="m70.529 21.326c-1.651 1.65-3.814 2.476-5.979 2.476s-4.326-0.826-5.977-2.476c-0.534-0.534-0.973-1.126-1.333-1.75 0-0.001 0.001-0.001 0.002-0.002-0.134-0.215-0.239-0.444-0.351-0.668-1.453-3.127-0.898-6.956 1.682-9.534l-9.332-9.331-0.077 0.077-0.112-0.112-0.121 0.057-48.875 49.166-0.056 0.121 0.159 0.158 0.042 0.043-0.077 0.077 9.403 9.259c3.274-3.324 8.626-3.367 11.954-0.093 1.663 1.638 2.505 3.795 2.521 5.958 0.017 2.163-0.791 4.332-2.429 5.995l9.402 9.259 48.884-49.349-9.33-9.331z" fill=""/>
</svg>
