<?xml version="1.0" encoding="UTF-8" standalone="no"?>
<svg width="21px" height="5px" viewBox="0 0 21 5" version="1.1" xmlns="http://www.w3.org/2000/svg" xmlns:xlink="http://www.w3.org/1999/xlink" xmlns:sketch="http://www.bohemiancoding.com/sketch/ns">
    <!-- Generator: Sketch 3.3.3 (12072) - http://www.bohemiancoding.com/sketch -->
    <title>More icon</title>
    <desc>Three dots</desc>
    <defs></defs>
    <g id="desktop" stroke="none" stroke-width="1" fill="" fill-rule="evenodd" sketch:type="MSPage">
        <g id="d-edp" sketch:type="MSArtboardGroup" transform="translate(-502.000000, -61.000000)" fill="">
            <g id="event-header-no-img-v1-copy" sketch:type="MSLayerGroup">
                <path d="M512.492013,61 C513.184242,61 513.77529,61.2422766 514.265176,61.7268371 C514.755061,62.2113975 515,62.7997835 515,63.4920128 C515,64.184242 514.755061,64.7752904 514.265176,65.2651757 C513.77529,65.755061 513.184242,66 512.492013,66 C511.799784,66 511.211398,65.755061 510.726837,65.2651757 C510.242277,64.7752904 510,64.184242 510,63.4920128 C510,62.7997835 510.242277,62.2113975 510.726837,61.7268371 C511.211398,61.2422766 511.799784,61 512.492013,61 L512.492013,61 Z M504.5,61 C505.190025,61 505.779191,61.2422766 506.267516,61.7268371 C506.755841,62.2113975 507,62.7997835 507,63.4920128 C507,64.184242 506.755841,64.7752904 506.267516,65.2651757 C505.779191,65.755061 505.190025,66 504.5,66 C503.809975,66 503.220809,65.755061 502.732484,65.2651757 C502.244159,64.7752904 502,64.184242 502,63.4920128 C502,62.7997835 502.244159,62.2113975 502.732484,61.7268371 C503.220809,61.2422766 503.809975,61 504.5,61 L504.5,61 Z M520.5,61 C521.190025,61 521.779191,61.2422766 522.267516,61.7268371 C522.755841,62.2113975 523,62.7997835 523,63.4920128 C523,64.184242 522.755841,64.7752904 522.267516,65.2651757 C521.779191,65.755061 521.190025,66 520.5,66 C519.809975,66 519.220809,65.755061 518.732484,65.2651757 C518.244159,64.7752904 518,64.184242 518,63.4920128 C518,62.7997835 518.244159,62.2113975 518.732484,61.7268371 C519.220809,61.2422766 519.809975,61 520.5,61 L520.5,61 Z" id="…-copy-2" sketch:type="MSShapeGroup"></path>
            </g>
        </g>
    </g>
</svg>
