<svg xmlns="http://www.w3.org/2000/svg" width="30" height="30" viewBox="0 0 30 30"><title>ada_2</title><desc>Created with Sketch.</desc><g transform="translate(-503 -808) translate(503 808)"><ellipse fill="#009cde" cx="14.9" cy="15" rx="14.9" ry="15"/><path d="M18.046 16.4c.66 1.6 1.354 3.2 1.954 4.7.062.1.1.1.1.2.075 0 .1 0 .2-.1.82-.3 1.7-.6 2.5-1h.127c-.145-.4-.327-.7-.427-1-.534.2-1 .3-1.6.5v-.1c-.693-1.5-1.3-3-2-4.5-.034-.1-.1-.2-.2-.2-1.525 0-3 .1-4.6.1H14c-.022-.3 0-.6-.1-.9h3.532v-1.4H13.8c-.054-.9-.1-1.9-.2-2.8.123-.1.2-.1.3-.1.606-.2 1-.8 1-1.4 0-.7-.5-1.2-1.1-1.4h-.6c-.858.2-1.3 1.1-1 1.9.032.2.1.4.1.5.1 1.7.2 3.3.3 4.9.07.6.1 1.2.1 1.8.058.1.1.2.2.2h4.9c.137 0 .2 0 .2.1h.046zm-9.084.9v.9c.01 0 .038.1.038.1.238 2.3 1.9 4.1 4.1 4.6.178 0 .4.1.6.1h.987c.29-.1.613-.1.913-.2 1.395-.4 2.5-1.3 3.2-2.6.068 0 .1-.1 0-.2-.24-.5-.5-1.1-.8-1.6.02-.1 0-.1 0-.2-.076.2-.1.4-.2.6-.446 1.7-2 2.9-3.8 2.8-1.864-.1-3.5-1.6-3.6-3.5-.112-1.5.4-2.6 1.6-3.5.082 0 .1-.1.1-.1-.006-.5 0-1-.1-1.5-.04 0-.1 0-.1.1-1.7.8-2.7 2.2-2.9 4.1-.016 0 0 .1 0 .1h-.038z" fill="#fff"/></g></svg>
