<?xml version="1.0" encoding="utf-8"?>
<!-- Generator: Adobe Illustrator 16.0.4, SVG Export Plug-In . SVG Version: 6.00 Build 0)  -->
<!DOCTYPE svg PUBLIC "-//W3C//DTD SVG 1.1//EN" "http://www.w3.org/Graphics/SVG/1.1/DTD/svg11.dtd">
<svg version="1.1" id="Logo" xmlns="http://www.w3.org/2000/svg" xmlns:xlink="http://www.w3.org/1999/xlink" x="0px" y="0px"
	 width="20px" height="20px" viewBox="0 140 20 20" enable-background="new 0 140 20 20" xml:space="preserve">
	 <title>Verified icon</title>
	 <desc>Two ticket stubs with a checkmark in front of them.</desc>
	 <g>
		 <path id="tickets" fill="" d="M1.239,151.971l-0.008,0.019l0.035,0.035l2.007,2.007c0.362-0.362,0.838-0.543,1.312-0.543
			c0.332,0,0.663,0.09,0.957,0.268c0.133-0.135,0.274-0.258,0.425-0.372c0.144-0.109,0.295-0.209,0.453-0.298
			c-0.008-0.02-0.014-0.04-0.022-0.059c-0.516-0.404-1.146-0.627-1.812-0.627c-0.212,0-0.422,0.023-0.625,0.068
			c-0.187,0.04-0.368,0.098-0.542,0.172l-0.344-0.344l-0.313-0.314l0.268-0.27l7.374-7.373l0.561-0.561l1.083-1.082l0.562,0.562
			l0.096,0.096c-0.157,0.364-0.24,0.759-0.24,1.167c0,0.143,0.014,0.284,0.034,0.423c0.039,0.273,0.115,0.536,0.227,0.784
			c0.145,0.321,0.346,0.618,0.602,0.875c0.556,0.556,1.295,0.862,2.081,0.862c0.408,0,0.803-0.083,1.167-0.24l0.658,0.659
			l-5.927,5.927c0.125,0.131,0.242,0.271,0.35,0.42c0.108,0.149,0.207,0.307,0.295,0.472l6.818-6.818l-2.05-2.049
			c-0.362,0.362-0.837,0.543-1.312,0.543s-0.95-0.181-1.312-0.543c-0.725-0.726-0.725-1.901,0-2.625l-2.049-2.049l-2.077,2.076
			c-0.051-0.018-0.102-0.037-0.152-0.061c-0.804-0.371-1.155-1.323-0.784-2.127L6.759,140l-5.517,11.963L1.239,151.971z
			 M7.259,141.354l0.607,0.28c-0.03,0.955,0.466,1.883,1.334,2.372l-5.872,5.872L7.259,141.354z"/>
		<path id="checkmark" fill="currentColor" d="M11.499,155.172c-0.08-0.174-0.171-0.342-0.278-0.498c-0.104-0.153-0.222-0.296-0.348-0.429
			c-0.622-0.657-1.5-1.069-2.477-1.069c-0.537,0-1.042,0.127-1.494,0.348c-0.128,0.062-0.252,0.131-0.37,0.209
			c-0.036,0.023-0.071,0.047-0.105,0.072c-0.15,0.106-0.292,0.223-0.421,0.35c-0.629,0.62-1.021,1.479-1.021,2.434
			c0,0.541,0.129,1.051,0.354,1.506C5.896,159.221,7.054,160,8.397,160c1.463,0,2.708-0.923,3.192-2.217
			c0.139-0.372,0.22-0.773,0.22-1.195C11.809,156.081,11.696,155.604,11.499,155.172 M8.019,158.64l-1.78-1.785l0.771-0.774
			l1.008,1.015l2.134-2.138l0.772,0.773L8.019,158.64z"/>
	</g>
</svg>
