<svg width="30" height="30" viewBox="0 0 30 30" xmlns="http://www.w3.org/2000/svg" xmlns:xlink="http://www.w3.org/1999/xlink">
  <title>
    Twitter icon
  </title>
  <desc>
    Twitter icon in a solid circle
  </desc>
<defs><path id="a" d="M0 .843h29.157V30H0"/></defs><g fill="" fill-rule="evenodd"><g transform="translate(.43)"><mask id="b" fill=""><use xlink:href="#a"/></mask><path d="M14.58 30c8.05 0 14.577-6.526 14.577-14.578 0-8.05-6.527-14.58-14.578-14.58C6.526.843 0 7.373 0 15.423 0 23.474 6.527 30 14.58 30" fill="" mask="url(#b)"/></g><path d="M22.322 11.603c-.536.238-1.115.4-1.72.47.62-.37 1.094-.956 1.317-1.656-.58.344-1.22.593-1.904.726-.545-.582-1.325-.945-2.187-.945-1.654 0-2.996 1.34-2.996 2.996 0 .235.026.463.077.682-2.49-.125-4.696-1.317-6.174-3.13-.258.444-.406.958-.406 1.507 0 1.038.53 1.956 1.333 2.493-.49-.015-.953-.15-1.358-.374v.037c0 1.45 1.033 2.662 2.405 2.937-.252.07-.516.105-.79.105-.193 0-.382-.018-.564-.053.38 1.19 1.487 2.056 2.8 2.078-1.027.804-2.32 1.283-3.722 1.283-.242 0-.48-.012-.715-.04 1.325.85 2.9 1.345 4.592 1.345 5.51 0 8.524-4.564 8.524-8.523 0-.13-.003-.26-.01-.388.587-.423 1.096-.95 1.496-1.55" fill="#FFF"/></g></svg>