<svg width="20" height="20" viewBox="0 0 20 20" xmlns="http://www.w3.org/2000/svg"><title>search icon</title><path d="M14.79 12.668l4.69 4.69c.59.59.595 1.537.005 2.127-.586.586-1.535.586-2.126-.004l-4.692-4.69c-3.113 2.12-7.392 1.8-10.153-.962-3.124-3.124-3.124-8.19 0-11.313 3.124-3.124 8.19-3.124 11.313 0 2.762 2.76 3.083 7.04.962 10.153zm-10.86-.254c2.342 2.343 6.14 2.343 8.484 0 2.343-2.343 2.343-6.142 0-8.485-2.343-2.344-6.142-2.344-8.485 0-2.344 2.342-2.344 6.14 0 8.484z" fill="#009CDE" fill-rule="evenodd"/></svg>