<?xml version="1.0" encoding="UTF-8" standalone="no"?>
<svg width="175px" height="22px" viewBox="0 0 175 22" version="1.1" xmlns="http://www.w3.org/2000/svg" xmlns:xlink="http://www.w3.org/1999/xlink" xmlns:sketch="http://www.bohemiancoding.com/sketch/ns">
    <!-- Generator: Sketch 3.4.1 (15681) - http://www.bohemiancoding.com/sketch -->
    <title>Live Nation</title>
    <desc>Live Nation logo.</desc>
    <defs></defs>
    <g id="d" stroke="none" stroke-width="1" fill="" fill-rule="evenodd" sketch:type="MSPage">
        <g id="5_d-edp-menu-gray" sketch:type="MSArtboardGroup" transform="translate(-19.000000, -788.000000)" fill="">
            <g id="menu" sketch:type="MSLayerGroup" transform="translate(0.000000, -31.000000)">
                <g id="©-2015-Ticketmaster.-+-Site-Map-+-tm-logo-copy-3" transform="translate(0.000000, 714.000000)" sketch:type="MSShapeGroup">
                    <g id="livenation" transform="translate(19.000000, 105.000000)">
                        <path d="M2.80057772,17.7699803 L2.80057772,7.20198236 L0.552674121,7.20198236 L0.552674121,17.7699803 L0.552674121,20.0161294 L0.552674121,20.0183225 L12.4430973,20.0183225 L12.4439745,17.7699803 L2.80057772,17.7699803 Z" id="Fill-6"></path>
                        <path d="M84.2097772,8.26246652 C83.499659,7.55410275 82.6026906,7.20189464 81.5158018,7.20189464 L72.6939315,7.20189464 L70.4460279,7.20189464 L70.4460279,20.0186734 L72.6939315,20.0186734 L72.6939315,9.47041316 L81.5210652,9.47041316 C81.9851202,9.47041316 82.3526799,9.60506807 82.6215511,9.8748165 C82.8908609,10.1419332 83.0250772,10.508177 83.0250772,10.9713548 L83.0250772,20.0186734 L85.2721035,20.0186734 L85.2721035,10.9722321 C85.2721035,9.8748165 84.918141,8.97039167 84.2097772,8.26246652" id="Fill-8"></path>
                        <path d="M131.538609,20.0187172 L129.290705,20.0187172 L129.290705,7.18088496 L131.538609,7.18088496 L131.538609,20.0187172 Z" id="Fill-10"></path>
                        <path d="M39.0959968,7.20189464 L33.4918086,19.0111739 C33.1738125,19.6835713 32.6356315,20.0186734 31.8803359,20.0186734 C31.1210927,20.0186734 30.5851048,19.6835713 30.2675473,19.0111739 L24.6620433,7.20189464 L27.1489923,7.20189464 L31.4237373,16.0987681 C31.5092673,16.2834252 31.6592738,16.3737799 31.8803359,16.3737799 C32.0978891,16.3737799 32.2505272,16.2834252 32.33518,16.0987681 L36.6081706,7.20189464 L39.0959968,7.20189464 Z" id="Fill-12"></path>
                        <path d="M57.0629529,20.0185418 L46.1633618,20.0185418 C45.0755958,20.0185418 44.1786274,19.6641406 43.4711409,18.9478818 C42.7618999,18.2360091 42.4079373,17.3346546 42.4079373,16.2477657 L42.4079373,10.9721005 C42.4079373,9.86196507 42.758391,8.95403132 43.4606141,8.25312402 C44.1632759,7.55002363 45.0637532,7.20176305 46.1633618,7.20176305 L57.0629529,7.20176305 L57.0629529,9.47072019 L46.1585371,9.47072019 C45.156301,9.47072019 44.6558409,9.9716189 44.6558409,10.9721005 L44.6558409,12.4739194 L57.0629529,12.4739194 L57.0629529,14.7463855 L44.6558409,14.7463855 L44.6558409,16.2477657 C44.6558409,16.7118208 44.7896186,17.077626 45.0576126,17.3460585 C45.327361,17.615807 45.6940434,17.7513391 46.1585371,17.7513391 L57.0629529,17.7513391 L57.0629529,20.0185418 Z" id="Fill-13"></path>
                        <path d="M103.449946,14.3090421 L103.449946,14.3090421 L103.449946,10.9724952 C103.449946,9.97157504 102.947731,9.47067633 101.946373,9.47067633 L94.7951881,9.47067633 C93.7916362,9.47067633 93.2907375,9.97157504 93.2907375,10.9724952 L93.2907375,14.3090421 L103.449946,14.3090421 Z M105.69785,20.0184979 L103.449946,20.0184979 L103.449946,16.5788765 L93.2907375,16.5788765 L93.2907375,20.0184979 L91.0428339,20.0184979 L91.0428339,10.9724952 C91.0428339,9.86192121 91.395042,8.95398746 92.0959493,8.25308015 C92.7990497,7.54997977 93.699527,7.20171919 94.7982584,7.20171919 L101.941548,7.20171919 C103.027559,7.20171919 103.926282,7.55392731 104.634646,8.26229108 C105.34301,8.97021623 105.69785,9.87507967 105.69785,10.9724952 L105.69785,20.0184979 Z" id="Fill-14"></path>
                        <path d="M124.291894,9.47054474 L118.076715,9.47054474 L118.076715,20.0183663 L115.827934,20.0183663 L115.827934,9.47054474 L109.636878,9.47054474 L109.636878,7.20202622 L124.291894,7.20202622 L124.291894,9.47054474 Z" id="Fill-15"></path>
                        <path d="M149.027387,16.247678 L149.027387,16.247678 L149.027387,10.9711355 C149.027387,10.5189231 148.888784,10.1566269 148.612895,9.88161504 C148.337883,9.60748045 147.97471,9.47063247 147.522059,9.47063247 L140.369997,9.47063247 C139.942347,9.47063247 139.585314,9.6144983 139.297144,9.90047549 C139.011167,10.1886458 138.866424,10.5448014 138.866424,10.9711355 L138.866424,16.247678 C138.866424,17.2490368 139.368638,17.7512514 140.369997,17.7512514 L147.522059,17.7512514 C148.525172,17.7512514 149.027387,17.2490368 149.027387,16.247678 L149.027387,16.247678 Z M151.273536,16.247678 C151.273536,17.3819373 150.928345,18.2968889 150.238842,18.9846377 C149.548023,19.6758955 148.640966,20.0184541 147.518111,20.0184541 L140.373945,20.0184541 C139.27609,20.0184541 138.373859,19.6680004 137.672951,18.9657773 C136.970728,18.26487 136.620275,17.3578134 136.620275,16.247678 L136.620275,10.9724514 C136.620275,9.92109042 136.981694,9.03201713 137.708918,8.30040675 C138.435703,7.56660329 139.323022,7.20167533 140.373945,7.20167533 L147.518111,7.20167533 C148.594035,7.20167533 149.487494,7.55783098 150.201121,8.27189675 C150.916503,8.98464667 151.273536,9.88687842 151.273536,10.9724514 L151.273536,16.247678 Z" id="Fill-16"></path>
                        <path d="M169.90188,8.26246652 C169.194393,7.55410275 168.297425,7.20189464 167.208343,7.20189464 L158.384718,7.20189464 L156.138569,7.20189464 L156.138569,20.0186734 L158.384718,20.0186734 L158.384718,9.47041316 L167.215361,9.47041316 C167.678977,9.47041316 168.046537,9.60506807 168.316286,9.8748165 C168.583402,10.1419332 168.718934,10.508177 168.718934,10.9713548 L168.718934,20.0186734 L170.965084,20.0186734 L170.965084,10.9722321 C170.965084,9.8748165 170.611998,8.97039167 169.90188,8.26246652" id="Fill-17"></path>
                        <path d="M24.0048659,1.39989097 C24.0048659,1.39989097 23.691256,0.84811288 23.6298498,0.736704585 C23.5688823,0.62617352 23.4636146,0.713896587 23.4636146,0.713896587 C23.4636146,0.713896587 23.1443027,0.95250333 22.9719268,1.06829778 C22.8004282,1.18496946 22.8122708,1.31523821 22.8122708,1.38760974 C22.8122708,1.46173574 22.7565667,1.892456 22.7565667,1.892456 C22.7508647,1.99202168 22.6977922,2.07228828 22.6574396,2.11965874 L22.6565624,2.11965874 L19.8529332,4.29562942 L19.5029181,4.37589603 L18.6388459,4.79477367 L18.6875322,4.20308159 C18.7484998,4.2377322 18.8454337,4.33028003 18.9138577,4.33992957 C18.9976333,4.35177218 19.1252703,4.31668296 19.1252703,4.31668296 C19.1252703,4.31668296 19.0774613,4.20308159 19.0774613,4.1377279 C19.0774613,4.07018114 19.09369,3.96798377 19.09369,3.96798377 C19.09369,3.96798377 19.2257132,4.04868899 19.3230858,4.05132068 C19.4011594,4.05614545 19.4831804,4.02281068 19.5305509,3.98772146 C19.5779214,3.94912331 19.6257304,3.89780531 19.6257304,3.89780531 C19.6257304,3.89780531 19.4612497,3.79780102 19.4086158,3.74121964 C19.3704563,3.70086703 19.3138749,3.6372678 19.3515958,3.63858365 C19.4336169,3.63902226 19.5537975,3.52585951 19.5537975,3.52585951 C19.5537975,3.52585951 19.4669517,3.47190982 19.4020366,3.41839875 C19.3292265,3.35523814 19.2967689,3.30655184 19.2638728,3.22277631 C19.2366786,3.14733447 19.2204499,3.07715602 19.2204499,3.07715602 C19.2204499,3.07715602 19.2691362,3.14470278 19.3840534,3.1425097 C19.4831804,3.13987801 19.5673946,3.07715602 19.5673946,3.07715602 C19.5673946,3.07715602 19.4910755,3.03592618 19.4441437,2.98373095 C19.390194,2.9249565 19.3498414,2.86267312 19.3239631,2.78152928 C19.2897511,2.66792791 19.2717679,2.61310099 19.2428192,2.52450069 C19.2287835,2.4845867 19.2204499,2.41572409 19.1871151,2.30475441 C19.1502714,2.05079613 19.0414948,1.94640568 19.0414948,1.94640568 C18.7125333,1.50428142 17.9559218,1.3862939 17.9559218,1.3862939 C17.570379,1.30646591 17.1865905,1.806926 17.0326366,2.31045641 C16.7764852,3.14470278 16.8514884,3.96447484 16.8514884,3.96447484 C16.8514884,3.96447484 16.8646469,4.11974467 16.9988632,4.20790635 C17.0830773,4.25922435 17.4058982,4.33291173 17.4058982,4.33291173 L17.370809,5.01144965 L16.5681429,5.08250533 C16.5681429,5.08250533 15.9685558,4.72371799 15.4707273,4.4237051 L13.240807,2.77319559 C13.240807,2.77319559 13.1473819,2.71485975 13.1364165,2.53853639 C13.1364165,2.53853639 13.0807124,2.10737751 13.0807124,2.03456736 C13.0807124,1.96087999 13.0934322,1.83148846 12.9210564,1.7152554 C12.7491192,1.59858372 12.4284914,1.35953836 12.4284914,1.35953836 C12.4284914,1.35953836 12.3249782,1.27225391 12.2626948,1.38366221 C12.2017272,1.49331604 11.8889945,2.04772582 11.8889945,2.04772582 L12.0534753,2.68064775 C12.0534753,2.68064775 12.1223379,2.8021442 12.2205877,2.91969311 L12.3635763,3.0653134 L13.189489,3.8030644 L13.2057178,3.80964363 L14.5601619,5.0184675 L14.9483365,5.39348361 C14.9483365,5.39348361 14.9755306,5.44348576 14.9755306,5.51673452 C14.9755306,5.58998328 14.9676356,5.82201079 14.9676356,5.82201079 C14.9676356,5.82201079 14.9610563,5.89306648 15.0062337,5.93429632 C15.0527269,5.97859647 15.7790739,6.56809548 15.7790739,6.56809548 C15.7790739,6.56809548 15.8286375,6.61020255 15.8286375,6.71722469 L15.9575904,11.0753067 C15.9575904,11.0753067 15.9575904,11.1437307 16.0286461,11.1437307 L16.2597963,11.2301379 L16.7935912,15.9926232 L17.8103016,19.1405655 L16.1896179,19.9243711 C16.1896179,19.9243711 16.131282,19.9537583 16.102772,20.0239368 C16.102772,20.0239368 16.0071539,20.2077166 16.0071539,20.2463147 C16.0071539,20.306405 16.0567174,20.3230724 16.0567174,20.3230724 L18.4761196,20.3243883 L18.245408,20.9516082 L18.1840018,21.1222296 C18.1840018,21.1222296 18.0989104,21.4441732 18.2379515,21.4906664 C18.3756767,21.5367211 18.8055198,21.5529498 18.9914927,21.5437389 C19.230538,21.5314577 19.6616969,21.4981229 19.7283664,21.4296989 C19.7924043,21.3660997 19.8217915,21.0757363 19.4774784,19.1431972 L19.2691362,11.7047197 L19.888461,7.0435545 C19.9467969,6.52774287 20.0160981,6.46896841 20.0160981,6.46896841 C20.0160981,6.46896841 20.6722666,5.98035093 20.7358658,5.92157647 C20.7990265,5.8623634 20.7889383,5.76806111 20.7889383,5.76806111 L20.7889383,5.24698609 C20.7889383,5.14522733 20.8266592,5.07680334 20.8266592,5.07680334 L21.3613313,4.56274616 L21.5223031,4.39914264 L23.2298326,2.75872128 L23.5285297,2.41747855 L23.5294069,2.41747855 L23.6723955,2.27361272 C23.7719612,2.15737966 23.8386307,2.03456736 23.8386307,2.03456736 C23.8386307,2.03456736 23.9610044,1.72622078 24.0048659,1.62139172 C24.0478502,1.51831711 24.0048659,1.39989097 24.0048659,1.39989097" id="Fill-18"></path>
                        <path d="M173.104123,8.5008101 L173.255006,8.5008101 C173.430891,8.5008101 173.57388,8.44203564 173.57388,8.29992427 C173.57388,8.17360305 173.481332,8.09026614 173.280008,8.09026614 C173.196232,8.09026614 173.137458,8.09816122 173.104123,8.10693352 L173.104123,8.5008101 Z M173.095789,9.27233447 L172.776916,9.27233447 L172.776916,7.90560908 C172.902798,7.8801694 173.078683,7.85516832 173.305447,7.85516832 C173.565546,7.85516832 173.682218,7.89727539 173.783538,7.96394492 C173.858541,8.02315799 173.917316,8.1319346 173.917316,8.2578172 C173.917316,8.41703457 173.799767,8.53414486 173.632216,8.58458562 L173.632216,8.60169162 C173.766432,8.6437987 173.842312,8.7525753 173.883981,8.93679374 C173.926088,9.14645187 173.951089,9.23066602 173.984862,9.27233447 L173.640988,9.27233447 C173.59932,9.22189371 173.57388,9.10478341 173.531334,8.94556605 C173.50721,8.79424376 173.422996,8.72713561 173.246673,8.72713561 L173.095789,8.72713561 L173.095789,9.27233447 Z M173.305447,7.46085313 C172.701913,7.46085313 172.248384,7.95604985 172.248384,8.55958455 C172.248384,9.17189156 172.701913,9.65831597 173.321676,9.65831597 C173.926088,9.66664966 174.370405,9.17189156 174.370405,8.55958455 C174.370405,7.95604985 173.926088,7.46085313 173.313781,7.46085313 L173.305447,7.46085313 Z M173.321676,7.18452547 C174.110306,7.18452547 174.722175,7.79639387 174.722175,8.55958455 C174.722175,9.33944262 174.110306,9.94385455 173.313781,9.94385455 C172.526028,9.94385455 171.896615,9.33944262 171.896615,8.55958455 C171.896615,7.79639387 172.526028,7.18452547 173.313781,7.18452547 L173.321676,7.18452547 Z" id="Fill-19"></path>
                    </g>
                </g>
            </g>
        </g>
    </g>
</svg>
