<?xml version="1.0" encoding="UTF-8" standalone="no"?>
<svg width="150px" height="14px" viewBox="0 0 150 14" version="1.1" xmlns="http://www.w3.org/2000/svg" xmlns:xlink="http://www.w3.org/1999/xlink" xmlns:sketch="http://www.bohemiancoding.com/sketch/ns">
    <!-- Generator: Sketch 3.5.1 (25234) - http://www.bohemiancoding.com/sketch -->
    <title>Group + Page 1</title>
    <desc>Created with Sketch.</desc>
    <defs></defs>
    <g id="mobile-checkout" stroke="none" stroke-width="1" fill="none" fill-rule="evenodd" sketch:type="MSPage">
        <g id="2_m_checkout_mlb_v2" sketch:type="MSArtboardGroup" transform="translate(-210.000000, -55.000000)">
            <g id="event-header-+-Ticket" sketch:type="MSLayerGroup" transform="translate(0.000000, 40.000000)">
                <g id="Rectangle-1-+-angels-logo-+-mlb_logo_prod3_1_fqk7toel-+-Page-1-+-Line" sketch:type="MSShapeGroup">
                    <g id="mlb-logo" transform="translate(210.000000, 15.000000)">
                        <g id="Group-+-Page-1">
                            <g id="Group">
                                <path d="M2.04526528,13.803321 C0.915363481,13.803321 0,12.8645192 0,11.7056856 L0,2.09763539 C0,0.938801854 0.915363481,0 2.04526528,0 L62.2161116,0 C63.3460134,0 64.2613769,0.938801854 64.2613769,2.09763539 L64.2613769,11.7056856 C64.2613769,12.8645192 63.3460134,13.803321 62.2161116,13.803321 L2.04526528,13.803321 L2.04526528,13.803321 Z" id="Shape" fill="#FFFFFF"></path>
                                <path d="M63.1743828,1.1148272 C62.9169368,0.85078918 62.5736755,0.704101391 62.2161116,0.704101391 L54.9218089,0.704101391 L58.2972117,6.46893153 L58.6118679,6.51293786 L58.7978011,6.77697588 L58.7978011,7.02634513 L59.0123394,7.07035146 L59.2125752,7.34905826 L59.2125752,7.58375873 L59.4271135,7.62776506 C59.4271135,7.62776506 59.6416518,7.86246553 59.6416518,7.87713431 L59.6416518,8.41987913 C59.6416518,8.41987913 60.1136361,8.87461128 60.5427128,9.03596785 C60.8430664,9.15331808 60.8716715,9.63738778 61.0433022,9.90142581 C61.272143,10.2681453 61.5867992,10.4295018 61.5152865,10.6348648 C61.3579584,11.2069471 60.8001587,12.145749 60.2709642,12.2044241 L58.1827913,12.2044241 L58.1827913,13.1138884 L62.2161116,13.1138884 C62.974147,13.1138884 63.5748543,12.4831309 63.5748543,11.7203544 L63.5748543,2.09763539 C63.5748543,1.73091592 63.4318287,1.37886522 63.1743828,1.1148272" id="Shape" fill="#CC0000"></path>
                                <path d="M52.9194513,0.704101391 L2.04526528,0.704101391 C1.68770142,0.704101391 1.34444011,0.85078918 1.08699413,1.1148272 C0.829548155,1.37886522 0.686522611,1.73091592 0.686522611,2.09763539 L0.686522611,11.7056856 C0.686522611,12.0724051 0.829548155,12.4244558 1.08699413,12.6884938 C1.34444011,12.9525318 1.68770142,13.0992196 2.04526528,13.0992196 L48.3283313,13.0992196 C48.113793,12.7325001 47.8706496,12.3217743 47.7991368,12.1897553 L46.7836554,12.1897553 C46.7836554,9.60805023 47.6418087,8.17050989 48.6572901,7.89180309 C48.8003156,7.86246553 48.7288028,7.15836414 48.5571722,6.93833245 C48.5571722,6.93833245 48.0708853,6.95300123 47.9707674,6.92366367 C47.8420445,6.87965734 47.9278598,6.74763833 47.9278598,6.74763833 L48.3998441,5.69148624 L48.3426339,5.39811066 L46.5834197,5.39811066 C46.5548146,5.39811066 48.0279777,4.35662735 48.0279777,4.35662735 C48.0994904,1.61356569 50.8455809,1.40820278 52.4903746,2.53769876 C53.4629483,3.21246259 53.5487637,4.5326527 53.4629483,5.442117 C53.4486458,5.50079211 53.2055023,5.45678578 53.2055023,5.45678578 C53.2055023,5.45678578 53.0338717,6.45426275 53.4772509,6.45426275 L55.4080957,6.45426275 C56.1947362,6.42492519 56.9527716,6.96767001 56.9527716,6.96767001 L57.1387048,6.2782374 L52.9194513,0.704101391 L52.9194513,0.704101391 Z" id="Shape" fill="#000088"></path>
                                <path d="M24.7291165,9.09464296 C24.9865625,9.09464296 25.2154034,9.18265564 25.4013366,9.37334976 C25.5872698,9.56404389 25.6873877,9.78407557 25.6873877,10.0627824 C25.6873877,10.3268204 25.5872698,10.5615209 25.4013366,10.752215 C25.2154034,10.9429091 24.9865625,11.0309218 24.7291165,11.0309218 C24.4716706,11.0309218 24.2428297,10.9429091 24.0568965,10.752215 C23.8709633,10.5615209 23.785148,10.3268204 23.785148,10.0627824 C23.785148,9.79874435 23.8709633,9.56404389 24.0568965,9.37334976 C24.2428297,9.18265564 24.4716706,9.09464296 24.7291165,9.09464296" id="Shape" fill="#FFFFFF"></path>
                                <path d="M31.0794507,6.74763833 L29.7493131,7.02634513 C29.7064055,6.71830077 29.6062876,6.49826908 29.4489595,6.33691252 C29.2916314,6.19022473 29.0770931,6.10221205 28.8339497,6.10221205 C28.4906884,6.10221205 28.2332424,6.23423106 28.0187041,6.49826908 C27.8184683,6.76230711 27.7183504,7.21703925 27.7183504,7.83312797 C27.7183504,8.53722936 27.8184683,9.02129907 28.0187041,9.31467465 C28.2189398,9.60805023 28.4906884,9.74006924 28.8482522,9.74006924 C29.1056982,9.74006924 29.3202365,9.65205656 29.4775646,9.47603122 C29.6348927,9.30000587 29.7636157,9.00663029 29.8208259,8.59590448 L31.1509635,8.8599425 C31.0079379,9.56404389 30.7504919,10.0921199 30.364323,10.4588394 C29.978154,10.8255589 29.4489595,11.0015842 28.791042,11.0015842 C28.0473092,11.0015842 27.4466019,10.7375462 27.0032227,10.1948014 C26.5598435,9.65205656 26.3310026,8.90394884 26.3310026,7.9504782 C26.3310026,6.98233879 26.5598435,6.21956228 27.0032227,5.69148624 C27.4466019,5.14874142 28.0473092,4.8847034 28.8053446,4.8847034 C29.4203544,4.8847034 29.9209438,5.03139119 30.2928102,5.33943555 C30.6503741,5.6474799 30.90782,6.11688083 31.0794507,6.74763833" id="Shape" fill="#FFFFFF"></path>
                                <path d="M33.4250696,6.61561932 C33.668213,6.30757496 33.9685667,6.14621839 34.311828,6.14621839 C34.6693919,6.14621839 34.9554429,6.30757496 35.1985864,6.61561932 C35.4417298,6.92366367 35.5561502,7.36372704 35.5561502,7.9504782 C35.5561502,8.53722936 35.4417298,8.99196151 35.1985864,9.30000587 C34.9554429,9.60805023 34.6693919,9.76940679 34.311828,9.76940679 C33.9542641,9.76940679 33.668213,9.60805023 33.4250696,9.30000587 C33.1819262,8.99196151 33.0675058,8.53722936 33.0675058,7.96514698 C33.0532032,7.37839582 33.1819262,6.92366367 33.4250696,6.61561932 M32.0091167,9.59338145 C32.2236551,10.0627824 32.5526138,10.4148331 32.9816904,10.6642023 C33.4107671,10.9135716 33.8541463,11.0309218 34.3261305,11.0309218 C35.0841659,11.0309218 35.7134783,10.7375462 36.2140677,10.150795 C36.7146571,9.56404389 36.9578006,8.83060494 36.9578006,7.93580942 C36.9578006,7.05568268 36.7146571,6.32224374 36.2140677,5.75016136 C35.7134783,5.17807898 35.0841659,4.8847034 34.311828,4.8847034 C33.8112386,4.8847034 33.3535568,5.01672241 32.9530853,5.26609165 C32.5526138,5.51546089 32.2379576,5.89684915 32.0091167,6.36625007 C31.7802759,6.835651 31.680158,7.34905826 31.680158,7.86246553 C31.680158,8.55189814 31.7945784,9.12398052 32.0091167,9.59338145" id="Shape" fill="#FFFFFF"></path>
                                <path d="M37.4869951,5.13407264 L38.7313173,5.13407264 L38.7313173,5.94085548 C39.1746965,5.32476677 39.703891,5.01672241 40.3189008,5.01672241 C40.6478596,5.01672241 40.9339107,5.0900663 41.1770541,5.25142287 C41.4201975,5.41277944 41.6204333,5.6474799 41.7634588,5.95552426 C41.9922997,5.6474799 42.2354431,5.39811066 42.4928891,5.25142287 C42.7503351,5.0900663 43.0220836,5.01672241 43.3224373,5.01672241 C43.6943037,5.01672241 44.0089599,5.10473508 44.2807084,5.28076043 C44.5381544,5.45678578 44.7383901,5.70615502 44.8671131,6.05820571 C44.967231,6.30757496 45.0101387,6.71830077 45.0101387,7.27571437 L45.0101387,11.0309218 L43.651396,11.0309218 L43.651396,7.6717714 C43.651396,7.08502024 43.6084883,6.71830077 43.5083705,6.54227542 C43.3796475,6.32224374 43.1937143,6.2048935 42.9362683,6.2048935 C42.7503351,6.2048935 42.5644019,6.2782374 42.4070738,6.41025641 C42.2354431,6.54227542 42.1210227,6.73296955 42.0495099,6.99700757 C41.9779971,7.24637681 41.9350895,7.65710262 41.9350895,8.21451622 L41.9350895,11.0309218 L40.5763468,11.0309218 L40.5763468,7.80379041 C40.5763468,7.23170803 40.5477417,6.86498856 40.504834,6.70363199 C40.4619264,6.54227542 40.3761111,6.41025641 40.2759932,6.33691252 C40.1758753,6.24889984 40.0328498,6.21956228 39.8612191,6.21956228 C39.6466808,6.21956228 39.4607476,6.2782374 39.3034195,6.41025641 C39.1317888,6.54227542 39.0173684,6.73296955 38.9458556,6.96767001 C38.8743428,7.21703925 38.8314352,7.61309629 38.8314352,8.18517867 L38.8314352,11.0455906 L37.4726925,11.0455906 L37.4869951,5.13407264 L37.4869951,5.13407264 L37.4869951,5.13407264 Z" id="Shape" fill="#FFFFFF"></path>
                                <path d="M19.7947353,4.35662735 C20.1522991,4.35662735 20.6242834,4.42997125 20.7959141,4.57665904 C20.9675447,4.72334683 21.0533601,4.92870973 21.0533601,5.17807898 C21.0533601,5.45678578 20.9675447,5.66214868 20.7816115,5.82350525 C20.5956783,5.98486182 20.1093915,6.05820571 19.7375251,6.05820571 L18.9794897,6.05820571 L18.9794897,4.35662735 L19.7947353,4.35662735 L19.7947353,4.35662735 L19.7947353,4.35662735 Z M20.3382323,11.0309218 C20.9818473,11.0309218 21.4824367,10.9429091 21.8543031,10.752215 C22.211867,10.5615209 22.5122206,10.2828141 22.755364,9.90142581 C22.9842049,9.52003755 23.0986253,9.10931174 23.0986253,8.65457959 C23.0986253,8.18517867 22.9842049,7.75978408 22.7696666,7.42240216 C22.5408257,7.07035146 22.1975644,6.77697588 21.7112776,6.54227542 C21.9973287,6.32224374 22.211867,6.08754327 22.3262874,5.83817403 C22.4550104,5.58880479 22.5122206,5.31009799 22.5122206,4.98738485 C22.5122206,4.51798392 22.3691951,4.09258933 22.083144,3.75520742 C21.7970929,3.40315672 21.4252265,3.16845626 20.9389396,3.03643725 C20.6099809,2.93375579 19.4371714,2.88974946 18.7077411,2.88974946 L17.4491164,2.88974946 L17.4491164,11.0309218 L20.3382323,11.0309218 L20.3382323,11.0309218 L20.3382323,11.0309218 Z M19.7232225,7.45173972 C20.3239298,7.45173972 20.9675447,7.55442117 21.2249907,7.75978408 C21.4824367,7.96514698 21.6111597,8.24385378 21.6111597,8.59590448 C21.6111597,8.90394884 21.4967393,9.1386493 21.2822009,9.30000587 C21.0676626,9.46136244 20.4240477,9.54937511 19.7804327,9.54937511 L18.9794897,9.54937511 L18.9794897,7.45173972 L19.7232225,7.45173972 L19.7232225,7.45173972 Z" id="Shape" fill="#FFFFFF"></path>
                                <path d="M3.16086452,11.0309218 L3.16086452,2.90441824 L5.54939111,2.90441824 L6.9939491,8.44921669 L8.39559943,2.90441824 L10.7984286,2.90441824 L10.7984286,11.0309218 L9.32526547,11.0309218 L9.31096291,4.63533415 L7.75198448,11.0309218 L6.20730861,11.0309218 L4.64833018,4.63533415 L4.63402762,11.0309218 L3.16086452,11.0309218 Z" id="Shape" fill="#FFFFFF"></path>
                                <path d="M11.6422793,2.87508068 L13.15835,2.87508068 L13.15835,9.54937511 L16.6338708,9.54937511 L16.6338708,11.0309218 L11.6422793,11.0309218 L11.6422793,2.87508068 Z" id="Shape" fill="#FFFFFF"></path>
                            </g>
                            <g id="Page-1" transform="translate(68.840580, 2.898551)" fill="#FEFEFE">
                                <path d="M5.80061594,5.35642029 L4.22460145,8.60178261 L4.20938406,8.60178261 L3.94916667,5.35642029 L3.10206522,5.35642029 L1.4809058,8.60178261 L1.46568841,8.60178261 L1.20597826,5.35642029 L0.506992754,5.35642029 L0.924456522,9.39257971 L1.74873188,9.39257971 L3.3840942,6.14873913 L3.39931159,6.14873913 L3.69706522,9.39257971 L4.50003623,9.39257971 L6.57416667,5.35642029 L5.80061594,5.35642029 Z" id="Fill-1"></path>
                                <path d="M7.59931159,3.6157029 L7.43699275,4.45468841 L8.22423913,4.45468841 L8.38706522,3.6157029 L7.59931159,3.6157029 Z M7.29547101,5.35758696 L6.49199275,9.39273188 L7.19047101,9.39273188 L7.99394928,5.35758696 L7.29547101,5.35758696 Z" id="Fill-2"></path>
                                <path d="M8.80376812,5.35677536 L9.65137681,5.35677536 L9.83753623,4.42242754 L10.5882609,4.14547101 L10.3503623,5.35677536 L11.3907246,5.35677536 L11.2796377,5.95836957 L10.2311594,5.95836957 L9.88217391,7.69112319 C9.84463768,7.87373188 9.77007246,8.30793478 9.77007246,8.45148551 C9.77007246,8.73503623 9.91869565,8.88619565 10.2752899,8.88619565 C10.4244203,8.88619565 10.6328986,8.84663043 10.7663043,8.78373188 L10.6623188,9.40105072 C10.506087,9.46394928 10.1794203,9.4882971 9.97855072,9.4882971 C9.3165942,9.4882971 9.07108696,9.02112319 9.07108696,8.59351449 C9.07108696,8.33177536 9.16036232,7.8651087 9.20550725,7.64394928 L9.53217391,5.95836957 L8.69978261,5.95836957 L8.80376812,5.35677536 Z" id="Fill-4"></path>
                                <path d="M12.572913,3.45708696 L13.2718986,3.45708696 L12.8032029,5.86346377 L12.8184203,5.86346377 C13.0781304,5.45918841 13.5392174,5.26136232 14.0150145,5.26136232 C14.751029,5.26136232 15.2785652,5.67324638 15.2785652,6.52795652 C15.2785652,6.76484058 15.2339275,7.03469565 15.1897971,7.26346377 L14.7733478,9.39288406 L14.0748696,9.39288406 L14.543058,6.9783913 C14.5653768,6.84447826 14.580087,6.68672464 14.580087,6.59897101 C14.580087,6.17998551 14.3198696,5.86346377 13.8887101,5.86346377 C13.0263913,5.86346377 12.6023333,6.8602029 12.5059565,7.35781159 L12.1042174,9.39288406 L11.4057391,9.39288406 L12.572913,3.45708696 Z" id="Fill-6"></path>
                                <path d="M56.2456594,8.53847826 L56.2233406,8.53847826 C55.7013841,9.23949275 55.1799348,9.63768116 54.3409493,9.63768116 C53.2858768,9.63768116 52.5381957,9.00971014 52.5381957,7.86333333 C52.5381957,5.81101449 54.6929783,5.65376812 56.1208768,5.65376812 L56.6545,5.65376812 C56.6996449,5.48434783 56.6996449,5.30376812 56.6996449,5.12268116 C56.6996449,4.4942029 56.0640652,4.31413043 55.5309493,4.31413043 C54.8629058,4.31413043 54.2161667,4.4942029 53.6145725,4.79753623 L53.8306594,3.50507246 C54.4763841,3.26362319 55.1347899,3.13123188 55.8145,3.13123188 C56.9826884,3.13123188 58.0818913,3.58978261 58.0818913,5.05014493 C58.0818913,5.88355072 57.5046449,8.32137681 57.3676884,9.49362319 L56.0868913,9.49362319 L56.2456594,8.53847826 Z M54.7599348,8.45427536 C55.8941377,8.45427536 56.2456594,7.62137681 56.4840652,6.62007246 L55.9514565,6.62007246 C55.2139203,6.62007246 53.990442,6.75246377 53.990442,7.80297101 C53.990442,8.23615942 54.3749348,8.45427536 54.7599348,8.45427536 L54.7599348,8.45427536 Z" id="Fill-8"></path>
                                <path d="M16.853058,3.26935507 L17.9537826,3.26935507 L18.214,1.99058696 L19.8473333,1.42297826 L19.4724783,3.26935507 L20.8334203,3.26935507 L20.5950145,4.45326812 L19.2340725,4.45326812 L18.6791449,7.16906522 C18.6451594,7.31413768 18.6106667,7.53174638 18.6106667,7.77268841 C18.6106667,8.14652899 18.8490725,8.3752971 19.1889275,8.3752971 C19.4613188,8.3752971 19.7337101,8.31594928 19.926971,8.23174638 L19.6652319,9.48616667 C19.404,9.54703623 19.1097971,9.63174638 18.8490725,9.63174638 C17.8173333,9.63174638 17.0914638,9.19703623 17.0914638,8.00145652 C17.0914638,7.52007971 17.1822609,7.04884783 17.2842174,6.55377536 L17.7153768,4.45326812 L16.6151594,4.45326812 L16.853058,3.26935507 Z" id="Fill-10"></path>
                                <path d="M22.0130725,0.589876812 L21.6955362,2.13494928 L23.2157536,2.13494928 L23.5322754,0.589876812 L22.0130725,0.589876812 Z M21.4576377,3.26915217 L20.2103188,9.48647101 L21.730029,9.48647101 L22.9778551,3.26915217 L21.4576377,3.26915217 Z" id="Fill-13"></path>
                                <path d="M27.5664058,4.69400725 C27.2711884,4.4900942 26.8740145,4.38052899 26.455029,4.38052899 C25.2411884,4.38052899 24.560971,5.58777536 24.560971,6.7585 C24.560971,7.56705072 24.810029,8.37560145 25.8534348,8.37560145 C26.2277826,8.37560145 26.6924203,8.26755797 27.089087,8.06263043 L26.9196667,9.34241304 C26.455029,9.58436957 25.9558986,9.63154348 25.4567681,9.63154348 C23.9482174,9.63154348 22.9732899,8.5577029 22.9732899,6.95277536 C22.9732899,4.77871739 24.3225652,3.12560145 26.4210435,3.12560145 C26.9876377,3.12560145 27.531913,3.23313768 27.9402464,3.36654348 L27.5664058,4.69400725 Z" id="Fill-15"></path>
                                <path d="M29.2325072,0.432833333 L27.4292464,9.48616667 L28.914971,9.48616667 L29.5728696,6.1921087 L29.5951884,6.1921087 L31.1037391,9.48616667 L32.8156957,9.48616667 L31.0585942,6.10638406 L33.8596087,3.26935507 L31.8869275,3.26935507 L29.7651159,5.52761594 L29.7417826,5.52761594 L30.7527246,0.432833333 L29.2325072,0.432833333 Z" id="Fill-17"></path>
                                <path d="M39.3366014,3.26935507 L40.4373261,3.26935507 L40.6970362,1.99058696 L42.3313841,1.42297826 L41.9570362,3.26935507 L43.3164565,3.26935507 L43.0795725,4.45326812 L41.7181232,4.45326812 L41.1631957,7.16906522 C41.1287029,7.31413768 41.0942101,7.53174638 41.0942101,7.77268841 C41.0942101,8.14652899 41.3326159,8.3752971 41.6734855,8.3752971 C41.9453696,8.3752971 42.2177609,8.31594928 42.4095,8.23174638 L42.1492826,9.48616667 C41.888558,9.54703623 41.5928333,9.63174638 41.3326159,9.63174638 C40.3008768,9.63174638 39.5755145,9.19703623 39.5755145,8.00145652 C39.5755145,7.52007971 39.6658043,7.04884783 39.7677609,6.55377536 L40.198413,4.45326812 L39.0987029,4.45326812 L39.3366014,3.26935507 Z" id="Fill-19"></path>
                                <path d="M38.8286449,5.49104348 C38.8286449,3.91046377 37.8760362,3.12524638 36.4359638,3.12524638 C34.5190797,3.12524638 33.1135,4.98481159 33.1135,6.91589855 C33.1135,8.76278261 34.2461812,9.63169565 35.9261812,9.63169565 C36.5500942,9.63169565 37.1958188,9.47495652 37.7852391,9.28169565 L37.9785,8.0014058 C37.4108913,8.2803913 36.8098043,8.4487971 36.1858913,8.4487971 C35.2140072,8.4487971 34.6463986,8.08205797 34.5733551,7.10307246 L34.5723406,7.10307246 C34.5692971,7.04676812 34.5642246,6.99249275 34.5642246,6.93314493 C34.5642246,6.92046377 34.5647319,6.90930435 34.5647319,6.89763768 L34.5647319,6.87937681 L34.5657464,6.87937681 C34.5728478,6.45430435 34.6606014,6.0337971 34.8127754,5.64626087 C35.1054565,4.85495652 35.5178478,4.30865217 36.4131377,4.30865217 C37.0482101,4.30865217 37.377413,4.68198551 37.377413,5.34698551 C37.377413,5.49104348 37.3652391,5.62394203 37.3439348,5.76901449 L35.2637174,5.76901449 C35.1287899,6.25749275 35.1054565,6.58517391 35.1019058,6.87937681 L38.6810362,6.87937681 C38.7723406,6.42133333 38.8286449,5.96176812 38.8286449,5.49104348" id="Fill-21"></path>
                                <path d="M43.9724275,3.95839855 C44.0175725,3.71593478 44.0642391,3.46231159 44.0977174,3.26955797 L45.515471,3.26955797 L45.3790217,4.10296377 L45.4023551,4.10296377 C45.8096739,3.46231159 46.4782246,3.1255 47.1939493,3.1255 C47.8853261,3.1255 48.599529,3.5597029 48.6791667,4.30839855 L48.7009783,4.30839855 C49.0869928,3.50086232 49.9381522,3.1255 50.7548188,3.1255 C51.6277899,3.1255 52.375471,3.88535507 52.375471,4.82680435 C52.375471,5.38274638 52.2390217,6.01071739 52.1152536,6.51745652 L51.5019928,9.48586232 L49.9832971,9.48586232 L50.596558,6.45607971 C50.6751812,6.08223913 50.7882971,5.50245652 50.7882971,5.12912319 C50.7882971,4.66955797 50.4596014,4.37992029 50.073587,4.37992029 C49.0190217,4.37992029 48.7582971,5.68354348 48.5650362,6.52861594 L47.9644565,9.48586232 L46.4452536,9.48586232 L47.0575,6.45607971 C47.1376449,6.08223913 47.2502536,5.50245652 47.2502536,5.12912319 C47.2502536,4.66955797 46.921558,4.37992029 46.5355435,4.37992029 C45.5032971,4.37992029 45.2197464,5.69673188 45.0259783,6.52861594 L44.426413,9.48586232 L42.9072101,9.48586232 L43.9724275,3.95839855 Z" id="Fill-23"></path>
                                <path d="M62.5971449,4.53549275 C62.4343188,4.44114493 62.0143188,4.30875362 61.5831594,4.30875362 C61.1291739,4.30875362 60.5620725,4.44114493 60.5620725,4.93621739 C60.5620725,5.72042029 62.5357681,6.01056522 62.5357681,7.53128986 C62.5357681,9.14991304 61.2088116,9.6317971 59.9046812,9.6317971 C59.2914203,9.6317971 58.6801884,9.53592754 58.1247536,9.25795652 L58.452942,7.96549275 C58.8841014,8.22013043 59.3157681,8.44889855 59.9046812,8.44889855 C60.414971,8.44889855 60.948087,8.26781159 60.948087,7.76107246 C60.948087,6.75875362 58.975913,6.66237681 58.975913,5.10513043 C58.975913,3.64426087 60.3008406,3.12534783 61.5030145,3.12534783 C62.0589565,3.12534783 62.6265652,3.2333913 62.9253333,3.31556522 L62.5971449,4.53549275 Z" id="Fill-25"></path>
                                <path d="M63.5670507,3.26935507 L64.6672681,3.26935507 L64.9279928,1.99058696 L66.5618333,1.42297826 L66.1874855,3.26935507 L67.5469058,3.26935507 L67.3095145,4.45326812 L65.9490797,4.45326812 L65.3931377,7.16906522 C65.3591522,7.31413768 65.3246594,7.53174638 65.3246594,7.77268841 C65.3246594,8.14652899 65.5635725,8.3752971 65.9039348,8.3752971 C66.1748043,8.3752971 66.4477029,8.31594928 66.6404565,8.23174638 L66.3802391,9.48616667 C66.1190072,9.54703623 65.8232826,9.63174638 65.5635725,9.63174638 C64.5303116,9.63174638 63.8059638,9.19703623 63.8059638,8.00145652 C63.8059638,7.52007971 63.8967609,7.04884783 63.9987174,6.55377536 L64.4293696,4.45326812 L63.3291522,4.45326812 L63.5670507,3.26935507 Z" id="Fill-27"></path>
                                <path d="M73.8694783,4.10306522 C73.9156377,3.83726812 73.9602754,3.55980435 74.0059275,3.26864493 L75.4571594,3.26864493 L75.2532464,4.4408913 L75.2755652,4.4408913 C75.5484638,3.76473188 76.2956377,3.1250942 76.9996957,3.1250942 C77.1924493,3.1250942 77.3963623,3.13676087 77.5784638,3.18494928 L77.2604203,4.76705072 C77.0899855,4.70618116 76.8759275,4.66965942 76.6826667,4.66965942 C75.6042609,4.66965942 75.0828116,5.69632609 74.8905652,6.69864493 L74.3462899,9.48596377 L72.8255652,9.48596377 L73.8694783,4.10306522 Z" id="Fill-29"></path>
                                <path d="M72.8148623,5.49104348 C72.8148623,3.91046377 71.8637754,3.12524638 70.4216739,3.12524638 C68.5063116,3.12524638 67.1002246,4.98481159 67.1002246,6.91589855 C67.1002246,8.76278261 68.2339203,9.63169565 69.9118913,9.63169565 C70.5358043,9.63169565 71.1820362,9.47495652 71.7719638,9.28169565 L71.9647174,8.0014058 C71.3981232,8.2803913 70.796529,8.4487971 70.1731232,8.4487971 C69.2007319,8.4487971 68.6331232,8.08205797 68.5595725,7.10307246 L68.558558,7.10307246 C68.5560217,7.04676812 68.550442,6.99249275 68.550442,6.93314493 C68.550442,6.92046377 68.550442,6.90930435 68.5519638,6.89763768 C68.5519638,6.89053623 68.550442,6.88597101 68.550442,6.87937681 L68.5519638,6.87937681 C68.558558,6.45430435 68.6473261,6.0337971 68.8000072,5.64626087 C69.0901522,4.85495652 69.5045725,4.30865217 70.3993551,4.30865217 C71.0344275,4.30865217 71.3636304,4.68198551 71.3636304,5.34698551 C71.3636304,5.49104348 71.352471,5.62394203 71.3291377,5.76901449 L69.2499348,5.76901449 C69.1160217,6.25749275 69.0916739,6.58517391 69.0886304,6.87937681 L72.6672536,6.87937681 C72.7590652,6.42133333 72.8148623,5.96176812 72.8148623,5.49104348" id="Fill-31"></path>
                                <path d="M79.7275652,2.89881159 C80.4514058,2.89881159 81.0418406,3.52576812 81.0418406,4.29728986 C81.0418406,5.0677971 80.4514058,5.69424638 79.7275652,5.69424638 C79.0042319,5.69424638 78.4148116,5.0677971 78.4148116,4.29728986 C78.4148116,3.52576812 79.0042319,2.89881159 79.7275652,2.89881159 L79.7275652,2.89881159 Z M79.7311159,5.48627536 C80.3347391,5.48627536 80.7902464,4.96634783 80.7902464,4.29728986 C80.7902464,3.62772464 80.3347391,3.1077971 79.7311159,3.1077971 C79.1208986,3.1077971 78.6638696,3.62772464 78.6638696,4.29728986 C78.6638696,4.96634783 79.1208986,5.48627536 79.7311159,5.48627536 L79.7311159,5.48627536 Z M79.2248841,3.47605797 L79.8143043,3.47605797 C80.1688696,3.47605797 80.3433623,3.62772464 80.3433623,3.93815942 C80.3433623,4.19989855 80.1856087,4.39011594 79.9461884,4.39011594 L80.3829275,5.11497101 L80.1166232,5.11497101 L79.6864783,4.39011594 L79.4774928,4.39011594 L79.4774928,5.11497101 L79.2248841,5.11497101 L79.2248841,3.47605797 Z M79.4774928,4.18062319 L79.7757536,4.18062319 C79.9669855,4.18062319 80.0917681,4.13801449 80.0917681,3.92497101 C80.0917681,3.73931884 79.9355362,3.68605797 79.7757536,3.68605797 L79.4774928,3.68605797 L79.4774928,4.18062319 Z" id="Fill-33"></path>
                            </g>
                        </g>
                    </g>
                </g>
            </g>
        </g>
    </g>
</svg>
