<?xml version="1.0" encoding="UTF-8" standalone="no"?>
<svg width="155px" height="20px" viewBox="0 0 155 20" version="1.1" xmlns="http://www.w3.org/2000/svg" xmlns:xlink="http://www.w3.org/1999/xlink" xmlns:sketch="http://www.bohemiancoding.com/sketch/ns">
    <!-- Generator: Sketch 3.5.1 (25234) - http://www.bohemiancoding.com/sketch -->
    <title>mlb logo</title>
    <desc>Created with Sketch.</desc>
    <defs></defs>
    <g id="desktop-checkout" stroke="none" stroke-width="1" fill="none" fill-rule="evenodd" sketch:type="MSPage">
        <g id="2_d_checkout_mlb_3" sketch:type="MSArtboardGroup" transform="translate(-831.000000, -375.000000)">
            <g id="order-summary" sketch:type="MSLayerGroup" transform="translate(620.000000, 111.000000)">
                <g id="artist-img-and-order-summary" transform="translate(0.000000, 73.000000)" sketch:type="MSShapeGroup">
                    <g id="mlb-logo" transform="translate(214.000000, 192.000000)">
                        <g id="Group-+-Page-1">
                            <g id="Group">
                                <path d="M2.03172048,13.7119083 C0.909301471,13.7119083 0,12.7793237 0,11.6281645 L0,2.08374377 C0,0.932584623 0.909301471,0 2.03172048,0 L61.8040844,0 C62.9265034,0 63.8358049,0.932584623 63.8358049,2.08374377 L63.8358049,11.6281645 C63.8358049,12.7793237 62.9265034,13.7119083 61.8040844,13.7119083 L2.03172048,13.7119083 L2.03172048,13.7119083 Z" id="Shape" fill="#FFFFFF"></path>
                                <path d="M62.7560094,1.10744424 C62.5002683,0.845154815 62.1592803,0.699438467 61.8040844,0.699438467 L54.5580883,0.699438467 L57.9111375,6.42609092 L58.2237098,6.46980582 L58.4084117,6.73209525 L58.4084117,6.97981304 L58.6215292,7.02352794 L58.8204389,7.300389 L58.8204389,7.53353516 L59.0335565,7.57725006 C59.0335565,7.57725006 59.246674,7.81039622 59.246674,7.82496785 L59.246674,8.36411834 C59.246674,8.36411834 59.7155326,8.81583902 60.1417676,8.976127 C60.4401322,9.09270008 60.4685479,9.57356402 60.6390419,9.83585345 C60.8663672,10.2001443 61.1789396,10.3604323 61.1079004,10.5644352 C60.9516143,11.1327289 60.3975087,12.0653136 59.8718188,12.1236001 L57.7974748,12.1236001 L57.7974748,13.0270415 L61.8040844,13.0270415 C62.5570997,13.0270415 63.1538288,12.4004612 63.1538288,11.6427362 L63.1538288,2.08374377 C63.1538288,1.7194529 63.0117504,1.36973367 62.7560094,1.10744424" id="Shape" fill="#CC0000"></path>
                                <path d="M52.5689913,0.699438467 L2.03172048,0.699438467 C1.67652459,0.699438467 1.33553654,0.845154815 1.0797955,1.10744424 C0.824054458,1.36973367 0.681976104,1.7194529 0.681976104,2.08374377 L0.681976104,11.6281645 C0.681976104,11.9924554 0.824054458,12.3421746 1.0797955,12.604464 C1.33553654,12.8667535 1.67652459,13.0124698 2.03172048,13.0124698 L48.0082761,13.0124698 C47.7951586,12.648179 47.5536254,12.2401732 47.4825862,12.1090285 L46.4738299,12.1090285 C46.4738299,9.54442075 47.3263,8.11640055 48.3350563,7.83953949 C48.4771347,7.81039622 48.4060955,7.11095775 48.2356015,6.89238323 C48.2356015,6.89238323 47.7525351,6.90695487 47.6530802,6.8778116 C47.5252097,6.83409669 47.6104567,6.70295198 47.6104567,6.70295198 L48.0793153,5.65379428 L48.022484,5.36236158 L46.2749202,5.36236158 C46.2465045,5.36236158 47.7099116,4.32777552 47.7099116,4.32777552 C47.7809508,1.60287982 50.5088552,1.39887693 52.1427563,2.52089281 C53.1088891,3.19118801 53.1941361,4.50263513 53.1088891,5.40607649 C53.0946812,5.46436303 52.853148,5.42064812 52.853148,5.42064812 C52.853148,5.42064812 52.682654,6.41151929 53.1230969,6.41151929 L55.0411547,6.41151929 C55.8225856,6.38237602 56.5756009,6.9215265 56.5756009,6.9215265 L56.7603028,6.23665967 L52.5689913,0.699438467 L52.5689913,0.699438467 Z" id="Shape" fill="#000088"></path>
                                <path d="M24.5653476,9.03441354 C24.8210886,9.03441354 25.048414,9.12184335 25.2331158,9.3112746 C25.4178177,9.50070585 25.5172725,9.71928037 25.5172725,9.99614143 C25.5172725,10.2584309 25.4178177,10.491577 25.2331158,10.6810083 C25.048414,10.8704395 24.8210886,10.9578693 24.5653476,10.9578693 C24.3096065,10.9578693 24.0822812,10.8704395 23.8975793,10.6810083 C23.7128774,10.491577 23.6276304,10.2584309 23.6276304,9.99614143 C23.6276304,9.73385201 23.7128774,9.50070585 23.8975793,9.3112746 C24.0822812,9.12184335 24.3096065,9.03441354 24.5653476,9.03441354" id="Shape" fill="#FFFFFF"></path>
                                <path d="M30.8736265,6.70295198 L29.5522978,6.97981304 C29.5096743,6.67380871 29.4102195,6.45523419 29.2539333,6.29494621 C29.0976471,6.14922986 28.8845296,6.06180005 28.6429964,6.06180005 C28.3020083,6.06180005 28.0462673,6.19294476 27.8331497,6.45523419 C27.63424,6.71752361 27.5347852,7.16924429 27.5347852,7.78125295 C27.5347852,8.48069142 27.63424,8.96155536 27.8331497,9.25298806 C28.0320594,9.54442075 28.3020083,9.67556547 28.6572042,9.67556547 C28.9129452,9.67556547 29.1260628,9.58813566 29.2823489,9.41327604 C29.4386351,9.23841642 29.5665057,8.94698373 29.623337,8.53897796 L30.9446657,8.80126738 C30.8025873,9.50070585 30.5468463,10.0252847 30.1632347,10.3895756 C29.7796232,10.7538664 29.2539333,10.9287261 28.6003728,10.9287261 C27.8615654,10.9287261 27.2648363,10.6664366 26.8243934,10.1272861 C26.3839505,9.58813566 26.1566251,8.84498229 26.1566251,7.89782603 C26.1566251,6.93609814 26.3839505,6.17837313 26.8243934,5.65379428 C27.2648363,5.11464379 27.8615654,4.85235437 28.6145807,4.85235437 C29.2255176,4.85235437 29.7227918,4.99807072 30.0921956,5.30407505 C30.4473915,5.61007937 30.7031325,6.07637169 30.8736265,6.70295198" id="Shape" fill="#FFFFFF"></path>
                                <path d="M33.2037115,6.57180727 C33.4452447,6.26580294 33.7436093,6.10551496 34.0845973,6.10551496 C34.4397932,6.10551496 34.7239499,6.26580294 34.9654831,6.57180727 C35.2070163,6.8778116 35.320679,7.31496064 35.320679,7.89782603 C35.320679,8.48069142 35.2070163,8.9324121 34.9654831,9.23841642 C34.7239499,9.54442075 34.4397932,9.70470874 34.0845973,9.70470874 C33.7294015,9.70470874 33.4452447,9.54442075 33.2037115,9.23841642 C32.9621783,8.9324121 32.8485157,8.48069142 32.8485157,7.91239766 C32.8343078,7.32953227 32.9621783,6.8778116 33.2037115,6.57180727 M31.7971358,9.52984912 C32.0102534,9.99614143 32.3370336,10.3458607 32.7632686,10.5935785 C33.1895037,10.8412962 33.6299466,10.9578693 34.0988052,10.9578693 C34.8518205,10.9578693 35.4769652,10.6664366 35.9742395,10.0835712 C36.4715137,9.50070585 36.7130469,8.77212411 36.7130469,7.88325439 C36.7130469,7.00895631 36.4715137,6.28037457 35.9742395,5.71208082 C35.4769652,5.14378706 34.8518205,4.85235437 34.0845973,4.85235437 C33.5873231,4.85235437 33.1326724,4.98349908 32.734853,5.23121687 C32.3370336,5.47893466 32.0244612,5.85779717 31.7971358,6.32408948 C31.5698105,6.79038179 31.4703556,7.300389 31.4703556,7.81039622 C31.4703556,8.49526305 31.5840183,9.06355681 31.7971358,9.52984912" id="Shape" fill="#FFFFFF"></path>
                                <path d="M37.2387368,5.10007216 L38.4748185,5.10007216 L38.4748185,5.90151207 C38.9152614,5.28950341 39.4409513,4.98349908 40.0518883,4.98349908 C40.3786685,4.98349908 40.6628252,5.05635725 40.9043584,5.21664524 C41.1458916,5.37693322 41.3448013,5.61007937 41.4868796,5.9160837 C41.714205,5.61007937 41.9557382,5.36236158 42.2114792,5.21664524 C42.4672203,5.05635725 42.7371692,4.98349908 43.0355337,4.98349908 C43.4049374,4.98349908 43.7175098,5.07092889 43.9874587,5.24578851 C44.2431997,5.42064812 44.4421094,5.66836591 44.5699799,6.01808515 C44.6694348,6.26580294 44.7120583,6.67380871 44.7120583,7.22753083 L44.7120583,10.9578693 L43.3623139,10.9578693 L43.3623139,7.62096497 C43.3623139,7.03809958 43.3196904,6.67380871 43.2202356,6.49894909 C43.092365,6.28037457 42.9076632,6.16380149 42.6519221,6.16380149 C42.4672203,6.16380149 42.2825184,6.23665967 42.1262322,6.36780438 C41.9557382,6.49894909 41.8420755,6.68838035 41.7710363,6.95066977 C41.6999972,7.19838756 41.6573737,7.60639333 41.6573737,8.16011545 L41.6573737,10.9578693 L40.3076293,10.9578693 L40.3076293,7.75210968 C40.3076293,7.18381593 40.2792136,6.81952506 40.2365901,6.65923708 C40.1939666,6.49894909 40.1087196,6.36780438 40.0092647,6.29494621 C39.9098099,6.2075164 39.7677315,6.17837313 39.5972375,6.17837313 C39.38412,6.17837313 39.1994181,6.23665967 39.0431319,6.36780438 C38.8726379,6.49894909 38.7589752,6.68838035 38.687936,6.9215265 C38.6168969,7.16924429 38.5742734,7.56267843 38.5742734,8.13097218 L38.5742734,10.972441 L37.224529,10.972441 L37.2387368,5.10007216 L37.2387368,5.10007216 L37.2387368,5.10007216 Z" id="Shape" fill="#FFFFFF"></path>
                                <path d="M19.6636443,4.32777552 C20.0188402,4.32777552 20.4876988,4.40063369 20.6581928,4.54635004 C20.8286868,4.69206639 20.9139338,4.89606927 20.9139338,5.14378706 C20.9139338,5.42064812 20.8286868,5.62465101 20.643985,5.78493899 C20.4592831,5.94522697 19.9762167,6.01808515 19.606813,6.01808515 L18.8537977,6.01808515 L18.8537977,4.32777552 L19.6636443,4.32777552 L19.6636443,4.32777552 L19.6636443,4.32777552 Z M20.2035421,10.9578693 C20.8428947,10.9578693 21.3401689,10.8704395 21.7095726,10.6810083 C22.0647685,10.491577 22.3631331,10.214716 22.6046663,9.83585345 C22.8319916,9.45699095 22.9456543,9.04898517 22.9456543,8.5972645 C22.9456543,8.13097218 22.8319916,7.70839478 22.6188741,7.37324718 C22.3915487,7.02352794 22.0505607,6.73209525 21.5674943,6.49894909 C21.851651,6.28037457 22.0647685,6.04722842 22.1784312,5.79951063 C22.3063017,5.55179284 22.3631331,5.27493178 22.3631331,4.95435581 C22.3631331,4.4880635 22.2210547,4.06548609 21.936898,3.73033849 C21.6527413,3.38061926 21.2833376,3.1474731 20.8002712,3.01632839 C20.4734909,2.91432695 19.3084484,2.87061204 18.5838488,2.87061204 L17.3335593,2.87061204 L17.3335593,10.9578693 L20.2035421,10.9578693 L20.2035421,10.9578693 L20.2035421,10.9578693 Z M19.5926051,7.40239045 C20.1893342,7.40239045 20.8286868,7.50439189 21.0844279,7.70839478 C21.3401689,7.91239766 21.4680394,8.18925872 21.4680394,8.53897796 C21.4680394,8.84498229 21.3543767,9.07812844 21.1412592,9.23841642 C20.9281417,9.39870441 20.2887891,9.48613422 19.6494365,9.48613422 L18.8537977,9.48613422 L18.8537977,7.40239045 L19.5926051,7.40239045 L19.5926051,7.40239045 Z" id="Shape" fill="#FFFFFF"></path>
                                <path d="M3.13993164,10.9578693 L3.13993164,2.88518368 L5.51264017,2.88518368 L6.94763156,8.39326161 L8.33999943,2.88518368 L10.7269158,2.88518368 L10.7269158,10.9578693 L9.26350874,10.9578693 L9.2493009,4.60463658 L7.70064684,10.9578693 L6.1662006,10.9578693 L4.61754653,4.60463658 L4.6033387,10.9578693 L3.13993164,10.9578693 Z" id="Shape" fill="#FFFFFF"></path>
                                <path d="M11.5651781,2.85604041 L13.0712087,2.85604041 L13.0712087,9.48613422 L16.5237127,9.48613422 L16.5237127,10.9578693 L11.5651781,10.9578693 L11.5651781,2.85604041 Z" id="Shape" fill="#FFFFFF"></path>
                            </g>
                            <g id="Page-1" transform="translate(68.384682, 2.879355)" fill="#475058">
                                <path d="M5.76220127,5.32094731 L4.19662396,8.54481716 L4.18150734,8.54481716 L3.92301325,5.32094731 L3.08152174,5.32094731 L1.47109847,8.54481716 L1.45598186,8.54481716 L1.19799165,5.32094731 L0.503635186,5.32094731 L0.918334293,9.3303772 L1.73715088,9.3303772 L3.36168298,6.108019 L3.3767996,6.108019 L3.67258134,9.3303772 L4.47023467,9.3303772 L6.53062914,5.32094731 L5.76220127,5.32094731 Z" id="Fill-1"></path>
                                <path d="M7.54898503,3.59175785 L7.38774115,4.42518716 L8.16977397,4.42518716 L8.33152174,3.59175785 L7.54898503,3.59175785 Z M7.24715664,5.32210625 L6.44899942,9.33052836 L7.142852,9.33052836 L7.94100921,5.32210625 L7.24715664,5.32210625 Z" id="Fill-2"></path>
                                <path d="M8.74546502,5.32130003 L9.58746041,5.32130003 L9.77238699,4.39313994 L10.5181399,4.11801756 L10.2818169,5.32130003 L11.3152894,5.32130003 L11.2049381,5.91891016 L10.1634034,5.91891016 L9.81672905,7.6401886 C9.77944141,7.82158796 9.70537,8.25291535 9.70537,8.3955154 C9.70537,8.67718831 9.85300893,8.82734667 10.2072416,8.82734667 C10.3553844,8.82734667 10.562482,8.78804348 10.6950043,8.72556147 L10.5917075,9.33879211 C10.4365102,9.40127411 10.1120069,9.4254607 9.91246761,9.4254607 C9.2548949,9.4254607 9.01101353,8.96138065 9.01101353,8.5366038 C9.01101353,8.27659804 9.09969767,7.81302188 9.14454362,7.59332709 L9.46904693,5.91891016 L8.64216815,5.91891016 L8.74546502,5.32130003 Z" id="Fill-4"></path>
                                <path d="M12.4896487,3.43419234 L13.1840052,3.43419234 L12.7184135,5.82463288 L12.7335301,5.82463288 C12.9915203,5.42303484 13.4495537,5.22651886 13.9221998,5.22651886 C14.6533401,5.22651886 15.1773827,5.63567521 15.1773827,6.48472502 C15.1773827,6.72004031 15.1330406,6.98810826 15.0892024,7.21536136 L14.6755111,9.33067953 L13.9816585,9.33067953 L14.4467463,6.93217679 C14.4689174,6.79915059 14.4835301,6.64244169 14.4835301,6.55526922 C14.4835301,6.13905845 14.225036,5.82463288 13.7967319,5.82463288 C12.9401238,5.82463288 12.5188742,6.81477109 12.4231356,7.30908437 L12.024057,9.33067953 L11.3302044,9.33067953 L12.4896487,3.43419234 Z" id="Fill-6"></path>
                                <path d="M55.8731716,8.48193205 L55.8510006,8.48193205 C55.3325007,9.17830406 54.8145048,9.57385546 53.9810754,9.57385546 C52.9329902,9.57385546 52.1902606,8.95004319 52.1902606,7.81125828 C52.1902606,5.77253095 54.3307731,5.61632594 55.7492154,5.61632594 L56.2793046,5.61632594 C56.3241506,5.44802764 56.3241506,5.26864382 56.3241506,5.08875612 C56.3241506,4.46443997 55.69278,4.28556003 55.1631946,4.28556003 C54.4995753,4.28556003 53.8571192,4.46443997 53.2595091,4.76576447 L53.474165,3.48186006 C54.1156133,3.24200979 54.7696588,3.11049525 55.4448675,3.11049525 C56.6053196,3.11049525 57.697243,3.56600921 57.697243,5.01670026 C57.697243,5.84458681 57.1238195,8.26626836 56.9877699,9.43075151 L55.7154549,9.43075151 L55.8731716,8.48193205 Z M54.3972862,8.39828678 C55.5239778,8.39828678 55.8731716,7.57090412 56.1099986,6.57623092 L55.5809171,6.57623092 C54.8482652,6.57623092 53.6328894,6.70774547 53.6328894,7.75129571 C53.6328894,8.18161532 54.0148359,8.39828678 54.3972862,8.39828678 L54.3972862,8.39828678 Z" id="Fill-8"></path>
                                <path d="M16.7414483,3.24770371 L17.8348834,3.24770371 L18.0933775,1.97740426 L19.715894,1.41355456 L19.3435215,3.24770371 L20.6954506,3.24770371 L20.4586237,4.42377627 L19.1066945,4.42377627 L18.555442,7.12158796 C18.5216815,7.26569968 18.4874172,7.48186726 18.4874172,7.72121365 C18.4874172,8.09257846 18.7242442,8.31983156 19.0618485,8.31983156 C19.3324359,8.31983156 19.6030233,8.26087676 19.7950043,8.1772315 L19.5349986,9.42334437 C19.2754967,9.48381083 18.9832422,9.56795998 18.7242442,9.56795998 C17.6993377,9.56795998 16.9782753,9.13612871 16.9782753,7.94846674 C16.9782753,7.47027786 17.0684711,7.00216671 17.1697524,6.51037288 L17.5980564,4.42377627 L16.5051253,4.42377627 L16.7414483,3.24770371 Z" id="Fill-10"></path>
                                <path d="M21.8672905,0.585970343 L21.5518572,2.12081054 L23.0620069,2.12081054 L23.3764325,0.585970343 L21.8672905,0.585970343 Z M21.3155341,3.24750216 L20.0764757,9.4236467 L21.5861215,9.4236467 L22.8256838,3.24750216 L21.3155341,3.24750216 Z" id="Fill-13"></path>
                                <path d="M27.3838468,4.66292111 C27.0905845,4.46035848 26.6960409,4.35151886 26.2798301,4.35151886 C25.0740282,4.35151886 24.3983156,5.55077023 24.3983156,6.71374172 C24.3983156,7.51693781 24.6457242,8.32013389 25.68222,8.32013389 C26.0540887,8.32013389 26.5156493,8.21280593 26.909689,8.00923553 L26.7413907,9.28054276 C26.2798301,9.52089692 25.7840052,9.56775842 25.2881802,9.56775842 C23.7896199,9.56775842 22.8211489,8.50102937 22.8211489,6.90673049 C22.8211489,4.74707026 24.1614886,3.1049021 26.2460697,3.1049021 C26.8089116,3.1049021 27.3495825,3.21172617 27.7552116,3.34424849 L27.3838468,4.66292111 Z" id="Fill-15"></path>
                                <path d="M29.0389145,0.429966887 L27.2475957,9.42334437 L28.7234811,9.42334437 L29.3770227,6.15110135 L29.3991938,6.15110135 L30.8977541,9.42334437 L32.5983732,9.42334437 L30.8529081,6.06594443 L33.6353729,3.24770371 L31.6757558,3.24770371 L29.567996,5.49100921 L29.5448172,5.49100921 L30.5490642,0.429966887 L29.0389145,0.429966887 Z" id="Fill-17"></path>
                                <path d="M39.0760942,3.24770371 L40.1695292,3.24770371 L40.4275194,1.97740426 L42.0510438,1.41355456 L41.6791751,3.24770371 L43.0295926,3.24770371 L42.7942773,4.42377627 L41.4418442,4.42377627 L40.8905917,7.12158796 C40.8563274,7.26569968 40.8220631,7.48186726 40.8220631,7.72121365 C40.8220631,8.09257846 41.05889,8.31983156 41.3975022,8.31983156 C41.6675857,8.31983156 41.938173,8.26087676 42.1286424,8.1772315 L41.8701483,9.42334437 C41.6111503,9.48381083 41.3173841,9.56795998 41.05889,9.56795998 C40.0339836,9.56795998 39.313425,9.13612871 39.313425,7.94846674 C39.313425,7.47027786 39.4031169,7.00216671 39.5043982,6.51037288 L39.9321984,4.42377627 L38.8397711,4.42377627 L39.0760942,3.24770371 Z" id="Fill-19"></path>
                                <path d="M38.5715016,5.45467895 C38.5715016,3.88456666 37.6252016,3.10454938 36.194666,3.10454938 C34.2904765,3.10454938 32.8942053,4.9517996 32.8942053,6.8700979 C32.8942053,8.70475094 34.0193853,9.56790959 35.6882594,9.56790959 C36.3080406,9.56790959 36.9494889,9.41220847 37.5350058,9.22022747 L37.7269868,7.94841635 C37.1631371,8.22555428 36.5660308,8.3928448 35.9462496,8.3928448 C34.9808019,8.3928448 34.4169522,8.02853441 34.3443925,7.05603225 L34.3433847,7.05603225 C34.3403614,7.00010078 34.3353225,6.94618485 34.3353225,6.88723006 C34.3353225,6.87463288 34.3358264,6.86354737 34.3358264,6.85195796 L34.3358264,6.83381802 L34.3368341,6.83381802 C34.3438886,6.41156061 34.431061,5.99383818 34.5822272,5.60886841 C34.8729701,4.82280449 35.2826303,4.28011805 36.1719911,4.28011805 C36.8028578,4.28011805 37.1298805,4.65097898 37.1298805,5.31157501 C37.1298805,5.45467895 37.1177872,5.58669738 37.096624,5.7308091 L35.0301828,5.7308091 C34.8961489,6.2160524 34.8729701,6.54156349 34.8694428,6.83381802 L38.4248704,6.83381802 C38.5155701,6.37880795 38.5715016,5.92228621 38.5715016,5.45467895" id="Fill-21"></path>
                                <path d="M43.6812194,3.93218399 C43.7260654,3.69132594 43.772423,3.43938238 43.8056795,3.24790527 L45.2140441,3.24790527 L45.0784984,4.07579182 L45.1016772,4.07579182 C45.5062986,3.43938238 46.1704218,3.10480132 46.8814066,3.10480132 C47.5682047,3.10480132 48.2776778,3.53612871 48.3567881,4.27986611 L48.3784552,4.27986611 C48.7619133,3.4776778 49.6074359,3.10480132 50.4186942,3.10480132 C51.285884,3.10480132 52.0286136,3.85962424 52.0286136,4.79483876 C52.0286136,5.34709905 51.893068,5.97091132 51.7701195,6.47429456 L51.16092,9.42304204 L49.6522819,9.42304204 L50.2614814,6.41332422 C50.3395839,6.0419594 50.4519508,5.46601641 50.4519508,5.09515549 C50.4519508,4.63863375 50.1254319,4.3509142 49.7419738,4.3509142 C48.6943925,4.3509142 48.4353945,5.64590412 48.2434135,6.48538007 L47.6468111,9.42304204 L46.1376692,9.42304204 L46.7458609,6.41332422 C46.8254751,6.0419594 46.937338,5.46601641 46.937338,5.09515549 C46.937338,4.63863375 46.6108192,4.3509142 46.2273611,4.3509142 C45.2019508,4.3509142 44.9202779,5.65900518 44.727793,6.48538007 L44.1321984,9.42304204 L42.6230564,9.42304204 L43.6812194,3.93218399 Z" id="Fill-23"></path>
                                <path d="M62.1825943,4.50545638 C62.0208465,4.41173337 61.603628,4.28021883 61.1753239,4.28021883 C60.7243449,4.28021883 60.1609991,4.41173337 60.1609991,4.90352721 C60.1609991,5.68253671 62.121624,5.97076015 62.121624,7.48141376 C62.121624,9.08931759 60.8034552,9.56801037 59.5079614,9.56801037 C58.8987619,9.56801037 58.2915779,9.4727757 57.7398215,9.19664555 L58.0658365,7.91274115 C58.4941405,8.16569248 58.9229485,8.39294558 59.5079614,8.39294558 C60.0148719,8.39294558 60.5444572,8.21305788 60.5444572,7.70967463 C60.5444572,6.71399367 58.5853441,6.61825511 58.5853441,5.07132162 C58.5853441,3.62012669 59.9014973,3.10465016 61.0957098,3.10465016 C61.6479701,3.10465016 62.2118198,3.21197812 62.5086093,3.29360783 L62.1825943,4.50545638 Z" id="Fill-25"></path>
                                <path d="M63.1460769,3.24770371 L64.2390081,3.24770371 L64.498006,1.97740426 L66.1210265,1.41355456 L65.7491578,3.24770371 L67.0995753,3.24770371 L66.8637561,4.42377627 L65.5123308,4.42377627 L64.9600705,7.12158796 C64.9263101,7.26569968 64.8920458,7.48186726 64.8920458,7.72121365 C64.8920458,8.09257846 65.1293766,8.31983156 65.4674849,8.31983156 C65.7365606,8.31983156 66.0076519,8.26087676 66.199129,8.1772315 L65.9406349,9.42334437 C65.681133,9.48381083 65.3873668,9.56795998 65.1293766,9.56795998 C64.1029585,9.56795998 63.3834077,9.13612871 63.3834077,7.94846674 C63.3834077,7.47027786 63.4736035,7.00216671 63.5748848,6.51037288 L64.002685,4.42377627 L62.9097538,4.42377627 L63.1460769,3.24770371 Z" id="Fill-27"></path>
                                <path d="M73.3802764,4.0758926 C73.4261301,3.81185574 73.4704722,3.53622948 73.5158221,3.24699827 L74.9574431,3.24699827 L74.7548805,4.41148143 L74.7770515,4.41148143 C75.0481428,3.73979988 75.7903686,3.10439821 76.4897639,3.10439821 C76.681241,3.10439821 76.8838036,3.11598762 77.0646991,3.1638569 L76.7487619,4.73548085 C76.5794558,4.6750144 76.3668154,4.63873452 76.1748344,4.63873452 C75.1035704,4.63873452 74.5855744,5.65860207 74.3946012,6.65428304 L73.8539303,9.42314282 L72.3432767,9.42314282 L73.3802764,4.0758926 Z" id="Fill-29"></path>
                                <path d="M72.3326447,5.45467895 C72.3326447,3.88456666 71.3878563,3.10454938 69.9553052,3.10454938 C68.0526274,3.10454938 66.6558523,4.9517996 66.6558523,6.8700979 C66.6558523,8.70475094 67.78204,9.56790959 69.4488986,9.56790959 C70.0686798,9.56790959 70.710632,9.41220847 71.2966527,9.22022747 L71.4881299,7.94841635 C70.9252879,8.22555428 70.3276778,8.3928448 69.7084005,8.3928448 C68.7424489,8.3928448 68.1785992,8.02853441 68.1055356,7.05603225 L68.1045278,7.05603225 C68.1020084,7.00010078 68.0964656,6.94618485 68.0964656,6.88723006 C68.0964656,6.87463288 68.0964656,6.86354737 68.0979773,6.85195796 C68.0979773,6.84490354 68.0964656,6.84036856 68.0964656,6.83381802 L68.0979773,6.83381802 C68.1045278,6.41156061 68.192708,5.99383818 68.3443781,5.60886841 C68.6326015,4.82280449 69.0442773,4.28011805 69.9331342,4.28011805 C70.5640009,4.28011805 70.8910236,4.65097898 70.8910236,5.31157501 C70.8910236,5.45467895 70.8799381,5.58669738 70.8567593,5.7308091 L68.7913259,5.7308091 C68.6582997,6.2160524 68.6341132,6.54156349 68.6310898,6.83381802 L72.1860135,6.83381802 C72.2772171,6.37880795 72.3326447,5.92228621 72.3326447,5.45467895" id="Fill-31"></path>
                                <path d="M79.1995681,2.87961417 C79.918615,2.87961417 80.5051396,3.50241866 80.5051396,4.26883098 C80.5051396,5.03423553 79.918615,5.65653614 79.1995681,5.65653614 C78.4810251,5.65653614 77.8955082,5.03423553 77.8955082,4.26883098 C77.8955082,3.50241866 78.4810251,2.87961417 79.1995681,2.87961417 L79.1995681,2.87961417 Z M79.2030953,5.44994241 C79.802721,5.44994241 80.2552116,4.93345811 80.2552116,4.26883098 C80.2552116,3.60369997 79.802721,3.08721566 79.2030953,3.08721566 C78.5969191,3.08721566 78.1429168,3.60369997 78.1429168,4.26883098 C78.1429168,4.93345811 78.5969191,5.44994241 79.2030953,5.44994241 L79.2030953,5.44994241 Z M78.700216,3.45303772 L79.2857328,3.45303772 C79.6379499,3.45303772 79.8112871,3.60369997 79.8112871,3.91207889 C79.8112871,4.17208465 79.6545782,4.36104233 79.4167434,4.36104233 L79.8505903,5.08109703 L79.5860495,5.08109703 L79.1587532,4.36104233 L78.9511517,4.36104233 L78.9511517,5.08109703 L78.700216,5.08109703 L78.700216,3.45303772 Z M78.9511517,4.15293694 L79.2474374,4.15293694 C79.4374028,4.15293694 79.5613591,4.11061042 79.5613591,3.89897783 C79.5613591,3.71455514 79.4061618,3.66164699 79.2474374,3.66164699 L78.9511517,3.66164699 L78.9511517,4.15293694 Z" id="Fill-33"></path>
                            </g>
                        </g>
                    </g>
                </g>
            </g>
        </g>
    </g>
</svg>
