<?xml version="1.0" encoding="iso-8859-1"?>
<!-- Generator: Adobe Illustrator 16.0.0, SVG Export Plug-In . SVG Version: 6.00 Build 0)  -->
<!DOCTYPE svg PUBLIC "-//W3C//DTD SVG 1.1//EN" "http://www.w3.org/Graphics/SVG/1.1/DTD/svg11.dtd">
<svg version="1.1" id="Layer_1" xmlns="http://www.w3.org/2000/svg" xmlns:xlink="http://www.w3.org/1999/xlink" x="0px" y="0px"
	 width="300px" height="300px" viewBox="0 0 300 300" style="enable-background:new 0 0 300 300;" xml:space="preserve">
	<title>Nucleus logo</title>
	<desc>A visual representation of the Nucleus project.</desc>
	<g>
		<g>
			<path style="fill: #fff;" d="M113.587,137.276h6.279l1.499-6.85l9.299-3.039l-2.134,9.889h7.752l-1.346,6.352h-7.76
				l-3.163,14.553c-0.197,0.766-0.391,1.922-0.391,3.221c0,2.009,1.35,3.236,3.291,3.236c1.565,0,3.112-0.321,4.217-0.767
				l-1.499,6.707c-1.492,0.34-3.163,0.801-4.659,0.801c-5.87,0-10.014-2.349-10.014-8.733c0-2.598,0.514-5.126,1.102-7.774
				l2.437-11.243h-6.26L113.587,137.276z"/>
		</g>
		<g>
			<path style="fill: #fff;" d="M140.04,140.978c0.248-1.298,0.518-2.669,0.715-3.701h8.073l-0.781,4.466h0.139
				c2.332-3.435,6.14-5.246,10.215-5.246c3.947,0,8.021,2.33,8.485,6.349h0.124c2.203-4.341,7.041-6.349,11.703-6.349
				c4.979,0,9.252,4.089,9.252,9.123c0,2.972-0.784,6.351-1.492,9.055l-3.491,15.903h-8.661l3.484-16.225
				c0.463-1.992,1.105-5.105,1.105-7.115c0-2.455-1.887-4.002-4.075-4.002c-6.012,0-7.508,6.975-8.609,11.511l-3.415,15.831h-8.683
				l3.506-16.225c0.445-1.992,1.102-5.105,1.102-7.115c0-2.455-1.886-4.002-4.071-4.002c-5.892,0-7.508,7.044-8.613,11.511
				l-3.433,15.831h-8.665L140.04,140.978z"/>
		</g>
	</g>
	<g>
		<circle style="fill: #fff;" cx="195.207" cy="70.811" r="13.775"/>
		<circle style="fill: #fff;" cx="103.682" cy="70.811" r="13.775"/>
		<circle style="fill: #fff;" cx="195.207" cy="227.711" r="13.775"/>
		<circle style="fill: #fff;" cx="240.036" cy="149.261" r="13.775"/>
		<circle style="fill: #fff;" cx="58.854" cy="149.261" r="13.775"/>
		<circle style="fill: #fff;" cx="103.682" cy="227.711" r="13.775"/>
		<g>
			<path style="fill: #fff;" d="M150.102,292.679c-14.169,0-27.206-17.075-36.591-44.079c-1.738,0.821-3.586,1.441-5.53,1.81
				c10.326,29.577,25.256,47.873,42.122,47.873c16.829,0,31.728-18.221,42.051-47.684c-1.969-0.261-3.858-0.759-5.639-1.484
				C177.144,275.822,164.18,292.679,150.102,292.679z"/>
			<path style="fill: #fff;" d="M150.102,6.335c14.002,0,26.905,16.668,36.263,43.126c1.771-0.737,3.659-1.238,5.618-1.514
				c-10.317-29.185-25.144-47.216-41.881-47.216c-16.776,0-31.633,18.109-41.95,47.407c1.935,0.381,3.774,1.02,5.505,1.853
				C123.028,23.23,136.007,6.335,150.102,6.335z"/>
			<path style="fill: #fff;" d="M258.31,163.362c-1.153,1.488-2.474,2.835-3.947,4.004c0.696,0.812,1.412,1.625,2.085,2.438
				c17.71,21.345,24.142,40.038,17.645,51.289c-5.885,10.193-20.691,12.331-32.075,12.331c-7.296,0-15.354-0.857-23.952-2.461
				c-0.268,1.89-0.749,3.71-1.45,5.425c9.119,1.728,17.663,2.64,25.402,2.64c18.441,0,31.212-5.231,36.927-15.133
				c7.851-13.593,1.392-34.074-18.185-57.67C259.97,165.272,259.134,164.316,258.31,163.362z"/>
			<path style="fill: #fff;" d="M45.151,130.688C27.038,109.432,19.131,90.008,26.11,77.92
				c5.886-10.193,20.69-12.333,32.076-12.333c6.91,0,14.514,0.786,22.597,2.225c0.248-1.891,0.721-3.71,1.397-5.431
				c-8.584-1.556-16.658-2.397-23.994-2.397c-18.443,0-31.213,5.233-36.928,15.134c-8.331,14.43-0.235,36.155,19.682,59.559
				C42.167,133.174,43.59,131.843,45.151,130.688z"/>
			<path style="fill: #fff;" d="M242.017,65.587c11.384,0,26.19,2.14,32.075,12.333c7.044,12.2-1.088,31.875-19.56,53.362
				c1.519,1.228,2.867,2.653,4.036,4.222c20.434-23.72,28.806-45.786,20.375-60.386c-5.717-9.901-18.485-15.134-36.927-15.134
				c-7.69,0-16.18,0.905-25.23,2.611c0.66,1.727,1.124,3.546,1.352,5.441C226.705,66.443,234.742,65.587,242.017,65.587z"/>
			<path style="fill: #fff;" d="M58.186,233.424c-11.384,0-26.19-2.138-32.075-12.331c-6.495-11.251-0.063-29.944,17.645-51.289
				c0.507-0.613,1.051-1.227,1.572-1.837c-1.52-1.104-2.906-2.373-4.117-3.806c-0.589,0.688-1.197,1.378-1.768,2.063
				c-19.574,23.596-26.035,44.077-18.185,57.67c5.715,9.901,18.485,15.133,36.927,15.133c7.384,0,15.516-0.851,24.164-2.426
				c-0.715-1.708-1.206-3.528-1.494-5.414C72.746,232.636,65.118,233.424,58.186,233.424z"/>
			<path style="fill: #fff;" d="M221.357,162.82c-4.812,3.865-9.881,7.698-15.166,11.478c0.497-8.05,0.767-16.322,0.767-24.791
				c0-8.497-0.273-16.793-0.773-24.865c5.208,3.701,10.219,7.469,15.001,11.287c1.088-1.534,2.355-2.928,3.776-4.153
				c-6.087-4.869-12.543-9.653-19.288-14.323c-0.693-8.596-1.663-16.893-2.886-24.831c-1.791,0.624-3.674,1.04-5.629,1.205
				c0.985,6.301,1.806,12.823,2.459,19.52c-6.78-4.501-13.815-8.88-21.09-13.08c-7.304-4.218-14.645-8.124-21.955-11.75
				c6.03-2.762,12.001-5.272,17.891-7.571c-0.815-1.661-1.452-3.423-1.85-5.277c-7.398,2.879-14.925,6.131-22.513,9.717
				c-8.008-3.784-15.946-7.188-23.735-10.184c-0.361,1.864-0.956,3.642-1.737,5.318c6.25,2.413,12.59,5.061,19,7.997
				c-7.311,3.627-14.651,7.533-21.958,11.752c-7.272,4.199-14.308,8.578-21.086,13.08c0.649-6.674,1.467-13.174,2.448-19.456
				c-1.962-0.055-3.863-0.352-5.676-0.869c-1.195,7.818-2.145,15.979-2.829,24.432c-7.003,4.848-13.693,9.821-19.983,14.882
				c1.372,1.273,2.596,2.699,3.626,4.268c5.038-4.048,10.332-8.043,15.844-11.962c-0.498,8.072-0.77,16.368-0.77,24.864
				c0,8.471,0.27,16.743,0.766,24.791c-5.589-3.995-10.926-8.055-15.983-12.145c-1.08,1.602-2.371,3.042-3.805,4.323
				c6.333,5.096,13.119,10.148,20.306,15.114c0.671,8.271,1.598,16.26,2.756,23.925c1.808-0.522,3.708-0.821,5.667-0.884
				c-0.945-6.121-1.735-12.452-2.366-18.944c6.722,4.454,13.748,8.823,21.084,13.057c7.307,4.219,14.647,8.124,21.958,11.753
				c-6.343,2.905-12.616,5.528-18.799,7.918c0.746,1.692,1.284,3.495,1.605,5.37c7.769-2.989,15.682-6.385,23.666-10.156
				c7.556,3.571,15.052,6.811,22.422,9.682c0.36-1.865,0.959-3.643,1.74-5.318c-5.825-2.278-11.729-4.765-17.69-7.495
				c7.311-3.629,14.649-7.534,21.955-11.753c7.336-4.235,14.364-8.604,21.086-13.057c-0.633,6.516-1.427,12.869-2.375,19.011
				c1.954,0.171,3.831,0.598,5.618,1.226c1.186-7.789,2.134-15.917,2.814-24.333c6.926-4.785,13.471-9.653,19.604-14.559
				C223.798,165.802,222.492,164.379,221.357,162.82z M200.245,178.459c-7.763,5.316-15.957,10.492-24.519,15.434
				c-8.537,4.93-17.114,9.444-25.625,13.545c-8.511-4.101-17.088-8.615-25.628-13.545c-8.559-4.941-16.752-10.117-24.518-15.433
				c-0.722-9.383-1.107-19.068-1.107-28.953c0-9.902,0.387-19.604,1.111-29.003c7.805-5.316,16.002-10.468,24.514-15.383
				c8.541-4.931,17.117-9.445,25.628-13.545c8.511,4.1,17.088,8.614,25.625,13.543c8.515,4.916,16.712,10.068,24.516,15.384
				c0.726,9.399,1.112,19.101,1.112,29.004C201.354,159.392,200.968,169.075,200.245,178.459z"/>
		</g>
	</g>
</svg>
