<svg width="52" height="25" viewBox="0 0 52 25" xmlns="http://www.w3.org/2000/svg"><title>sap</title><defs><linearGradient x1="50%" y1="100.142%" x2="50%" y2=".143%" id="a"><stop stop-color="#225FBC" offset="0%"/><stop stop-color="#1FB2F0" offset="100%"/></linearGradient></defs><g fill="none" fill-rule="evenodd"><path d="M.076 24.965h25.41L50.355.093H.075v24.872" id="Shape" fill="url(#a)" transform="translate(.795 0)"/><path d="M30.71 4.77l-4.95-.003v11.766L21.436 4.767H17.15l-3.693 9.84c-.39-2.48-2.957-3.34-4.977-3.98-1.336-.428-2.747-1.06-2.735-1.755.01-.57.76-1.102 2.24-1.02.995.052 1.875.13 3.62.975l1.723-2.995c-1.597-.812-3.8-1.324-5.607-1.327h-.01c-2.107 0-3.863.685-4.95 1.808C2.002 7.1 1.593 8.095 1.575 9.2c-.027 1.52.53 2.595 1.7 3.456.987.723 2.25 1.194 3.365 1.54 1.373.424 2.495.794 2.48 1.583-.005.287-.116.554-.323.77-.343.355-.868.488-1.595.502-1.404.03-2.443-.19-4.098-1.17l-1.53 3.036c1.654.94 3.61 1.49 5.603 1.49h.257c1.738-.032 3.14-.53 4.26-1.43.062-.05.122-.104.18-.156l-.494 1.327h4.494l.755-2.296c.79.267 1.687.418 2.64.418.928 0 1.806-.142 2.582-.396l.726 2.273h7.33v-4.753h1.6c3.865 0 6.153-1.968 6.153-5.268 0-3.675-2.22-5.36-6.95-5.36zM19.27 14.84c-.576 0-1.118-.103-1.585-.28l1.57-4.95h.032l1.537 4.963c-.462.168-.99.266-1.553.266zM31 11.994h-1.09v-3.99H31c1.455 0 2.612.483 2.612 1.972 0 1.535-1.158 2.018-2.612 2.018z" id="Shape" fill="#FFF"/><path d="M32.36 23.352c0-.764.577-1.342 1.315-1.342.728 0 1.305.578 1.305 1.342 0 .776-.578 1.347-1.305 1.347-.738 0-1.314-.572-1.314-1.348zm1.315 1.617c.877 0 1.63-.686 1.63-1.618 0-.927-.753-1.61-1.63-1.61-.888 0-1.638.683-1.638 1.61 0 .932.75 1.617 1.638 1.617zm-.342-1.49h.324l.49.804h.317l-.53-.818c.272-.033.482-.18.482-.512 0-.366-.217-.53-.656-.53h-.708v1.86h.28v-.805zm0-.24v-.575h.385c.193 0 .4.04.4.272 0 .287-.21.302-.447.302h-.337z" fill="#225FBC"/></g></svg>
