<?xml version="1.0" encoding="iso-8859-1"?>
<!-- Generator: Adobe Illustrator 16.0.0, SVG Export Plug-In . SVG Version: 6.00 Build 0)  -->
<!DOCTYPE svg PUBLIC "-//W3C//DTD SVG 1.1//EN" "http://www.w3.org/Graphics/SVG/1.1/DTD/svg11.dtd">
<svg version="1.1" id="ticketmaster" xmlns="http://www.w3.org/2000/svg" xmlns:xlink="http://www.w3.org/1999/xlink" x="0px"
	 y="0px" viewBox="0 0 163 23" style="enable-background:new 0 0 163 23;"
	 xml:space="preserve">

  <title>Ticketmaster logo</title>
	<desc>Responsive Ticketmaster logo</desc>
	<style>
		svg * {
		  transition: fill .1s ease-out, opacity .1s ease-out;
		}

		@media screen and (max-width: 1019px) {
			.letter {
				opacity: 0;
			}
			#t1 {
				opacity: 1;
			}
			#m-short {
				opacity: 1;
			}
		}

		@media screen and (min-width: 1020px) {
			#m-short {
				opacity: 0;
			}
		}
	</style>

	<path id="t1" class="letter" d="M0.637,6.871h2.944l0.698-3.216L8.65,2.227L7.648,6.871h3.643l-0.638,2.975H7.011
		l-1.487,6.829c-0.091,0.365-0.183,0.911-0.183,1.519c0,0.939,0.637,1.518,1.548,1.518c0.729,0,1.457-0.152,1.973-0.365l-0.699,3.157
		c-0.698,0.152-1.486,0.364-2.186,0.364c-2.761,0-4.704-1.093-4.704-4.099c0-1.213,0.243-2.396,0.516-3.641l1.154-5.282H0
		L0.637,6.871z"/>
	<path id="m-short" class="letter" d="M13.044,8.601c0.121-0.606,0.241-1.244,0.333-1.73h3.794l-0.365,2.094h0.061
		c1.094-1.608,2.883-2.458,4.796-2.458c1.852,0,3.764,1.092,3.976,2.975h0.062c1.031-2.034,3.307-2.975,5.492-2.975
		c2.337,0,4.34,1.913,4.34,4.28c0,1.395-0.363,2.974-0.698,4.249l-1.639,7.467h-4.066l1.639-7.619
		c0.212-0.94,0.515-2.397,0.515-3.338c0-1.152-0.879-1.881-1.912-1.881c-2.823,0-3.521,3.278-4.037,5.403l-1.609,7.436H19.66
		l1.64-7.619c0.212-0.94,0.516-2.397,0.516-3.338c0-1.152-0.881-1.881-1.914-1.881c-2.761,0-3.521,3.308-4.036,5.403l-1.609,7.436
		h-4.065L13.044,8.601z"/>
	<path id="i" class="letter" d="M12.961,6.871h4.067l-3.339,15.631H9.622L12.961,6.871z M14.448,0.133h4.067l-0.85,3.885
		h-4.067L14.448,0.133z"/>
	<path id="c" class="letter" d="M29.309,10.453c-0.789-0.517-1.851-0.79-2.974-0.79c-3.247,0-5.068,3.034-5.068,5.981
		c0,2.031,0.668,4.065,3.46,4.065c1.001,0,2.246-0.273,3.307-0.789l-0.455,3.217c-1.244,0.607-2.58,0.729-3.915,0.729
		c-4.037,0-6.647-2.701-6.647-6.737c0-5.464,3.612-9.622,9.228-9.622c1.518,0,2.972,0.274,4.067,0.606L29.309,10.453z"/>
	<path id="k" class="letter" d="M33.77-0.261h4.068l-2.702,12.807h0.061l5.675-5.675h5.281l-7.496,7.132l4.704,8.499h-4.583
		l-4.038-8.286H34.68l-1.76,8.286h-3.976L33.77-0.261z"/>
	<path id="e1" class="letter" d="M59.454,12.456c0-3.977-2.55-5.949-6.405-5.949c-5.128,0-8.894,4.675-8.894,9.53
		c0,4.644,3.036,6.829,7.528,6.829c1.669,0,3.4-0.395,4.978-0.881l0.516-3.218c-1.518,0.698-3.125,1.126-4.795,1.126
		c-2.601,0-4.121-0.925-4.316-3.383h-0.003c-0.008-0.145-0.021-0.282-0.021-0.433c0-0.028,0.003-0.059,0.003-0.087
		c0-0.015-0.002-0.029-0.002-0.046h0.003c0.019-1.069,0.253-2.125,0.661-3.101l0,0c0.783-1.988,1.888-3.363,4.284-3.363
		c1.699,0,2.58,0.94,2.58,2.61c0,0.364-0.03,0.697-0.091,1.063h-5.565c-0.36,1.227-0.423,2.049-0.431,2.79h9.577
		C59.302,14.793,59.454,13.639,59.454,12.456z"/>
	<path id="t2" class="letter" d="M60.813,6.871h2.944l0.698-3.216l4.37-1.427l-1.002,4.644h3.643l-0.638,2.975h-3.642
		l-1.488,6.829c-0.09,0.365-0.182,0.911-0.182,1.519c0,0.939,0.638,1.518,1.548,1.518c0.729,0,1.457-0.152,1.973-0.365l-0.698,3.157
		c-0.699,0.152-1.487,0.364-2.186,0.364c-2.762,0-4.704-1.093-4.704-4.099c0-1.213,0.243-2.396,0.517-3.641l1.152-5.282h-2.943
		L60.813,6.871z"/>
	<path id="m" class="letter" d="M73.221,8.601c0.121-0.606,0.241-1.244,0.333-1.73h3.794l-0.365,2.094h0.061
		c1.094-1.608,2.883-2.458,4.796-2.458c1.852,0,3.764,1.092,3.976,2.975h0.062c1.031-2.034,3.307-2.975,5.492-2.975
		c2.337,0,4.34,1.913,4.34,4.28c0,1.395-0.363,2.974-0.698,4.249l-1.639,7.467h-4.066l1.639-7.619
		c0.212-0.94,0.515-2.397,0.515-3.338c0-1.152-0.879-1.881-1.912-1.881c-2.823,0-3.521,3.278-4.037,5.403l-1.609,7.436h-4.067
		l1.64-7.619c0.212-0.94,0.516-2.397,0.516-3.338c0-1.152-0.881-1.881-1.914-1.881c-2.761,0-3.521,3.308-4.036,5.403l-1.609,7.436
		h-4.065L73.221,8.601z"/>
	<path id="a" class="letter" d="M106.069,20.118h-0.061c-1.396,1.761-2.792,2.761-5.039,2.761
		c-2.822,0-4.823-1.577-4.823-4.462c0-5.157,5.765-5.553,9.589-5.553h1.425c0.123-0.426,0.123-0.88,0.123-1.336
		c0-1.578-1.7-2.034-3.126-2.034c-1.791,0-3.521,0.456-5.13,1.214l0.576-3.248c1.731-0.605,3.491-0.941,5.313-0.941
		c3.126,0,6.069,1.154,6.069,4.826c0,2.095-1.546,8.227-1.912,11.171h-3.428L106.069,20.118z M102.094,19.906
		c3.035,0,3.976-2.096,4.612-4.614h-1.425c-1.974,0-5.25,0.334-5.25,2.975C100.03,19.358,101.062,19.906,102.094,19.906z"/>
	<path id="s" class="letter" d="M123.066,10.053c-0.437-0.238-1.56-0.571-2.713-0.571c-1.214,0-2.731,0.333-2.731,1.577
		c0,1.974,5.28,2.702,5.28,6.526c0,4.066-3.548,5.281-7.04,5.281c-1.639,0-3.279-0.243-4.764-0.94l0.879-3.247
		c1.154,0.637,2.307,1.215,3.885,1.215c1.365,0,2.792-0.457,2.792-1.731c0-2.518-5.281-2.762-5.281-6.677
		c0-3.672,3.551-4.978,6.769-4.978c1.486,0,3.004,0.274,3.806,0.481L123.066,10.053z"/>
	<path id="t3" class="letter" d="M125.665,6.871h2.945l0.696-3.216l4.37-1.427l-1.002,4.644h3.644l-0.639,2.975h-3.642
		l-1.488,6.829c-0.089,0.365-0.181,0.911-0.181,1.519c0,0.939,0.637,1.518,1.547,1.518c0.729,0,1.457-0.152,1.973-0.365l-0.697,3.157
		c-0.696,0.152-1.487,0.364-2.186,0.364c-2.762,0-4.703-1.093-4.703-4.099c0-1.213,0.241-2.396,0.516-3.641l1.155-5.282h-2.946
		L125.665,6.871z"/>
	<path id="e2" class="letter" d="M150.416,12.456c0-3.977-2.551-5.949-6.404-5.949c-5.129,0-8.894,4.675-8.894,9.53
		c0,4.644,3.034,6.829,7.528,6.829c1.669,0,3.398-0.395,4.977-0.881l0.517-3.218c-1.519,0.698-3.125,1.126-4.796,1.126
		c-2.603,0-4.121-0.925-4.317-3.383h-0.003c-0.006-0.145-0.021-0.282-0.021-0.433c0-0.028,0.001-0.059,0.003-0.087
		c0-0.015-0.002-0.029-0.002-0.046h0.003c0.02-1.069,0.253-2.125,0.661-3.101l0,0c0.781-1.988,1.886-3.363,4.283-3.363
		c1.699,0,2.58,0.94,2.58,2.61c0,0.364-0.03,0.697-0.092,1.063h-5.564c-0.361,1.227-0.425,2.049-0.432,2.79h9.579
		C150.264,14.793,150.416,13.639,150.416,12.456z"/>
	<path id="r" class="letter" d="M153.238,8.965c0.122-0.667,0.242-1.366,0.364-2.094h3.885l-0.545,2.945h0.06
		c0.729-1.7,2.732-3.309,4.613-3.309c0.518,0,1.062,0.03,1.549,0.151l-0.851,3.978c-0.454-0.153-1.032-0.243-1.548-0.243
		c-2.883,0-4.28,2.579-4.796,5.098l-1.457,7.012h-4.067L153.238,8.965z"/>
</svg>
