<?xml version="1.0" encoding="utf-8"?>
<!-- Generator: Adobe Illustrator 16.0.4, SVG Export Plug-In . SVG Version: 6.00 Build 0)  -->
<!DOCTYPE svg PUBLIC "-//W3C//DTD SVG 1.1//EN" "http://www.w3.org/Graphics/SVG/1.1/DTD/svg11.dtd">
<svg version="1.1" id="Layer_2" xmlns="http://www.w3.org/2000/svg" xmlns:xlink="http://www.w3.org/1999/xlink" x="0px" y="0px"
	 width="150px" height="20px" viewBox="0 0 150 20" enable-background="new 0 0 150 20" xml:space="preserve">
<title>Ticketmaster</title>
<desc>Ticketmaster logo</desc>
<path d="M125.552,5.857c-4.467,0-7.747,4.033-7.747,8.225c0,4.02,2.644,5.91,6.562,5.91c1.45,0,2.958-0.344,4.327-0.76l0.455-2.783
	c-1.326,0.6-2.727,0.973-4.176,0.973c-2.264,0-3.597-0.797-3.765-2.922l0,0c0-0.125-0.015-0.242-0.015-0.381
	c0-0.021,0-0.051,0-0.072c0-0.008,0-0.021,0-0.037l0,0c0.015-0.92,0.211-1.84,0.57-2.682c0.682-1.715,1.647-2.907,3.742-2.907
	c1.473,0,2.241,0.811,2.241,2.258c0,0.312-0.029,0.598-0.08,0.92h-4.851c-0.313,1.059-0.373,1.768-0.373,2.408h8.351
	c0.205-0.992,0.345-1.992,0.345-3.016C131.133,7.56,128.914,5.857,125.552,5.857z M113.657,15.953c0-0.533,0.088-0.994,0.161-1.314
	l1.295-5.903h3.181l0.549-2.57h-3.179l0.879-4.01l-3.809,1.234l-0.607,2.775h-2.57l-0.551,2.57h2.562l-1.002,4.565
	c-0.241,1.074-0.455,2.098-0.455,3.148c0,2.602,1.693,3.543,4.096,3.543c0.613,0,1.296-0.182,1.911-0.312l0.616-2.732
	c-0.455,0.189-1.1,0.322-1.723,0.322C114.207,17.27,113.657,16.756,113.657,15.953z M98.848,10.152c0,3.383,4.601,3.594,4.601,5.772
	c0,1.096-1.245,1.498-2.439,1.498c-1.376,0-2.38-0.506-3.384-1.053l-0.775,2.812c1.305,0.6,2.725,0.811,4.159,0.811
	c3.04,0,6.138-1.053,6.138-4.572c0-3.295-4.599-3.93-4.599-5.632c0-1.074,1.317-1.366,2.38-1.366c1.004,0,1.979,0.292,2.358,0.497
	l0.776-2.651c-0.703-0.176-2.029-0.416-3.326-0.416C101.938,5.857,98.848,6.982,98.848,10.152z M146.961,11.467
	c-1.413,0-2.477-1.125-2.477-2.571c0-1.453,1.062-2.57,2.477-2.57c1.398,0,2.453,1.117,2.453,2.57
	C149.414,10.342,148.359,11.467,146.961,11.467z M146.945,5.873c-1.678,0-3.047,1.352-3.047,3.023c0,1.659,1.369,3.018,3.047,3.018
	c1.686,0,3.055-1.359,3.055-3.018C150,7.224,148.631,5.873,146.945,5.873z M89.004,17.43c-0.9,0-1.794-0.469-1.794-1.41
	c0-2.279,2.854-2.57,4.577-2.57h1.246C92.477,15.625,91.654,17.43,89.004,17.43z M91.473,5.866c-1.59,0-3.119,0.284-4.636,0.811
	l-0.499,2.812c1.398-0.658,2.907-1.052,4.469-1.052c1.244,0,2.717,0.394,2.717,1.752c0,0.395,0,0.79-0.103,1.155h-1.237
	c-3.332,0-8.365,0.352-8.365,4.807c0,2.482,1.752,3.85,4.213,3.85c1.955,0,3.179-0.854,4.387-2.381h0.059l-0.373,2.066h2.987
	c0.315-2.541,1.671-7.846,1.671-9.649C96.762,6.859,94.197,5.866,91.473,5.866z M146.359,8.64V7.566h0.703
	c0.367,0,0.726,0.125,0.726,0.526c0,0.46-0.278,0.548-0.726,0.548H146.359z M148.375,8.115c0-0.672-0.396-0.993-1.225-0.993h-1.362
	v3.542h0.579V9.093h0.49l0.996,1.571h0.623l-1.019-1.571C148.009,9.093,148.375,8.685,148.375,8.115z M136.875,8.713h-0.051
	l0.476-2.549h-3.384c-0.109,0.628-0.221,1.233-0.322,1.812l-2.432,11.704h3.538l1.282-6.057c0.445-2.184,1.662-4.413,4.174-4.413
	c0.447,0,0.953,0.073,1.354,0.212l0.74-3.44c-0.418-0.102-0.901-0.131-1.354-0.131C139.255,5.857,137.514,7.246,136.875,8.713z
	 M79.666,5.857c-1.908,0-3.895,0.812-4.794,2.564h-0.056c-0.183-1.629-1.849-2.564-3.464-2.564c-1.67,0-3.229,0.73-4.183,2.119
	h-0.051l0.314-1.812h-3.303c-0.08,0.424-0.189,0.972-0.293,1.498L61.35,19.678h3.545l1.406-6.428
	c0.442-1.812,1.109-4.668,3.512-4.668c0.904,0,1.67,0.628,1.67,1.629c0,0.811-0.263,2.067-0.45,2.885l-1.429,6.582h3.549
	l1.399-6.428c0.45-1.834,1.056-4.668,3.522-4.668c0.9,0,1.662,0.628,1.662,1.629c0,0.811-0.264,2.075-0.446,2.885l-1.433,6.582
	h3.557l1.414-6.449c0.292-1.104,0.607-2.471,0.607-3.674C83.438,7.501,81.688,5.857,79.666,5.857z M11.301,6.165L8.394,19.68h3.541
	l2.912-13.515H11.301z M18.545,13.746c0-2.541,1.585-5.164,4.416-5.164c0.979,0,1.904,0.233,2.593,0.679l0.872-2.885
	c-0.952-0.285-2.22-0.52-3.545-0.52c-4.893,0-8.038,3.586-8.038,8.313c0,3.49,2.273,5.822,5.79,5.822
	c1.164,0,2.328-0.111,3.412-0.629l0.399-2.783c-0.926,0.438-2.014,0.68-2.882,0.68C19.124,17.27,18.545,15.5,18.545,13.746z
	 M16.146,0.335h-3.544l-0.743,3.368h3.544L16.146,0.335z M46.253,5.857c-4.472,0-7.753,4.033-7.753,8.225
	c0,4.02,2.644,5.91,6.562,5.91c1.454,0,2.963-0.344,4.336-0.76l0.446-2.783c-1.322,0.6-2.718,0.973-4.175,0.973
	c-2.271,0-3.596-0.797-3.765-2.922h-0.003c-0.008-0.125-0.019-0.242-0.019-0.381c0-0.021,0.004-0.051,0.004-0.072
	c0-0.008,0-0.021,0-0.037l0,0c0.015-0.92,0.22-1.84,0.575-2.682c0.677-1.715,1.644-2.907,3.734-2.907
	c1.483,0,2.249,0.811,2.249,2.258c0,0.312-0.025,0.598-0.08,0.92h-4.849c-0.315,1.059-0.37,1.768-0.378,2.408h8.35
	c0.213-0.992,0.348-1.992,0.348-3.016C51.837,7.56,49.614,5.857,46.253,5.857z M40.236,6.165h-4.601l-4.947,4.91H30.63L32.988,0
	h-3.545l-4.204,19.68H28.7l1.538-7.158h0.051l3.52,7.158h3.996l-4.102-7.35L40.236,6.165z M57.118,15.953
	c0-0.533,0.08-0.994,0.161-1.314l1.293-5.903h3.179l0.557-2.57h-3.176l0.876-4.01l-3.81,1.234l-0.614,2.775h-2.56l-0.561,2.57h2.566
	l-1,4.565c-0.241,1.074-0.453,2.098-0.453,3.148c0,2.602,1.695,3.543,4.101,3.543c0.608,0,1.297-0.182,1.905-0.312l0.607-2.732
	c-0.45,0.189-1.08,0.322-1.721,0.322C57.678,17.27,57.118,16.756,57.118,15.953z M4.658,15.953c0-0.533,0.084-0.994,0.157-1.314
	l1.297-5.903H9.29l0.557-2.57H6.668l0.875-4.01L3.735,3.39L3.123,6.166H0.556L0,8.736h2.57l-1.006,4.565
	c-0.238,1.072-0.455,2.098-0.455,3.148c0,2.6,1.696,3.543,4.106,3.543c0.607,0,1.296-0.184,1.903-0.314l0.608-2.732
	c-0.446,0.189-1.084,0.322-1.717,0.322C5.215,17.27,4.658,16.756,4.658,15.953z"/>
</svg>
