<?xml version="1.0" encoding="utf-8"?>
<!-- Generator: Adobe Illustrator 19.1.0, SVG Export Plug-In . SVG Version: 6.00 Build 0)  -->
<svg version="1.1" id="Layer_2" xmlns="http://www.w3.org/2000/svg" xmlns:xlink="http://www.w3.org/1999/xlink" x="0px" y="0px"
	 viewBox="0 0 144 20" style="enable-background:new 0 0 144 20;" xml:space="preserve">
  <title>Ticketmaster logo</title>
  <desc>Ticketmaster logo</desc>
<g>
	<defs>
		<path id="SVGID_1_" d="M-271.921-343.336c-4.312,0-7.477,3.908-7.477,7.968c0,3.885,2.552,5.714,6.331,5.714
			c1.405,0,2.858-0.333,4.185-0.736l0.434-2.695c-1.276,0.586-2.628,0.941-4.031,0.941c-2.19,0-3.469-0.77-3.63-2.826h-0.005
			c-0.005-0.122-0.018-0.238-0.018-0.365c0-0.023,0-0.048,0.004-0.071c0-0.012-0.004-0.026-0.004-0.038h0.004
			c0.014-0.895,0.216-1.779,0.556-2.593c0.656-1.665,1.588-2.813,3.602-2.813c1.43,0,2.17,0.783,2.17,2.182
			c0,0.305-0.023,0.583-0.077,0.89h-4.68c-0.303,1.026-0.359,1.714-0.364,2.334h8.057c0.203-0.963,0.333-1.928,0.333-2.919
			C-266.533-341.687-268.68-343.336-271.921-343.336z M-283.395-333.566c0-0.507,0.076-0.965,0.151-1.27l1.252-5.709h3.062
			l0.537-2.488h-3.061l0.84-3.883l-3.675,1.194l-0.586,2.689h-2.478l-0.533,2.488h2.472l-0.968,4.417
			c-0.231,1.039-0.433,2.03-0.433,3.043c0,2.516,1.632,3.431,3.955,3.431c0.588,0,1.252-0.181,1.839-0.307l0.588-2.641
			c-0.435,0.18-1.049,0.305-1.661,0.305C-282.86-332.297-283.395-332.779-283.395-333.566z M-297.689-339.175
			c0,3.273,4.439,3.476,4.439,5.584c0,1.065-1.2,1.446-2.348,1.446c-1.326,0-2.297-0.484-3.267-1.016l-0.742,2.718
			c1.252,0.583,2.629,0.788,4.009,0.788c2.936,0,5.921-1.018,5.921-4.419c0-3.196-4.44-3.807-4.44-5.457
			c0-1.04,1.275-1.319,2.297-1.319c0.97,0,1.915,0.279,2.282,0.479l0.74-2.565c-0.676-0.171-1.951-0.401-3.202-0.401
			C-294.706-343.336-297.689-342.245-297.689-339.175z M-251.266-337.907c-1.367,0-2.389-1.087-2.389-2.488
			c0-1.4,1.022-2.487,2.389-2.487c1.352,0,2.371,1.087,2.371,2.487C-248.895-338.994-249.914-337.907-251.266-337.907z
			 M-251.274-343.32c-1.62,0-2.942,1.312-2.942,2.925c0,1.611,1.322,2.922,2.942,2.922c1.62,0,2.942-1.311,2.942-2.922
			C-248.332-342.008-249.655-343.32-251.274-343.32z M-307.176-332.135c-0.871,0-1.74-0.454-1.74-1.368
			c0-2.209,2.757-2.486,4.418-2.486h1.2C-303.836-333.884-304.625-332.135-307.176-332.135z M-304.804-343.327
			c-1.53,0-3.01,0.279-4.468,0.787l-0.484,2.717c1.352-0.634,2.81-1.017,4.314-1.017c1.2,0,2.628,0.383,2.628,1.701
			c0,0.382,0,0.763-0.102,1.117h-1.2c-3.213,0-8.065,0.332-8.065,4.645c0,2.411,1.686,3.731,4.058,3.731
			c1.889,0,3.065-0.837,4.237-2.308h0.051l-0.355,2.004h2.885c0.305-2.461,1.608-7.592,1.608-9.343
			C-299.698-342.362-302.176-343.327-304.804-343.327z M-251.837-340.637v-1.037h0.669c0.358,0,0.709,0.114,0.709,0.502
			c0,0.445-0.28,0.535-0.709,0.535H-251.837z M-249.898-341.146c0-0.648-0.388-0.966-1.18-0.966h-1.319v3.428h0.561v-1.514h0.472
			l0.964,1.514h0.594l-0.98-1.514C-250.248-340.199-249.898-340.597-249.898-341.146z M-260.995-340.571h-0.051l0.46-2.462h-3.27
			c-0.1,0.609-0.204,1.193-0.304,1.752l-2.347,11.319h3.42l1.224-5.861c0.436-2.109,1.609-4.266,4.034-4.266
			c0.433,0,0.918,0.075,1.302,0.203l0.716-3.326c-0.408-0.101-0.87-0.125-1.304-0.125
			C-258.698-343.336-260.382-341.992-260.995-340.571z M-316.194-343.336c-1.838,0-3.752,0.786-4.622,2.486h-0.052
			c-0.18-1.574-1.787-2.486-3.344-2.486c-1.61,0-3.115,0.709-4.033,2.055h-0.051l0.307-1.752h-3.191
			c-0.077,0.406-0.18,0.94-0.282,1.448l-2.399,11.624h3.422l1.354-6.219c0.432-1.751,1.073-4.517,3.392-4.517
			c0.87,0,1.61,0.61,1.61,1.574c0,0.787-0.255,2.006-0.434,2.791l-1.379,6.372h3.422l1.35-6.219
			c0.436-1.775,1.021-4.517,3.398-4.517c0.868,0,1.609,0.61,1.609,1.574c0,0.787-0.256,2.006-0.435,2.791l-1.379,6.372h3.422
			l1.374-6.245c0.283-1.063,0.59-2.388,0.59-3.552C-312.546-341.739-314.232-343.336-316.194-343.336z M-382.147-343.033
			l-2.807,13.072h3.419l2.807-13.072H-382.147z M-375.16-335.699c0-2.462,1.529-4.999,4.263-4.999c0.945,0,1.836,0.228,2.501,0.661
			l0.842-2.792c-0.918-0.277-2.143-0.507-3.42-0.507c-4.724,0-7.759,3.475-7.759,8.044c0,3.377,2.196,5.637,5.588,5.637
			c1.125,0,2.248-0.105,3.294-0.613l0.384-2.691c-0.894,0.432-1.94,0.661-2.781,0.661C-374.6-332.297-375.16-333.999-375.16-335.699
			z M-377.474-348.67h-3.42l-0.717,3.25h3.421L-377.474-348.67z M-348.428-343.336c-4.312,0-7.48,3.908-7.48,7.968
			c0,3.885,2.552,5.714,6.331,5.714c1.404,0,2.86-0.333,4.185-0.736l0.433-2.695c-1.276,0.586-2.625,0.941-4.031,0.941
			c-2.189,0-3.468-0.77-3.632-2.826h-0.002c-0.006-0.122-0.018-0.238-0.018-0.365c0-0.023,0.003-0.048,0.003-0.071
			c0-0.012-0.001-0.026-0.001-0.038h0.001c0.016-0.895,0.212-1.779,0.555-2.593c0.657-1.665,1.588-2.813,3.605-2.813
			c1.43,0,2.17,0.783,2.17,2.182c0,0.305-0.026,0.583-0.08,0.89h-4.678c-0.302,1.026-0.355,1.714-0.361,2.334h8.054
			c0.202-0.963,0.335-1.928,0.335-2.919C-343.04-341.687-345.186-343.336-348.428-343.336z M-354.23-343.033h-4.442l-4.771,4.747
			h-0.055l2.275-10.714h-3.422l-4.057,19.039h3.34l1.484-6.928h0.05l3.395,6.928h3.855l-3.956-7.108L-354.23-343.033z
			 M-337.943-333.566c0-0.507,0.079-0.965,0.154-1.27l1.25-5.709h3.065l0.538-2.488h-3.065l0.845-3.883l-3.677,1.194l-0.589,2.689
			h-2.474l-0.539,2.488h2.479l-0.969,4.417c-0.23,1.039-0.437,2.03-0.437,3.043c0,2.516,1.635,3.431,3.958,3.431
			c0.587,0,1.251-0.181,1.838-0.307l0.587-2.641c-0.435,0.18-1.045,0.305-1.66,0.305
			C-337.405-332.297-337.943-332.779-337.943-333.566z M-388.557-333.566c0-0.507,0.079-0.965,0.155-1.27l1.248-5.709h3.067
			l0.535-2.488h-3.064l0.842-3.883l-3.674,1.194l-0.59,2.689h-2.476l-0.535,2.488h2.477l-0.97,4.417
			c-0.23,1.039-0.436,2.03-0.436,3.043c0,2.516,1.636,3.431,3.96,3.431c0.585,0,1.25-0.181,1.837-0.307l0.587-2.641
			c-0.433,0.18-1.047,0.305-1.659,0.305C-388.018-332.297-388.557-332.779-388.557-333.566z"/>
	</defs>
	<clipPath id="SVGID_2_">
		<use xlink:href="#SVGID_1_"  style="overflow:visible;"/>
	</clipPath>
	<g class="st0">
		<defs>
			<rect id="SVGID_3_" x="-443.049" y="-378" width="1024" height="768"/>
		</defs>
		<clipPath id="SVGID_4_">
			<use xlink:href="#SVGID_3_"  style="overflow:visible;"/>
		</clipPath>
		<rect x="-398.049" y="-354" class="st1" width="154.717" height="29.355"/>
	</g>
</g>
<g>
	<g>
		<g>
			<path class="st2" d="M88.551,17.004H88.5c-1.165,1.469-2.33,2.305-4.204,2.305c-2.354,0-4.025-1.317-4.025-3.723
				c0-4.305,4.81-4.634,8.001-4.634h1.19c0.101-0.355,0.101-0.735,0.101-1.115c0-1.316-1.418-1.696-2.608-1.696
				c-1.495,0-2.938,0.38-4.28,1.013l0.481-2.71c1.444-0.506,2.913-0.785,4.432-0.785c2.608,0,5.064,0.962,5.064,4.026
				c0,1.747-1.291,6.863-1.595,9.32h-2.862L88.551,17.004 M85.233,16.827c2.533,0,3.318-1.747,3.849-3.849h-1.19
				c-1.646,0-4.381,0.279-4.381,2.482C83.511,16.371,84.372,16.827,85.233,16.827z"/>
			<path class="st2" d="M0.58,5.951h2.457l0.582-2.684l3.647-1.191L6.43,5.951h3.039L8.937,8.433H5.898l-1.241,5.698
				c-0.076,0.304-0.152,0.76-0.152,1.266c0,0.785,0.532,1.266,1.292,1.266c0.608,0,1.215-0.126,1.646-0.304l-0.583,2.634
				c-0.583,0.126-1.241,0.304-1.823,0.304c-2.304,0-3.925-0.911-3.925-3.419c0-1.012,0.203-2,0.431-3.038l0.962-4.407H0.049
				L0.58,5.951z"/>
			<path class="st2" d="M10.863,5.951h3.393l-2.786,13.042H8.077L10.863,5.951 M12.104,0.329h3.393l-0.709,3.242h-3.393
				L12.104,0.329z"/>
			<path class="st2" d="M24.504,8.94c-0.659-0.431-1.545-0.659-2.482-0.659c-2.71,0-4.229,2.532-4.229,4.989
				c0,1.696,0.557,3.393,2.887,3.393c0.836,0,1.874-0.228,2.76-0.658l-0.38,2.685c-1.038,0.506-2.152,0.608-3.267,0.608
				c-3.368,0-5.546-2.253-5.546-5.621c0-4.558,3.014-8.028,7.699-8.028c1.266,0,2.482,0.228,3.394,0.506L24.504,8.94z"/>
			<polygon class="st2" points="28.226,0 31.619,0 29.365,10.687 29.416,10.687 34.151,5.951 38.558,5.951 32.303,11.903
				36.228,18.993 32.404,18.993 29.036,12.08 28.985,12.08 27.516,18.993 24.199,18.993 			"/>
			<path class="st2" d="M50.79,5.951h2.456l0.582-2.684l3.647-1.191L56.64,5.951h3.039l-0.532,2.482h-3.04l-1.241,5.698
				c-0.076,0.304-0.152,0.76-0.152,1.266c0,0.785,0.532,1.266,1.292,1.266c0.608,0,1.216-0.126,1.646-0.304l-0.583,2.634
				c-0.582,0.126-1.241,0.304-1.823,0.304c-2.304,0-3.925-0.911-3.925-3.419c0-1.012,0.203-2,0.431-3.038l0.962-4.407h-2.456
				L50.79,5.951z"/>
			<path class="st2" d="M49.655,10.611c0-3.318-2.127-4.963-5.343-4.963c-4.28,0-7.42,3.9-7.42,7.952
				c0,3.875,2.532,5.697,6.281,5.697c1.393,0,2.836-0.329,4.153-0.734l0.431-2.685c-1.267,0.583-2.609,0.937-4.002,0.937
				c-2.17,0-3.439-0.771-3.602-2.822H40.15c-0.006-0.119-0.017-0.235-0.017-0.36c0-0.024,0.002-0.048,0.002-0.072
				c0-0.013-0.001-0.024-0.001-0.038h0.002c0.015-0.893,0.211-1.774,0.552-2.587l0,0c0.652-1.66,1.574-2.806,3.573-2.806
				c1.418,0,2.153,0.785,2.153,2.178c0,0.304-0.026,0.582-0.076,0.886h-4.643c-0.301,1.025-0.354,1.712-0.36,2.33h7.992
				C49.528,12.561,49.655,11.599,49.655,10.611z"/>
			<path class="st2" d="M61.143,7.395c0.101-0.506,0.202-1.038,0.279-1.444h3.165l-0.304,1.748h0.05
				c0.912-1.342,2.406-2.051,4.001-2.051c1.545,0,3.14,0.911,3.317,2.482h0.051c0.861-1.697,2.76-2.482,4.584-2.482
				c1.95,0,3.621,1.595,3.621,3.571c0,1.165-0.304,2.482-0.582,3.545l-1.368,6.229h-3.393l1.368-6.357
				c0.177-0.785,0.43-2,0.43-2.785c0-0.962-0.734-1.57-1.595-1.57c-2.356,0-2.938,2.735-3.368,4.508l-1.342,6.204h-3.393
				l1.367-6.357c0.177-0.785,0.431-2,0.431-2.785c0-0.962-0.735-1.57-1.596-1.57c-2.304,0-2.938,2.76-3.368,4.508l-1.342,6.204
				h-3.393L61.143,7.395z"/>
			<path class="st2" d="M102.733,8.607c-0.365-0.198-1.302-0.477-2.264-0.477c-1.013,0-2.279,0.279-2.279,1.316
				c0,1.646,4.406,2.255,4.406,5.445c0,3.393-2.963,4.406-5.875,4.406c-1.367,0-2.735-0.202-3.976-0.785l0.735-2.71
				c0.962,0.532,1.924,1.013,3.241,1.013c1.14,0,2.33-0.38,2.33-1.443c0-2.102-4.406-2.306-4.406-5.572
				c0-3.064,2.962-4.153,5.647-4.153c1.241,0,2.507,0.228,3.175,0.401L102.733,8.607z"/>
			<path class="st2" d="M104.901,5.951h2.457l0.582-2.684l3.647-1.191l-0.836,3.875h3.039l-0.532,2.482h-3.039l-1.241,5.698
				c-0.076,0.304-0.152,0.76-0.152,1.266c0,0.785,0.532,1.266,1.291,1.266c0.608,0,1.215-0.126,1.646-0.304l-0.582,2.634
				c-0.583,0.126-1.241,0.304-1.823,0.304c-2.305,0-3.925-0.911-3.925-3.419c0-1.012,0.203-2,0.43-3.038l0.963-4.407h-2.456
				L104.901,5.951z"/>
			<path class="st2" d="M127.908,7.699c0.101-0.557,0.203-1.139,0.304-1.748h3.242l-0.456,2.457h0.051
				c0.608-1.419,2.279-2.76,3.849-2.76c0.431,0,0.887,0.024,1.291,0.126l-0.709,3.317c-0.38-0.127-0.861-0.203-1.291-0.203
				c-2.406,0-3.571,2.152-4.001,4.254l-1.216,5.849h-3.393L127.908,7.699z"/>
			<path class="st2" d="M125.553,10.611c0-3.318-2.127-4.963-5.344-4.963c-4.279,0-7.42,3.9-7.42,7.952
				c0,3.875,2.532,5.697,6.281,5.697c1.393,0,2.836-0.329,4.153-0.734l0.431-2.685c-1.267,0.583-2.608,0.937-4.001,0.937
				c-2.171,0-3.439-0.771-3.603-2.822h-0.002c-0.006-0.119-0.017-0.235-0.017-0.36c0-0.024,0.001-0.048,0.002-0.072
				c0-0.013-0.001-0.024-0.001-0.038h0.002c0.015-0.893,0.211-1.774,0.552-2.587l0,0c0.651-1.66,1.574-2.806,3.573-2.806
				c1.418,0,2.152,0.785,2.152,2.178c0,0.304-0.025,0.582-0.076,0.886h-4.644c-0.301,1.025-0.354,1.712-0.36,2.33h7.992
				C125.426,12.561,125.553,11.599,125.553,10.611z"/>
		</g>
	</g>
	<path class="st2" d="M140.99,5.173c1.615,0,2.933,1.315,2.933,2.934c0,1.615-1.319,2.93-2.933,2.93
		c-1.616,0-2.934-1.315-2.934-2.93C138.055,6.488,139.374,5.173,140.99,5.173z M140.999,10.6c1.347,0,2.363-1.089,2.363-2.493
		c0-1.405-1.017-2.495-2.363-2.495c-1.365,0-2.383,1.089-2.383,2.495C138.616,9.511,139.634,10.6,140.999,10.6z M139.869,6.383
		h1.315c0.789,0,1.178,0.318,1.178,0.969c0,0.551-0.349,0.949-0.887,0.949l0.978,1.52h-0.595l-0.96-1.52h-0.469v1.52h-0.56V6.383z
		 M140.429,7.862h0.665c0.431,0,0.709-0.09,0.709-0.536c0-0.39-0.35-0.504-0.709-0.504h-0.665V7.862z"/>
</g>
</svg>
