<svg width="142" height="20" viewBox="0 0 142 20" xmlns="http://www.w3.org/2000/svg"><title>tm logo</title><path d="M43.69 5.573c-4.224 0-7.324 3.847-7.324 7.842 0 3.823 2.5 5.623 6.2 5.623 1.375 0 2.8-.328 4.097-.724l.424-2.65c-1.25.575-2.57.924-3.946.924-2.143 0-3.394-.758-3.556-2.78h-.002c-.006-.12-.018-.236-.018-.36l.003-.07v-.037c.015-.88.206-1.75.544-2.55.643-1.64 1.557-2.77 3.53-2.77 1.4 0 2.125.77 2.125 2.148 0 .3-.024.574-.078.876h-4.58c-.297 1.01-.348 1.686-.356 2.297h7.887c.2-.948.328-1.897.328-2.872 0-3.272-2.1-4.895-5.275-4.895zm-5.68.3h-4.35l-4.67 4.67h-.054L31.163 0h-3.35L23.84 18.736h3.27l1.453-6.818h.05l3.324 6.818h3.774l-3.873-6.996 6.172-5.868zm15.947 9.316c0-.5.076-.95.15-1.25l1.224-5.62h3.002l.527-2.448h-3.003l.828-3.822-3.6 1.176-.577 2.646h-2.422l-.53 2.448h2.428l-.95 4.347c-.224 1.023-.427 1.997-.427 2.996 0 2.475 1.6 3.375 3.875 3.375.577 0 1.225-.177 1.802-.302l.575-2.6c-.43.177-1.024.3-1.628.3-.75 0-1.275-.473-1.275-1.247zm-49.56 0c0-.5.078-.95.154-1.25l1.223-5.62h3L9.3 5.872h-3l.824-3.822-3.6 1.176-.575 2.646H.522L0 8.32h2.425l-.95 4.347c-.225 1.023-.427 1.997-.427 2.996 0 2.475 1.6 3.375 3.877 3.375.573 0 1.225-.177 1.8-.302l.574-2.6c-.426.177-1.026.3-1.626.3-.75 0-1.276-.473-1.276-1.247zm13.12-2.1c0-2.422 1.497-4.92 4.172-4.92.924 0 1.796.224 2.45.65l.823-2.748c-.9-.272-2.098-.5-3.35-.5-4.624 0-7.596 3.42-7.596 7.918 0 3.324 2.15 5.548 5.47 5.548 1.102 0 2.202-.104 3.226-.603l.376-2.648c-.876.425-1.902.65-2.725.65-2.3 0-2.85-1.674-2.85-3.347zM15.248.325H11.9l-.7 3.2h3.35l.7-3.2zm-4.576 5.547l-2.75 12.864h3.35l2.748-12.864h-3.348zm75.73-.29c-1.498 0-2.948.275-4.376.776l-.472 2.673c1.323-.623 2.75-1 4.223-1 1.174 0 2.572.377 2.572 1.675 0 .375 0 .75-.1 1.1H87.08c-3.146 0-7.897.325-7.897 4.57 0 2.374 1.65 3.673 3.975 3.673 1.85 0 3-.824 4.148-2.272h.05l-.347 1.972h2.824c.3-2.423 1.574-7.47 1.574-9.195 0-3.02-2.427-3.97-5-3.97zm-2.322 11.015c-.853 0-1.704-.447-1.704-1.346 0-2.173 2.7-2.446 4.325-2.446h1.176c-.528 2.072-1.3 3.793-3.798 3.793zm-8.83-11.024c-1.8 0-3.674.774-4.526 2.448h-.052c-.174-1.55-1.75-2.447-3.274-2.447-1.577 0-3.05.698-3.948 2.023h-.05l.3-1.724h-3.124c-.076.4-.177.926-.276 1.425l-2.35 11.44h3.35l1.326-6.12c.424-1.726 1.05-4.447 3.322-4.447.853 0 1.576.6 1.576 1.548 0 .775-.25 1.974-.426 2.747l-1.35 6.27h3.352l1.32-6.12c.43-1.747 1-4.445 3.33-4.445.85 0 1.574.6 1.574 1.548 0 .775-.25 1.974-.424 2.747l-1.352 6.27h3.35l1.347-6.145c.276-1.046.576-2.35.576-3.495 0-1.95-1.65-3.522-3.572-3.522zm43.348 0c-4.22 0-7.32 3.847-7.32 7.842 0 3.823 2.5 5.623 6.198 5.623 1.376 0 2.8-.328 4.1-.724l.424-2.65c-1.25.575-2.574.924-3.95.924-2.143 0-3.395-.758-3.552-2.78h-.005c-.006-.12-.017-.236-.017-.36 0-.022 0-.047.004-.07 0-.01-.004-.026-.004-.037h.004c.013-.88.21-1.75.543-2.55.642-1.64 1.554-2.77 3.527-2.77 1.4 0 2.124.77 2.124 2.148 0 .3-.022.574-.074.876h-4.583c-.297 1.01-.353 1.686-.357 2.297h7.89c.2-.948.324-1.897.324-2.872 0-3.272-2.1-4.895-5.277-4.895zm10.7 2.722h-.05l.45-2.423h-3.202c-.096.6-.2 1.174-.297 1.724l-2.298 11.14h3.35l1.2-5.768c.426-2.077 1.573-4.198 3.947-4.198.423 0 .9.074 1.274.2l.702-3.274c-.4-.1-.85-.123-1.277-.123-1.552 0-3.2 1.324-3.8 2.722zm-21.933 6.894c0-.5.075-.95.15-1.25l1.225-5.62h2.998l.525-2.448h-2.997l.823-3.822-3.6 1.176-.572 2.646h-2.424l-.525 2.448h2.42l-.947 4.347c-.225 1.023-.425 1.997-.425 2.996 0 2.475 1.6 3.375 3.874 3.375.575 0 1.227-.177 1.8-.302l.575-2.6c-.424.177-1.027.3-1.625.3-.75 0-1.275-.473-1.275-1.247zM93.372 9.67c0 3.22 4.346 3.42 4.346 5.495 0 1.047-1.174 1.423-2.3 1.423-1.298 0-2.247-.477-3.196-1l-.728 2.675c1.226.573 2.574.775 3.925.775 2.875 0 5.797-1 5.797-4.348 0-3.146-4.348-3.747-4.348-5.37 0-1.025 1.248-1.3 2.248-1.3.95 0 1.876.275 2.236.472l.723-2.524c-.66-.168-1.91-.395-3.134-.395-2.65 0-5.57 1.075-5.57 4.096zm45.447-4.08c-1.59 0-2.882 1.29-2.882 2.88 0 1.584 1.293 2.874 2.88 2.874s2.88-1.29 2.88-2.875c0-1.59-1.293-2.88-2.88-2.88zm.006 5.326c-1.338 0-2.34-1.07-2.34-2.447 0-1.38 1.002-2.45 2.34-2.45 1.324 0 2.323 1.07 2.323 2.45 0 1.377-1 2.446-2.324 2.446zm1.34-3.187c0-.64-.38-.953-1.156-.953h-1.29v3.373h.548V8.66h.46l.946 1.49h.582l-.96-1.49c.528 0 .87-.39.87-.93zm-1.898.5V7.21h.653c.353 0 .697.11.697.493 0 .438-.275.526-.696.526h-.652z" fill="#414141" fill-rule="evenodd"/></svg>