<svg width="16" height="16" viewBox="0 0 16 16" xmlns="http://www.w3.org/2000/svg"><title>TWITTER</title><g fill="none" fill-rule="evenodd"><rect fill="#00C0DF" width="16" height="16" rx="3"/><path d="M12.966 4.76c-.38.17-.786.282-1.214.334.437-.262.772-.676.93-1.17-.41.243-.86.42-1.342.514-.386-.412-.935-.668-1.542-.668-1.167 0-2.113.946-2.113 2.113 0 .166.02.327.055.482-1.757-.088-3.314-.93-4.356-2.208-.18.312-.286.675-.286 1.062 0 .733.35 1.38.917 1.758-.346-.01-.612-.106-.98-.265v.027c0 1.023.752 1.878 1.718 2.073-.177.048-.352.073-.545.073-.136 0-.263-.013-.392-.037.27.838 1.052 1.45 1.977 1.466-.723.566-1.633.905-2.623.905-.17 0-.338-.01-.503-.03.935.6 2.046.95 3.24.95 3.885 0 6.01-3.22 6.01-6.012 0-.09 0-.183-.005-.273.413-.298.77-.67 1.054-1.094" fill="#FFF"/></g></svg>
