<?xml version="1.0" encoding="UTF-8" standalone="no"?>
<svg width="176px" height="28px" viewBox="0 0 176 28" version="1.1" xmlns="http://www.w3.org/2000/svg" xmlns:xlink="http://www.w3.org/1999/xlink" xmlns:sketch="http://www.bohemiancoding.com/sketch/ns">
    <!-- Generator: Sketch 3.3.3 (12072) - http://www.bohemiancoding.com/sketch -->
    <title>Ticketmaster verified</title>
    <desc>Ticketmaster Verified logo</desc>
    <defs></defs>
    <g id="Ticketmaster-Pattern-Library" stroke="none" stroke-width="1" fill="none" fill-rule="evenodd" sketch:type="MSPage">
        <g id="Atoms" sketch:type="MSArtboardGroup" transform="translate(-57.000000, -411.000000)">
            <g id="logos" sketch:type="MSLayerGroup" transform="translate(30.000000, 114.000000)">
                <g id="ticketmaster-verified" transform="translate(0.000000, 221.000000)" sketch:type="MSShapeGroup">
                    <g id="verified-dark-bkg" transform="translate(0.000000, 48.000000)">
                        <g id="verfied-dark-bkg" transform="translate(27.500000, 28.422414)">
                            <path d="M86.5021197,18.2706389 L86.4709889,18.2706389 C85.7134728,19.2250634 84.9567548,19.7665695 83.7394607,19.7665695 C82.2052709,19.7665695 81.1228769,18.9119802 81.1228769,17.3497591 C81.1228769,14.5471856 84.246334,14.3339376 86.3233172,14.3339376 L87.093605,14.3339376 C87.1614542,14.1015213 87.1614542,13.8555274 87.1614542,13.6079361 C87.1614542,12.7533469 86.2387053,12.5073529 85.4676193,12.5073529 C84.4921875,12.5073529 83.5574652,12.7533469 82.6842064,13.1630705 L82.9963126,11.4051724 C83.9342278,11.0745183 84.8897039,10.8948149 85.8763108,10.8948149 C87.5733386,10.8948149 89.166597,11.5201826 89.166597,13.510497 C89.166597,14.6486182 88.3276619,17.9727307 88.1320966,19.5724899 L86.2714325,19.5724899 L86.5021197,18.2706389 M84.3437175,18.1556288 C85.9928518,18.1556288 86.5021197,17.0207023 86.846155,15.6549569 L86.0758672,15.6549569 C85.0030519,15.6549569 83.2301927,15.8346602 83.2301927,17.2674949 C83.2301927,17.8561232 83.7913454,18.1556288 84.3437175,18.1556288" id="Fill-1" fill="#FFFFFF"></path>
                            <path d="M29.3363899,11.0817064 L30.9280519,11.0817064 L31.3080074,9.33818458 L33.6771411,8.56346349 L33.1375406,11.0817064 L35.109158,11.0817064 L34.7643245,12.6966405 L32.7863213,12.6966405 L31.9817098,16.4009255 C31.9306234,16.6005958 31.8827298,16.8929133 31.8827298,17.2259635 C31.8827298,17.7347236 32.2291598,18.0502028 32.7248579,18.0502028 C33.1183832,18.0502028 33.5127067,17.9647439 33.7920856,17.8537272 L33.4161214,19.5613083 C33.0337713,19.6467672 32.6075187,19.757784 32.2291598,19.757784 C30.7340831,19.757784 29.679627,19.1731491 29.679627,17.538248 C29.679627,16.8825304 29.810536,16.2395918 29.9582077,15.5623098 L30.5832184,12.6966405 L28.9843724,12.6966405 L29.3363899,11.0817064" id="Fill-2" fill="#FFFFFF"></path>
                            <path d="M36.0151441,11.0817064 L38.2158523,11.0817064 L36.4110641,19.5613083 L34.2047683,19.5613083 L36.0151441,11.0817064 L36.0151441,11.0817064 Z M36.8237468,7.42773834 L39.0260514,7.42773834 L38.5670716,9.53545892 L36.3591794,9.53545892 L36.8237468,7.42773834 L36.8237468,7.42773834 Z" id="Fill-3" fill="#FFFFFF"></path>
                            <path d="M44.8834314,13.0256973 C44.4531877,12.7469574 43.8752723,12.597604 43.2670244,12.597604 C41.5069368,12.597604 40.5163387,14.2460827 40.5163387,15.840251 C40.5163387,16.9440289 40.8843208,18.0486055 42.3969584,18.0486055 C42.936559,18.0486055 43.6126561,17.899252 44.188975,17.6197135 L43.9431215,19.3672287 C43.2670244,19.6954868 42.5430337,19.757784 41.8206395,19.757784 C39.62951,19.757784 38.2142559,18.2953981 38.2142559,16.1070106 C38.2142559,13.1399087 40.1723035,10.8860294 43.2151397,10.8860294 C44.0373122,10.8860294 44.8299503,11.0305908 45.4246284,11.2166836 L44.8834314,13.0256973" id="Fill-4" fill="#FFFFFF"></path>
                            <path d="M47.2956694,7.21688641 L49.5027633,7.21688641 L48.0380192,14.1622211 L48.0739394,14.1622211 L51.1479065,11.0833038 L54.0119402,11.0833038 L49.9481733,14.9521171 L52.4977061,19.5613083 L50.0168207,19.5613083 L47.8224983,15.0687246 L47.792964,15.0687246 L46.838286,19.5613083 L44.683875,19.5613083 L47.2956694,7.21688641" id="Fill-5" fill="#FFFFFF"></path>
                            <path d="M61.9646626,11.0817064 L63.557921,11.0817064 L63.9394729,9.33818458 L66.3078084,8.56346349 L65.7642168,11.0817064 L67.7398253,11.0817064 L67.3989829,12.6966405 L65.418585,12.6966405 L64.6099824,16.4009255 C64.5644836,16.6005958 64.5125989,16.8929133 64.5125989,17.2259635 C64.5125989,17.7347236 64.8582306,18.0502028 65.3531305,18.0502028 C65.7450593,18.0502028 66.140181,17.9647439 66.4203583,17.8537272 L66.0427975,19.5613083 C65.666035,19.6467672 65.2365896,19.757784 64.8582306,19.757784 C63.3623557,19.757784 62.309496,19.1731491 62.309496,17.538248 C62.309496,16.8825304 62.4404051,16.2395918 62.5864804,15.5623098 L63.2130875,12.6966405 L61.6150397,12.6966405 L61.9646626,11.0817064" id="Fill-6" fill="#FFFFFF"></path>
                            <path d="M61.2239091,14.1127028 C61.2239091,11.9538666 59.8453734,10.8860294 57.7524257,10.8860294 C54.9722057,10.8860294 52.9279497,13.4234407 52.9279497,16.055895 C52.9279497,18.5773327 54.5730928,19.757784 57.0116723,19.757784 C57.9176584,19.757784 58.8547753,19.5477307 59.7072803,19.2857632 L59.989054,17.538248 C59.1668816,17.9184204 58.2952191,18.1452459 57.3884348,18.1452459 C55.9787682,18.1452459 55.1581922,17.6476673 55.0472389,16.3138692 L55.0456424,16.3138692 C55.0456424,16.2363971 55.033669,16.1581263 55.033669,16.0782581 L55.033669,16.0015847 L55.0408531,16.0015847 C55.0456424,15.4273327 55.1733585,14.854678 55.3984582,14.3251521 C55.822316,13.244536 56.420187,12.5017622 57.7196984,12.5017622 C58.6408509,12.5017622 59.1173916,13.0105223 59.1173916,13.9154285 C59.1173916,14.1127028 59.1014271,14.2940035 59.069498,14.4928753 L56.0530032,14.4928753 C55.8534468,15.1573783 55.822316,15.6022439 55.8175266,16.0015847 L61.0115811,16.0015847 C61.1408937,15.3794118 61.2239091,14.7548428 61.2239091,14.1127028" id="Fill-7" fill="#FFFFFF"></path>
                            <path d="M68.693705,12.0209559 C68.7551684,11.6903017 68.8222193,11.3508621 68.8725075,11.0817064 L70.9287369,11.0817064 L70.7307769,12.2174315 L70.7635041,12.2174315 C71.3581823,11.3508621 72.3248336,10.8860294 73.3649216,10.8860294 C74.3682913,10.8860294 75.4059847,11.4778524 75.5193327,12.5017622 L75.55206,12.5017622 C76.1100197,11.3979843 77.3464713,10.8860294 78.5310382,10.8860294 C79.7986205,10.8860294 80.8866021,11.9251141 80.8866021,13.2101927 C80.8866021,13.9641481 80.6910368,14.819536 80.5082432,15.5111942 L79.619818,19.5613083 L77.4135222,19.5613083 L78.300351,15.4297287 C78.4144972,14.9161765 78.5789317,14.1310725 78.5789317,13.620715 C78.5789317,12.991354 78.1063821,12.597604 77.5444312,12.597604 C76.0158291,12.597604 75.6358737,14.3746704 75.3556964,15.5311613 L74.484034,19.5613083 L72.2801329,19.5613083 L73.1629705,15.4297287 C73.2835026,14.9161765 73.4471389,14.1310725 73.4471389,13.620715 C73.4471389,12.991354 72.9690017,12.597604 72.4086473,12.597604 C70.9167635,12.597604 70.4968968,14.3914427 70.2215089,15.5311613 L69.3490483,19.5613083 L67.1419543,19.5613083 L68.693705,12.0209559" id="Fill-8" fill="#FFFFFF"></path>
                            <path d="M95.7192316,12.8108519 C95.4813603,12.6822642 94.8723142,12.5017622 94.245707,12.5017622 C93.5903637,12.5017622 92.770586,12.6822642 92.770586,13.3555527 C92.770586,14.4273834 95.6330232,14.8211334 95.6330232,16.893712 C95.6330232,19.1004691 93.7037118,19.757784 91.8071276,19.757784 C90.9274829,19.757784 90.0326719,19.6307936 89.2288586,19.2498225 L89.7061976,17.4887297 C90.3288136,17.8361562 90.9530261,18.1452459 91.8071276,18.1452459 C92.5518721,18.1452459 93.326151,17.9016481 93.326151,17.2099899 C93.326151,15.840251 90.4605209,15.7108646 90.4605209,13.5879691 C90.4605209,11.5928626 92.3866394,10.8860294 94.1379465,10.8860294 C94.9401633,10.8860294 95.7639322,11.0305908 96.1989652,11.1487956 L95.7192316,12.8108519" id="Fill-9" fill="#FFFFFF"></path>
                            <path d="M97.1273017,11.0817064 L98.7277442,11.0817064 L99.102112,9.33818458 L101.472842,8.56346349 L100.928452,11.0817064 L102.905657,11.0817064 L102.558429,12.6966405 L100.578829,12.6966405 L99.7782091,16.4009255 C99.7263245,16.6005958 99.6768345,16.8929133 99.6768345,17.2259635 C99.6768345,17.7347236 100.026457,18.0502028 100.518963,18.0502028 C100.910891,18.0502028 101.306811,17.9647439 101.586989,17.8537272 L101.211024,19.5613083 C100.827078,19.6467672 100.401623,19.757784 100.026457,19.757784 C98.5281877,19.757784 97.4761263,19.1731491 97.4761263,17.538248 C97.4761263,16.8825304 97.6054389,16.2395918 97.7491195,15.5623098 L98.3765249,12.6966405 L96.7824682,12.6966405 L97.1273017,11.0817064" id="Fill-10" fill="#FFFFFF"></path>
                            <path d="M112.080463,12.2174315 C112.149111,11.8556288 112.212969,11.4794498 112.276029,11.0833038 L114.382546,11.0833038 L114.083211,12.6822642 L114.123123,12.6822642 C114.513455,11.757391 115.601437,10.8860294 116.622367,10.8860294 C116.904939,10.8860294 117.19709,10.902003 117.45811,10.9650989 L116.997533,13.1255325 C116.753276,13.0416709 116.442767,12.991354 116.160993,12.991354 C114.598067,12.991354 113.839753,14.3898453 113.557181,15.7587855 L112.773323,19.5613083 L110.563834,19.5613083 L112.080463,12.2174315" id="Fill-11" fill="#FFFFFF"></path>
                            <path d="M110.548668,14.1127028 C110.548668,11.9538666 109.167738,10.8860294 107.077185,10.8860294 C104.293772,10.8860294 102.254305,13.4234407 102.254305,16.055895 C102.254305,18.5773327 103.902641,19.757784 106.334835,19.757784 C107.239225,19.757784 108.179534,19.5477307 109.035232,19.2857632 L109.31062,17.538248 C108.492439,17.9184204 107.620776,18.1452459 106.716387,18.1452459 C105.299536,18.1452459 104.479758,17.6476673 104.375989,16.3138692 L104.3712,16.3138692 C104.36641,16.2363971 104.360823,16.1581263 104.360823,16.0782581 C104.360823,16.0614858 104.362419,16.0487069 104.362419,16.0303372 L104.362419,16.0015847 C104.3712,15.4273327 104.499714,14.854678 104.724015,14.3251521 C105.143882,13.244536 105.741753,12.5017622 107.043659,12.5017622 C107.968005,12.5017622 108.442949,13.0105223 108.442949,13.9154285 C108.442949,14.1127028 108.422993,14.2940035 108.391064,14.4928753 L105.380157,14.4928753 C105.178206,15.1573783 105.143882,15.6022439 105.142286,16.0015847 L110.33634,16.0015847 C110.469644,15.3794118 110.548668,14.7548428 110.548668,14.1127028" id="Fill-12" fill="#FFFFFF"></path>
                            <path d="M119.310791,10.9914554 L121.592919,10.9914554 L122.457397,17.2882606 L122.490124,17.2882606 L125.87061,10.9914554 L128.234156,10.9914554 L123.223694,19.5708925 L120.758773,19.5708925 L119.310791,10.9914554" id="Fill-13" fill="#009CDE"></path>
                            <path d="M129.318945,15.9728322 C129.318945,17.5542216 130.165862,18.1380578 131.699254,18.1380578 C132.61402,18.1380578 133.496858,17.9048428 134.330206,17.5222743 L134.046037,19.2881592 C133.181559,19.5533215 132.23167,19.7705629 131.316105,19.7705629 C128.852781,19.7705629 127.186086,18.5717419 127.186086,16.0215517 C127.186086,13.3563514 129.251894,10.791785 132.064841,10.791785 C134.178543,10.791785 135.577832,11.8731998 135.577832,14.0567951 C135.577832,14.7053245 135.494817,15.338679 135.360715,15.9728322 L129.318945,15.9728322 L129.318945,15.9728322 Z M133.39708,14.4401623 C133.429807,14.2404919 133.448166,14.0567951 133.448166,13.8555274 C133.448166,12.941037 132.964442,12.4242901 132.030517,12.4242901 C130.651183,12.4242901 130.05012,13.2565162 129.618279,14.4401623 L133.39708,14.4401623 L133.39708,14.4401623 Z" id="Fill-14" fill="#009CDE"></path>
                            <path d="M137.302,12.1407581 C137.369051,11.7741633 137.434505,11.3923935 137.503153,10.9930527 L139.632819,10.9930527 L139.333484,12.6071881 L139.367808,12.6071881 C139.765324,11.6743281 140.865279,10.791785 141.897385,10.791785 C142.181553,10.791785 142.48009,10.8077586 142.746697,10.8748479 L142.281332,13.0568458 C142.030689,12.9745816 141.71539,12.923466 141.431221,12.923466 C139.849936,12.923466 139.08364,14.3395284 138.801068,15.7220461 L138.001245,19.5700938 L135.770205,19.5700938 L137.302,12.1407581" id="Fill-15" fill="#009CDE"></path>
                            <path d="M143.45153,10.9930527 L145.684168,10.9930527 L143.85224,19.5700938 L141.620401,19.5700938 L143.45153,10.9930527 L143.45153,10.9930527 Z M144.268913,7.29355984 L146.499954,7.29355984 L146.032992,9.42603955 L143.801153,9.42603955 L144.268913,7.29355984 L144.268913,7.29355984 Z" id="Fill-16" fill="#009CDE"></path>
                            <path d="M147.834588,12.6255578 L146.104034,12.6255578 L146.452061,10.9930527 L148.185009,10.9930527 C148.632813,8.8094574 149.366383,6.87584939 151.962213,6.87584939 C152.478665,6.87584939 152.978354,6.97568458 153.344739,7.09388945 L152.828287,8.75914047 C152.628731,8.66090264 152.378886,8.60818966 152.146603,8.60818966 C150.912546,8.60818966 150.630772,10.09214 150.414453,10.9930527 L152.41321,10.9930527 L152.063587,12.6255578 L150.066427,12.6255578 L148.601682,19.5700938 L146.369045,19.5700938 L147.834588,12.6255578" id="Fill-17" fill="#009CDE"></path>
                            <path d="M153.232988,10.9930527 L155.464029,10.9930527 L153.632101,19.5700938 L151.401858,19.5700938 L153.232988,10.9930527 L153.232988,10.9930527 Z M154.048774,7.29355984 L156.279815,7.29355984 L155.813651,9.42603955 L153.582611,9.42603955 L154.048774,7.29355984 L154.048774,7.29355984 Z" id="Fill-18" fill="#009CDE"></path>
                            <path d="M157.710236,15.9728322 C157.710236,17.5542216 158.560346,18.1380578 160.090545,18.1380578 C161.007706,18.1380578 161.888947,17.9048428 162.720698,17.5222743 L162.438126,19.2881592 C161.57285,19.5533215 160.623759,19.7705629 159.708194,19.7705629 C157.243274,19.7705629 155.578973,18.5717419 155.578973,16.0215517 C155.578973,13.3563514 157.643185,10.791785 160.45693,10.791785 C162.570632,10.791785 163.969921,11.8731998 163.969921,14.0567951 C163.969921,14.7053245 163.886108,15.338679 163.753602,15.9728322 L157.710236,15.9728322 L157.710236,15.9728322 Z M161.788371,14.4401623 C161.823492,14.2404919 161.839457,14.0567951 161.839457,13.8555274 C161.839457,12.941037 161.357329,12.4242901 160.424203,12.4242901 C159.040878,12.4242901 158.443007,13.2565162 158.00957,14.4401623 L161.788371,14.4401623 L161.788371,14.4401623 Z" id="Fill-19" fill="#009CDE"></path>
                            <path d="M174.781888,7.07711714 L172.46863,17.6724265 C172.335326,18.4048174 172.202821,19.1380071 172.151734,19.5708925 L170.073155,19.5708925 L170.287079,18.3041836 L170.254352,18.3041836 C169.588632,19.238641 168.755284,19.7689655 167.457369,19.7689655 C165.425885,19.7689655 164.51032,18.0717672 164.51032,16.2068458 C164.51032,13.6390847 165.908013,10.7901876 168.822335,10.7901876 C169.92229,10.7901876 170.772401,11.2086968 171.470848,12.0065796 L172.552444,7.07711714 L174.781888,7.07711714 L174.781888,7.07711714 Z M166.841139,16.0055781 C166.841139,16.8721476 167.107746,18.0382226 168.207701,18.0382226 C169.839275,18.0382226 170.803531,16.1381592 170.803531,14.5567698 C170.803531,13.5576192 170.321403,12.5241253 169.189519,12.5241253 C167.591471,12.5241253 166.841139,14.7236942 166.841139,16.0055781 L166.841139,16.0055781 Z" id="Fill-20" fill="#009CDE"></path>
                            <path d="M0.0686474079,16.3577967 L0.125321431,16.3849518 L0.0790243416,16.3378296 L0.0686474079,16.3577967" id="Fill-21" fill="#414141"></path>
                            <path d="M0.0686474079,16.3266481 L0.0790243416,16.3378296 L0.0933924038,16.3026876 L0.0686474079,16.3266481" id="Fill-22" fill="#414141"></path>
                            <path d="M6.96372077,17.7219447 C6.97569416,17.7459052 6.98367641,17.7730603 6.99485157,17.8002155 C7.00682496,17.7906313 7.01959657,17.7842419 7.03156995,17.7778524 C7.01001786,17.7594828 6.98766754,17.7403144 6.96372077,17.7219447" id="Fill-23" fill="#414141"></path>
                            <path d="M20.7227367,8.12898073 C20.2406084,8.61378043 19.6068172,8.85498225 18.9746225,8.85498225 C18.3408313,8.85498225 17.7062419,8.61378043 17.2241136,8.12898073 C16.2582605,7.16257606 16.2582605,5.59556288 17.2241136,4.62756085 L14.4925853,1.89606998 L11.7259351,4.6643002 C11.6572877,4.64193712 11.5894385,4.61478195 11.5223876,4.58363337 C10.4511687,4.08845081 9.98261027,2.81854716 10.4775102,1.74751521 L7.44744553,0.349023834 L0.0933924038,16.3026876 L0.0790243416,16.3378296 L0.125321431,16.3849518 L2.80017566,19.060535 C3.28230397,18.5773327 3.91609515,18.3353322 4.55068456,18.3353322 C4.99130513,18.3353322 5.43352216,18.4567317 5.82545096,18.6915441 C6.00185884,18.5142368 6.1902401,18.3481111 6.38899829,18.1971602 C6.5821689,18.0525989 6.78412,17.9184204 6.99485157,17.7994168 C6.98287819,17.7730603 6.97569416,17.7459052 6.96372077,17.7219447 C6.27565024,17.1828347 5.43751329,16.8881212 4.55068456,16.8881212 C4.26651622,16.8881212 3.98793546,16.9176724 3.71733696,16.9767748 C3.46829055,17.0294878 3.22642817,17.1061613 2.9941445,17.2059965 L2.53516474,16.7467546 L2.11689449,16.3266481 L12.3046488,6.13706897 L13.0485951,5.38870436 L14.4925853,3.94468813 L15.3698353,4.82164047 C15.1614984,5.30883621 15.0513433,5.83516734 15.0513433,6.37827079 C15.0513433,6.56915568 15.0697025,6.75764452 15.0968422,6.94293864 C15.1479286,7.30633874 15.248505,7.65695994 15.3985715,7.9876141 C15.5917421,8.41730477 15.8575512,8.81185345 16.2007883,9.15528651 C16.9415417,9.89646298 17.9265522,10.3029919 18.9746225,10.3029919 C19.5166177,10.3029919 20.0442449,10.1943712 20.5295661,9.98511663 L21.4060179,10.8628676 L13.5059784,18.7658215 C13.674404,18.9407328 13.830058,19.1268256 13.9721422,19.3248986 C14.1190157,19.5253676 14.2499247,19.7354209 14.3672639,19.9566557 L23.454265,10.8628676 L20.7227367,8.12898073 L20.7227367,8.12898073 Z M8.92256657,2.52782708 C8.88265529,3.80092546 9.54278792,5.03808316 10.7002151,5.69140467 L2.87520887,13.5192825 L8.11396397,2.15324544 L8.92256657,2.52782708 L8.92256657,2.52782708 Z" id="Fill-24" fill="#FFFFFF"></path>
                            <path d="M13.7222975,20.600393 C13.6169318,20.3719701 13.4971979,20.1507353 13.3543155,19.9446755 C13.2186171,19.7410117 13.0621649,19.5541202 12.8953357,19.3784102 C12.075558,18.5102434 10.9173325,17.96714 9.62979452,17.96714 C8.92256657,17.96714 8.25604814,18.1340644 7.65897533,18.4263818 C7.49054972,18.508646 7.3285099,18.5988971 7.17046122,18.7003296 C7.12336591,18.7298808 7.07706882,18.7658215 7.03156995,18.7969701 C6.83520644,18.9367394 6.64762341,19.0908849 6.47680311,19.2578093 C5.64585019,20.0756592 5.12939818,21.2121831 5.12939818,22.4709052 C5.12939818,24.9556034 7.144918,26.9738717 9.62979452,26.9738717 C12.1154693,26.9738717 14.1325855,24.9556034 14.1325855,22.4709052 C14.1325855,21.8032074 13.9817209,21.172249 13.7222975,20.600393" id="Fill-25" fill="#009CDE"></path>
                            <path d="M9.12611412,25.2047921 L6.75298919,22.8263185 L7.78030564,21.7936232 L9.12451767,23.1465898 L11.9677975,20.2952967 L12.9967104,21.3247972 L9.12611412,25.2047921" id="Fill-26" fill="#FFFFFF"></path>
                            <path d="M117.004717,16.0702713 C118.023253,16.0702713 118.859794,16.8985041 118.859794,17.9184204 C118.859794,18.9439275 118.023253,19.7705629 117.004717,19.7705629 C115.985383,19.7705629 115.156027,18.9439275 115.156027,17.9184204 C115.156027,16.8985041 115.985383,16.0702713 117.004717,16.0702713 L117.004717,16.0702713 Z M117.014296,19.4926217 C117.861214,19.4926217 118.50618,18.809749 118.50618,17.9184204 C118.50618,17.0318839 117.861214,16.3434204 117.014296,16.3434204 C116.150616,16.3434204 115.509641,17.0318839 115.509641,17.9184204 C115.509641,18.809749 116.150616,19.4926217 117.014296,19.4926217 L117.014296,19.4926217 Z M116.295095,16.8298174 L117.130039,16.8298174 C117.631325,16.8298174 117.87159,17.0318839 117.87159,17.4416075 C117.87159,17.7906313 117.653675,18.0438134 117.314429,18.0438134 L117.932256,18.9982378 L117.558686,18.9982378 L116.948043,18.0438134 L116.653498,18.0438134 L116.653498,18.9982378 L116.295095,18.9982378 L116.295095,16.8298174 L116.295095,16.8298174 Z M116.653498,17.7674696 L117.071768,17.7674696 C117.343165,17.7674696 117.519573,17.7075685 117.519573,17.4288286 C117.519573,17.1828347 117.304052,17.109356 117.071768,17.109356 L116.653498,17.109356 L116.653498,17.7674696 L116.653498,17.7674696 Z" id="Fill-27" fill="#FFFFFF"></path>
                        </g>
                    </g>
                </g>
            </g>
        </g>
    </g>
</svg>
